<svg width="1663" height="236" viewBox="0 0 1663 236" fill="none" xmlns="http://www.w3.org/2000/svg">
<g id="Graphic Side">
<g clip-path="url(#clip0_5_5194)">
<path d="M0 0H1663V220C1663 228.837 1655.84 236 1647 236H16C7.16341 236 0 228.837 0 220V0Z" fill="url(#paint0_radial_5_5194)"/>
<g id="Big Circles">
<g id="Ellipse 5" style="mix-blend-mode:multiply" opacity="0.75" filter="url(#filter0_i_5_5194)">
<ellipse cx="1057" cy="753.307" rx="1056.31" ry="1078" transform="rotate(90 1057 753.307)" fill="white"/>
</g>
<g id="Ellipse 4" style="mix-blend-mode:multiply" opacity="0.75" filter="url(#filter1_i_5_5194)">
<ellipse cx="814.164" cy="753.307" rx="817.689" ry="835.164" transform="rotate(90 814.164 753.307)" fill="white"/>
</g>
<g id="Ellipse 3" style="mix-blend-mode:multiply" opacity="0.75" filter="url(#filter2_i_5_5194)">
<ellipse cx="782.228" cy="831.642" rx="694.765" ry="709.226" transform="rotate(90 782.228 831.642)" fill="white"/>
</g>
</g>
<path id="Title" d="M66.293 49.4258L58.5586 73H52.3281L62.8945 44.5625H66.8594L66.293 49.4258ZM72.7188 73L64.9648 49.4258L64.3398 44.5625H68.3438L78.9688 73H72.7188ZM72.3672 62.4141V67.0039H57.3477V62.4141H72.3672ZM93.7344 68.3906V43H99.3984V73H94.3008L93.7344 68.3906ZM80.375 62.6875V62.2773C80.375 60.6628 80.5573 59.1979 80.9219 57.8828C81.2865 56.5547 81.8203 55.4154 82.5234 54.4648C83.2266 53.5143 84.0924 52.7786 85.1211 52.2578C86.1497 51.737 87.3216 51.4766 88.6367 51.4766C89.8737 51.4766 90.9544 51.737 91.8789 52.2578C92.8164 52.7786 93.6107 53.5208 94.2617 54.4844C94.9258 55.4349 95.4596 56.5612 95.8633 57.8633C96.2669 59.1523 96.5599 60.5651 96.7422 62.1016V63C96.5599 64.4714 96.2669 65.8385 95.8633 67.1016C95.4596 68.3646 94.9258 69.4714 94.2617 70.4219C93.6107 71.3594 92.8164 72.0885 91.8789 72.6094C90.9414 73.1302 89.8477 73.3906 88.5977 73.3906C87.2826 73.3906 86.1107 73.1237 85.082 72.5898C84.0664 72.056 83.207 71.3073 82.5039 70.3438C81.8138 69.3802 81.2865 68.2474 80.9219 66.9453C80.5573 65.6432 80.375 64.224 80.375 62.6875ZM86 62.2773V62.6875C86 63.5599 86.0651 64.3737 86.1953 65.1289C86.3385 65.8841 86.5664 66.5547 86.8789 67.1406C87.2044 67.7135 87.6211 68.1628 88.1289 68.4883C88.6497 68.8008 89.2812 68.957 90.0234 68.957C90.987 68.957 91.7812 68.7422 92.4062 68.3125C93.0312 67.8698 93.5065 67.2643 93.832 66.4961C94.1706 65.7279 94.3659 64.8424 94.418 63.8398V61.2812C94.3789 60.4609 94.2617 59.7253 94.0664 59.0742C93.8841 58.4102 93.6107 57.8438 93.2461 57.375C92.8945 56.9062 92.4518 56.5417 91.918 56.2812C91.3971 56.0208 90.7786 55.8906 90.0625 55.8906C89.3333 55.8906 88.7083 56.0599 88.1875 56.3984C87.6667 56.724 87.2435 57.1732 86.918 57.7461C86.6055 58.319 86.3711 58.9961 86.2148 59.7773C86.0716 60.5456 86 61.3789 86 62.2773ZM109.418 56.2422V73H103.773V51.8672H109.066L109.418 56.2422ZM108.637 61.6914H107.074C107.074 60.2201 107.25 58.8659 107.602 57.6289C107.966 56.3789 108.493 55.2982 109.184 54.3867C109.887 53.4622 110.753 52.7461 111.781 52.2383C112.81 51.7305 114.001 51.4766 115.355 51.4766C116.293 51.4766 117.152 51.6198 117.934 51.9062C118.715 52.1797 119.385 52.6159 119.945 53.2148C120.518 53.8008 120.961 54.569 121.273 55.5195C121.586 56.457 121.742 57.5833 121.742 58.8984V73H116.117V59.5234C116.117 58.5599 115.987 57.8177 115.727 57.2969C115.466 56.776 115.095 56.4115 114.613 56.2031C114.145 55.9948 113.578 55.8906 112.914 55.8906C112.185 55.8906 111.547 56.0404 111 56.3398C110.466 56.6393 110.023 57.056 109.672 57.5898C109.32 58.1107 109.06 58.7227 108.891 59.4258C108.721 60.1289 108.637 60.8841 108.637 61.6914ZM121.215 61.0469L119.203 61.3008C119.203 59.9206 119.372 58.638 119.711 57.4531C120.062 56.2682 120.577 55.2266 121.254 54.3281C121.944 53.4297 122.797 52.7331 123.812 52.2383C124.828 51.7305 126 51.4766 127.328 51.4766C128.344 51.4766 129.268 51.6263 130.102 51.9258C130.935 52.2122 131.645 52.6745 132.23 53.3125C132.829 53.9375 133.285 54.7578 133.598 55.7734C133.923 56.7891 134.086 58.0326 134.086 59.5039V73H128.441V59.5039C128.441 58.5273 128.311 57.7852 128.051 57.2773C127.803 56.7565 127.439 56.3984 126.957 56.2031C126.488 55.9948 125.928 55.8906 125.277 55.8906C124.6 55.8906 124.008 56.0273 123.5 56.3008C122.992 56.5612 122.569 56.9258 122.23 57.3945C121.892 57.8633 121.638 58.4102 121.469 59.0352C121.299 59.6471 121.215 60.3177 121.215 61.0469ZM144.379 51.8672V73H138.734V51.8672H144.379ZM138.383 46.3594C138.383 45.5391 138.669 44.862 139.242 44.3281C139.815 43.7943 140.583 43.5273 141.547 43.5273C142.497 43.5273 143.259 43.7943 143.832 44.3281C144.418 44.862 144.711 45.5391 144.711 46.3594C144.711 47.1797 144.418 47.8568 143.832 48.3906C143.259 48.9245 142.497 49.1914 141.547 49.1914C140.583 49.1914 139.815 48.9245 139.242 48.3906C138.669 47.8568 138.383 47.1797 138.383 46.3594ZM154.535 56.3789V73H148.91V51.8672H154.184L154.535 56.3789ZM153.715 61.6914H152.191C152.191 60.1289 152.393 58.7227 152.797 57.4727C153.201 56.2096 153.767 55.1354 154.496 54.25C155.225 53.3516 156.091 52.668 157.094 52.1992C158.109 51.7174 159.242 51.4766 160.492 51.4766C161.482 51.4766 162.387 51.6198 163.207 51.9062C164.027 52.1927 164.73 52.6484 165.316 53.2734C165.915 53.8984 166.371 54.7253 166.684 55.7539C167.009 56.7826 167.172 58.0391 167.172 59.5234V73H161.508V59.5039C161.508 58.5664 161.378 57.8372 161.117 57.3164C160.857 56.7956 160.473 56.431 159.965 56.2227C159.47 56.0013 158.858 55.8906 158.129 55.8906C157.374 55.8906 156.716 56.0404 156.156 56.3398C155.609 56.6393 155.154 57.056 154.789 57.5898C154.438 58.1107 154.171 58.7227 153.988 59.4258C153.806 60.1289 153.715 60.8841 153.715 61.6914ZM182.875 67.1602C182.875 66.7565 182.758 66.3919 182.523 66.0664C182.289 65.7409 181.853 65.4414 181.215 65.168C180.59 64.8815 179.685 64.6211 178.5 64.3867C177.432 64.1523 176.436 63.8594 175.512 63.5078C174.6 63.1432 173.806 62.707 173.129 62.1992C172.465 61.6914 171.944 61.0924 171.566 60.4023C171.189 59.6992 171 58.8984 171 58C171 57.1146 171.189 56.2812 171.566 55.5C171.957 54.7188 172.51 54.0286 173.227 53.4297C173.956 52.8177 174.841 52.3424 175.883 52.0039C176.938 51.6523 178.122 51.4766 179.438 51.4766C181.273 51.4766 182.849 51.7695 184.164 52.3555C185.492 52.9414 186.508 53.7487 187.211 54.7773C187.927 55.793 188.285 56.9518 188.285 58.2539H182.66C182.66 57.707 182.543 57.2188 182.309 56.7891C182.087 56.3464 181.736 56.0013 181.254 55.7539C180.785 55.4935 180.173 55.3633 179.418 55.3633C178.793 55.3633 178.253 55.474 177.797 55.6953C177.341 55.9036 176.99 56.1901 176.742 56.5547C176.508 56.9062 176.391 57.2969 176.391 57.7266C176.391 58.0521 176.456 58.3451 176.586 58.6055C176.729 58.8529 176.957 59.0807 177.27 59.2891C177.582 59.4974 177.986 59.6927 178.48 59.875C178.988 60.0443 179.613 60.2005 180.355 60.3438C181.879 60.6562 183.24 61.0664 184.438 61.5742C185.635 62.069 186.586 62.7461 187.289 63.6055C187.992 64.4518 188.344 65.5651 188.344 66.9453C188.344 67.8828 188.135 68.7422 187.719 69.5234C187.302 70.3047 186.703 70.9883 185.922 71.5742C185.141 72.1471 184.203 72.5964 183.109 72.9219C182.029 73.2344 180.811 73.3906 179.457 73.3906C177.491 73.3906 175.824 73.0391 174.457 72.3359C173.103 71.6328 172.074 70.7409 171.371 69.6602C170.681 68.5664 170.336 67.4466 170.336 66.3008H175.668C175.694 67.069 175.889 67.6875 176.254 68.1562C176.632 68.625 177.107 68.9635 177.68 69.1719C178.266 69.3802 178.897 69.4844 179.574 69.4844C180.303 69.4844 180.909 69.3867 181.391 69.1914C181.872 68.9831 182.237 68.7096 182.484 68.3711C182.745 68.0195 182.875 67.6159 182.875 67.1602Z" fill="white"/>
<path id="Description" d="M58.1816 112.328L61.4385 99.6484H63.1455L62.9546 102.917L59.4731 116H57.6987L58.1816 112.328ZM55.7446 99.6484L58.3838 112.227L58.6196 116H56.7329L52.9482 99.6484H55.7446ZM66.8403 112.193L69.4458 99.6484H72.2534L68.4688 116H66.582L66.8403 112.193ZM63.8081 99.6484L67.0312 112.361L67.5029 116H65.7285L62.3032 102.917L62.1235 99.6484H63.8081ZM76.7456 98.75V116H74.0503V98.75H76.7456ZM76.2739 109.475L75.3979 109.464C75.4054 108.625 75.5215 107.85 75.7461 107.139C75.9782 106.428 76.3001 105.81 76.7119 105.286C77.1312 104.755 77.6328 104.347 78.2168 104.062C78.8008 103.77 79.4484 103.624 80.1597 103.624C80.7586 103.624 81.2977 103.706 81.7769 103.871C82.2635 104.036 82.6828 104.302 83.0347 104.668C83.3866 105.028 83.6523 105.5 83.832 106.083C84.0192 106.66 84.1128 107.364 84.1128 108.195V116H81.395V108.172C81.395 107.588 81.3089 107.124 81.1367 106.78C80.972 106.435 80.7287 106.188 80.4067 106.039C80.0848 105.881 79.6917 105.803 79.2275 105.803C78.7409 105.803 78.3104 105.9 77.936 106.095C77.5692 106.289 77.2622 106.555 77.0151 106.892C76.7681 107.229 76.5809 107.618 76.4536 108.06C76.3338 108.502 76.2739 108.973 76.2739 109.475ZM92.21 116.225C91.3115 116.225 90.4992 116.079 89.7729 115.787C89.0542 115.487 88.4403 115.072 87.9312 114.54C87.4295 114.008 87.0439 113.383 86.7744 112.665C86.5049 111.946 86.3701 111.171 86.3701 110.34V109.891C86.3701 108.94 86.5086 108.079 86.7856 107.308C87.0627 106.536 87.4482 105.878 87.9424 105.331C88.4365 104.777 89.0205 104.354 89.6943 104.062C90.3682 103.77 91.0981 103.624 91.8843 103.624C92.7528 103.624 93.5127 103.77 94.1641 104.062C94.8154 104.354 95.3545 104.766 95.7812 105.297C96.2155 105.821 96.5374 106.447 96.7471 107.173C96.9642 107.899 97.0728 108.7 97.0728 109.576V110.733H87.6841V108.79H94.3999V108.577C94.3849 108.09 94.2876 107.633 94.1079 107.207C93.9357 106.78 93.6699 106.435 93.3105 106.173C92.9512 105.911 92.472 105.78 91.873 105.78C91.4238 105.78 91.0233 105.878 90.6714 106.072C90.327 106.259 90.0387 106.533 89.8066 106.892C89.5745 107.251 89.3949 107.686 89.2676 108.195C89.1478 108.696 89.0879 109.262 89.0879 109.891V110.34C89.0879 110.871 89.159 111.366 89.3013 111.822C89.451 112.271 89.6681 112.665 89.9526 113.001C90.2371 113.338 90.5815 113.604 90.9858 113.799C91.3901 113.986 91.8506 114.08 92.3672 114.08C93.0186 114.08 93.5988 113.949 94.1079 113.687C94.617 113.424 95.0588 113.054 95.4331 112.575L96.8594 113.956C96.5973 114.338 96.2567 114.705 95.8374 115.057C95.4181 115.401 94.9053 115.682 94.2988 115.899C93.6999 116.116 93.0036 116.225 92.21 116.225ZM101.902 106.162V116H99.1953V103.849H101.778L101.902 106.162ZM105.619 103.77L105.597 106.286C105.432 106.256 105.252 106.233 105.058 106.218C104.87 106.203 104.683 106.196 104.496 106.196C104.032 106.196 103.624 106.263 103.272 106.398C102.92 106.525 102.624 106.712 102.385 106.959C102.153 107.199 101.973 107.491 101.846 107.835C101.718 108.18 101.644 108.565 101.621 108.992L101.003 109.037C101.003 108.273 101.078 107.566 101.228 106.915C101.378 106.263 101.602 105.69 101.902 105.196C102.209 104.702 102.591 104.317 103.047 104.04C103.512 103.763 104.047 103.624 104.653 103.624C104.818 103.624 104.994 103.639 105.181 103.669C105.376 103.699 105.522 103.733 105.619 103.77ZM112.447 116.225C111.549 116.225 110.736 116.079 110.01 115.787C109.292 115.487 108.678 115.072 108.168 114.54C107.667 114.008 107.281 113.383 107.012 112.665C106.742 111.946 106.607 111.171 106.607 110.34V109.891C106.607 108.94 106.746 108.079 107.023 107.308C107.3 106.536 107.686 105.878 108.18 105.331C108.674 104.777 109.258 104.354 109.932 104.062C110.605 103.77 111.335 103.624 112.122 103.624C112.99 103.624 113.75 103.77 114.401 104.062C115.053 104.354 115.592 104.766 116.019 105.297C116.453 105.821 116.775 106.447 116.984 107.173C117.201 107.899 117.31 108.7 117.31 109.576V110.733H107.921V108.79H114.637V108.577C114.622 108.09 114.525 107.633 114.345 107.207C114.173 106.78 113.907 106.435 113.548 106.173C113.188 105.911 112.709 105.78 112.11 105.78C111.661 105.78 111.261 105.878 110.909 106.072C110.564 106.259 110.276 106.533 110.044 106.892C109.812 107.251 109.632 107.686 109.505 108.195C109.385 108.696 109.325 109.262 109.325 109.891V110.34C109.325 110.871 109.396 111.366 109.539 111.822C109.688 112.271 109.905 112.665 110.19 113.001C110.474 113.338 110.819 113.604 111.223 113.799C111.627 113.986 112.088 114.08 112.604 114.08C113.256 114.08 113.836 113.949 114.345 113.687C114.854 113.424 115.296 113.054 115.67 112.575L117.097 113.956C116.835 114.338 116.494 114.705 116.075 115.057C115.655 115.401 115.143 115.682 114.536 115.899C113.937 116.116 113.241 116.225 112.447 116.225ZM128.675 114.675L131.977 103.849H134.875L130 117.853C129.888 118.153 129.742 118.478 129.562 118.83C129.383 119.182 129.147 119.515 128.855 119.83C128.57 120.152 128.215 120.41 127.788 120.604C127.361 120.807 126.845 120.908 126.238 120.908C125.999 120.908 125.767 120.885 125.542 120.84C125.325 120.803 125.119 120.762 124.924 120.717L124.913 118.65C124.988 118.658 125.078 118.665 125.183 118.673C125.295 118.68 125.385 118.684 125.452 118.684C125.901 118.684 126.276 118.628 126.575 118.516C126.875 118.411 127.118 118.239 127.305 117.999C127.5 117.759 127.665 117.438 127.799 117.033L128.675 114.675ZM126.811 103.849L129.697 112.945L130.18 115.798L128.305 116.281L123.891 103.849H126.811ZM135.728 110.059V109.801C135.728 108.925 135.855 108.112 136.11 107.364C136.364 106.608 136.731 105.952 137.21 105.398C137.697 104.837 138.289 104.403 138.985 104.096C139.689 103.781 140.482 103.624 141.366 103.624C142.257 103.624 143.05 103.781 143.747 104.096C144.45 104.403 145.046 104.837 145.532 105.398C146.019 105.952 146.389 106.608 146.644 107.364C146.899 108.112 147.026 108.925 147.026 109.801V110.059C147.026 110.935 146.899 111.747 146.644 112.496C146.389 113.245 146.019 113.9 145.532 114.461C145.046 115.015 144.454 115.45 143.758 115.764C143.062 116.071 142.272 116.225 141.388 116.225C140.497 116.225 139.7 116.071 138.996 115.764C138.3 115.45 137.708 115.015 137.222 114.461C136.735 113.9 136.364 113.245 136.11 112.496C135.855 111.747 135.728 110.935 135.728 110.059ZM138.435 109.801V110.059C138.435 110.606 138.491 111.122 138.603 111.609C138.715 112.096 138.891 112.522 139.131 112.889C139.37 113.256 139.677 113.544 140.052 113.754C140.426 113.964 140.872 114.068 141.388 114.068C141.89 114.068 142.324 113.964 142.691 113.754C143.065 113.544 143.372 113.256 143.612 112.889C143.851 112.522 144.027 112.096 144.14 111.609C144.259 111.122 144.319 110.606 144.319 110.059V109.801C144.319 109.262 144.259 108.753 144.14 108.273C144.027 107.787 143.848 107.356 143.601 106.982C143.361 106.608 143.054 106.316 142.68 106.106C142.313 105.889 141.875 105.78 141.366 105.78C140.857 105.78 140.415 105.889 140.041 106.106C139.674 106.316 139.37 106.608 139.131 106.982C138.891 107.356 138.715 107.787 138.603 108.273C138.491 108.753 138.435 109.262 138.435 109.801ZM156.605 113.136V103.849H159.323V116H156.763L156.605 113.136ZM156.987 110.609L157.897 110.587C157.897 111.403 157.807 112.155 157.627 112.844C157.448 113.526 157.171 114.121 156.796 114.63C156.422 115.132 155.943 115.525 155.359 115.809C154.775 116.086 154.075 116.225 153.259 116.225C152.667 116.225 152.125 116.139 151.63 115.966C151.136 115.794 150.709 115.528 150.35 115.169C149.998 114.81 149.725 114.342 149.53 113.765C149.336 113.189 149.238 112.5 149.238 111.699V103.849H151.945V111.721C151.945 112.163 151.997 112.534 152.102 112.833C152.207 113.125 152.349 113.361 152.529 113.541C152.708 113.72 152.918 113.847 153.158 113.922C153.397 113.997 153.652 114.035 153.921 114.035C154.693 114.035 155.299 113.885 155.741 113.585C156.19 113.278 156.508 112.867 156.695 112.35C156.89 111.833 156.987 111.253 156.987 110.609ZM170.531 106.319V116H167.825V103.849H170.374L170.531 106.319ZM170.093 109.475L169.172 109.464C169.172 108.625 169.277 107.85 169.487 107.139C169.696 106.428 170.003 105.81 170.408 105.286C170.812 104.755 171.314 104.347 171.913 104.062C172.519 103.77 173.219 103.624 174.013 103.624C174.567 103.624 175.072 103.706 175.529 103.871C175.993 104.028 176.394 104.279 176.73 104.624C177.075 104.968 177.337 105.41 177.517 105.949C177.704 106.488 177.797 107.139 177.797 107.903V116H175.091V108.139C175.091 107.547 175.001 107.083 174.821 106.746C174.649 106.409 174.398 106.17 174.069 106.027C173.747 105.878 173.361 105.803 172.912 105.803C172.403 105.803 171.969 105.9 171.609 106.095C171.257 106.289 170.969 106.555 170.745 106.892C170.52 107.229 170.355 107.618 170.25 108.06C170.146 108.502 170.093 108.973 170.093 109.475ZM177.629 108.756L176.36 109.037C176.36 108.303 176.461 107.611 176.663 106.959C176.873 106.301 177.176 105.724 177.573 105.23C177.977 104.728 178.475 104.335 179.066 104.051C179.658 103.766 180.335 103.624 181.099 103.624C181.721 103.624 182.275 103.71 182.761 103.882C183.255 104.047 183.675 104.309 184.019 104.668C184.363 105.028 184.625 105.496 184.805 106.072C184.985 106.641 185.075 107.33 185.075 108.139V116H182.357V108.127C182.357 107.514 182.267 107.038 182.087 106.701C181.915 106.364 181.668 106.132 181.346 106.005C181.024 105.87 180.639 105.803 180.189 105.803C179.77 105.803 179.4 105.881 179.078 106.039C178.763 106.188 178.497 106.402 178.28 106.679C178.063 106.948 177.898 107.259 177.786 107.611C177.681 107.963 177.629 108.345 177.629 108.756ZM194.71 113.563V107.768C194.71 107.334 194.632 106.959 194.475 106.645C194.317 106.331 194.078 106.087 193.756 105.915C193.441 105.743 193.045 105.657 192.565 105.657C192.124 105.657 191.742 105.732 191.42 105.881C191.098 106.031 190.847 106.233 190.667 106.488C190.488 106.742 190.398 107.031 190.398 107.353H187.703C187.703 106.873 187.819 106.409 188.051 105.96C188.283 105.511 188.62 105.11 189.062 104.758C189.503 104.406 190.031 104.129 190.645 103.927C191.259 103.725 191.948 103.624 192.711 103.624C193.625 103.624 194.433 103.778 195.137 104.084C195.848 104.391 196.406 104.856 196.811 105.477C197.222 106.091 197.428 106.862 197.428 107.791V113.192C197.428 113.746 197.466 114.244 197.541 114.686C197.623 115.12 197.739 115.498 197.889 115.82V116H195.115C194.987 115.708 194.886 115.337 194.812 114.888C194.744 114.431 194.71 113.99 194.71 113.563ZM195.104 108.61L195.126 110.284H193.183C192.681 110.284 192.24 110.332 191.858 110.43C191.476 110.52 191.158 110.654 190.903 110.834C190.649 111.014 190.458 111.231 190.331 111.485C190.203 111.74 190.14 112.028 190.14 112.35C190.14 112.672 190.215 112.968 190.364 113.237C190.514 113.499 190.731 113.705 191.016 113.855C191.308 114.005 191.66 114.08 192.071 114.08C192.625 114.08 193.108 113.967 193.52 113.743C193.939 113.511 194.269 113.23 194.508 112.9C194.748 112.563 194.875 112.245 194.89 111.946L195.766 113.147C195.676 113.454 195.523 113.784 195.306 114.136C195.089 114.488 194.804 114.825 194.452 115.146C194.108 115.461 193.692 115.719 193.206 115.921C192.726 116.124 192.172 116.225 191.543 116.225C190.75 116.225 190.042 116.067 189.421 115.753C188.799 115.431 188.313 115 187.961 114.461C187.609 113.915 187.433 113.297 187.433 112.608C187.433 111.965 187.553 111.396 187.792 110.901C188.04 110.4 188.399 109.98 188.871 109.644C189.35 109.307 189.934 109.052 190.623 108.88C191.311 108.7 192.097 108.61 192.981 108.61H195.104ZM202.942 106.443V116H200.236V103.849H202.785L202.942 106.443ZM202.459 109.475L201.583 109.464C201.591 108.603 201.711 107.813 201.943 107.094C202.182 106.375 202.512 105.758 202.931 105.241C203.358 104.725 203.867 104.328 204.458 104.051C205.05 103.766 205.709 103.624 206.435 103.624C207.019 103.624 207.547 103.706 208.019 103.871C208.498 104.028 208.906 104.287 209.243 104.646C209.587 105.005 209.849 105.473 210.029 106.05C210.208 106.619 210.298 107.319 210.298 108.15V116H207.581V108.139C207.581 107.555 207.494 107.094 207.322 106.757C207.158 106.413 206.914 106.17 206.592 106.027C206.278 105.878 205.885 105.803 205.413 105.803C204.949 105.803 204.533 105.9 204.167 106.095C203.8 106.289 203.489 106.555 203.234 106.892C202.987 107.229 202.796 107.618 202.662 108.06C202.527 108.502 202.459 108.973 202.459 109.475ZM219.912 113.563V107.768C219.912 107.334 219.833 106.959 219.676 106.645C219.519 106.331 219.279 106.087 218.957 105.915C218.643 105.743 218.246 105.657 217.767 105.657C217.325 105.657 216.943 105.732 216.621 105.881C216.299 106.031 216.048 106.233 215.869 106.488C215.689 106.742 215.599 107.031 215.599 107.353H212.904C212.904 106.873 213.02 106.409 213.252 105.96C213.484 105.511 213.821 105.11 214.263 104.758C214.704 104.406 215.232 104.129 215.846 103.927C216.46 103.725 217.149 103.624 217.913 103.624C218.826 103.624 219.635 103.778 220.338 104.084C221.05 104.391 221.607 104.856 222.012 105.477C222.424 106.091 222.629 106.862 222.629 107.791V113.192C222.629 113.746 222.667 114.244 222.742 114.686C222.824 115.12 222.94 115.498 223.09 115.82V116H220.316C220.189 115.708 220.088 115.337 220.013 114.888C219.945 114.431 219.912 113.99 219.912 113.563ZM220.305 108.61L220.327 110.284H218.384C217.883 110.284 217.441 110.332 217.059 110.43C216.677 110.52 216.359 110.654 216.104 110.834C215.85 111.014 215.659 111.231 215.532 111.485C215.404 111.74 215.341 112.028 215.341 112.35C215.341 112.672 215.416 112.968 215.565 113.237C215.715 113.499 215.932 113.705 216.217 113.855C216.509 114.005 216.861 114.08 217.272 114.08C217.826 114.08 218.309 113.967 218.721 113.743C219.14 113.511 219.47 113.23 219.709 112.9C219.949 112.563 220.076 112.245 220.091 111.946L220.967 113.147C220.877 113.454 220.724 113.784 220.507 114.136C220.29 114.488 220.005 114.825 219.653 115.146C219.309 115.461 218.893 115.719 218.407 115.921C217.928 116.124 217.374 116.225 216.745 116.225C215.951 116.225 215.243 116.067 214.622 115.753C214.001 115.431 213.514 115 213.162 114.461C212.81 113.915 212.634 113.297 212.634 112.608C212.634 111.965 212.754 111.396 212.994 110.901C213.241 110.4 213.6 109.98 214.072 109.644C214.551 109.307 215.135 109.052 215.824 108.88C216.513 108.7 217.299 108.61 218.182 108.61H220.305ZM233.242 103.849H235.702V115.663C235.702 116.756 235.47 117.685 235.005 118.448C234.541 119.212 233.894 119.792 233.062 120.189C232.231 120.593 231.269 120.795 230.176 120.795C229.712 120.795 229.195 120.728 228.626 120.593C228.065 120.458 227.518 120.241 226.987 119.942C226.463 119.65 226.025 119.264 225.673 118.785L226.942 117.19C227.376 117.707 227.855 118.085 228.379 118.325C228.903 118.564 229.454 118.684 230.03 118.684C230.652 118.684 231.18 118.568 231.614 118.336C232.056 118.111 232.396 117.778 232.636 117.336C232.875 116.895 232.995 116.356 232.995 115.719V106.6L233.242 103.849ZM224.988 110.059V109.823C224.988 108.902 225.1 108.064 225.325 107.308C225.549 106.544 225.871 105.889 226.291 105.342C226.71 104.788 227.219 104.365 227.818 104.073C228.417 103.774 229.094 103.624 229.851 103.624C230.637 103.624 231.307 103.766 231.861 104.051C232.422 104.335 232.89 104.743 233.265 105.275C233.639 105.799 233.931 106.428 234.141 107.162C234.358 107.888 234.519 108.696 234.624 109.587V110.34C234.526 111.208 234.361 112.002 234.129 112.721C233.897 113.439 233.59 114.061 233.208 114.585C232.827 115.109 232.355 115.513 231.793 115.798C231.239 116.082 230.584 116.225 229.828 116.225C229.087 116.225 228.417 116.071 227.818 115.764C227.226 115.457 226.717 115.027 226.291 114.473C225.871 113.919 225.549 113.267 225.325 112.519C225.1 111.762 224.988 110.943 224.988 110.059ZM227.694 109.823V110.059C227.694 110.613 227.747 111.13 227.852 111.609C227.964 112.088 228.132 112.511 228.357 112.878C228.589 113.237 228.881 113.522 229.233 113.731C229.592 113.934 230.015 114.035 230.502 114.035C231.138 114.035 231.659 113.9 232.063 113.63C232.475 113.361 232.789 112.998 233.006 112.541C233.231 112.077 233.388 111.56 233.478 110.991V108.958C233.433 108.517 233.34 108.105 233.197 107.723C233.062 107.341 232.879 107.008 232.647 106.724C232.415 106.432 232.123 106.207 231.771 106.05C231.419 105.885 231.004 105.803 230.524 105.803C230.038 105.803 229.615 105.908 229.255 106.117C228.896 106.327 228.6 106.615 228.368 106.982C228.144 107.349 227.975 107.776 227.863 108.262C227.75 108.749 227.694 109.269 227.694 109.823ZM243.866 116.225C242.968 116.225 242.155 116.079 241.429 115.787C240.71 115.487 240.097 115.072 239.587 114.54C239.086 114.008 238.7 113.383 238.431 112.665C238.161 111.946 238.026 111.171 238.026 110.34V109.891C238.026 108.94 238.165 108.079 238.442 107.308C238.719 106.536 239.104 105.878 239.599 105.331C240.093 104.777 240.677 104.354 241.351 104.062C242.024 103.77 242.754 103.624 243.541 103.624C244.409 103.624 245.169 103.77 245.82 104.062C246.472 104.354 247.011 104.766 247.438 105.297C247.872 105.821 248.194 106.447 248.403 107.173C248.62 107.899 248.729 108.7 248.729 109.576V110.733H239.34V108.79H246.056V108.577C246.041 108.09 245.944 107.633 245.764 107.207C245.592 106.78 245.326 106.435 244.967 106.173C244.607 105.911 244.128 105.78 243.529 105.78C243.08 105.78 242.68 105.878 242.328 106.072C241.983 106.259 241.695 106.533 241.463 106.892C241.231 107.251 241.051 107.686 240.924 108.195C240.804 108.696 240.744 109.262 240.744 109.891V110.34C240.744 110.871 240.815 111.366 240.958 111.822C241.107 112.271 241.324 112.665 241.609 113.001C241.893 113.338 242.238 113.604 242.642 113.799C243.046 113.986 243.507 114.08 244.023 114.08C244.675 114.08 245.255 113.949 245.764 113.687C246.273 113.424 246.715 113.054 247.089 112.575L248.516 113.956C248.254 114.338 247.913 114.705 247.494 115.057C247.074 115.401 246.562 115.682 245.955 115.899C245.356 116.116 244.66 116.225 243.866 116.225ZM260.094 114.675L263.396 103.849H266.293L261.419 117.853C261.307 118.153 261.161 118.478 260.981 118.83C260.802 119.182 260.566 119.515 260.274 119.83C259.989 120.152 259.634 120.41 259.207 120.604C258.78 120.807 258.264 120.908 257.657 120.908C257.418 120.908 257.186 120.885 256.961 120.84C256.744 120.803 256.538 120.762 256.343 120.717L256.332 118.65C256.407 118.658 256.497 118.665 256.602 118.673C256.714 118.68 256.804 118.684 256.871 118.684C257.32 118.684 257.695 118.628 257.994 118.516C258.294 118.411 258.537 118.239 258.724 117.999C258.919 117.759 259.083 117.438 259.218 117.033L260.094 114.675ZM258.23 103.849L261.116 112.945L261.599 115.798L259.724 116.281L255.31 103.849H258.23ZM267.147 110.059V109.801C267.147 108.925 267.274 108.112 267.529 107.364C267.783 106.608 268.15 105.952 268.629 105.398C269.116 104.837 269.708 104.403 270.404 104.096C271.108 103.781 271.901 103.624 272.785 103.624C273.676 103.624 274.469 103.781 275.166 104.096C275.869 104.403 276.465 104.837 276.951 105.398C277.438 105.952 277.808 106.608 278.063 107.364C278.318 108.112 278.445 108.925 278.445 109.801V110.059C278.445 110.935 278.318 111.747 278.063 112.496C277.808 113.245 277.438 113.9 276.951 114.461C276.465 115.015 275.873 115.45 275.177 115.764C274.48 116.071 273.691 116.225 272.807 116.225C271.916 116.225 271.119 116.071 270.415 115.764C269.719 115.45 269.127 115.015 268.641 114.461C268.154 113.9 267.783 113.245 267.529 112.496C267.274 111.747 267.147 110.935 267.147 110.059ZM269.854 109.801V110.059C269.854 110.606 269.91 111.122 270.022 111.609C270.134 112.096 270.31 112.522 270.55 112.889C270.789 113.256 271.096 113.544 271.471 113.754C271.845 113.964 272.291 114.068 272.807 114.068C273.309 114.068 273.743 113.964 274.11 113.754C274.484 113.544 274.791 113.256 275.031 112.889C275.27 112.522 275.446 112.096 275.559 111.609C275.678 111.122 275.738 110.606 275.738 110.059V109.801C275.738 109.262 275.678 108.753 275.559 108.273C275.446 107.787 275.267 107.356 275.02 106.982C274.78 106.608 274.473 106.316 274.099 106.106C273.732 105.889 273.294 105.78 272.785 105.78C272.276 105.78 271.834 105.889 271.459 106.106C271.093 106.316 270.789 106.608 270.55 106.982C270.31 107.356 270.134 107.787 270.022 108.273C269.91 108.753 269.854 109.262 269.854 109.801ZM288.024 113.136V103.849H290.742V116H288.182L288.024 113.136ZM288.406 110.609L289.316 110.587C289.316 111.403 289.226 112.155 289.046 112.844C288.867 113.526 288.59 114.121 288.215 114.63C287.841 115.132 287.362 115.525 286.778 115.809C286.194 116.086 285.494 116.225 284.678 116.225C284.086 116.225 283.543 116.139 283.049 115.966C282.555 115.794 282.128 115.528 281.769 115.169C281.417 114.81 281.144 114.342 280.949 113.765C280.755 113.189 280.657 112.5 280.657 111.699V103.849H283.364V111.721C283.364 112.163 283.416 112.534 283.521 112.833C283.626 113.125 283.768 113.361 283.948 113.541C284.127 113.72 284.337 113.847 284.577 113.922C284.816 113.997 285.071 114.035 285.34 114.035C286.111 114.035 286.718 113.885 287.16 113.585C287.609 113.278 287.927 112.867 288.114 112.35C288.309 111.833 288.406 111.253 288.406 110.609ZM296.234 106.162V116H293.527V103.849H296.11L296.234 106.162ZM299.951 103.77L299.929 106.286C299.764 106.256 299.584 106.233 299.39 106.218C299.202 106.203 299.015 106.196 298.828 106.196C298.364 106.196 297.956 106.263 297.604 106.398C297.252 106.525 296.956 106.712 296.717 106.959C296.485 107.199 296.305 107.491 296.178 107.835C296.05 108.18 295.976 108.565 295.953 108.992L295.335 109.037C295.335 108.273 295.41 107.566 295.56 106.915C295.71 106.263 295.934 105.69 296.234 105.196C296.541 104.702 296.923 104.317 297.379 104.04C297.844 103.763 298.379 103.624 298.985 103.624C299.15 103.624 299.326 103.639 299.513 103.669C299.708 103.699 299.854 103.733 299.951 103.77ZM314.191 112.709C314.191 112.44 314.124 112.197 313.989 111.979C313.854 111.755 313.596 111.553 313.214 111.373C312.84 111.193 312.286 111.029 311.552 110.879C310.908 110.737 310.317 110.568 309.778 110.374C309.246 110.171 308.79 109.928 308.408 109.644C308.026 109.359 307.73 109.022 307.521 108.633C307.311 108.243 307.206 107.794 307.206 107.285C307.206 106.791 307.315 106.323 307.532 105.881C307.749 105.44 308.06 105.05 308.464 104.713C308.868 104.376 309.359 104.111 309.935 103.916C310.519 103.721 311.17 103.624 311.889 103.624C312.907 103.624 313.78 103.796 314.506 104.141C315.24 104.478 315.801 104.938 316.19 105.522C316.58 106.098 316.774 106.75 316.774 107.476H314.068C314.068 107.154 313.986 106.855 313.821 106.578C313.664 106.293 313.424 106.065 313.102 105.893C312.78 105.713 312.376 105.623 311.889 105.623C311.425 105.623 311.039 105.698 310.732 105.848C310.433 105.99 310.208 106.177 310.059 106.409C309.916 106.641 309.845 106.896 309.845 107.173C309.845 107.375 309.883 107.558 309.958 107.723C310.04 107.88 310.175 108.026 310.362 108.161C310.549 108.288 310.804 108.408 311.125 108.521C311.455 108.633 311.867 108.741 312.361 108.846C313.289 109.041 314.087 109.292 314.753 109.599C315.427 109.898 315.943 110.287 316.303 110.767C316.662 111.238 316.842 111.837 316.842 112.563C316.842 113.103 316.726 113.597 316.494 114.046C316.269 114.488 315.94 114.873 315.505 115.203C315.071 115.525 314.551 115.775 313.944 115.955C313.345 116.135 312.672 116.225 311.923 116.225C310.822 116.225 309.89 116.03 309.126 115.641C308.363 115.244 307.783 114.738 307.386 114.125C306.996 113.503 306.802 112.859 306.802 112.193H309.418C309.448 112.694 309.587 113.095 309.834 113.395C310.089 113.687 310.403 113.9 310.777 114.035C311.159 114.162 311.552 114.226 311.957 114.226C312.443 114.226 312.851 114.162 313.181 114.035C313.51 113.9 313.761 113.72 313.933 113.496C314.105 113.264 314.191 113.001 314.191 112.709ZM322.738 114.675L326.04 103.849H328.937L324.063 117.853C323.951 118.153 323.805 118.478 323.625 118.83C323.445 119.182 323.209 119.515 322.917 119.83C322.633 120.152 322.277 120.41 321.851 120.604C321.424 120.807 320.907 120.908 320.301 120.908C320.061 120.908 319.829 120.885 319.604 120.84C319.387 120.803 319.181 120.762 318.987 120.717L318.976 118.65C319.05 118.658 319.14 118.665 319.245 118.673C319.357 118.68 319.447 118.684 319.515 118.684C319.964 118.684 320.338 118.628 320.638 118.516C320.937 118.411 321.181 118.239 321.368 117.999C321.562 117.759 321.727 117.438 321.862 117.033L322.738 114.675ZM320.874 103.849L323.76 112.945L324.243 115.798L322.367 116.281L317.954 103.849H320.874ZM337.304 112.709C337.304 112.44 337.236 112.197 337.102 111.979C336.967 111.755 336.708 111.553 336.327 111.373C335.952 111.193 335.398 111.029 334.665 110.879C334.021 110.737 333.429 110.568 332.89 110.374C332.359 110.171 331.902 109.928 331.52 109.644C331.138 109.359 330.842 109.022 330.633 108.633C330.423 108.243 330.318 107.794 330.318 107.285C330.318 106.791 330.427 106.323 330.644 105.881C330.861 105.44 331.172 105.05 331.576 104.713C331.98 104.376 332.471 104.111 333.047 103.916C333.631 103.721 334.283 103.624 335.001 103.624C336.02 103.624 336.892 103.796 337.618 104.141C338.352 104.478 338.913 104.938 339.303 105.522C339.692 106.098 339.887 106.75 339.887 107.476H337.18C337.18 107.154 337.098 106.855 336.933 106.578C336.776 106.293 336.536 106.065 336.214 105.893C335.892 105.713 335.488 105.623 335.001 105.623C334.537 105.623 334.152 105.698 333.845 105.848C333.545 105.99 333.321 106.177 333.171 106.409C333.029 106.641 332.958 106.896 332.958 107.173C332.958 107.375 332.995 107.558 333.07 107.723C333.152 107.88 333.287 108.026 333.474 108.161C333.661 108.288 333.916 108.408 334.238 108.521C334.567 108.633 334.979 108.741 335.473 108.846C336.402 109.041 337.199 109.292 337.865 109.599C338.539 109.898 339.056 110.287 339.415 110.767C339.774 111.238 339.954 111.837 339.954 112.563C339.954 113.103 339.838 113.597 339.606 114.046C339.381 114.488 339.052 114.873 338.618 115.203C338.183 115.525 337.663 115.775 337.057 115.955C336.458 116.135 335.784 116.225 335.035 116.225C333.935 116.225 333.002 116.03 332.239 115.641C331.475 115.244 330.895 114.738 330.498 114.125C330.109 113.503 329.914 112.859 329.914 112.193H332.531C332.561 112.694 332.699 113.095 332.946 113.395C333.201 113.687 333.515 113.9 333.89 114.035C334.271 114.162 334.665 114.226 335.069 114.226C335.556 114.226 335.964 114.162 336.293 114.035C336.622 113.9 336.873 113.72 337.045 113.496C337.218 113.264 337.304 113.001 337.304 112.709ZM347.894 103.849V105.825H341.043V103.849H347.894ZM343.02 100.873H345.727V112.642C345.727 113.016 345.779 113.305 345.884 113.507C345.996 113.701 346.15 113.833 346.344 113.9C346.539 113.967 346.767 114.001 347.029 114.001C347.216 114.001 347.396 113.99 347.568 113.967C347.741 113.945 347.879 113.922 347.984 113.9L347.995 115.966C347.771 116.034 347.508 116.094 347.209 116.146C346.917 116.198 346.58 116.225 346.198 116.225C345.577 116.225 345.027 116.116 344.547 115.899C344.068 115.674 343.694 115.311 343.424 114.81C343.155 114.308 343.02 113.642 343.02 112.811V100.873ZM355.34 116.225C354.441 116.225 353.629 116.079 352.903 115.787C352.184 115.487 351.57 115.072 351.061 114.54C350.559 114.008 350.174 113.383 349.904 112.665C349.635 111.946 349.5 111.171 349.5 110.34V109.891C349.5 108.94 349.639 108.079 349.916 107.308C350.193 106.536 350.578 105.878 351.072 105.331C351.566 104.777 352.15 104.354 352.824 104.062C353.498 103.77 354.228 103.624 355.014 103.624C355.883 103.624 356.643 103.77 357.294 104.062C357.945 104.354 358.484 104.766 358.911 105.297C359.345 105.821 359.667 106.447 359.877 107.173C360.094 107.899 360.203 108.7 360.203 109.576V110.733H350.814V108.79H357.53V108.577C357.515 108.09 357.417 107.633 357.238 107.207C357.066 106.78 356.8 106.435 356.44 106.173C356.081 105.911 355.602 105.78 355.003 105.78C354.554 105.78 354.153 105.878 353.801 106.072C353.457 106.259 353.169 106.533 352.937 106.892C352.704 107.251 352.525 107.686 352.397 108.195C352.278 108.696 352.218 109.262 352.218 109.891V110.34C352.218 110.871 352.289 111.366 352.431 111.822C352.581 112.271 352.798 112.665 353.083 113.001C353.367 113.338 353.711 113.604 354.116 113.799C354.52 113.986 354.98 114.08 355.497 114.08C356.148 114.08 356.729 113.949 357.238 113.687C357.747 113.424 358.189 113.054 358.563 112.575L359.989 113.956C359.727 114.338 359.387 114.705 358.967 115.057C358.548 115.401 358.035 115.682 357.429 115.899C356.83 116.116 356.133 116.225 355.34 116.225ZM365.021 106.319V116H362.314V103.849H364.863L365.021 106.319ZM364.583 109.475L363.662 109.464C363.662 108.625 363.766 107.85 363.976 107.139C364.186 106.428 364.493 105.81 364.897 105.286C365.301 104.755 365.803 104.347 366.402 104.062C367.008 103.77 367.708 103.624 368.502 103.624C369.056 103.624 369.561 103.706 370.018 103.871C370.482 104.028 370.883 104.279 371.22 104.624C371.564 104.968 371.826 105.41 372.006 105.949C372.193 106.488 372.287 107.139 372.287 107.903V116H369.58V108.139C369.58 107.547 369.49 107.083 369.311 106.746C369.138 106.409 368.888 106.17 368.558 106.027C368.236 105.878 367.851 105.803 367.401 105.803C366.892 105.803 366.458 105.9 366.099 106.095C365.747 106.289 365.458 106.555 365.234 106.892C365.009 107.229 364.845 107.618 364.74 108.06C364.635 108.502 364.583 108.973 364.583 109.475ZM372.118 108.756L370.849 109.037C370.849 108.303 370.95 107.611 371.152 106.959C371.362 106.301 371.665 105.724 372.062 105.23C372.466 104.728 372.964 104.335 373.556 104.051C374.147 103.766 374.825 103.624 375.588 103.624C376.21 103.624 376.764 103.71 377.25 103.882C377.745 104.047 378.164 104.309 378.508 104.668C378.853 105.028 379.115 105.496 379.294 106.072C379.474 106.641 379.564 107.33 379.564 108.139V116H376.846V108.127C376.846 107.514 376.756 107.038 376.577 106.701C376.404 106.364 376.157 106.132 375.835 106.005C375.514 105.87 375.128 105.803 374.679 105.803C374.259 105.803 373.889 105.881 373.567 106.039C373.252 106.188 372.987 106.402 372.77 106.679C372.552 106.948 372.388 107.259 372.275 107.611C372.171 107.963 372.118 108.345 372.118 108.756ZM394.927 113.563V107.768C394.927 107.334 394.849 106.959 394.691 106.645C394.534 106.331 394.295 106.087 393.973 105.915C393.658 105.743 393.261 105.657 392.782 105.657C392.34 105.657 391.959 105.732 391.637 105.881C391.315 106.031 391.064 106.233 390.884 106.488C390.705 106.742 390.615 107.031 390.615 107.353H387.919C387.919 106.873 388.035 106.409 388.268 105.96C388.5 105.511 388.837 105.11 389.278 104.758C389.72 104.406 390.248 104.129 390.862 103.927C391.476 103.725 392.165 103.624 392.928 103.624C393.842 103.624 394.65 103.778 395.354 104.084C396.065 104.391 396.623 104.856 397.027 105.477C397.439 106.091 397.645 106.862 397.645 107.791V113.192C397.645 113.746 397.682 114.244 397.757 114.686C397.84 115.12 397.956 115.498 398.105 115.82V116H395.332C395.204 115.708 395.103 115.337 395.028 114.888C394.961 114.431 394.927 113.99 394.927 113.563ZM395.32 108.61L395.343 110.284H393.4C392.898 110.284 392.457 110.332 392.075 110.43C391.693 110.52 391.375 110.654 391.12 110.834C390.866 111.014 390.675 111.231 390.547 111.485C390.42 111.74 390.356 112.028 390.356 112.35C390.356 112.672 390.431 112.968 390.581 113.237C390.731 113.499 390.948 113.705 391.232 113.855C391.524 114.005 391.876 114.08 392.288 114.08C392.842 114.08 393.325 113.967 393.737 113.743C394.156 113.511 394.486 113.23 394.725 112.9C394.965 112.563 395.092 112.245 395.107 111.946L395.983 113.147C395.893 113.454 395.74 113.784 395.522 114.136C395.305 114.488 395.021 114.825 394.669 115.146C394.325 115.461 393.909 115.719 393.422 115.921C392.943 116.124 392.389 116.225 391.76 116.225C390.967 116.225 390.259 116.067 389.638 115.753C389.016 115.431 388.53 115 388.178 114.461C387.826 113.915 387.65 113.297 387.65 112.608C387.65 111.965 387.77 111.396 388.009 110.901C388.256 110.4 388.616 109.98 389.087 109.644C389.567 109.307 390.151 109.052 390.839 108.88C391.528 108.7 392.314 108.61 393.198 108.61H395.32ZM407.887 113.484V98.75H410.605V116H408.146L407.887 113.484ZM399.981 110.059V109.823C399.981 108.902 400.09 108.064 400.307 107.308C400.524 106.544 400.838 105.889 401.25 105.342C401.662 104.788 402.163 104.365 402.755 104.073C403.346 103.774 404.013 103.624 404.754 103.624C405.488 103.624 406.132 103.766 406.686 104.051C407.24 104.335 407.711 104.743 408.101 105.275C408.49 105.799 408.801 106.428 409.033 107.162C409.265 107.888 409.43 108.696 409.527 109.587V110.34C409.43 111.208 409.265 112.002 409.033 112.721C408.801 113.439 408.49 114.061 408.101 114.585C407.711 115.109 407.236 115.513 406.674 115.798C406.12 116.082 405.473 116.225 404.731 116.225C403.998 116.225 403.335 116.071 402.744 115.764C402.16 115.457 401.662 115.027 401.25 114.473C400.838 113.919 400.524 113.267 400.307 112.519C400.09 111.762 399.981 110.943 399.981 110.059ZM402.688 109.823V110.059C402.688 110.613 402.736 111.13 402.833 111.609C402.938 112.088 403.099 112.511 403.316 112.878C403.534 113.237 403.814 113.522 404.159 113.731C404.511 113.934 404.93 114.035 405.417 114.035C406.03 114.035 406.536 113.9 406.933 113.63C407.329 113.361 407.64 112.998 407.865 112.541C408.097 112.077 408.254 111.56 408.336 110.991V108.958C408.292 108.517 408.198 108.105 408.056 107.723C407.921 107.341 407.737 107.008 407.505 106.724C407.273 106.432 406.985 106.207 406.641 106.05C406.304 105.885 405.903 105.803 405.439 105.803C404.945 105.803 404.526 105.908 404.181 106.117C403.837 106.327 403.552 106.615 403.328 106.982C403.111 107.349 402.95 107.776 402.845 108.262C402.74 108.749 402.688 109.269 402.688 109.823ZM416.142 106.319V116H413.435V103.849H415.984L416.142 106.319ZM415.704 109.475L414.783 109.464C414.783 108.625 414.888 107.85 415.097 107.139C415.307 106.428 415.614 105.81 416.018 105.286C416.422 104.755 416.924 104.347 417.523 104.062C418.129 103.77 418.829 103.624 419.623 103.624C420.177 103.624 420.682 103.706 421.139 103.871C421.603 104.028 422.004 104.279 422.341 104.624C422.685 104.968 422.947 105.41 423.127 105.949C423.314 106.488 423.408 107.139 423.408 107.903V116H420.701V108.139C420.701 107.547 420.611 107.083 420.432 106.746C420.259 106.409 420.009 106.17 419.679 106.027C419.357 105.878 418.972 105.803 418.522 105.803C418.013 105.803 417.579 105.9 417.22 106.095C416.868 106.289 416.58 106.555 416.355 106.892C416.13 107.229 415.966 107.618 415.861 108.06C415.756 108.502 415.704 108.973 415.704 109.475ZM423.239 108.756L421.97 109.037C421.97 108.303 422.071 107.611 422.273 106.959C422.483 106.301 422.786 105.724 423.183 105.23C423.587 104.728 424.085 104.335 424.677 104.051C425.268 103.766 425.946 103.624 426.709 103.624C427.331 103.624 427.885 103.71 428.372 103.882C428.866 104.047 429.285 104.309 429.629 104.668C429.974 105.028 430.236 105.496 430.416 106.072C430.595 106.641 430.685 107.33 430.685 108.139V116H427.967V108.127C427.967 107.514 427.877 107.038 427.698 106.701C427.526 106.364 427.278 106.132 426.957 106.005C426.635 105.87 426.249 105.803 425.8 105.803C425.381 105.803 425.01 105.881 424.688 106.039C424.374 106.188 424.108 106.402 423.891 106.679C423.674 106.948 423.509 107.259 423.396 107.611C423.292 107.963 423.239 108.345 423.239 108.756ZM436.368 103.849V116H433.65V103.849H436.368ZM433.47 100.659C433.47 100.247 433.605 99.9067 433.875 99.6372C434.152 99.3602 434.533 99.2217 435.02 99.2217C435.499 99.2217 435.877 99.3602 436.154 99.6372C436.431 99.9067 436.57 100.247 436.57 100.659C436.57 101.063 436.431 101.4 436.154 101.67C435.877 101.939 435.499 102.074 435.02 102.074C434.533 102.074 434.152 101.939 433.875 101.67C433.605 101.4 433.47 101.063 433.47 100.659ZM442.017 106.443V116H439.31V103.849H441.859L442.017 106.443ZM441.534 109.475L440.658 109.464C440.665 108.603 440.785 107.813 441.017 107.094C441.257 106.375 441.586 105.758 442.005 105.241C442.432 104.725 442.941 104.328 443.533 104.051C444.124 103.766 444.783 103.624 445.509 103.624C446.093 103.624 446.621 103.706 447.093 103.871C447.572 104.028 447.98 104.287 448.317 104.646C448.661 105.005 448.923 105.473 449.103 106.05C449.283 106.619 449.373 107.319 449.373 108.15V116H446.655V108.139C446.655 107.555 446.569 107.094 446.396 106.757C446.232 106.413 445.988 106.17 445.667 106.027C445.352 105.878 444.959 105.803 444.487 105.803C444.023 105.803 443.608 105.9 443.241 106.095C442.874 106.289 442.563 106.555 442.309 106.892C442.062 107.229 441.871 107.618 441.736 108.06C441.601 108.502 441.534 108.973 441.534 109.475ZM458.952 112.709C458.952 112.44 458.885 112.197 458.75 111.979C458.615 111.755 458.357 111.553 457.975 111.373C457.601 111.193 457.047 111.029 456.313 110.879C455.669 110.737 455.078 110.568 454.539 110.374C454.007 110.171 453.55 109.928 453.168 109.644C452.787 109.359 452.491 109.022 452.281 108.633C452.072 108.243 451.967 107.794 451.967 107.285C451.967 106.791 452.075 106.323 452.292 105.881C452.51 105.44 452.82 105.05 453.225 104.713C453.629 104.376 454.119 104.111 454.696 103.916C455.28 103.721 455.931 103.624 456.65 103.624C457.668 103.624 458.54 103.796 459.267 104.141C460 104.478 460.562 104.938 460.951 105.522C461.34 106.098 461.535 106.75 461.535 107.476H458.829C458.829 107.154 458.746 106.855 458.582 106.578C458.424 106.293 458.185 106.065 457.863 105.893C457.541 105.713 457.137 105.623 456.65 105.623C456.186 105.623 455.8 105.698 455.493 105.848C455.194 105.99 454.969 106.177 454.819 106.409C454.677 106.641 454.606 106.896 454.606 107.173C454.606 107.375 454.643 107.558 454.718 107.723C454.801 107.88 454.935 108.026 455.123 108.161C455.31 108.288 455.564 108.408 455.886 108.521C456.216 108.633 456.627 108.741 457.122 108.846C458.05 109.041 458.847 109.292 459.514 109.599C460.188 109.898 460.704 110.287 461.063 110.767C461.423 111.238 461.603 111.837 461.603 112.563C461.603 113.103 461.486 113.597 461.254 114.046C461.03 114.488 460.7 114.873 460.266 115.203C459.832 115.525 459.312 115.775 458.705 115.955C458.106 116.135 457.432 116.225 456.684 116.225C455.583 116.225 454.651 116.03 453.887 115.641C453.124 115.244 452.543 114.738 452.146 114.125C451.757 113.503 451.562 112.859 451.562 112.193H454.179C454.209 112.694 454.348 113.095 454.595 113.395C454.849 113.687 455.164 113.9 455.538 114.035C455.92 114.162 456.313 114.226 456.717 114.226C457.204 114.226 457.612 114.162 457.941 114.035C458.271 113.9 458.522 113.72 458.694 113.496C458.866 113.264 458.952 113.001 458.952 112.709Z" fill="white"/>
</g>
</g>
<defs>
<filter id="filter0_i_5_5194" x="-21" y="-303" width="2180" height="2144.61" filterUnits="userSpaceOnUse" color-interpolation-filters="sRGB">
<feFlood flood-opacity="0" result="BackgroundImageFix"/>
<feBlend mode="normal" in="SourceGraphic" in2="BackgroundImageFix" result="shape"/>
<feColorMatrix in="SourceAlpha" type="matrix" values="0 0 0 0 0 0 0 0 0 0 0 0 0 0 0 0 0 0 127 0" result="hardAlpha"/>
<feMorphology radius="24" operator="erode" in="SourceAlpha" result="effect1_innerShadow_5_5194"/>
<feOffset dx="24" dy="32"/>
<feGaussianBlur stdDeviation="92"/>
<feComposite in2="hardAlpha" operator="arithmetic" k2="-1" k3="1"/>
<feColorMatrix type="matrix" values="0 0 0 0 0.0235294 0 0 0 0 0.0313726 0 0 0 0 0.34902 0 0 0 0.75 0"/>
<feBlend mode="normal" in2="shape" result="effect1_innerShadow_5_5194"/>
</filter>
<filter id="filter1_i_5_5194" x="-21" y="-64.3818" width="1694.33" height="1667.38" filterUnits="userSpaceOnUse" color-interpolation-filters="sRGB">
<feFlood flood-opacity="0" result="BackgroundImageFix"/>
<feBlend mode="normal" in="SourceGraphic" in2="BackgroundImageFix" result="shape"/>
<feColorMatrix in="SourceAlpha" type="matrix" values="0 0 0 0 0 0 0 0 0 0 0 0 0 0 0 0 0 0 127 0" result="hardAlpha"/>
<feMorphology radius="24" operator="erode" in="SourceAlpha" result="effect1_innerShadow_5_5194"/>
<feOffset dx="24" dy="32"/>
<feGaussianBlur stdDeviation="92"/>
<feComposite in2="hardAlpha" operator="arithmetic" k2="-1" k3="1"/>
<feColorMatrix type="matrix" values="0 0 0 0 0.0235294 0 0 0 0 0.0313726 0 0 0 0 0.34902 0 0 0 0.75 0"/>
<feBlend mode="normal" in2="shape" result="effect1_innerShadow_5_5194"/>
</filter>
<filter id="filter2_i_5_5194" x="73.0015" y="136.877" width="1442.45" height="1421.53" filterUnits="userSpaceOnUse" color-interpolation-filters="sRGB">
<feFlood flood-opacity="0" result="BackgroundImageFix"/>
<feBlend mode="normal" in="SourceGraphic" in2="BackgroundImageFix" result="shape"/>
<feColorMatrix in="SourceAlpha" type="matrix" values="0 0 0 0 0 0 0 0 0 0 0 0 0 0 0 0 0 0 127 0" result="hardAlpha"/>
<feMorphology radius="24" operator="erode" in="SourceAlpha" result="effect1_innerShadow_5_5194"/>
<feOffset dx="24" dy="32"/>
<feGaussianBlur stdDeviation="92"/>
<feComposite in2="hardAlpha" operator="arithmetic" k2="-1" k3="1"/>
<feColorMatrix type="matrix" values="0 0 0 0 0.0235294 0 0 0 0 0.0313726 0 0 0 0 0.34902 0 0 0 0.75 0"/>
<feBlend mode="normal" in2="shape" result="effect1_innerShadow_5_5194"/>
</filter>
<radialGradient id="paint0_radial_5_5194" cx="0" cy="0" r="1" gradientUnits="userSpaceOnUse" gradientTransform="translate(831.5 118) rotate(90) scale(356.185 603.412)">
<stop stop-color="#FF8B00"/>
<stop offset="1" stop-color="#9D5600"/>
</radialGradient>
<clipPath id="clip0_5_5194">
<path d="M0 0H1663V220C1663 228.837 1655.84 236 1647 236H16C7.16341 236 0 228.837 0 220V0Z" fill="white"/>
</clipPath>
</defs>
</svg>
