<svg width="1663" height="236" viewBox="0 0 1663 236" fill="none" xmlns="http://www.w3.org/2000/svg">
<g id="Graphic Side">
<g clip-path="url(#clip0_5_6220)">
<path d="M0 0H1663V220C1663 228.837 1655.84 236 1647 236H16C7.16341 236 0 228.837 0 220V0Z" fill="url(#paint0_radial_5_6220)"/>
<g id="Big Circles">
<g id="Ellipse 5" style="mix-blend-mode:multiply" opacity="0.75" filter="url(#filter0_i_5_6220)">
<ellipse cx="1057" cy="753.307" rx="1056.31" ry="1078" transform="rotate(90 1057 753.307)" fill="white"/>
</g>
<g id="Ellipse 4" style="mix-blend-mode:multiply" opacity="0.75" filter="url(#filter1_i_5_6220)">
<ellipse cx="814.163" cy="753.307" rx="817.689" ry="835.164" transform="rotate(90 814.163 753.307)" fill="white"/>
</g>
<g id="Ellipse 3" style="mix-blend-mode:multiply" opacity="0.75" filter="url(#filter2_i_5_6220)">
<ellipse cx="782.228" cy="831.642" rx="694.765" ry="709.226" transform="rotate(90 782.228 831.642)" fill="white"/>
</g>
</g>
<path id="Title" d="M79.3516 63.5664H85.1914C85.0742 65.4805 84.5469 67.1797 83.6094 68.6641C82.6849 70.1484 81.3893 71.3073 79.7227 72.1406C78.069 72.974 76.0768 73.3906 73.7461 73.3906C71.9232 73.3906 70.2891 73.0781 68.8438 72.4531C67.3984 71.8151 66.1615 70.9036 65.1328 69.7188C64.1172 68.5339 63.3424 67.1016 62.8086 65.4219C62.2747 63.7422 62.0078 61.8607 62.0078 59.7773V57.8047C62.0078 55.7214 62.2812 53.8398 62.8281 52.1602C63.388 50.4674 64.1823 49.0286 65.2109 47.8438C66.2526 46.6589 67.4961 45.7474 68.9414 45.1094C70.3867 44.4714 72.0013 44.1523 73.7852 44.1523C76.1549 44.1523 78.1536 44.582 79.7812 45.4414C81.4219 46.3008 82.6914 47.4857 83.5898 48.9961C84.5013 50.5065 85.0482 52.2253 85.2305 54.1523H79.3711C79.306 53.0065 79.0781 52.0365 78.6875 51.2422C78.2969 50.4349 77.7044 49.8294 76.9102 49.4258C76.1289 49.0091 75.0872 48.8008 73.7852 48.8008C72.8086 48.8008 71.9557 48.9831 71.2266 49.3477C70.4974 49.7122 69.8854 50.2656 69.3906 51.0078C68.8958 51.75 68.5247 52.6875 68.2773 53.8203C68.043 54.9401 67.9258 56.2552 67.9258 57.7656V59.7773C67.9258 61.2487 68.0365 62.5443 68.2578 63.6641C68.4792 64.7708 68.8177 65.7083 69.2734 66.4766C69.7422 67.2318 70.3411 67.8047 71.0703 68.1953C71.8125 68.5729 72.7044 68.7617 73.7461 68.7617C74.9701 68.7617 75.9792 68.5664 76.7734 68.1758C77.5677 67.7852 78.1732 67.2057 78.5898 66.4375C79.0195 65.6693 79.2734 64.7122 79.3516 63.5664ZM87.7891 62.6484V62.2383C87.7891 60.6888 88.0104 59.263 88.4531 57.9609C88.8958 56.6458 89.5404 55.5065 90.3867 54.543C91.2331 53.5794 92.2747 52.8307 93.5117 52.2969C94.7487 51.75 96.168 51.4766 97.7695 51.4766C99.3711 51.4766 100.797 51.75 102.047 52.2969C103.297 52.8307 104.345 53.5794 105.191 54.543C106.051 55.5065 106.702 56.6458 107.145 57.9609C107.587 59.263 107.809 60.6888 107.809 62.2383V62.6484C107.809 64.1849 107.587 65.6107 107.145 66.9258C106.702 68.2279 106.051 69.3672 105.191 70.3438C104.345 71.3073 103.303 72.056 102.066 72.5898C100.829 73.1237 99.4102 73.3906 97.8086 73.3906C96.207 73.3906 94.7812 73.1237 93.5312 72.5898C92.2943 72.056 91.2461 71.3073 90.3867 70.3438C89.5404 69.3672 88.8958 68.2279 88.4531 66.9258C88.0104 65.6107 87.7891 64.1849 87.7891 62.6484ZM93.4141 62.2383V62.6484C93.4141 63.5339 93.4922 64.3607 93.6484 65.1289C93.8047 65.8971 94.0521 66.5742 94.3906 67.1602C94.7422 67.7331 95.1979 68.1823 95.7578 68.5078C96.3177 68.8333 97.0013 68.9961 97.8086 68.9961C98.5898 68.9961 99.2604 68.8333 99.8203 68.5078C100.38 68.1823 100.829 67.7331 101.168 67.1602C101.507 66.5742 101.754 65.8971 101.91 65.1289C102.079 64.3607 102.164 63.5339 102.164 62.6484V62.2383C102.164 61.3789 102.079 60.5716 101.91 59.8164C101.754 59.0482 101.5 58.3711 101.148 57.7852C100.81 57.1862 100.361 56.7174 99.8008 56.3789C99.2409 56.0404 98.5638 55.8711 97.7695 55.8711C96.9753 55.8711 96.2982 56.0404 95.7383 56.3789C95.1914 56.7174 94.7422 57.1862 94.3906 57.7852C94.0521 58.3711 93.8047 59.0482 93.6484 59.8164C93.4922 60.5716 93.4141 61.3789 93.4141 62.2383ZM116.891 56.2422V73H111.246V51.8672H116.539L116.891 56.2422ZM116.109 61.6914H114.547C114.547 60.2201 114.723 58.8659 115.074 57.6289C115.439 56.3789 115.966 55.2982 116.656 54.3867C117.359 53.4622 118.225 52.7461 119.254 52.2383C120.283 51.7305 121.474 51.4766 122.828 51.4766C123.766 51.4766 124.625 51.6198 125.406 51.9062C126.188 52.1797 126.858 52.6159 127.418 53.2148C127.991 53.8008 128.434 54.569 128.746 55.5195C129.059 56.457 129.215 57.5833 129.215 58.8984V73H123.59V59.5234C123.59 58.5599 123.46 57.8177 123.199 57.2969C122.939 56.776 122.568 56.4115 122.086 56.2031C121.617 55.9948 121.051 55.8906 120.387 55.8906C119.658 55.8906 119.02 56.0404 118.473 56.3398C117.939 56.6393 117.496 57.056 117.145 57.5898C116.793 58.1107 116.533 58.7227 116.363 59.4258C116.194 60.1289 116.109 60.8841 116.109 61.6914ZM128.688 61.0469L126.676 61.3008C126.676 59.9206 126.845 58.638 127.184 57.4531C127.535 56.2682 128.049 55.2266 128.727 54.3281C129.417 53.4297 130.27 52.7331 131.285 52.2383C132.301 51.7305 133.473 51.4766 134.801 51.4766C135.816 51.4766 136.741 51.6263 137.574 51.9258C138.408 52.2122 139.117 52.6745 139.703 53.3125C140.302 53.9375 140.758 54.7578 141.07 55.7734C141.396 56.7891 141.559 58.0326 141.559 59.5039V73H135.914V59.5039C135.914 58.5273 135.784 57.7852 135.523 57.2773C135.276 56.7565 134.911 56.3984 134.43 56.2031C133.961 55.9948 133.401 55.8906 132.75 55.8906C132.073 55.8906 131.48 56.0273 130.973 56.3008C130.465 56.5612 130.042 56.9258 129.703 57.3945C129.365 57.8633 129.111 58.4102 128.941 59.0352C128.772 59.6471 128.688 60.3177 128.688 61.0469ZM151.539 56.2422V73H145.895V51.8672H151.188L151.539 56.2422ZM150.758 61.6914H149.195C149.195 60.2201 149.371 58.8659 149.723 57.6289C150.087 56.3789 150.615 55.2982 151.305 54.3867C152.008 53.4622 152.874 52.7461 153.902 52.2383C154.931 51.7305 156.122 51.4766 157.477 51.4766C158.414 51.4766 159.273 51.6198 160.055 51.9062C160.836 52.1797 161.507 52.6159 162.066 53.2148C162.639 53.8008 163.082 54.569 163.395 55.5195C163.707 56.457 163.863 57.5833 163.863 58.8984V73H158.238V59.5234C158.238 58.5599 158.108 57.8177 157.848 57.2969C157.587 56.776 157.216 56.4115 156.734 56.2031C156.266 55.9948 155.699 55.8906 155.035 55.8906C154.306 55.8906 153.668 56.0404 153.121 56.3398C152.587 56.6393 152.145 57.056 151.793 57.5898C151.441 58.1107 151.181 58.7227 151.012 59.4258C150.842 60.1289 150.758 60.8841 150.758 61.6914ZM163.336 61.0469L161.324 61.3008C161.324 59.9206 161.493 58.638 161.832 57.4531C162.184 56.2682 162.698 55.2266 163.375 54.3281C164.065 53.4297 164.918 52.7331 165.934 52.2383C166.949 51.7305 168.121 51.4766 169.449 51.4766C170.465 51.4766 171.389 51.6263 172.223 51.9258C173.056 52.2122 173.766 52.6745 174.352 53.3125C174.951 53.9375 175.406 54.7578 175.719 55.7734C176.044 56.7891 176.207 58.0326 176.207 59.5039V73H170.562V59.5039C170.562 58.5273 170.432 57.7852 170.172 57.2773C169.924 56.7565 169.56 56.3984 169.078 56.2031C168.609 55.9948 168.049 55.8906 167.398 55.8906C166.721 55.8906 166.129 56.0273 165.621 56.3008C165.113 56.5612 164.69 56.9258 164.352 57.3945C164.013 57.8633 163.759 58.4102 163.59 59.0352C163.421 59.6471 163.336 60.3177 163.336 61.0469ZM190.289 73.3906C188.648 73.3906 187.177 73.1302 185.875 72.6094C184.573 72.0755 183.466 71.3398 182.555 70.4023C181.656 69.4648 180.966 68.3776 180.484 67.1406C180.003 65.8906 179.762 64.5625 179.762 63.1562V62.375C179.762 60.7734 179.99 59.3086 180.445 57.9805C180.901 56.6523 181.552 55.5 182.398 54.5234C183.258 53.5469 184.299 52.7982 185.523 52.2773C186.747 51.7435 188.128 51.4766 189.664 51.4766C191.161 51.4766 192.49 51.724 193.648 52.2188C194.807 52.7135 195.777 53.4167 196.559 54.3281C197.353 55.2396 197.952 56.3333 198.355 57.6094C198.759 58.8724 198.961 60.2786 198.961 61.8281V64.1719H182.164V60.4219H193.434V59.9922C193.434 59.2109 193.29 58.5143 193.004 57.9023C192.73 57.2773 192.314 56.7826 191.754 56.418C191.194 56.0534 190.478 55.8711 189.605 55.8711C188.863 55.8711 188.225 56.0339 187.691 56.3594C187.158 56.6849 186.721 57.1406 186.383 57.7266C186.057 58.3125 185.81 59.0026 185.641 59.7969C185.484 60.5781 185.406 61.4375 185.406 62.375V63.1562C185.406 64.0026 185.523 64.7839 185.758 65.5C186.005 66.2161 186.35 66.8346 186.793 67.3555C187.249 67.8763 187.796 68.2799 188.434 68.5664C189.085 68.8529 189.82 68.9961 190.641 68.9961C191.656 68.9961 192.6 68.8008 193.473 68.4102C194.358 68.0065 195.12 67.401 195.758 66.5938L198.492 69.5625C198.049 70.2005 197.444 70.8125 196.676 71.3984C195.921 71.9844 195.009 72.4661 193.941 72.8438C192.874 73.2083 191.656 73.3906 190.289 73.3906ZM207.789 56.4766V73H202.164V51.8672H207.457L207.789 56.4766ZM214.156 51.7305L214.059 56.9453C213.785 56.9062 213.453 56.8737 213.062 56.8477C212.685 56.8086 212.34 56.7891 212.027 56.7891C211.233 56.7891 210.543 56.8932 209.957 57.1016C209.384 57.2969 208.902 57.5898 208.512 57.9805C208.134 58.3711 207.848 58.8464 207.652 59.4062C207.47 59.9661 207.366 60.6042 207.34 61.3203L206.207 60.9688C206.207 59.6016 206.344 58.3451 206.617 57.1992C206.891 56.0404 207.288 55.0312 207.809 54.1719C208.342 53.3125 208.993 52.6484 209.762 52.1797C210.53 51.7109 211.409 51.4766 212.398 51.4766C212.711 51.4766 213.03 51.5026 213.355 51.5547C213.681 51.5938 213.948 51.6523 214.156 51.7305ZM225.152 68.9961C225.842 68.9961 226.454 68.8659 226.988 68.6055C227.522 68.332 227.939 67.9544 228.238 67.4727C228.551 66.9779 228.714 66.3984 228.727 65.7344H234.02C234.007 67.2188 233.609 68.5404 232.828 69.6992C232.047 70.8451 230.999 71.75 229.684 72.4141C228.368 73.0651 226.897 73.3906 225.27 73.3906C223.629 73.3906 222.197 73.1172 220.973 72.5703C219.762 72.0234 218.753 71.2682 217.945 70.3047C217.138 69.3281 216.533 68.1953 216.129 66.9062C215.725 65.6042 215.523 64.2109 215.523 62.7266V62.1602C215.523 60.6628 215.725 59.2695 216.129 57.9805C216.533 56.6784 217.138 55.5456 217.945 54.582C218.753 53.6055 219.762 52.8438 220.973 52.2969C222.184 51.75 223.603 51.4766 225.23 51.4766C226.962 51.4766 228.479 51.8086 229.781 52.4727C231.096 53.1367 232.125 54.0872 232.867 55.3242C233.622 56.5482 234.007 58 234.02 59.6797H228.727C228.714 58.9766 228.564 58.3385 228.277 57.7656C228.004 57.1927 227.6 56.737 227.066 56.3984C226.546 56.0469 225.901 55.8711 225.133 55.8711C224.312 55.8711 223.642 56.0469 223.121 56.3984C222.6 56.737 222.197 57.2057 221.91 57.8047C221.624 58.3906 221.422 59.0612 221.305 59.8164C221.201 60.5586 221.148 61.3398 221.148 62.1602V62.7266C221.148 63.5469 221.201 64.3346 221.305 65.0898C221.409 65.8451 221.604 66.5156 221.891 67.1016C222.19 67.6875 222.6 68.1497 223.121 68.4883C223.642 68.8268 224.319 68.9961 225.152 68.9961ZM243.219 51.8672V73H237.574V51.8672H243.219ZM237.223 46.3594C237.223 45.5391 237.509 44.862 238.082 44.3281C238.655 43.7943 239.423 43.5273 240.387 43.5273C241.337 43.5273 242.099 43.7943 242.672 44.3281C243.258 44.862 243.551 45.5391 243.551 46.3594C243.551 47.1797 243.258 47.8568 242.672 48.3906C242.099 48.9245 241.337 49.1914 240.387 49.1914C239.423 49.1914 238.655 48.9245 238.082 48.3906C237.509 47.8568 237.223 47.1797 237.223 46.3594ZM259.273 68.2344V58.8203C259.273 58.1432 259.163 57.5638 258.941 57.082C258.72 56.5872 258.375 56.2031 257.906 55.9297C257.451 55.6562 256.858 55.5195 256.129 55.5195C255.504 55.5195 254.964 55.6302 254.508 55.8516C254.052 56.0599 253.701 56.3659 253.453 56.7695C253.206 57.1602 253.082 57.6224 253.082 58.1562H247.457C247.457 57.2578 247.665 56.4049 248.082 55.5977C248.499 54.7904 249.104 54.0807 249.898 53.4688C250.693 52.8438 251.637 52.3555 252.73 52.0039C253.837 51.6523 255.074 51.4766 256.441 51.4766C258.082 51.4766 259.54 51.75 260.816 52.2969C262.092 52.8438 263.095 53.6641 263.824 54.7578C264.566 55.8516 264.938 57.2188 264.938 58.8594V67.9023C264.938 69.0612 265.009 70.0117 265.152 70.7539C265.296 71.4831 265.504 72.1211 265.777 72.668V73H260.094C259.82 72.4271 259.612 71.7109 259.469 70.8516C259.339 69.9792 259.273 69.1068 259.273 68.2344ZM260.016 60.1289L260.055 63.3125H256.91C256.168 63.3125 255.523 63.3971 254.977 63.5664C254.43 63.7357 253.98 63.9766 253.629 64.2891C253.277 64.5885 253.017 64.9401 252.848 65.3438C252.691 65.7474 252.613 66.1901 252.613 66.6719C252.613 67.1536 252.724 67.5898 252.945 67.9805C253.167 68.3581 253.486 68.6576 253.902 68.8789C254.319 69.0872 254.807 69.1914 255.367 69.1914C256.214 69.1914 256.949 69.0221 257.574 68.6836C258.199 68.3451 258.681 67.9284 259.02 67.4336C259.371 66.9388 259.553 66.4701 259.566 66.0273L261.051 68.4102C260.842 68.944 260.556 69.4974 260.191 70.0703C259.84 70.6432 259.391 71.1836 258.844 71.6914C258.297 72.1862 257.639 72.5964 256.871 72.9219C256.103 73.2344 255.191 73.3906 254.137 73.3906C252.796 73.3906 251.578 73.1237 250.484 72.5898C249.404 72.043 248.544 71.2943 247.906 70.3438C247.281 69.3802 246.969 68.2865 246.969 67.0625C246.969 65.9557 247.177 64.9727 247.594 64.1133C248.01 63.2539 248.622 62.5312 249.43 61.9453C250.25 61.3464 251.272 60.8971 252.496 60.5977C253.72 60.2852 255.139 60.1289 256.754 60.1289H260.016ZM275.211 43V73H269.566V43H275.211Z" fill="white"/>
<path id="Description" d="M57.9541 112.328L61.2109 99.6484H62.918L62.7271 102.917L59.2456 116H57.4712L57.9541 112.328ZM55.5171 99.6484L58.1562 112.227L58.3921 116H56.5054L52.7207 99.6484H55.5171ZM66.6128 112.193L69.2183 99.6484H72.0259L68.2412 116H66.3545L66.6128 112.193ZM63.5806 99.6484L66.8037 112.361L67.2754 116H65.501L62.0757 102.917L61.896 99.6484H63.5806ZM76.5181 98.75V116H73.8228V98.75H76.5181ZM76.0464 109.475L75.1704 109.464C75.1779 108.625 75.2939 107.85 75.5186 107.139C75.7507 106.428 76.0726 105.81 76.4844 105.286C76.9036 104.755 77.4053 104.347 77.9893 104.062C78.5732 103.77 79.2209 103.624 79.9321 103.624C80.5311 103.624 81.0701 103.706 81.5493 103.871C82.036 104.036 82.4552 104.302 82.8071 104.668C83.159 105.028 83.4248 105.5 83.6045 106.083C83.7917 106.66 83.8853 107.364 83.8853 108.195V116H81.1675V108.172C81.1675 107.588 81.0814 107.124 80.9092 106.78C80.7445 106.435 80.5011 106.188 80.1792 106.039C79.8573 105.881 79.4642 105.803 79 105.803C78.5133 105.803 78.0828 105.9 77.7085 106.095C77.3416 106.289 77.0347 106.555 76.7876 106.892C76.5405 107.229 76.3534 107.618 76.2261 108.06C76.1063 108.502 76.0464 108.973 76.0464 109.475ZM91.9824 116.225C91.084 116.225 90.2716 116.079 89.5454 115.787C88.8267 115.487 88.2127 115.072 87.7036 114.54C87.202 114.008 86.8164 113.383 86.5469 112.665C86.2773 111.946 86.1426 111.171 86.1426 110.34V109.891C86.1426 108.94 86.2811 108.079 86.5581 107.308C86.8351 106.536 87.2207 105.878 87.7148 105.331C88.209 104.777 88.793 104.354 89.4668 104.062C90.1406 103.77 90.8706 103.624 91.6567 103.624C92.5252 103.624 93.2852 103.77 93.9365 104.062C94.5879 104.354 95.127 104.766 95.5537 105.297C95.988 105.821 96.3099 106.447 96.5195 107.173C96.7367 107.899 96.8452 108.7 96.8452 109.576V110.733H87.4565V108.79H94.1724V108.577C94.1574 108.09 94.0601 107.633 93.8804 107.207C93.7082 106.78 93.4424 106.435 93.083 106.173C92.7236 105.911 92.2445 105.78 91.6455 105.78C91.1963 105.78 90.7957 105.878 90.4438 106.072C90.0994 106.259 89.8112 106.533 89.5791 106.892C89.347 107.251 89.1673 107.686 89.04 108.195C88.9202 108.696 88.8604 109.262 88.8604 109.891V110.34C88.8604 110.871 88.9315 111.366 89.0737 111.822C89.2235 112.271 89.4406 112.665 89.7251 113.001C90.0096 113.338 90.354 113.604 90.7583 113.799C91.1626 113.986 91.623 114.08 92.1396 114.08C92.791 114.08 93.3713 113.949 93.8804 113.687C94.3895 113.424 94.8312 113.054 95.2056 112.575L96.6318 113.956C96.3698 114.338 96.0291 114.705 95.6099 115.057C95.1906 115.401 94.6777 115.682 94.0713 115.899C93.4723 116.116 92.776 116.225 91.9824 116.225ZM101.674 106.162V116H98.9678V103.849H101.551L101.674 106.162ZM105.392 103.77L105.369 106.286C105.204 106.256 105.025 106.233 104.83 106.218C104.643 106.203 104.456 106.196 104.269 106.196C103.804 106.196 103.396 106.263 103.044 106.398C102.693 106.525 102.397 106.712 102.157 106.959C101.925 107.199 101.745 107.491 101.618 107.835C101.491 108.18 101.416 108.565 101.394 108.992L100.776 109.037C100.776 108.273 100.851 107.566 101 106.915C101.15 106.263 101.375 105.69 101.674 105.196C101.981 104.702 102.363 104.317 102.82 104.04C103.284 103.763 103.819 103.624 104.426 103.624C104.59 103.624 104.766 103.639 104.954 103.669C105.148 103.699 105.294 103.733 105.392 103.77ZM112.22 116.225C111.321 116.225 110.509 116.079 109.783 115.787C109.064 115.487 108.45 115.072 107.941 114.54C107.439 114.008 107.054 113.383 106.784 112.665C106.515 111.946 106.38 111.171 106.38 110.34V109.891C106.38 108.94 106.518 108.079 106.795 107.308C107.072 106.536 107.458 105.878 107.952 105.331C108.446 104.777 109.03 104.354 109.704 104.062C110.378 103.77 111.108 103.624 111.894 103.624C112.763 103.624 113.522 103.77 114.174 104.062C114.825 104.354 115.364 104.766 115.791 105.297C116.225 105.821 116.547 106.447 116.757 107.173C116.974 107.899 117.083 108.7 117.083 109.576V110.733H107.694V108.79H114.41V108.577C114.395 108.09 114.297 107.633 114.118 107.207C113.945 106.78 113.68 106.435 113.32 106.173C112.961 105.911 112.482 105.78 111.883 105.78C111.434 105.78 111.033 105.878 110.681 106.072C110.337 106.259 110.049 106.533 109.816 106.892C109.584 107.251 109.405 107.686 109.277 108.195C109.158 108.696 109.098 109.262 109.098 109.891V110.34C109.098 110.871 109.169 111.366 109.311 111.822C109.461 112.271 109.678 112.665 109.962 113.001C110.247 113.338 110.591 113.604 110.996 113.799C111.4 113.986 111.86 114.08 112.377 114.08C113.028 114.08 113.609 113.949 114.118 113.687C114.627 113.424 115.069 113.054 115.443 112.575L116.869 113.956C116.607 114.338 116.266 114.705 115.847 115.057C115.428 115.401 114.915 115.682 114.309 115.899C113.71 116.116 113.013 116.225 112.22 116.225ZM128.448 114.675L131.75 103.849H134.647L129.773 117.853C129.661 118.153 129.515 118.478 129.335 118.83C129.155 119.182 128.919 119.515 128.627 119.83C128.343 120.152 127.987 120.41 127.561 120.604C127.134 120.807 126.617 120.908 126.011 120.908C125.771 120.908 125.539 120.885 125.314 120.84C125.097 120.803 124.891 120.762 124.697 120.717L124.686 118.65C124.76 118.658 124.85 118.665 124.955 118.673C125.067 118.68 125.157 118.684 125.225 118.684C125.674 118.684 126.048 118.628 126.348 118.516C126.647 118.411 126.89 118.239 127.078 117.999C127.272 117.759 127.437 117.438 127.572 117.033L128.448 114.675ZM126.583 103.849L129.47 112.945L129.953 115.798L128.077 116.281L123.664 103.849H126.583ZM135.5 110.059V109.801C135.5 108.925 135.628 108.112 135.882 107.364C136.137 106.608 136.504 105.952 136.983 105.398C137.47 104.837 138.061 104.403 138.757 104.096C139.461 103.781 140.255 103.624 141.138 103.624C142.029 103.624 142.823 103.781 143.519 104.096C144.223 104.403 144.818 104.837 145.305 105.398C145.791 105.952 146.162 106.608 146.417 107.364C146.671 108.112 146.798 108.925 146.798 109.801V110.059C146.798 110.935 146.671 111.747 146.417 112.496C146.162 113.245 145.791 113.9 145.305 114.461C144.818 115.015 144.227 115.45 143.53 115.764C142.834 116.071 142.044 116.225 141.161 116.225C140.27 116.225 139.472 116.071 138.769 115.764C138.072 115.45 137.481 115.015 136.994 114.461C136.507 113.9 136.137 113.245 135.882 112.496C135.628 111.747 135.5 110.935 135.5 110.059ZM138.207 109.801V110.059C138.207 110.606 138.263 111.122 138.375 111.609C138.488 112.096 138.664 112.522 138.903 112.889C139.143 113.256 139.45 113.544 139.824 113.754C140.199 113.964 140.644 114.068 141.161 114.068C141.662 114.068 142.097 113.964 142.463 113.754C142.838 113.544 143.145 113.256 143.384 112.889C143.624 112.522 143.8 112.096 143.912 111.609C144.032 111.122 144.092 110.606 144.092 110.059V109.801C144.092 109.262 144.032 108.753 143.912 108.273C143.8 107.787 143.62 107.356 143.373 106.982C143.133 106.608 142.826 106.316 142.452 106.106C142.085 105.889 141.647 105.78 141.138 105.78C140.629 105.78 140.187 105.889 139.813 106.106C139.446 106.316 139.143 106.608 138.903 106.982C138.664 107.356 138.488 107.787 138.375 108.273C138.263 108.753 138.207 109.262 138.207 109.801ZM156.378 113.136V103.849H159.096V116H156.535L156.378 113.136ZM156.76 110.609L157.669 110.587C157.669 111.403 157.58 112.155 157.4 112.844C157.22 113.526 156.943 114.121 156.569 114.63C156.194 115.132 155.715 115.525 155.131 115.809C154.547 116.086 153.847 116.225 153.031 116.225C152.44 116.225 151.897 116.139 151.403 115.966C150.909 115.794 150.482 115.528 150.123 115.169C149.771 114.81 149.497 114.342 149.303 113.765C149.108 113.189 149.011 112.5 149.011 111.699V103.849H151.717V111.721C151.717 112.163 151.77 112.534 151.875 112.833C151.979 113.125 152.122 113.361 152.301 113.541C152.481 113.72 152.691 113.847 152.93 113.922C153.17 113.997 153.424 114.035 153.694 114.035C154.465 114.035 155.071 113.885 155.513 113.585C155.962 113.278 156.281 112.867 156.468 112.35C156.662 111.833 156.76 111.253 156.76 110.609ZM170.304 106.319V116H167.597V103.849H170.146L170.304 106.319ZM169.866 109.475L168.945 109.464C168.945 108.625 169.05 107.85 169.259 107.139C169.469 106.428 169.776 105.81 170.18 105.286C170.584 104.755 171.086 104.347 171.685 104.062C172.292 103.77 172.992 103.624 173.785 103.624C174.339 103.624 174.845 103.706 175.301 103.871C175.765 104.028 176.166 104.279 176.503 104.624C176.847 104.968 177.109 105.41 177.289 105.949C177.476 106.488 177.57 107.139 177.57 107.903V116H174.863V108.139C174.863 107.547 174.773 107.083 174.594 106.746C174.422 106.409 174.171 106.17 173.841 106.027C173.519 105.878 173.134 105.803 172.685 105.803C172.175 105.803 171.741 105.9 171.382 106.095C171.03 106.289 170.742 106.555 170.517 106.892C170.292 107.229 170.128 107.618 170.023 108.06C169.918 108.502 169.866 108.973 169.866 109.475ZM177.401 108.756L176.132 109.037C176.132 108.303 176.233 107.611 176.436 106.959C176.645 106.301 176.948 105.724 177.345 105.23C177.75 104.728 178.247 104.335 178.839 104.051C179.43 103.766 180.108 103.624 180.872 103.624C181.493 103.624 182.047 103.71 182.534 103.882C183.028 104.047 183.447 104.309 183.792 104.668C184.136 105.028 184.398 105.496 184.578 106.072C184.757 106.641 184.847 107.33 184.847 108.139V116H182.129V108.127C182.129 107.514 182.04 107.038 181.86 106.701C181.688 106.364 181.441 106.132 181.119 106.005C180.797 105.87 180.411 105.803 179.962 105.803C179.543 105.803 179.172 105.881 178.85 106.039C178.536 106.188 178.27 106.402 178.053 106.679C177.836 106.948 177.671 107.259 177.559 107.611C177.454 107.963 177.401 108.345 177.401 108.756ZM194.483 113.563V107.768C194.483 107.334 194.404 106.959 194.247 106.645C194.09 106.331 193.85 106.087 193.528 105.915C193.214 105.743 192.817 105.657 192.338 105.657C191.896 105.657 191.514 105.732 191.192 105.881C190.87 106.031 190.62 106.233 190.44 106.488C190.26 106.742 190.17 107.031 190.17 107.353H187.475C187.475 106.873 187.591 106.409 187.823 105.96C188.055 105.511 188.392 105.11 188.834 104.758C189.276 104.406 189.804 104.129 190.417 103.927C191.031 103.725 191.72 103.624 192.484 103.624C193.397 103.624 194.206 103.778 194.91 104.084C195.621 104.391 196.179 104.856 196.583 105.477C196.995 106.091 197.201 106.862 197.201 107.791V113.192C197.201 113.746 197.238 114.244 197.313 114.686C197.395 115.12 197.511 115.498 197.661 115.82V116H194.887C194.76 115.708 194.659 115.337 194.584 114.888C194.517 114.431 194.483 113.99 194.483 113.563ZM194.876 108.61L194.898 110.284H192.956C192.454 110.284 192.012 110.332 191.63 110.43C191.249 110.52 190.93 110.654 190.676 110.834C190.421 111.014 190.23 111.231 190.103 111.485C189.976 111.74 189.912 112.028 189.912 112.35C189.912 112.672 189.987 112.968 190.137 113.237C190.286 113.499 190.504 113.705 190.788 113.855C191.08 114.005 191.432 114.08 191.844 114.08C192.398 114.08 192.881 113.967 193.292 113.743C193.712 113.511 194.041 113.23 194.281 112.9C194.52 112.563 194.648 112.245 194.663 111.946L195.539 113.147C195.449 113.454 195.295 113.784 195.078 114.136C194.861 114.488 194.576 114.825 194.225 115.146C193.88 115.461 193.465 115.719 192.978 115.921C192.499 116.124 191.945 116.225 191.316 116.225C190.522 116.225 189.815 116.067 189.193 115.753C188.572 115.431 188.085 115 187.733 114.461C187.382 113.915 187.206 113.297 187.206 112.608C187.206 111.965 187.325 111.396 187.565 110.901C187.812 110.4 188.171 109.98 188.643 109.644C189.122 109.307 189.706 109.052 190.395 108.88C191.084 108.7 191.87 108.61 192.753 108.61H194.876ZM202.715 106.443V116H200.008V103.849H202.558L202.715 106.443ZM202.232 109.475L201.356 109.464C201.363 108.603 201.483 107.813 201.715 107.094C201.955 106.375 202.284 105.758 202.704 105.241C203.13 104.725 203.639 104.328 204.231 104.051C204.822 103.766 205.481 103.624 206.208 103.624C206.792 103.624 207.319 103.706 207.791 103.871C208.27 104.028 208.678 104.287 209.015 104.646C209.36 105.005 209.622 105.473 209.801 106.05C209.981 106.619 210.071 107.319 210.071 108.15V116H207.353V108.139C207.353 107.555 207.267 107.094 207.095 106.757C206.93 106.413 206.687 106.17 206.365 106.027C206.05 105.878 205.657 105.803 205.186 105.803C204.721 105.803 204.306 105.9 203.939 106.095C203.572 106.289 203.261 106.555 203.007 106.892C202.76 107.229 202.569 107.618 202.434 108.06C202.299 108.502 202.232 108.973 202.232 109.475ZM219.684 113.563V107.768C219.684 107.334 219.605 106.959 219.448 106.645C219.291 106.331 219.051 106.087 218.729 105.915C218.415 105.743 218.018 105.657 217.539 105.657C217.097 105.657 216.715 105.732 216.394 105.881C216.072 106.031 215.821 106.233 215.641 106.488C215.461 106.742 215.372 107.031 215.372 107.353H212.676C212.676 106.873 212.792 106.409 213.024 105.96C213.257 105.511 213.593 105.11 214.035 104.758C214.477 104.406 215.005 104.129 215.619 103.927C216.233 103.725 216.921 103.624 217.685 103.624C218.598 103.624 219.407 103.778 220.111 104.084C220.822 104.391 221.38 104.856 221.784 105.477C222.196 106.091 222.402 106.862 222.402 107.791V113.192C222.402 113.746 222.439 114.244 222.514 114.686C222.597 115.12 222.713 115.498 222.862 115.82V116H220.088C219.961 115.708 219.86 115.337 219.785 114.888C219.718 114.431 219.684 113.99 219.684 113.563ZM220.077 108.61L220.1 110.284H218.157C217.655 110.284 217.213 110.332 216.832 110.43C216.45 110.52 216.132 110.654 215.877 110.834C215.622 111.014 215.431 111.231 215.304 111.485C215.177 111.74 215.113 112.028 215.113 112.35C215.113 112.672 215.188 112.968 215.338 113.237C215.488 113.499 215.705 113.705 215.989 113.855C216.281 114.005 216.633 114.08 217.045 114.08C217.599 114.08 218.082 113.967 218.494 113.743C218.913 113.511 219.242 113.23 219.482 112.9C219.722 112.563 219.849 112.245 219.864 111.946L220.74 113.147C220.65 113.454 220.496 113.784 220.279 114.136C220.062 114.488 219.778 114.825 219.426 115.146C219.081 115.461 218.666 115.719 218.179 115.921C217.7 116.124 217.146 116.225 216.517 116.225C215.723 116.225 215.016 116.067 214.395 115.753C213.773 115.431 213.286 115 212.935 114.461C212.583 113.915 212.407 113.297 212.407 112.608C212.407 111.965 212.527 111.396 212.766 110.901C213.013 110.4 213.373 109.98 213.844 109.644C214.323 109.307 214.907 109.052 215.596 108.88C216.285 108.7 217.071 108.61 217.955 108.61H220.077ZM233.015 103.849H235.474V115.663C235.474 116.756 235.242 117.685 234.778 118.448C234.314 119.212 233.666 119.792 232.835 120.189C232.004 120.593 231.042 120.795 229.949 120.795C229.485 120.795 228.968 120.728 228.399 120.593C227.837 120.458 227.291 120.241 226.759 119.942C226.235 119.65 225.797 119.264 225.445 118.785L226.714 117.19C227.149 117.707 227.628 118.085 228.152 118.325C228.676 118.564 229.226 118.684 229.803 118.684C230.424 118.684 230.952 118.568 231.386 118.336C231.828 118.111 232.169 117.778 232.408 117.336C232.648 116.895 232.768 116.356 232.768 115.719V106.6L233.015 103.849ZM224.76 110.059V109.823C224.76 108.902 224.873 108.064 225.097 107.308C225.322 106.544 225.644 105.889 226.063 105.342C226.482 104.788 226.991 104.365 227.59 104.073C228.189 103.774 228.867 103.624 229.623 103.624C230.409 103.624 231.079 103.766 231.633 104.051C232.195 104.335 232.663 104.743 233.037 105.275C233.411 105.799 233.703 106.428 233.913 107.162C234.13 107.888 234.291 108.696 234.396 109.587V110.34C234.299 111.208 234.134 112.002 233.902 112.721C233.67 113.439 233.363 114.061 232.981 114.585C232.599 115.109 232.127 115.513 231.566 115.798C231.012 116.082 230.357 116.225 229.601 116.225C228.859 116.225 228.189 116.071 227.59 115.764C226.999 115.457 226.49 115.027 226.063 114.473C225.644 113.919 225.322 113.267 225.097 112.519C224.873 111.762 224.76 110.943 224.76 110.059ZM227.467 109.823V110.059C227.467 110.613 227.519 111.13 227.624 111.609C227.736 112.088 227.905 112.511 228.129 112.878C228.361 113.237 228.653 113.522 229.005 113.731C229.365 113.934 229.788 114.035 230.274 114.035C230.911 114.035 231.431 113.9 231.835 113.63C232.247 113.361 232.562 112.998 232.779 112.541C233.003 112.077 233.161 111.56 233.25 110.991V108.958C233.206 108.517 233.112 108.105 232.97 107.723C232.835 107.341 232.652 107.008 232.419 106.724C232.187 106.432 231.895 106.207 231.543 106.05C231.192 105.885 230.776 105.803 230.297 105.803C229.81 105.803 229.387 105.908 229.028 106.117C228.668 106.327 228.373 106.615 228.141 106.982C227.916 107.349 227.748 107.776 227.635 108.262C227.523 108.749 227.467 109.269 227.467 109.823ZM243.639 116.225C242.74 116.225 241.928 116.079 241.202 115.787C240.483 115.487 239.869 115.072 239.36 114.54C238.858 114.008 238.473 113.383 238.203 112.665C237.934 111.946 237.799 111.171 237.799 110.34V109.891C237.799 108.94 237.937 108.079 238.214 107.308C238.491 106.536 238.877 105.878 239.371 105.331C239.865 104.777 240.449 104.354 241.123 104.062C241.797 103.77 242.527 103.624 243.313 103.624C244.181 103.624 244.941 103.77 245.593 104.062C246.244 104.354 246.783 104.766 247.21 105.297C247.644 105.821 247.966 106.447 248.176 107.173C248.393 107.899 248.501 108.7 248.501 109.576V110.733H239.113V108.79H245.829V108.577C245.814 108.09 245.716 107.633 245.537 107.207C245.364 106.78 245.099 106.435 244.739 106.173C244.38 105.911 243.901 105.78 243.302 105.78C242.853 105.78 242.452 105.878 242.1 106.072C241.756 106.259 241.467 106.533 241.235 106.892C241.003 107.251 240.824 107.686 240.696 108.195C240.576 108.696 240.517 109.262 240.517 109.891V110.34C240.517 110.871 240.588 111.366 240.73 111.822C240.88 112.271 241.097 112.665 241.381 113.001C241.666 113.338 242.01 113.604 242.415 113.799C242.819 113.986 243.279 114.08 243.796 114.08C244.447 114.08 245.028 113.949 245.537 113.687C246.046 113.424 246.487 113.054 246.862 112.575L248.288 113.956C248.026 114.338 247.685 114.705 247.266 115.057C246.847 115.401 246.334 115.682 245.728 115.899C245.129 116.116 244.432 116.225 243.639 116.225ZM259.867 114.675L263.168 103.849H266.066L261.192 117.853C261.08 118.153 260.934 118.478 260.754 118.83C260.574 119.182 260.338 119.515 260.046 119.83C259.762 120.152 259.406 120.41 258.979 120.604C258.553 120.807 258.036 120.908 257.43 120.908C257.19 120.908 256.958 120.885 256.733 120.84C256.516 120.803 256.31 120.762 256.116 120.717L256.104 118.65C256.179 118.658 256.269 118.665 256.374 118.673C256.486 118.68 256.576 118.684 256.644 118.684C257.093 118.684 257.467 118.628 257.767 118.516C258.066 118.411 258.309 118.239 258.497 117.999C258.691 117.759 258.856 117.438 258.991 117.033L259.867 114.675ZM258.002 103.849L260.889 112.945L261.372 115.798L259.496 116.281L255.083 103.849H258.002ZM266.919 110.059V109.801C266.919 108.925 267.047 108.112 267.301 107.364C267.556 106.608 267.923 105.952 268.402 105.398C268.889 104.837 269.48 104.403 270.176 104.096C270.88 103.781 271.674 103.624 272.557 103.624C273.448 103.624 274.242 103.781 274.938 104.096C275.642 104.403 276.237 104.837 276.724 105.398C277.21 105.952 277.581 106.608 277.835 107.364C278.09 108.112 278.217 108.925 278.217 109.801V110.059C278.217 110.935 278.09 111.747 277.835 112.496C277.581 113.245 277.21 113.9 276.724 114.461C276.237 115.015 275.646 115.45 274.949 115.764C274.253 116.071 273.463 116.225 272.58 116.225C271.689 116.225 270.891 116.071 270.188 115.764C269.491 115.45 268.9 115.015 268.413 114.461C267.926 113.9 267.556 113.245 267.301 112.496C267.047 111.747 266.919 110.935 266.919 110.059ZM269.626 109.801V110.059C269.626 110.606 269.682 111.122 269.794 111.609C269.907 112.096 270.083 112.522 270.322 112.889C270.562 113.256 270.869 113.544 271.243 113.754C271.618 113.964 272.063 114.068 272.58 114.068C273.081 114.068 273.515 113.964 273.882 113.754C274.257 113.544 274.564 113.256 274.803 112.889C275.043 112.522 275.219 112.096 275.331 111.609C275.451 111.122 275.511 110.606 275.511 110.059V109.801C275.511 109.262 275.451 108.753 275.331 108.273C275.219 107.787 275.039 107.356 274.792 106.982C274.552 106.608 274.245 106.316 273.871 106.106C273.504 105.889 273.066 105.78 272.557 105.78C272.048 105.78 271.606 105.889 271.232 106.106C270.865 106.316 270.562 106.608 270.322 106.982C270.083 107.356 269.907 107.787 269.794 108.273C269.682 108.753 269.626 109.262 269.626 109.801ZM287.797 113.136V103.849H290.515V116H287.954L287.797 113.136ZM288.179 110.609L289.088 110.587C289.088 111.403 288.999 112.155 288.819 112.844C288.639 113.526 288.362 114.121 287.988 114.63C287.613 115.132 287.134 115.525 286.55 115.809C285.966 116.086 285.266 116.225 284.45 116.225C283.859 116.225 283.316 116.139 282.822 115.966C282.328 115.794 281.901 115.528 281.542 115.169C281.19 114.81 280.916 114.342 280.722 113.765C280.527 113.189 280.43 112.5 280.43 111.699V103.849H283.136V111.721C283.136 112.163 283.189 112.534 283.293 112.833C283.398 113.125 283.541 113.361 283.72 113.541C283.9 113.72 284.11 113.847 284.349 113.922C284.589 113.997 284.843 114.035 285.113 114.035C285.884 114.035 286.49 113.885 286.932 113.585C287.381 113.278 287.7 112.867 287.887 112.35C288.081 111.833 288.179 111.253 288.179 110.609ZM296.006 106.162V116H293.3V103.849H295.883L296.006 106.162ZM299.724 103.77L299.701 106.286C299.536 106.256 299.357 106.233 299.162 106.218C298.975 106.203 298.788 106.196 298.601 106.196C298.136 106.196 297.728 106.263 297.376 106.398C297.025 106.525 296.729 106.712 296.489 106.959C296.257 107.199 296.077 107.491 295.95 107.835C295.823 108.18 295.748 108.565 295.726 108.992L295.108 109.037C295.108 108.273 295.183 107.566 295.333 106.915C295.482 106.263 295.707 105.69 296.006 105.196C296.313 104.702 296.695 104.317 297.152 104.04C297.616 103.763 298.151 103.624 298.758 103.624C298.923 103.624 299.098 103.639 299.286 103.669C299.48 103.699 299.626 103.733 299.724 103.77ZM313.964 112.709C313.964 112.44 313.896 112.197 313.762 111.979C313.627 111.755 313.369 111.553 312.987 111.373C312.612 111.193 312.058 111.029 311.325 110.879C310.681 110.737 310.089 110.568 309.55 110.374C309.019 110.171 308.562 109.928 308.18 109.644C307.798 109.359 307.503 109.022 307.293 108.633C307.083 108.243 306.979 107.794 306.979 107.285C306.979 106.791 307.087 106.323 307.304 105.881C307.521 105.44 307.832 105.05 308.236 104.713C308.641 104.376 309.131 104.111 309.708 103.916C310.292 103.721 310.943 103.624 311.662 103.624C312.68 103.624 313.552 103.796 314.278 104.141C315.012 104.478 315.574 104.938 315.963 105.522C316.352 106.098 316.547 106.75 316.547 107.476H313.84C313.84 107.154 313.758 106.855 313.593 106.578C313.436 106.293 313.196 106.065 312.875 105.893C312.553 105.713 312.148 105.623 311.662 105.623C311.197 105.623 310.812 105.698 310.505 105.848C310.205 105.99 309.981 106.177 309.831 106.409C309.689 106.641 309.618 106.896 309.618 107.173C309.618 107.375 309.655 107.558 309.73 107.723C309.812 107.88 309.947 108.026 310.134 108.161C310.321 108.288 310.576 108.408 310.898 108.521C311.227 108.633 311.639 108.741 312.133 108.846C313.062 109.041 313.859 109.292 314.525 109.599C315.199 109.898 315.716 110.287 316.075 110.767C316.435 111.238 316.614 111.837 316.614 112.563C316.614 113.103 316.498 113.597 316.266 114.046C316.042 114.488 315.712 114.873 315.278 115.203C314.844 115.525 314.323 115.775 313.717 115.955C313.118 116.135 312.444 116.225 311.695 116.225C310.595 116.225 309.663 116.03 308.899 115.641C308.135 115.244 307.555 114.738 307.158 114.125C306.769 113.503 306.574 112.859 306.574 112.193H309.191C309.221 112.694 309.359 113.095 309.606 113.395C309.861 113.687 310.175 113.9 310.55 114.035C310.932 114.162 311.325 114.226 311.729 114.226C312.216 114.226 312.624 114.162 312.953 114.035C313.283 113.9 313.533 113.72 313.706 113.496C313.878 113.264 313.964 113.001 313.964 112.709ZM322.51 114.675L325.812 103.849H328.709L323.835 117.853C323.723 118.153 323.577 118.478 323.397 118.83C323.218 119.182 322.982 119.515 322.69 119.83C322.405 120.152 322.05 120.41 321.623 120.604C321.196 120.807 320.68 120.908 320.073 120.908C319.834 120.908 319.602 120.885 319.377 120.84C319.16 120.803 318.954 120.762 318.759 120.717L318.748 118.65C318.823 118.658 318.913 118.665 319.018 118.673C319.13 118.68 319.22 118.684 319.287 118.684C319.736 118.684 320.111 118.628 320.41 118.516C320.71 118.411 320.953 118.239 321.14 117.999C321.335 117.759 321.5 117.438 321.634 117.033L322.51 114.675ZM320.646 103.849L323.532 112.945L324.015 115.798L322.14 116.281L317.726 103.849H320.646ZM337.076 112.709C337.076 112.44 337.009 112.197 336.874 111.979C336.739 111.755 336.481 111.553 336.099 111.373C335.725 111.193 335.171 111.029 334.437 110.879C333.793 110.737 333.202 110.568 332.663 110.374C332.131 110.171 331.674 109.928 331.292 109.644C330.911 109.359 330.615 109.022 330.405 108.633C330.196 108.243 330.091 107.794 330.091 107.285C330.091 106.791 330.199 106.323 330.417 105.881C330.634 105.44 330.944 105.05 331.349 104.713C331.753 104.376 332.243 104.111 332.82 103.916C333.404 103.721 334.055 103.624 334.774 103.624C335.792 103.624 336.664 103.796 337.391 104.141C338.124 104.478 338.686 104.938 339.075 105.522C339.465 106.098 339.659 106.75 339.659 107.476H336.953C336.953 107.154 336.87 106.855 336.706 106.578C336.548 106.293 336.309 106.065 335.987 105.893C335.665 105.713 335.261 105.623 334.774 105.623C334.31 105.623 333.924 105.698 333.617 105.848C333.318 105.99 333.093 106.177 332.943 106.409C332.801 106.641 332.73 106.896 332.73 107.173C332.73 107.375 332.767 107.558 332.842 107.723C332.925 107.88 333.059 108.026 333.247 108.161C333.434 108.288 333.688 108.408 334.01 108.521C334.34 108.633 334.751 108.741 335.246 108.846C336.174 109.041 336.971 109.292 337.638 109.599C338.312 109.898 338.828 110.287 339.188 110.767C339.547 111.238 339.727 111.837 339.727 112.563C339.727 113.103 339.611 113.597 339.378 114.046C339.154 114.488 338.824 114.873 338.39 115.203C337.956 115.525 337.436 115.775 336.829 115.955C336.23 116.135 335.556 116.225 334.808 116.225C333.707 116.225 332.775 116.03 332.011 115.641C331.248 115.244 330.667 114.738 330.271 114.125C329.881 113.503 329.687 112.859 329.687 112.193H332.303C332.333 112.694 332.472 113.095 332.719 113.395C332.973 113.687 333.288 113.9 333.662 114.035C334.044 114.162 334.437 114.226 334.841 114.226C335.328 114.226 335.736 114.162 336.065 114.035C336.395 113.9 336.646 113.72 336.818 113.496C336.99 113.264 337.076 113.001 337.076 112.709ZM347.667 103.849V105.825H340.816V103.849H347.667ZM342.792 100.873H345.499V112.642C345.499 113.016 345.551 113.305 345.656 113.507C345.769 113.701 345.922 113.833 346.117 113.9C346.311 113.967 346.54 114.001 346.802 114.001C346.989 114.001 347.169 113.99 347.341 113.967C347.513 113.945 347.652 113.922 347.756 113.9L347.768 115.966C347.543 116.034 347.281 116.094 346.981 116.146C346.689 116.198 346.353 116.225 345.971 116.225C345.349 116.225 344.799 116.116 344.32 115.899C343.841 115.674 343.466 115.311 343.197 114.81C342.927 114.308 342.792 113.642 342.792 112.811V100.873ZM355.112 116.225C354.214 116.225 353.402 116.079 352.675 115.787C351.957 115.487 351.343 115.072 350.833 114.54C350.332 114.008 349.946 113.383 349.677 112.665C349.407 111.946 349.272 111.171 349.272 110.34V109.891C349.272 108.94 349.411 108.079 349.688 107.308C349.965 106.536 350.351 105.878 350.845 105.331C351.339 104.777 351.923 104.354 352.597 104.062C353.271 103.77 354 103.624 354.787 103.624C355.655 103.624 356.415 103.77 357.066 104.062C357.718 104.354 358.257 104.766 358.684 105.297C359.118 105.821 359.44 106.447 359.649 107.173C359.867 107.899 359.975 108.7 359.975 109.576V110.733H350.586V108.79H357.302V108.577C357.287 108.09 357.19 107.633 357.01 107.207C356.838 106.78 356.572 106.435 356.213 106.173C355.854 105.911 355.374 105.78 354.775 105.78C354.326 105.78 353.926 105.878 353.574 106.072C353.229 106.259 352.941 106.533 352.709 106.892C352.477 107.251 352.297 107.686 352.17 108.195C352.05 108.696 351.99 109.262 351.99 109.891V110.34C351.99 110.871 352.061 111.366 352.204 111.822C352.353 112.271 352.57 112.665 352.855 113.001C353.139 113.338 353.484 113.604 353.888 113.799C354.292 113.986 354.753 114.08 355.27 114.08C355.921 114.08 356.501 113.949 357.01 113.687C357.519 113.424 357.961 113.054 358.335 112.575L359.762 113.956C359.5 114.338 359.159 114.705 358.74 115.057C358.32 115.401 357.808 115.682 357.201 115.899C356.602 116.116 355.906 116.225 355.112 116.225ZM364.793 106.319V116H362.086V103.849H364.636L364.793 106.319ZM364.355 109.475L363.434 109.464C363.434 108.625 363.539 107.85 363.749 107.139C363.958 106.428 364.265 105.81 364.669 105.286C365.074 104.755 365.575 104.347 366.174 104.062C366.781 103.77 367.481 103.624 368.274 103.624C368.828 103.624 369.334 103.706 369.791 103.871C370.255 104.028 370.655 104.279 370.992 104.624C371.337 104.968 371.599 105.41 371.778 105.949C371.965 106.488 372.059 107.139 372.059 107.903V116H369.353V108.139C369.353 107.547 369.263 107.083 369.083 106.746C368.911 106.409 368.66 106.17 368.331 106.027C368.009 105.878 367.623 105.803 367.174 105.803C366.665 105.803 366.23 105.9 365.871 106.095C365.519 106.289 365.231 106.555 365.006 106.892C364.782 107.229 364.617 107.618 364.512 108.06C364.407 108.502 364.355 108.973 364.355 109.475ZM371.891 108.756L370.622 109.037C370.622 108.303 370.723 107.611 370.925 106.959C371.134 106.301 371.438 105.724 371.834 105.23C372.239 104.728 372.737 104.335 373.328 104.051C373.92 103.766 374.597 103.624 375.361 103.624C375.982 103.624 376.536 103.71 377.023 103.882C377.517 104.047 377.936 104.309 378.281 104.668C378.625 105.028 378.887 105.496 379.067 106.072C379.247 106.641 379.336 107.33 379.336 108.139V116H376.619V108.127C376.619 107.514 376.529 107.038 376.349 106.701C376.177 106.364 375.93 106.132 375.608 106.005C375.286 105.87 374.9 105.803 374.451 105.803C374.032 105.803 373.661 105.881 373.339 106.039C373.025 106.188 372.759 106.402 372.542 106.679C372.325 106.948 372.16 107.259 372.048 107.611C371.943 107.963 371.891 108.345 371.891 108.756ZM392.813 114.068C393.255 114.068 393.652 113.982 394.003 113.81C394.363 113.63 394.651 113.383 394.868 113.069C395.093 112.754 395.216 112.391 395.239 111.979H397.788C397.773 112.766 397.541 113.481 397.092 114.125C396.643 114.768 396.047 115.281 395.306 115.663C394.565 116.037 393.745 116.225 392.847 116.225C391.918 116.225 391.11 116.067 390.421 115.753C389.732 115.431 389.159 114.989 388.703 114.428C388.246 113.866 387.902 113.219 387.669 112.485C387.445 111.751 387.333 110.965 387.333 110.126V109.733C387.333 108.895 387.445 108.109 387.669 107.375C387.902 106.634 388.246 105.982 388.703 105.421C389.159 104.859 389.732 104.421 390.421 104.107C391.11 103.785 391.915 103.624 392.835 103.624C393.809 103.624 394.662 103.819 395.396 104.208C396.13 104.59 396.706 105.125 397.125 105.814C397.552 106.495 397.773 107.289 397.788 108.195H395.239C395.216 107.746 395.104 107.341 394.902 106.982C394.707 106.615 394.43 106.323 394.071 106.106C393.719 105.889 393.296 105.78 392.802 105.78C392.255 105.78 391.802 105.893 391.443 106.117C391.083 106.334 390.803 106.634 390.601 107.016C390.398 107.39 390.252 107.813 390.163 108.285C390.08 108.749 390.039 109.232 390.039 109.733V110.126C390.039 110.628 390.08 111.115 390.163 111.586C390.245 112.058 390.387 112.481 390.589 112.855C390.799 113.222 391.083 113.518 391.443 113.743C391.802 113.96 392.259 114.068 392.813 114.068ZM399.349 110.059V109.801C399.349 108.925 399.476 108.112 399.731 107.364C399.986 106.608 400.352 105.952 400.832 105.398C401.318 104.837 401.91 104.403 402.606 104.096C403.31 103.781 404.103 103.624 404.987 103.624C405.878 103.624 406.671 103.781 407.368 104.096C408.071 104.403 408.667 104.837 409.153 105.398C409.64 105.952 410.011 106.608 410.265 107.364C410.52 108.112 410.647 108.925 410.647 109.801V110.059C410.647 110.935 410.52 111.747 410.265 112.496C410.011 113.245 409.64 113.9 409.153 114.461C408.667 115.015 408.075 115.45 407.379 115.764C406.683 116.071 405.893 116.225 405.009 116.225C404.118 116.225 403.321 116.071 402.617 115.764C401.921 115.45 401.329 115.015 400.843 114.461C400.356 113.9 399.986 113.245 399.731 112.496C399.476 111.747 399.349 110.935 399.349 110.059ZM402.056 109.801V110.059C402.056 110.606 402.112 111.122 402.224 111.609C402.336 112.096 402.512 112.522 402.752 112.889C402.992 113.256 403.299 113.544 403.673 113.754C404.047 113.964 404.493 114.068 405.009 114.068C405.511 114.068 405.945 113.964 406.312 113.754C406.686 113.544 406.993 113.256 407.233 112.889C407.472 112.522 407.648 112.096 407.761 111.609C407.881 111.122 407.94 110.606 407.94 110.059V109.801C407.94 109.262 407.881 108.753 407.761 108.273C407.648 107.787 407.469 107.356 407.222 106.982C406.982 106.608 406.675 106.316 406.301 106.106C405.934 105.889 405.496 105.78 404.987 105.78C404.478 105.78 404.036 105.889 403.662 106.106C403.295 106.316 402.992 106.608 402.752 106.982C402.512 107.356 402.336 107.787 402.224 108.273C402.112 108.753 402.056 109.262 402.056 109.801ZM415.622 106.319V116H412.916V103.849H415.465L415.622 106.319ZM415.184 109.475L414.263 109.464C414.263 108.625 414.368 107.85 414.578 107.139C414.787 106.428 415.094 105.81 415.499 105.286C415.903 104.755 416.404 104.347 417.003 104.062C417.61 103.77 418.31 103.624 419.104 103.624C419.658 103.624 420.163 103.706 420.62 103.871C421.084 104.028 421.484 104.279 421.821 104.624C422.166 104.968 422.428 105.41 422.607 105.949C422.795 106.488 422.888 107.139 422.888 107.903V116H420.182V108.139C420.182 107.547 420.092 107.083 419.912 106.746C419.74 106.409 419.489 106.17 419.16 106.027C418.838 105.878 418.452 105.803 418.003 105.803C417.494 105.803 417.06 105.9 416.7 106.095C416.348 106.289 416.06 106.555 415.835 106.892C415.611 107.229 415.446 107.618 415.341 108.06C415.236 108.502 415.184 108.973 415.184 109.475ZM422.72 108.756L421.451 109.037C421.451 108.303 421.552 107.611 421.754 106.959C421.964 106.301 422.267 105.724 422.664 105.23C423.068 104.728 423.566 104.335 424.157 104.051C424.749 103.766 425.426 103.624 426.19 103.624C426.811 103.624 427.365 103.71 427.852 103.882C428.346 104.047 428.765 104.309 429.11 104.668C429.454 105.028 429.716 105.496 429.896 106.072C430.076 106.641 430.166 107.33 430.166 108.139V116H427.448V108.127C427.448 107.514 427.358 107.038 427.178 106.701C427.006 106.364 426.759 106.132 426.437 106.005C426.115 105.87 425.729 105.803 425.28 105.803C424.861 105.803 424.49 105.881 424.168 106.039C423.854 106.188 423.588 106.402 423.371 106.679C423.154 106.948 422.989 107.259 422.877 107.611C422.772 107.963 422.72 108.345 422.72 108.756ZM435.657 106.319V116H432.951V103.849H435.5L435.657 106.319ZM435.219 109.475L434.298 109.464C434.298 108.625 434.403 107.85 434.613 107.139C434.822 106.428 435.129 105.81 435.534 105.286C435.938 104.755 436.44 104.347 437.039 104.062C437.645 103.77 438.345 103.624 439.139 103.624C439.693 103.624 440.198 103.706 440.655 103.871C441.119 104.028 441.52 104.279 441.856 104.624C442.201 104.968 442.463 105.41 442.643 105.949C442.83 106.488 442.923 107.139 442.923 107.903V116H440.217V108.139C440.217 107.547 440.127 107.083 439.947 106.746C439.775 106.409 439.524 106.17 439.195 106.027C438.873 105.878 438.487 105.803 438.038 105.803C437.529 105.803 437.095 105.9 436.735 106.095C436.383 106.289 436.095 106.555 435.871 106.892C435.646 107.229 435.481 107.618 435.376 108.06C435.272 108.502 435.219 108.973 435.219 109.475ZM442.755 108.756L441.486 109.037C441.486 108.303 441.587 107.611 441.789 106.959C441.999 106.301 442.302 105.724 442.699 105.23C443.103 104.728 443.601 104.335 444.192 104.051C444.784 103.766 445.461 103.624 446.225 103.624C446.847 103.624 447.401 103.71 447.887 103.882C448.381 104.047 448.801 104.309 449.145 104.668C449.489 105.028 449.751 105.496 449.931 106.072C450.111 106.641 450.201 107.33 450.201 108.139V116H447.483V108.127C447.483 107.514 447.393 107.038 447.213 106.701C447.041 106.364 446.794 106.132 446.472 106.005C446.15 105.87 445.765 105.803 445.315 105.803C444.896 105.803 444.526 105.881 444.204 106.039C443.889 106.188 443.623 106.402 443.406 106.679C443.189 106.948 443.024 107.259 442.912 107.611C442.807 107.963 442.755 108.345 442.755 108.756ZM458.343 116.225C457.444 116.225 456.632 116.079 455.906 115.787C455.187 115.487 454.573 115.072 454.064 114.54C453.562 114.008 453.177 113.383 452.907 112.665C452.638 111.946 452.503 111.171 452.503 110.34V109.891C452.503 108.94 452.641 108.079 452.918 107.308C453.195 106.536 453.581 105.878 454.075 105.331C454.569 104.777 455.153 104.354 455.827 104.062C456.501 103.77 457.231 103.624 458.017 103.624C458.886 103.624 459.646 103.77 460.297 104.062C460.948 104.354 461.487 104.766 461.914 105.297C462.348 105.821 462.67 106.447 462.88 107.173C463.097 107.899 463.206 108.7 463.206 109.576V110.733H453.817V108.79H460.533V108.577C460.518 108.09 460.42 107.633 460.241 107.207C460.069 106.78 459.803 106.435 459.443 106.173C459.084 105.911 458.605 105.78 458.006 105.78C457.557 105.78 457.156 105.878 456.804 106.072C456.46 106.259 456.172 106.533 455.939 106.892C455.707 107.251 455.528 107.686 455.4 108.195C455.281 108.696 455.221 109.262 455.221 109.891V110.34C455.221 110.871 455.292 111.366 455.434 111.822C455.584 112.271 455.801 112.665 456.085 113.001C456.37 113.338 456.714 113.604 457.119 113.799C457.523 113.986 457.983 114.08 458.5 114.08C459.151 114.08 459.732 113.949 460.241 113.687C460.75 113.424 461.192 113.054 461.566 112.575L462.992 113.956C462.73 114.338 462.389 114.705 461.97 115.057C461.551 115.401 461.038 115.682 460.432 115.899C459.833 116.116 459.136 116.225 458.343 116.225ZM468.035 106.162V116H465.328V103.849H467.911L468.035 106.162ZM471.752 103.77L471.729 106.286C471.565 106.256 471.385 106.233 471.19 106.218C471.003 106.203 470.816 106.196 470.629 106.196C470.165 106.196 469.757 106.263 469.405 106.398C469.053 106.525 468.757 106.712 468.518 106.959C468.285 107.199 468.106 107.491 467.979 107.835C467.851 108.18 467.776 108.565 467.754 108.992L467.136 109.037C467.136 108.273 467.211 107.566 467.361 106.915C467.511 106.263 467.735 105.69 468.035 105.196C468.342 104.702 468.723 104.317 469.18 104.04C469.644 103.763 470.18 103.624 470.786 103.624C470.951 103.624 471.127 103.639 471.314 103.669C471.509 103.699 471.655 103.733 471.752 103.77ZM478.187 114.068C478.629 114.068 479.026 113.982 479.377 113.81C479.737 113.63 480.025 113.383 480.242 113.069C480.467 112.754 480.59 112.391 480.613 111.979H483.162C483.147 112.766 482.915 113.481 482.466 114.125C482.017 114.768 481.421 115.281 480.68 115.663C479.939 116.037 479.119 116.225 478.221 116.225C477.292 116.225 476.484 116.067 475.795 115.753C475.106 115.431 474.533 114.989 474.077 114.428C473.62 113.866 473.276 113.219 473.043 112.485C472.819 111.751 472.707 110.965 472.707 110.126V109.733C472.707 108.895 472.819 108.109 473.043 107.375C473.276 106.634 473.62 105.982 474.077 105.421C474.533 104.859 475.106 104.421 475.795 104.107C476.484 103.785 477.289 103.624 478.209 103.624C479.183 103.624 480.036 103.819 480.77 104.208C481.504 104.59 482.08 105.125 482.5 105.814C482.926 106.495 483.147 107.289 483.162 108.195H480.613C480.59 107.746 480.478 107.341 480.276 106.982C480.081 106.615 479.804 106.323 479.445 106.106C479.093 105.889 478.67 105.78 478.176 105.78C477.629 105.78 477.176 105.893 476.817 106.117C476.458 106.334 476.177 106.634 475.975 107.016C475.772 107.39 475.626 107.813 475.537 108.285C475.454 108.749 475.413 109.232 475.413 109.733V110.126C475.413 110.628 475.454 111.115 475.537 111.586C475.619 112.058 475.761 112.481 475.963 112.855C476.173 113.222 476.458 113.518 476.817 113.743C477.176 113.96 477.633 114.068 478.187 114.068ZM488.137 103.849V116H485.419V103.849H488.137ZM485.24 100.659C485.24 100.247 485.375 99.9067 485.644 99.6372C485.921 99.3602 486.303 99.2217 486.79 99.2217C487.269 99.2217 487.647 99.3602 487.924 99.6372C488.201 99.9067 488.339 100.247 488.339 100.659C488.339 101.063 488.201 101.4 487.924 101.67C487.647 101.939 487.269 102.074 486.79 102.074C486.303 102.074 485.921 101.939 485.644 101.67C485.375 101.4 485.24 101.063 485.24 100.659ZM497.953 113.563V107.768C497.953 107.334 497.874 106.959 497.717 106.645C497.56 106.331 497.32 106.087 496.998 105.915C496.684 105.743 496.287 105.657 495.808 105.657C495.366 105.657 494.984 105.732 494.662 105.881C494.34 106.031 494.089 106.233 493.91 106.488C493.73 106.742 493.64 107.031 493.64 107.353H490.945C490.945 106.873 491.061 106.409 491.293 105.96C491.525 105.511 491.862 105.11 492.304 104.758C492.745 104.406 493.273 104.129 493.887 103.927C494.501 103.725 495.19 103.624 495.954 103.624C496.867 103.624 497.676 103.778 498.379 104.084C499.091 104.391 499.648 104.856 500.053 105.477C500.465 106.091 500.67 106.862 500.67 107.791V113.192C500.67 113.746 500.708 114.244 500.783 114.686C500.865 115.12 500.981 115.498 501.131 115.82V116H498.357C498.23 115.708 498.129 115.337 498.054 114.888C497.986 114.431 497.953 113.99 497.953 113.563ZM498.346 108.61L498.368 110.284H496.425C495.924 110.284 495.482 110.332 495.1 110.43C494.718 110.52 494.4 110.654 494.146 110.834C493.891 111.014 493.7 111.231 493.573 111.485C493.445 111.74 493.382 112.028 493.382 112.35C493.382 112.672 493.457 112.968 493.606 113.237C493.756 113.499 493.973 113.705 494.258 113.855C494.55 114.005 494.902 114.08 495.313 114.08C495.868 114.08 496.35 113.967 496.762 113.743C497.181 113.511 497.511 113.23 497.75 112.9C497.99 112.563 498.117 112.245 498.132 111.946L499.008 113.147C498.918 113.454 498.765 113.784 498.548 114.136C498.331 114.488 498.046 114.825 497.694 115.146C497.35 115.461 496.934 115.719 496.448 115.921C495.969 116.124 495.415 116.225 494.786 116.225C493.992 116.225 493.285 116.067 492.663 115.753C492.042 115.431 491.555 115 491.203 114.461C490.851 113.915 490.675 113.297 490.675 112.608C490.675 111.965 490.795 111.396 491.035 110.901C491.282 110.4 491.641 109.98 492.113 109.644C492.592 109.307 493.176 109.052 493.865 108.88C494.554 108.7 495.34 108.61 496.223 108.61H498.346ZM506.398 98.75V116H503.68V98.75H506.398ZM516.18 112.709C516.18 112.44 516.112 112.197 515.978 111.979C515.843 111.755 515.584 111.553 515.203 111.373C514.828 111.193 514.274 111.029 513.541 110.879C512.897 110.737 512.305 110.568 511.766 110.374C511.235 110.171 510.778 109.928 510.396 109.644C510.014 109.359 509.718 109.022 509.509 108.633C509.299 108.243 509.194 107.794 509.194 107.285C509.194 106.791 509.303 106.323 509.52 105.881C509.737 105.44 510.048 105.05 510.452 104.713C510.856 104.376 511.347 104.111 511.923 103.916C512.507 103.721 513.159 103.624 513.877 103.624C514.896 103.624 515.768 103.796 516.494 104.141C517.228 104.478 517.789 104.938 518.179 105.522C518.568 106.098 518.763 106.75 518.763 107.476H516.056C516.056 107.154 515.974 106.855 515.809 106.578C515.652 106.293 515.412 106.065 515.09 105.893C514.768 105.713 514.364 105.623 513.877 105.623C513.413 105.623 513.028 105.698 512.721 105.848C512.421 105.99 512.197 106.177 512.047 106.409C511.905 106.641 511.833 106.896 511.833 107.173C511.833 107.375 511.871 107.558 511.946 107.723C512.028 107.88 512.163 108.026 512.35 108.161C512.537 108.288 512.792 108.408 513.114 108.521C513.443 108.633 513.855 108.741 514.349 108.846C515.278 109.041 516.075 109.292 516.741 109.599C517.415 109.898 517.932 110.287 518.291 110.767C518.65 111.238 518.83 111.837 518.83 112.563C518.83 113.103 518.714 113.597 518.482 114.046C518.257 114.488 517.928 114.873 517.494 115.203C517.059 115.525 516.539 115.775 515.933 115.955C515.334 116.135 514.66 116.225 513.911 116.225C512.811 116.225 511.878 116.03 511.115 115.641C510.351 115.244 509.771 114.738 509.374 114.125C508.985 113.503 508.79 112.859 508.79 112.193H511.407C511.437 112.694 511.575 113.095 511.822 113.395C512.077 113.687 512.391 113.9 512.766 114.035C513.147 114.162 513.541 114.226 513.945 114.226C514.431 114.226 514.84 114.162 515.169 114.035C515.498 113.9 515.749 113.72 515.921 113.496C516.094 113.264 516.18 113.001 516.18 112.709Z" fill="white"/>
</g>
</g>
<defs>
<filter id="filter0_i_5_6220" x="-21" y="-303" width="2180" height="2144.61" filterUnits="userSpaceOnUse" color-interpolation-filters="sRGB">
<feFlood flood-opacity="0" result="BackgroundImageFix"/>
<feBlend mode="normal" in="SourceGraphic" in2="BackgroundImageFix" result="shape"/>
<feColorMatrix in="SourceAlpha" type="matrix" values="0 0 0 0 0 0 0 0 0 0 0 0 0 0 0 0 0 0 127 0" result="hardAlpha"/>
<feMorphology radius="24" operator="erode" in="SourceAlpha" result="effect1_innerShadow_5_6220"/>
<feOffset dx="24" dy="32"/>
<feGaussianBlur stdDeviation="92"/>
<feComposite in2="hardAlpha" operator="arithmetic" k2="-1" k3="1"/>
<feColorMatrix type="matrix" values="0 0 0 0 0.0235294 0 0 0 0 0.0313726 0 0 0 0 0.34902 0 0 0 0.75 0"/>
<feBlend mode="normal" in2="shape" result="effect1_innerShadow_5_6220"/>
</filter>
<filter id="filter1_i_5_6220" x="-21" y="-64.3818" width="1694.33" height="1667.38" filterUnits="userSpaceOnUse" color-interpolation-filters="sRGB">
<feFlood flood-opacity="0" result="BackgroundImageFix"/>
<feBlend mode="normal" in="SourceGraphic" in2="BackgroundImageFix" result="shape"/>
<feColorMatrix in="SourceAlpha" type="matrix" values="0 0 0 0 0 0 0 0 0 0 0 0 0 0 0 0 0 0 127 0" result="hardAlpha"/>
<feMorphology radius="24" operator="erode" in="SourceAlpha" result="effect1_innerShadow_5_6220"/>
<feOffset dx="24" dy="32"/>
<feGaussianBlur stdDeviation="92"/>
<feComposite in2="hardAlpha" operator="arithmetic" k2="-1" k3="1"/>
<feColorMatrix type="matrix" values="0 0 0 0 0.0235294 0 0 0 0 0.0313726 0 0 0 0 0.34902 0 0 0 0.75 0"/>
<feBlend mode="normal" in2="shape" result="effect1_innerShadow_5_6220"/>
</filter>
<filter id="filter2_i_5_6220" x="73.001" y="136.877" width="1442.45" height="1421.53" filterUnits="userSpaceOnUse" color-interpolation-filters="sRGB">
<feFlood flood-opacity="0" result="BackgroundImageFix"/>
<feBlend mode="normal" in="SourceGraphic" in2="BackgroundImageFix" result="shape"/>
<feColorMatrix in="SourceAlpha" type="matrix" values="0 0 0 0 0 0 0 0 0 0 0 0 0 0 0 0 0 0 127 0" result="hardAlpha"/>
<feMorphology radius="24" operator="erode" in="SourceAlpha" result="effect1_innerShadow_5_6220"/>
<feOffset dx="24" dy="32"/>
<feGaussianBlur stdDeviation="92"/>
<feComposite in2="hardAlpha" operator="arithmetic" k2="-1" k3="1"/>
<feColorMatrix type="matrix" values="0 0 0 0 0.0235294 0 0 0 0 0.0313726 0 0 0 0 0.34902 0 0 0 0.75 0"/>
<feBlend mode="normal" in2="shape" result="effect1_innerShadow_5_6220"/>
</filter>
<radialGradient id="paint0_radial_5_6220" cx="0" cy="0" r="1" gradientUnits="userSpaceOnUse" gradientTransform="translate(831.5 118) rotate(90) scale(356.185 603.412)">
<stop stop-color="#FF8B00"/>
<stop offset="1" stop-color="#9D5600"/>
</radialGradient>
<clipPath id="clip0_5_6220">
<path d="M0 0H1663V220C1663 228.837 1655.84 236 1647 236H16C7.16341 236 0 228.837 0 220V0Z" fill="white"/>
</clipPath>
</defs>
</svg>
