<svg width="1663" height="236" viewBox="0 0 1663 236" fill="none" xmlns="http://www.w3.org/2000/svg">
<g id="Graphic Side">
<g clip-path="url(#clip0_5_6733)">
<path d="M0 0H1663V220C1663 228.837 1655.84 236 1647 236H16C7.16341 236 0 228.837 0 220V0Z" fill="url(#paint0_radial_5_6733)"/>
<g id="Big Circles">
<g id="Ellipse 5" style="mix-blend-mode:multiply" opacity="0.75" filter="url(#filter0_i_5_6733)">
<ellipse cx="1057" cy="753.307" rx="1056.31" ry="1078" transform="rotate(90 1057 753.307)" fill="white"/>
</g>
<g id="Ellipse 4" style="mix-blend-mode:multiply" opacity="0.75" filter="url(#filter1_i_5_6733)">
<ellipse cx="814.163" cy="753.307" rx="817.689" ry="835.164" transform="rotate(90 814.163 753.307)" fill="white"/>
</g>
<g id="Ellipse 3" style="mix-blend-mode:multiply" opacity="0.75" filter="url(#filter2_i_5_6733)">
<ellipse cx="782.228" cy="831.642" rx="694.765" ry="709.226" transform="rotate(90 782.228 831.642)" fill="white"/>
</g>
</g>
<path id="Title" d="M63.6719 73H57.4805L57.5195 68.4297H63.6719C65.2083 68.4297 66.5039 68.0846 67.5586 67.3945C68.6133 66.6914 69.4076 65.6693 69.9414 64.3281C70.4883 62.987 70.7617 61.3659 70.7617 59.4648V58.0781C70.7617 56.6198 70.6055 55.3372 70.293 54.2305C69.9935 53.1237 69.5443 52.1927 68.9453 51.4375C68.3464 50.6823 67.6107 50.1159 66.7383 49.7383C65.8659 49.3477 64.8633 49.1523 63.7305 49.1523H57.3633V44.5625H63.7305C65.6315 44.5625 67.3698 44.888 68.9453 45.5391C70.5339 46.1771 71.9076 47.0951 73.0664 48.293C74.2253 49.4909 75.1172 50.9232 75.7422 52.5898C76.3802 54.2435 76.6992 56.0859 76.6992 58.1172V59.4648C76.6992 61.4831 76.3802 63.3255 75.7422 64.9922C75.1172 66.6589 74.2253 68.0911 73.0664 69.2891C71.9206 70.474 70.5469 71.3919 68.9453 72.043C67.3568 72.681 65.599 73 63.6719 73ZM60.8008 44.5625V73H54.9414V44.5625H60.8008ZM90.332 73.3906C88.6914 73.3906 87.2201 73.1302 85.918 72.6094C84.6159 72.0755 83.5091 71.3398 82.5977 70.4023C81.6992 69.4648 81.0091 68.3776 80.5273 67.1406C80.0456 65.8906 79.8047 64.5625 79.8047 63.1562V62.375C79.8047 60.7734 80.0326 59.3086 80.4883 57.9805C80.944 56.6523 81.5951 55.5 82.4414 54.5234C83.3008 53.5469 84.3424 52.7982 85.5664 52.2773C86.7904 51.7435 88.1706 51.4766 89.707 51.4766C91.2044 51.4766 92.5326 51.724 93.6914 52.2188C94.8503 52.7135 95.8203 53.4167 96.6016 54.3281C97.3958 55.2396 97.9948 56.3333 98.3984 57.6094C98.8021 58.8724 99.0039 60.2786 99.0039 61.8281V64.1719H82.207V60.4219H93.4766V59.9922C93.4766 59.2109 93.3333 58.5143 93.0469 57.9023C92.7734 57.2773 92.3568 56.7826 91.7969 56.418C91.237 56.0534 90.5208 55.8711 89.6484 55.8711C88.9062 55.8711 88.2682 56.0339 87.7344 56.3594C87.2005 56.6849 86.7643 57.1406 86.4258 57.7266C86.1003 58.3125 85.8529 59.0026 85.6836 59.7969C85.5273 60.5781 85.4492 61.4375 85.4492 62.375V63.1562C85.4492 64.0026 85.5664 64.7839 85.8008 65.5C86.0482 66.2161 86.3932 66.8346 86.8359 67.3555C87.2917 67.8763 87.8385 68.2799 88.4766 68.5664C89.1276 68.8529 89.8633 68.9961 90.6836 68.9961C91.6992 68.9961 92.6432 68.8008 93.5156 68.4102C94.401 68.0065 95.1628 67.401 95.8008 66.5938L98.5352 69.5625C98.0924 70.2005 97.487 70.8125 96.7188 71.3984C95.9635 71.9844 95.0521 72.4661 93.9844 72.8438C92.9167 73.2083 91.6992 73.3906 90.332 73.3906ZM110.938 68.9961C111.628 68.9961 112.24 68.8659 112.773 68.6055C113.307 68.332 113.724 67.9544 114.023 67.4727C114.336 66.9779 114.499 66.3984 114.512 65.7344H119.805C119.792 67.2188 119.395 68.5404 118.613 69.6992C117.832 70.8451 116.784 71.75 115.469 72.4141C114.154 73.0651 112.682 73.3906 111.055 73.3906C109.414 73.3906 107.982 73.1172 106.758 72.5703C105.547 72.0234 104.538 71.2682 103.73 70.3047C102.923 69.3281 102.318 68.1953 101.914 66.9062C101.51 65.6042 101.309 64.2109 101.309 62.7266V62.1602C101.309 60.6628 101.51 59.2695 101.914 57.9805C102.318 56.6784 102.923 55.5456 103.73 54.582C104.538 53.6055 105.547 52.8438 106.758 52.2969C107.969 51.75 109.388 51.4766 111.016 51.4766C112.747 51.4766 114.264 51.8086 115.566 52.4727C116.882 53.1367 117.91 54.0872 118.652 55.3242C119.408 56.5482 119.792 58 119.805 59.6797H114.512C114.499 58.9766 114.349 58.3385 114.062 57.7656C113.789 57.1927 113.385 56.737 112.852 56.3984C112.331 56.0469 111.686 55.8711 110.918 55.8711C110.098 55.8711 109.427 56.0469 108.906 56.3984C108.385 56.737 107.982 57.2057 107.695 57.8047C107.409 58.3906 107.207 59.0612 107.09 59.8164C106.986 60.5586 106.934 61.3398 106.934 62.1602V62.7266C106.934 63.5469 106.986 64.3346 107.09 65.0898C107.194 65.8451 107.389 66.5156 107.676 67.1016C107.975 67.6875 108.385 68.1497 108.906 68.4883C109.427 68.8268 110.104 68.9961 110.938 68.9961ZM129.004 51.8672V73H123.359V51.8672H129.004ZM123.008 46.3594C123.008 45.5391 123.294 44.862 123.867 44.3281C124.44 43.7943 125.208 43.5273 126.172 43.5273C127.122 43.5273 127.884 43.7943 128.457 44.3281C129.043 44.862 129.336 45.5391 129.336 46.3594C129.336 47.1797 129.043 47.8568 128.457 48.3906C127.884 48.9245 127.122 49.1914 126.172 49.1914C125.208 49.1914 124.44 48.9245 123.867 48.3906C123.294 47.8568 123.008 47.1797 123.008 46.3594ZM145.078 67.1602C145.078 66.7565 144.961 66.3919 144.727 66.0664C144.492 65.7409 144.056 65.4414 143.418 65.168C142.793 64.8815 141.888 64.6211 140.703 64.3867C139.635 64.1523 138.639 63.8594 137.715 63.5078C136.803 63.1432 136.009 62.707 135.332 62.1992C134.668 61.6914 134.147 61.0924 133.77 60.4023C133.392 59.6992 133.203 58.8984 133.203 58C133.203 57.1146 133.392 56.2812 133.77 55.5C134.16 54.7188 134.714 54.0286 135.43 53.4297C136.159 52.8177 137.044 52.3424 138.086 52.0039C139.141 51.6523 140.326 51.4766 141.641 51.4766C143.477 51.4766 145.052 51.7695 146.367 52.3555C147.695 52.9414 148.711 53.7487 149.414 54.7773C150.13 55.793 150.488 56.9518 150.488 58.2539H144.863C144.863 57.707 144.746 57.2188 144.512 56.7891C144.29 56.3464 143.939 56.0013 143.457 55.7539C142.988 55.4935 142.376 55.3633 141.621 55.3633C140.996 55.3633 140.456 55.474 140 55.6953C139.544 55.9036 139.193 56.1901 138.945 56.5547C138.711 56.9062 138.594 57.2969 138.594 57.7266C138.594 58.0521 138.659 58.3451 138.789 58.6055C138.932 58.8529 139.16 59.0807 139.473 59.2891C139.785 59.4974 140.189 59.6927 140.684 59.875C141.191 60.0443 141.816 60.2005 142.559 60.3438C144.082 60.6562 145.443 61.0664 146.641 61.5742C147.839 62.069 148.789 62.7461 149.492 63.6055C150.195 64.4518 150.547 65.5651 150.547 66.9453C150.547 67.8828 150.339 68.7422 149.922 69.5234C149.505 70.3047 148.906 70.9883 148.125 71.5742C147.344 72.1471 146.406 72.5964 145.312 72.9219C144.232 73.2344 143.014 73.3906 141.66 73.3906C139.694 73.3906 138.027 73.0391 136.66 72.3359C135.306 71.6328 134.277 70.7409 133.574 69.6602C132.884 68.5664 132.539 67.4466 132.539 66.3008H137.871C137.897 67.069 138.092 67.6875 138.457 68.1562C138.835 68.625 139.31 68.9635 139.883 69.1719C140.469 69.3802 141.1 69.4844 141.777 69.4844C142.507 69.4844 143.112 69.3867 143.594 69.1914C144.076 68.9831 144.44 68.7096 144.688 68.3711C144.948 68.0195 145.078 67.6159 145.078 67.1602ZM160.137 51.8672V73H154.492V51.8672H160.137ZM154.141 46.3594C154.141 45.5391 154.427 44.862 155 44.3281C155.573 43.7943 156.341 43.5273 157.305 43.5273C158.255 43.5273 159.017 43.7943 159.59 44.3281C160.176 44.862 160.469 45.5391 160.469 46.3594C160.469 47.1797 160.176 47.8568 159.59 48.3906C159.017 48.9245 158.255 49.1914 157.305 49.1914C156.341 49.1914 155.573 48.9245 155 48.3906C154.427 47.8568 154.141 47.1797 154.141 46.3594ZM163.887 62.6484V62.2383C163.887 60.6888 164.108 59.263 164.551 57.9609C164.993 56.6458 165.638 55.5065 166.484 54.543C167.331 53.5794 168.372 52.8307 169.609 52.2969C170.846 51.75 172.266 51.4766 173.867 51.4766C175.469 51.4766 176.895 51.75 178.145 52.2969C179.395 52.8307 180.443 53.5794 181.289 54.543C182.148 55.5065 182.799 56.6458 183.242 57.9609C183.685 59.263 183.906 60.6888 183.906 62.2383V62.6484C183.906 64.1849 183.685 65.6107 183.242 66.9258C182.799 68.2279 182.148 69.3672 181.289 70.3438C180.443 71.3073 179.401 72.056 178.164 72.5898C176.927 73.1237 175.508 73.3906 173.906 73.3906C172.305 73.3906 170.879 73.1237 169.629 72.5898C168.392 72.056 167.344 71.3073 166.484 70.3438C165.638 69.3672 164.993 68.2279 164.551 66.9258C164.108 65.6107 163.887 64.1849 163.887 62.6484ZM169.512 62.2383V62.6484C169.512 63.5339 169.59 64.3607 169.746 65.1289C169.902 65.8971 170.15 66.5742 170.488 67.1602C170.84 67.7331 171.296 68.1823 171.855 68.5078C172.415 68.8333 173.099 68.9961 173.906 68.9961C174.688 68.9961 175.358 68.8333 175.918 68.5078C176.478 68.1823 176.927 67.7331 177.266 67.1602C177.604 66.5742 177.852 65.8971 178.008 65.1289C178.177 64.3607 178.262 63.5339 178.262 62.6484V62.2383C178.262 61.3789 178.177 60.5716 178.008 59.8164C177.852 59.0482 177.598 58.3711 177.246 57.7852C176.908 57.1862 176.458 56.7174 175.898 56.3789C175.339 56.0404 174.661 55.8711 173.867 55.8711C173.073 55.8711 172.396 56.0404 171.836 56.3789C171.289 56.7174 170.84 57.1862 170.488 57.7852C170.15 58.3711 169.902 59.0482 169.746 59.8164C169.59 60.5716 169.512 61.3789 169.512 62.2383ZM192.871 56.3789V73H187.246V51.8672H192.52L192.871 56.3789ZM192.051 61.6914H190.527C190.527 60.1289 190.729 58.7227 191.133 57.4727C191.536 56.2096 192.103 55.1354 192.832 54.25C193.561 53.3516 194.427 52.668 195.43 52.1992C196.445 51.7174 197.578 51.4766 198.828 51.4766C199.818 51.4766 200.723 51.6198 201.543 51.9062C202.363 52.1927 203.066 52.6484 203.652 53.2734C204.251 53.8984 204.707 54.7253 205.02 55.7539C205.345 56.7826 205.508 58.0391 205.508 59.5234V73H199.844V59.5039C199.844 58.5664 199.714 57.8372 199.453 57.3164C199.193 56.7956 198.809 56.431 198.301 56.2227C197.806 56.0013 197.194 55.8906 196.465 55.8906C195.71 55.8906 195.052 56.0404 194.492 56.3398C193.945 56.6393 193.49 57.056 193.125 57.5898C192.773 58.1107 192.507 58.7227 192.324 59.4258C192.142 60.1289 192.051 60.8841 192.051 61.6914ZM220.879 58.5859V63H209.844V58.5859H220.879ZM228.594 44.5625H233.555L240.859 65.4414L248.164 44.5625H253.125L242.852 73H238.867L228.594 44.5625ZM225.918 44.5625H230.859L231.758 64.9141V73H225.918V44.5625ZM250.859 44.5625H255.82V73H249.961V64.9141L250.859 44.5625ZM272.012 68.2344V58.8203C272.012 58.1432 271.901 57.5638 271.68 57.082C271.458 56.5872 271.113 56.2031 270.645 55.9297C270.189 55.6562 269.596 55.5195 268.867 55.5195C268.242 55.5195 267.702 55.6302 267.246 55.8516C266.79 56.0599 266.439 56.3659 266.191 56.7695C265.944 57.1602 265.82 57.6224 265.82 58.1562H260.195C260.195 57.2578 260.404 56.4049 260.82 55.5977C261.237 54.7904 261.842 54.0807 262.637 53.4688C263.431 52.8438 264.375 52.3555 265.469 52.0039C266.576 51.6523 267.812 51.4766 269.18 51.4766C270.82 51.4766 272.279 51.75 273.555 52.2969C274.831 52.8438 275.833 53.6641 276.562 54.7578C277.305 55.8516 277.676 57.2188 277.676 58.8594V67.9023C277.676 69.0612 277.747 70.0117 277.891 70.7539C278.034 71.4831 278.242 72.1211 278.516 72.668V73H272.832C272.559 72.4271 272.35 71.7109 272.207 70.8516C272.077 69.9792 272.012 69.1068 272.012 68.2344ZM272.754 60.1289L272.793 63.3125H269.648C268.906 63.3125 268.262 63.3971 267.715 63.5664C267.168 63.7357 266.719 63.9766 266.367 64.2891C266.016 64.5885 265.755 64.9401 265.586 65.3438C265.43 65.7474 265.352 66.1901 265.352 66.6719C265.352 67.1536 265.462 67.5898 265.684 67.9805C265.905 68.3581 266.224 68.6576 266.641 68.8789C267.057 69.0872 267.546 69.1914 268.105 69.1914C268.952 69.1914 269.688 69.0221 270.312 68.6836C270.938 68.3451 271.419 67.9284 271.758 67.4336C272.109 66.9388 272.292 66.4701 272.305 66.0273L273.789 68.4102C273.581 68.944 273.294 69.4974 272.93 70.0703C272.578 70.6432 272.129 71.1836 271.582 71.6914C271.035 72.1862 270.378 72.5964 269.609 72.9219C268.841 73.2344 267.93 73.3906 266.875 73.3906C265.534 73.3906 264.316 73.1237 263.223 72.5898C262.142 72.043 261.283 71.2943 260.645 70.3438C260.02 69.3802 259.707 68.2865 259.707 67.0625C259.707 65.9557 259.915 64.9727 260.332 64.1133C260.749 63.2539 261.361 62.5312 262.168 61.9453C262.988 61.3464 264.01 60.8971 265.234 60.5977C266.458 60.2852 267.878 60.1289 269.492 60.1289H272.754ZM287.637 42.9805V73H282.012V42.9805H287.637ZM300.957 51.8672L291.777 62.3359L286.855 67.3164L284.805 63.2539L288.711 58.293L294.199 51.8672H300.957ZM295.117 73L288.867 63.2344L292.754 59.8359L301.602 73H295.117ZM312.715 73.3906C311.074 73.3906 309.603 73.1302 308.301 72.6094C306.999 72.0755 305.892 71.3398 304.98 70.4023C304.082 69.4648 303.392 68.3776 302.91 67.1406C302.428 65.8906 302.188 64.5625 302.188 63.1562V62.375C302.188 60.7734 302.415 59.3086 302.871 57.9805C303.327 56.6523 303.978 55.5 304.824 54.5234C305.684 53.5469 306.725 52.7982 307.949 52.2773C309.173 51.7435 310.553 51.4766 312.09 51.4766C313.587 51.4766 314.915 51.724 316.074 52.2188C317.233 52.7135 318.203 53.4167 318.984 54.3281C319.779 55.2396 320.378 56.3333 320.781 57.6094C321.185 58.8724 321.387 60.2786 321.387 61.8281V64.1719H304.59V60.4219H315.859V59.9922C315.859 59.2109 315.716 58.5143 315.43 57.9023C315.156 57.2773 314.74 56.7826 314.18 56.418C313.62 56.0534 312.904 55.8711 312.031 55.8711C311.289 55.8711 310.651 56.0339 310.117 56.3594C309.583 56.6849 309.147 57.1406 308.809 57.7266C308.483 58.3125 308.236 59.0026 308.066 59.7969C307.91 60.5781 307.832 61.4375 307.832 62.375V63.1562C307.832 64.0026 307.949 64.7839 308.184 65.5C308.431 66.2161 308.776 66.8346 309.219 67.3555C309.674 67.8763 310.221 68.2799 310.859 68.5664C311.51 68.8529 312.246 68.9961 313.066 68.9961C314.082 68.9961 315.026 68.8008 315.898 68.4102C316.784 68.0065 317.546 67.401 318.184 66.5938L320.918 69.5625C320.475 70.2005 319.87 70.8125 319.102 71.3984C318.346 71.9844 317.435 72.4661 316.367 72.8438C315.299 73.2083 314.082 73.3906 312.715 73.3906ZM330.215 56.4766V73H324.59V51.8672H329.883L330.215 56.4766ZM336.582 51.7305L336.484 56.9453C336.211 56.9062 335.879 56.8737 335.488 56.8477C335.111 56.8086 334.766 56.7891 334.453 56.7891C333.659 56.7891 332.969 56.8932 332.383 57.1016C331.81 57.2969 331.328 57.5898 330.938 57.9805C330.56 58.3711 330.273 58.8464 330.078 59.4062C329.896 59.9661 329.792 60.6042 329.766 61.3203L328.633 60.9688C328.633 59.6016 328.77 58.3451 329.043 57.1992C329.316 56.0404 329.714 55.0312 330.234 54.1719C330.768 53.3125 331.419 52.6484 332.188 52.1797C332.956 51.7109 333.835 51.4766 334.824 51.4766C335.137 51.4766 335.456 51.5026 335.781 51.5547C336.107 51.5938 336.374 51.6523 336.582 51.7305ZM350.664 67.1602C350.664 66.7565 350.547 66.3919 350.312 66.0664C350.078 65.7409 349.642 65.4414 349.004 65.168C348.379 64.8815 347.474 64.6211 346.289 64.3867C345.221 64.1523 344.225 63.8594 343.301 63.5078C342.389 63.1432 341.595 62.707 340.918 62.1992C340.254 61.6914 339.733 61.0924 339.355 60.4023C338.978 59.6992 338.789 58.8984 338.789 58C338.789 57.1146 338.978 56.2812 339.355 55.5C339.746 54.7188 340.299 54.0286 341.016 53.4297C341.745 52.8177 342.63 52.3424 343.672 52.0039C344.727 51.6523 345.911 51.4766 347.227 51.4766C349.062 51.4766 350.638 51.7695 351.953 52.3555C353.281 52.9414 354.297 53.7487 355 54.7773C355.716 55.793 356.074 56.9518 356.074 58.2539H350.449C350.449 57.707 350.332 57.2188 350.098 56.7891C349.876 56.3464 349.525 56.0013 349.043 55.7539C348.574 55.4935 347.962 55.3633 347.207 55.3633C346.582 55.3633 346.042 55.474 345.586 55.6953C345.13 55.9036 344.779 56.1901 344.531 56.5547C344.297 56.9062 344.18 57.2969 344.18 57.7266C344.18 58.0521 344.245 58.3451 344.375 58.6055C344.518 58.8529 344.746 59.0807 345.059 59.2891C345.371 59.4974 345.775 59.6927 346.27 59.875C346.777 60.0443 347.402 60.2005 348.145 60.3438C349.668 60.6562 351.029 61.0664 352.227 61.5742C353.424 62.069 354.375 62.7461 355.078 63.6055C355.781 64.4518 356.133 65.5651 356.133 66.9453C356.133 67.8828 355.924 68.7422 355.508 69.5234C355.091 70.3047 354.492 70.9883 353.711 71.5742C352.93 72.1471 351.992 72.5964 350.898 72.9219C349.818 73.2344 348.6 73.3906 347.246 73.3906C345.28 73.3906 343.613 73.0391 342.246 72.3359C340.892 71.6328 339.863 70.7409 339.16 69.6602C338.47 68.5664 338.125 67.4466 338.125 66.3008H343.457C343.483 67.069 343.678 67.6875 344.043 68.1562C344.421 68.625 344.896 68.9635 345.469 69.1719C346.055 69.3802 346.686 69.4844 347.363 69.4844C348.092 69.4844 348.698 69.3867 349.18 69.1914C349.661 68.9831 350.026 68.7096 350.273 68.3711C350.534 68.0195 350.664 67.6159 350.664 67.1602Z" fill="white"/>
<path id="Description" d="M58.1094 112.328L61.3662 99.6484H63.0732L62.8823 102.917L59.4009 116H57.6265L58.1094 112.328ZM55.6724 99.6484L58.3115 112.227L58.5474 116H56.6606L52.876 99.6484H55.6724ZM66.7681 112.193L69.3735 99.6484H72.1812L68.3965 116H66.5098L66.7681 112.193ZM63.7358 99.6484L66.959 112.361L67.4307 116H65.6562L62.231 102.917L62.0513 99.6484H63.7358ZM76.6733 98.75V116H73.978V98.75H76.6733ZM76.2017 109.475L75.3257 109.464C75.3332 108.625 75.4492 107.85 75.6738 107.139C75.9059 106.428 76.2279 105.81 76.6396 105.286C77.0589 104.755 77.5605 104.347 78.1445 104.062C78.7285 103.77 79.3761 103.624 80.0874 103.624C80.6864 103.624 81.2254 103.706 81.7046 103.871C82.1912 104.036 82.6105 104.302 82.9624 104.668C83.3143 105.028 83.5801 105.5 83.7598 106.083C83.9469 106.66 84.0405 107.364 84.0405 108.195V116H81.3228V108.172C81.3228 107.588 81.2367 107.124 81.0645 106.78C80.8997 106.435 80.6564 106.188 80.3345 106.039C80.0125 105.881 79.6195 105.803 79.1553 105.803C78.6686 105.803 78.2381 105.9 77.8638 106.095C77.4969 106.289 77.1899 106.555 76.9429 106.892C76.6958 107.229 76.5086 107.618 76.3813 108.06C76.2616 108.502 76.2017 108.973 76.2017 109.475ZM92.1377 116.225C91.2393 116.225 90.4269 116.079 89.7007 115.787C88.9819 115.487 88.368 115.072 87.8589 114.54C87.3573 114.008 86.9717 113.383 86.7021 112.665C86.4326 111.946 86.2979 111.171 86.2979 110.34V109.891C86.2979 108.94 86.4364 108.079 86.7134 107.308C86.9904 106.536 87.376 105.878 87.8701 105.331C88.3643 104.777 88.9482 104.354 89.6221 104.062C90.2959 103.77 91.0259 103.624 91.812 103.624C92.6805 103.624 93.4404 103.77 94.0918 104.062C94.7432 104.354 95.2822 104.766 95.709 105.297C96.1432 105.821 96.4652 106.447 96.6748 107.173C96.8919 107.899 97.0005 108.7 97.0005 109.576V110.733H87.6118V108.79H94.3276V108.577C94.3127 108.09 94.2153 107.633 94.0356 107.207C93.8634 106.78 93.5977 106.435 93.2383 106.173C92.8789 105.911 92.3997 105.78 91.8008 105.78C91.3516 105.78 90.951 105.878 90.5991 106.072C90.2547 106.259 89.9665 106.533 89.7344 106.892C89.5023 107.251 89.3226 107.686 89.1953 108.195C89.0755 108.696 89.0156 109.262 89.0156 109.891V110.34C89.0156 110.871 89.0868 111.366 89.229 111.822C89.3787 112.271 89.5959 112.665 89.8804 113.001C90.1649 113.338 90.5093 113.604 90.9136 113.799C91.3179 113.986 91.7783 114.08 92.2949 114.08C92.9463 114.08 93.5265 113.949 94.0356 113.687C94.5448 113.424 94.9865 113.054 95.3608 112.575L96.7871 113.956C96.5251 114.338 96.1844 114.705 95.7651 115.057C95.3459 115.401 94.833 115.682 94.2266 115.899C93.6276 116.116 92.9313 116.225 92.1377 116.225ZM101.83 106.162V116H99.123V103.849H101.706L101.83 106.162ZM105.547 103.77L105.524 106.286C105.36 106.256 105.18 106.233 104.985 106.218C104.798 106.203 104.611 106.196 104.424 106.196C103.96 106.196 103.552 106.263 103.2 106.398C102.848 106.525 102.552 106.712 102.312 106.959C102.08 107.199 101.901 107.491 101.773 107.835C101.646 108.18 101.571 108.565 101.549 108.992L100.931 109.037C100.931 108.273 101.006 107.566 101.156 106.915C101.306 106.263 101.53 105.69 101.83 105.196C102.137 104.702 102.518 104.317 102.975 104.04C103.439 103.763 103.975 103.624 104.581 103.624C104.746 103.624 104.922 103.639 105.109 103.669C105.304 103.699 105.45 103.733 105.547 103.77ZM112.375 116.225C111.477 116.225 110.664 116.079 109.938 115.787C109.219 115.487 108.605 115.072 108.096 114.54C107.595 114.008 107.209 113.383 106.939 112.665C106.67 111.946 106.535 111.171 106.535 110.34V109.891C106.535 108.94 106.674 108.079 106.951 107.308C107.228 106.536 107.613 105.878 108.107 105.331C108.602 104.777 109.186 104.354 109.859 104.062C110.533 103.77 111.263 103.624 112.049 103.624C112.918 103.624 113.678 103.77 114.329 104.062C114.98 104.354 115.52 104.766 115.946 105.297C116.381 105.821 116.702 106.447 116.912 107.173C117.129 107.899 117.238 108.7 117.238 109.576V110.733H107.849V108.79H114.565V108.577C114.55 108.09 114.453 107.633 114.273 107.207C114.101 106.78 113.835 106.435 113.476 106.173C113.116 105.911 112.637 105.78 112.038 105.78C111.589 105.78 111.188 105.878 110.836 106.072C110.492 106.259 110.204 106.533 109.972 106.892C109.74 107.251 109.56 107.686 109.433 108.195C109.313 108.696 109.253 109.262 109.253 109.891V110.34C109.253 110.871 109.324 111.366 109.466 111.822C109.616 112.271 109.833 112.665 110.118 113.001C110.402 113.338 110.747 113.604 111.151 113.799C111.555 113.986 112.016 114.08 112.532 114.08C113.184 114.08 113.764 113.949 114.273 113.687C114.782 113.424 115.224 113.054 115.598 112.575L117.024 113.956C116.762 114.338 116.422 114.705 116.002 115.057C115.583 115.401 115.07 115.682 114.464 115.899C113.865 116.116 113.169 116.225 112.375 116.225ZM128.603 114.675L131.905 103.849H134.802L129.928 117.853C129.816 118.153 129.67 118.478 129.49 118.83C129.311 119.182 129.075 119.515 128.783 119.83C128.498 120.152 128.143 120.41 127.716 120.604C127.289 120.807 126.772 120.908 126.166 120.908C125.926 120.908 125.694 120.885 125.47 120.84C125.253 120.803 125.047 120.762 124.852 120.717L124.841 118.65C124.916 118.658 125.006 118.665 125.11 118.673C125.223 118.68 125.312 118.684 125.38 118.684C125.829 118.684 126.203 118.628 126.503 118.516C126.802 118.411 127.046 118.239 127.233 117.999C127.428 117.759 127.592 117.438 127.727 117.033L128.603 114.675ZM126.739 103.849L129.625 112.945L130.108 115.798L128.232 116.281L123.819 103.849H126.739ZM135.656 110.059V109.801C135.656 108.925 135.783 108.112 136.038 107.364C136.292 106.608 136.659 105.952 137.138 105.398C137.625 104.837 138.216 104.403 138.913 104.096C139.616 103.781 140.41 103.624 141.293 103.624C142.184 103.624 142.978 103.781 143.674 104.096C144.378 104.403 144.973 104.837 145.46 105.398C145.947 105.952 146.317 106.608 146.572 107.364C146.826 108.112 146.954 108.925 146.954 109.801V110.059C146.954 110.935 146.826 111.747 146.572 112.496C146.317 113.245 145.947 113.9 145.46 114.461C144.973 115.015 144.382 115.45 143.686 115.764C142.989 116.071 142.199 116.225 141.316 116.225C140.425 116.225 139.628 116.071 138.924 115.764C138.228 115.45 137.636 115.015 137.149 114.461C136.663 113.9 136.292 113.245 136.038 112.496C135.783 111.747 135.656 110.935 135.656 110.059ZM138.362 109.801V110.059C138.362 110.606 138.418 111.122 138.531 111.609C138.643 112.096 138.819 112.522 139.059 112.889C139.298 113.256 139.605 113.544 139.979 113.754C140.354 113.964 140.799 114.068 141.316 114.068C141.818 114.068 142.252 113.964 142.619 113.754C142.993 113.544 143.3 113.256 143.54 112.889C143.779 112.522 143.955 112.096 144.067 111.609C144.187 111.122 144.247 110.606 144.247 110.059V109.801C144.247 109.262 144.187 108.753 144.067 108.273C143.955 107.787 143.775 107.356 143.528 106.982C143.289 106.608 142.982 106.316 142.607 106.106C142.241 105.889 141.803 105.78 141.293 105.78C140.784 105.78 140.343 105.889 139.968 106.106C139.601 106.316 139.298 106.608 139.059 106.982C138.819 107.356 138.643 107.787 138.531 108.273C138.418 108.753 138.362 109.262 138.362 109.801ZM156.533 113.136V103.849H159.251V116H156.69L156.533 113.136ZM156.915 110.609L157.825 110.587C157.825 111.403 157.735 112.155 157.555 112.844C157.375 113.526 157.098 114.121 156.724 114.63C156.35 115.132 155.871 115.525 155.287 115.809C154.703 116.086 154.003 116.225 153.187 116.225C152.595 116.225 152.052 116.139 151.558 115.966C151.064 115.794 150.637 115.528 150.278 115.169C149.926 114.81 149.653 114.342 149.458 113.765C149.263 113.189 149.166 112.5 149.166 111.699V103.849H151.873V111.721C151.873 112.163 151.925 112.534 152.03 112.833C152.135 113.125 152.277 113.361 152.457 113.541C152.636 113.72 152.846 113.847 153.085 113.922C153.325 113.997 153.58 114.035 153.849 114.035C154.62 114.035 155.227 113.885 155.668 113.585C156.118 113.278 156.436 112.867 156.623 112.35C156.818 111.833 156.915 111.253 156.915 110.609ZM170.459 106.319V116H167.752V103.849H170.302L170.459 106.319ZM170.021 109.475L169.1 109.464C169.1 108.625 169.205 107.85 169.415 107.139C169.624 106.428 169.931 105.81 170.335 105.286C170.74 104.755 171.241 104.347 171.84 104.062C172.447 103.77 173.147 103.624 173.94 103.624C174.494 103.624 175 103.706 175.457 103.871C175.921 104.028 176.321 104.279 176.658 104.624C177.003 104.968 177.265 105.41 177.444 105.949C177.632 106.488 177.725 107.139 177.725 107.903V116H175.019V108.139C175.019 107.547 174.929 107.083 174.749 106.746C174.577 106.409 174.326 106.17 173.997 106.027C173.675 105.878 173.289 105.803 172.84 105.803C172.331 105.803 171.896 105.9 171.537 106.095C171.185 106.289 170.897 106.555 170.672 106.892C170.448 107.229 170.283 107.618 170.178 108.06C170.073 108.502 170.021 108.973 170.021 109.475ZM177.557 108.756L176.288 109.037C176.288 108.303 176.389 107.611 176.591 106.959C176.8 106.301 177.104 105.724 177.5 105.23C177.905 104.728 178.403 104.335 178.994 104.051C179.586 103.766 180.263 103.624 181.027 103.624C181.648 103.624 182.202 103.71 182.689 103.882C183.183 104.047 183.602 104.309 183.947 104.668C184.291 105.028 184.553 105.496 184.733 106.072C184.913 106.641 185.002 107.33 185.002 108.139V116H182.285V108.127C182.285 107.514 182.195 107.038 182.015 106.701C181.843 106.364 181.596 106.132 181.274 106.005C180.952 105.87 180.566 105.803 180.117 105.803C179.698 105.803 179.327 105.881 179.005 106.039C178.691 106.188 178.425 106.402 178.208 106.679C177.991 106.948 177.826 107.259 177.714 107.611C177.609 107.963 177.557 108.345 177.557 108.756ZM194.638 113.563V107.768C194.638 107.334 194.56 106.959 194.402 106.645C194.245 106.331 194.006 106.087 193.684 105.915C193.369 105.743 192.972 105.657 192.493 105.657C192.051 105.657 191.67 105.732 191.348 105.881C191.026 106.031 190.775 106.233 190.595 106.488C190.416 106.742 190.326 107.031 190.326 107.353H187.63C187.63 106.873 187.746 106.409 187.979 105.96C188.211 105.511 188.548 105.11 188.989 104.758C189.431 104.406 189.959 104.129 190.573 103.927C191.187 103.725 191.875 103.624 192.639 103.624C193.553 103.624 194.361 103.778 195.065 104.084C195.776 104.391 196.334 104.856 196.738 105.477C197.15 106.091 197.356 106.862 197.356 107.791V113.192C197.356 113.746 197.393 114.244 197.468 114.686C197.551 115.12 197.667 115.498 197.816 115.82V116H195.042C194.915 115.708 194.814 115.337 194.739 114.888C194.672 114.431 194.638 113.99 194.638 113.563ZM195.031 108.61L195.054 110.284H193.111C192.609 110.284 192.167 110.332 191.786 110.43C191.404 110.52 191.086 110.654 190.831 110.834C190.576 111.014 190.386 111.231 190.258 111.485C190.131 111.74 190.067 112.028 190.067 112.35C190.067 112.672 190.142 112.968 190.292 113.237C190.442 113.499 190.659 113.705 190.943 113.855C191.235 114.005 191.587 114.08 191.999 114.08C192.553 114.08 193.036 113.967 193.448 113.743C193.867 113.511 194.196 113.23 194.436 112.9C194.676 112.563 194.803 112.245 194.818 111.946L195.694 113.147C195.604 113.454 195.451 113.784 195.233 114.136C195.016 114.488 194.732 114.825 194.38 115.146C194.035 115.461 193.62 115.719 193.133 115.921C192.654 116.124 192.1 116.225 191.471 116.225C190.678 116.225 189.97 116.067 189.349 115.753C188.727 115.431 188.241 115 187.889 114.461C187.537 113.915 187.361 113.297 187.361 112.608C187.361 111.965 187.481 111.396 187.72 110.901C187.967 110.4 188.327 109.98 188.798 109.644C189.278 109.307 189.861 109.052 190.55 108.88C191.239 108.7 192.025 108.61 192.909 108.61H195.031ZM202.87 106.443V116H200.164V103.849H202.713L202.87 106.443ZM202.387 109.475L201.511 109.464C201.519 108.603 201.639 107.813 201.871 107.094C202.11 106.375 202.44 105.758 202.859 105.241C203.286 104.725 203.795 104.328 204.386 104.051C204.978 103.766 205.637 103.624 206.363 103.624C206.947 103.624 207.475 103.706 207.946 103.871C208.425 104.028 208.833 104.287 209.17 104.646C209.515 105.005 209.777 105.473 209.957 106.05C210.136 106.619 210.226 107.319 210.226 108.15V116H207.508V108.139C207.508 107.555 207.422 107.094 207.25 106.757C207.085 106.413 206.842 106.17 206.52 106.027C206.206 105.878 205.812 105.803 205.341 105.803C204.877 105.803 204.461 105.9 204.094 106.095C203.727 106.289 203.417 106.555 203.162 106.892C202.915 107.229 202.724 107.618 202.589 108.06C202.455 108.502 202.387 108.973 202.387 109.475ZM219.839 113.563V107.768C219.839 107.334 219.761 106.959 219.604 106.645C219.446 106.331 219.207 106.087 218.885 105.915C218.57 105.743 218.174 105.657 217.694 105.657C217.253 105.657 216.871 105.732 216.549 105.881C216.227 106.031 215.976 106.233 215.796 106.488C215.617 106.742 215.527 107.031 215.527 107.353H212.832C212.832 106.873 212.948 106.409 213.18 105.96C213.412 105.511 213.749 105.11 214.19 104.758C214.632 104.406 215.16 104.129 215.774 103.927C216.388 103.725 217.077 103.624 217.84 103.624C218.754 103.624 219.562 103.778 220.266 104.084C220.977 104.391 221.535 104.856 221.939 105.477C222.351 106.091 222.557 106.862 222.557 107.791V113.192C222.557 113.746 222.595 114.244 222.669 114.686C222.752 115.12 222.868 115.498 223.018 115.82V116H220.244C220.116 115.708 220.015 115.337 219.94 114.888C219.873 114.431 219.839 113.99 219.839 113.563ZM220.232 108.61L220.255 110.284H218.312C217.81 110.284 217.369 110.332 216.987 110.43C216.605 110.52 216.287 110.654 216.032 110.834C215.778 111.014 215.587 111.231 215.459 111.485C215.332 111.74 215.269 112.028 215.269 112.35C215.269 112.672 215.343 112.968 215.493 113.237C215.643 113.499 215.86 113.705 216.145 113.855C216.437 114.005 216.788 114.08 217.2 114.08C217.754 114.08 218.237 113.967 218.649 113.743C219.068 113.511 219.398 113.23 219.637 112.9C219.877 112.563 220.004 112.245 220.019 111.946L220.895 113.147C220.805 113.454 220.652 113.784 220.435 114.136C220.217 114.488 219.933 114.825 219.581 115.146C219.237 115.461 218.821 115.719 218.334 115.921C217.855 116.124 217.301 116.225 216.672 116.225C215.879 116.225 215.171 116.067 214.55 115.753C213.928 115.431 213.442 115 213.09 114.461C212.738 113.915 212.562 113.297 212.562 112.608C212.562 111.965 212.682 111.396 212.921 110.901C213.168 110.4 213.528 109.98 214 109.644C214.479 109.307 215.063 109.052 215.751 108.88C216.44 108.7 217.226 108.61 218.11 108.61H220.232ZM233.17 103.849H235.629V115.663C235.629 116.756 235.397 117.685 234.933 118.448C234.469 119.212 233.821 119.792 232.99 120.189C232.159 120.593 231.197 120.795 230.104 120.795C229.64 120.795 229.123 120.728 228.554 120.593C227.993 120.458 227.446 120.241 226.915 119.942C226.39 119.65 225.952 119.264 225.601 118.785L226.87 117.19C227.304 117.707 227.783 118.085 228.307 118.325C228.831 118.564 229.382 118.684 229.958 118.684C230.579 118.684 231.107 118.568 231.542 118.336C231.983 118.111 232.324 117.778 232.563 117.336C232.803 116.895 232.923 116.356 232.923 115.719V106.6L233.17 103.849ZM224.916 110.059V109.823C224.916 108.902 225.028 108.064 225.252 107.308C225.477 106.544 225.799 105.889 226.218 105.342C226.638 104.788 227.147 104.365 227.746 104.073C228.345 103.774 229.022 103.624 229.778 103.624C230.564 103.624 231.235 103.766 231.789 104.051C232.35 104.335 232.818 104.743 233.192 105.275C233.567 105.799 233.859 106.428 234.068 107.162C234.285 107.888 234.446 108.696 234.551 109.587V110.34C234.454 111.208 234.289 112.002 234.057 112.721C233.825 113.439 233.518 114.061 233.136 114.585C232.754 115.109 232.283 115.513 231.721 115.798C231.167 116.082 230.512 116.225 229.756 116.225C229.015 116.225 228.345 116.071 227.746 115.764C227.154 115.457 226.645 115.027 226.218 114.473C225.799 113.919 225.477 113.267 225.252 112.519C225.028 111.762 224.916 110.943 224.916 110.059ZM227.622 109.823V110.059C227.622 110.613 227.674 111.13 227.779 111.609C227.892 112.088 228.06 112.511 228.285 112.878C228.517 113.237 228.809 113.522 229.161 113.731C229.52 113.934 229.943 114.035 230.43 114.035C231.066 114.035 231.586 113.9 231.991 113.63C232.403 113.361 232.717 112.998 232.934 112.541C233.159 112.077 233.316 111.56 233.406 110.991V108.958C233.361 108.517 233.267 108.105 233.125 107.723C232.99 107.341 232.807 107.008 232.575 106.724C232.343 106.432 232.051 106.207 231.699 106.05C231.347 105.885 230.931 105.803 230.452 105.803C229.965 105.803 229.542 105.908 229.183 106.117C228.824 106.327 228.528 106.615 228.296 106.982C228.071 107.349 227.903 107.776 227.791 108.262C227.678 108.749 227.622 109.269 227.622 109.823ZM243.794 116.225C242.896 116.225 242.083 116.079 241.357 115.787C240.638 115.487 240.024 115.072 239.515 114.54C239.014 114.008 238.628 113.383 238.358 112.665C238.089 111.946 237.954 111.171 237.954 110.34V109.891C237.954 108.94 238.093 108.079 238.37 107.308C238.647 106.536 239.032 105.878 239.526 105.331C240.021 104.777 240.604 104.354 241.278 104.062C241.952 103.77 242.682 103.624 243.468 103.624C244.337 103.624 245.097 103.77 245.748 104.062C246.399 104.354 246.938 104.766 247.365 105.297C247.799 105.821 248.121 106.447 248.331 107.173C248.548 107.899 248.657 108.7 248.657 109.576V110.733H239.268V108.79H245.984V108.577C245.969 108.09 245.872 107.633 245.692 107.207C245.52 106.78 245.254 106.435 244.895 106.173C244.535 105.911 244.056 105.78 243.457 105.78C243.008 105.78 242.607 105.878 242.255 106.072C241.911 106.259 241.623 106.533 241.391 106.892C241.159 107.251 240.979 107.686 240.852 108.195C240.732 108.696 240.672 109.262 240.672 109.891V110.34C240.672 110.871 240.743 111.366 240.885 111.822C241.035 112.271 241.252 112.665 241.537 113.001C241.821 113.338 242.166 113.604 242.57 113.799C242.974 113.986 243.435 114.08 243.951 114.08C244.603 114.08 245.183 113.949 245.692 113.687C246.201 113.424 246.643 113.054 247.017 112.575L248.443 113.956C248.181 114.338 247.841 114.705 247.421 115.057C247.002 115.401 246.489 115.682 245.883 115.899C245.284 116.116 244.588 116.225 243.794 116.225ZM260.022 114.675L263.324 103.849H266.221L261.347 117.853C261.235 118.153 261.089 118.478 260.909 118.83C260.729 119.182 260.494 119.515 260.202 119.83C259.917 120.152 259.562 120.41 259.135 120.604C258.708 120.807 258.191 120.908 257.585 120.908C257.345 120.908 257.113 120.885 256.889 120.84C256.672 120.803 256.466 120.762 256.271 120.717L256.26 118.65C256.335 118.658 256.424 118.665 256.529 118.673C256.642 118.68 256.731 118.684 256.799 118.684C257.248 118.684 257.622 118.628 257.922 118.516C258.221 118.411 258.465 118.239 258.652 117.999C258.847 117.759 259.011 117.438 259.146 117.033L260.022 114.675ZM258.158 103.849L261.044 112.945L261.527 115.798L259.651 116.281L255.238 103.849H258.158ZM267.075 110.059V109.801C267.075 108.925 267.202 108.112 267.457 107.364C267.711 106.608 268.078 105.952 268.557 105.398C269.044 104.837 269.635 104.403 270.332 104.096C271.035 103.781 271.829 103.624 272.712 103.624C273.603 103.624 274.397 103.781 275.093 104.096C275.797 104.403 276.392 104.837 276.879 105.398C277.366 105.952 277.736 106.608 277.991 107.364C278.245 108.112 278.373 108.925 278.373 109.801V110.059C278.373 110.935 278.245 111.747 277.991 112.496C277.736 113.245 277.366 113.9 276.879 114.461C276.392 115.015 275.801 115.45 275.104 115.764C274.408 116.071 273.618 116.225 272.735 116.225C271.844 116.225 271.047 116.071 270.343 115.764C269.646 115.45 269.055 115.015 268.568 114.461C268.082 113.9 267.711 113.245 267.457 112.496C267.202 111.747 267.075 110.935 267.075 110.059ZM269.781 109.801V110.059C269.781 110.606 269.837 111.122 269.95 111.609C270.062 112.096 270.238 112.522 270.478 112.889C270.717 113.256 271.024 113.544 271.398 113.754C271.773 113.964 272.218 114.068 272.735 114.068C273.236 114.068 273.671 113.964 274.038 113.754C274.412 113.544 274.719 113.256 274.958 112.889C275.198 112.522 275.374 112.096 275.486 111.609C275.606 111.122 275.666 110.606 275.666 110.059V109.801C275.666 109.262 275.606 108.753 275.486 108.273C275.374 107.787 275.194 107.356 274.947 106.982C274.708 106.608 274.401 106.316 274.026 106.106C273.66 105.889 273.222 105.78 272.712 105.78C272.203 105.78 271.762 105.889 271.387 106.106C271.02 106.316 270.717 106.608 270.478 106.982C270.238 107.356 270.062 107.787 269.95 108.273C269.837 108.753 269.781 109.262 269.781 109.801ZM287.952 113.136V103.849H290.67V116H288.109L287.952 113.136ZM288.334 110.609L289.244 110.587C289.244 111.403 289.154 112.155 288.974 112.844C288.794 113.526 288.517 114.121 288.143 114.63C287.769 115.132 287.29 115.525 286.706 115.809C286.122 116.086 285.422 116.225 284.605 116.225C284.014 116.225 283.471 116.139 282.977 115.966C282.483 115.794 282.056 115.528 281.697 115.169C281.345 114.81 281.072 114.342 280.877 113.765C280.682 113.189 280.585 112.5 280.585 111.699V103.849H283.292V111.721C283.292 112.163 283.344 112.534 283.449 112.833C283.554 113.125 283.696 113.361 283.875 113.541C284.055 113.72 284.265 113.847 284.504 113.922C284.744 113.997 284.999 114.035 285.268 114.035C286.039 114.035 286.646 113.885 287.087 113.585C287.537 113.278 287.855 112.867 288.042 112.35C288.237 111.833 288.334 111.253 288.334 110.609ZM296.162 106.162V116H293.455V103.849H296.038L296.162 106.162ZM299.879 103.77L299.856 106.286C299.692 106.256 299.512 106.233 299.317 106.218C299.13 106.203 298.943 106.196 298.756 106.196C298.292 106.196 297.884 106.263 297.532 106.398C297.18 106.525 296.884 106.712 296.645 106.959C296.412 107.199 296.233 107.491 296.105 107.835C295.978 108.18 295.903 108.565 295.881 108.992L295.263 109.037C295.263 108.273 295.338 107.566 295.488 106.915C295.638 106.263 295.862 105.69 296.162 105.196C296.469 104.702 296.85 104.317 297.307 104.04C297.771 103.763 298.307 103.624 298.913 103.624C299.078 103.624 299.254 103.639 299.441 103.669C299.636 103.699 299.782 103.733 299.879 103.77ZM314.119 112.709C314.119 112.44 314.052 112.197 313.917 111.979C313.782 111.755 313.524 111.553 313.142 111.373C312.768 111.193 312.214 111.029 311.48 110.879C310.836 110.737 310.245 110.568 309.706 110.374C309.174 110.171 308.717 109.928 308.335 109.644C307.954 109.359 307.658 109.022 307.448 108.633C307.239 108.243 307.134 107.794 307.134 107.285C307.134 106.791 307.242 106.323 307.459 105.881C307.677 105.44 307.987 105.05 308.392 104.713C308.796 104.376 309.286 104.111 309.863 103.916C310.447 103.721 311.098 103.624 311.817 103.624C312.835 103.624 313.707 103.796 314.434 104.141C315.167 104.478 315.729 104.938 316.118 105.522C316.507 106.098 316.702 106.75 316.702 107.476H313.996C313.996 107.154 313.913 106.855 313.749 106.578C313.591 106.293 313.352 106.065 313.03 105.893C312.708 105.713 312.304 105.623 311.817 105.623C311.353 105.623 310.967 105.698 310.66 105.848C310.361 105.99 310.136 106.177 309.986 106.409C309.844 106.641 309.773 106.896 309.773 107.173C309.773 107.375 309.81 107.558 309.885 107.723C309.968 107.88 310.102 108.026 310.29 108.161C310.477 108.288 310.731 108.408 311.053 108.521C311.383 108.633 311.794 108.741 312.289 108.846C313.217 109.041 314.014 109.292 314.681 109.599C315.354 109.898 315.871 110.287 316.23 110.767C316.59 111.238 316.77 111.837 316.77 112.563C316.77 113.103 316.653 113.597 316.421 114.046C316.197 114.488 315.867 114.873 315.433 115.203C314.999 115.525 314.479 115.775 313.872 115.955C313.273 116.135 312.599 116.225 311.851 116.225C310.75 116.225 309.818 116.03 309.054 115.641C308.291 115.244 307.71 114.738 307.313 114.125C306.924 113.503 306.729 112.859 306.729 112.193H309.346C309.376 112.694 309.515 113.095 309.762 113.395C310.016 113.687 310.331 113.9 310.705 114.035C311.087 114.162 311.48 114.226 311.884 114.226C312.371 114.226 312.779 114.162 313.108 114.035C313.438 113.9 313.689 113.72 313.861 113.496C314.033 113.264 314.119 113.001 314.119 112.709ZM322.666 114.675L325.967 103.849H328.865L323.991 117.853C323.878 118.153 323.732 118.478 323.553 118.83C323.373 119.182 323.137 119.515 322.845 119.83C322.561 120.152 322.205 120.41 321.778 120.604C321.352 120.807 320.835 120.908 320.229 120.908C319.989 120.908 319.757 120.885 319.532 120.84C319.315 120.803 319.109 120.762 318.915 120.717L318.903 118.65C318.978 118.658 319.068 118.665 319.173 118.673C319.285 118.68 319.375 118.684 319.442 118.684C319.892 118.684 320.266 118.628 320.565 118.516C320.865 118.411 321.108 118.239 321.295 117.999C321.49 117.759 321.655 117.438 321.79 117.033L322.666 114.675ZM320.801 103.849L323.688 112.945L324.17 115.798L322.295 116.281L317.881 103.849H320.801ZM337.231 112.709C337.231 112.44 337.164 112.197 337.029 111.979C336.895 111.755 336.636 111.553 336.254 111.373C335.88 111.193 335.326 111.029 334.592 110.879C333.948 110.737 333.357 110.568 332.818 110.374C332.286 110.171 331.83 109.928 331.448 109.644C331.066 109.359 330.77 109.022 330.561 108.633C330.351 108.243 330.246 107.794 330.246 107.285C330.246 106.791 330.355 106.323 330.572 105.881C330.789 105.44 331.1 105.05 331.504 104.713C331.908 104.376 332.399 104.111 332.975 103.916C333.559 103.721 334.21 103.624 334.929 103.624C335.947 103.624 336.82 103.796 337.546 104.141C338.28 104.478 338.841 104.938 339.23 105.522C339.62 106.098 339.814 106.75 339.814 107.476H337.108C337.108 107.154 337.026 106.855 336.861 106.578C336.704 106.293 336.464 106.065 336.142 105.893C335.82 105.713 335.416 105.623 334.929 105.623C334.465 105.623 334.079 105.698 333.772 105.848C333.473 105.99 333.248 106.177 333.099 106.409C332.956 106.641 332.885 106.896 332.885 107.173C332.885 107.375 332.923 107.558 332.998 107.723C333.08 107.88 333.215 108.026 333.402 108.161C333.589 108.288 333.844 108.408 334.166 108.521C334.495 108.633 334.907 108.741 335.401 108.846C336.329 109.041 337.127 109.292 337.793 109.599C338.467 109.898 338.983 110.287 339.343 110.767C339.702 111.238 339.882 111.837 339.882 112.563C339.882 113.103 339.766 113.597 339.534 114.046C339.309 114.488 338.98 114.873 338.545 115.203C338.111 115.525 337.591 115.775 336.984 115.955C336.385 116.135 335.712 116.225 334.963 116.225C333.862 116.225 332.93 116.03 332.167 115.641C331.403 115.244 330.823 114.738 330.426 114.125C330.036 113.503 329.842 112.859 329.842 112.193H332.458C332.488 112.694 332.627 113.095 332.874 113.395C333.129 113.687 333.443 113.9 333.817 114.035C334.199 114.162 334.592 114.226 334.997 114.226C335.483 114.226 335.891 114.162 336.221 114.035C336.55 113.9 336.801 113.72 336.973 113.496C337.145 113.264 337.231 113.001 337.231 112.709ZM347.822 103.849V105.825H340.971V103.849H347.822ZM342.948 100.873H345.654V112.642C345.654 113.016 345.707 113.305 345.812 113.507C345.924 113.701 346.077 113.833 346.272 113.9C346.467 113.967 346.695 114.001 346.957 114.001C347.144 114.001 347.324 113.99 347.496 113.967C347.668 113.945 347.807 113.922 347.912 113.9L347.923 115.966C347.698 116.034 347.436 116.094 347.137 116.146C346.845 116.198 346.508 116.225 346.126 116.225C345.505 116.225 344.954 116.116 344.475 115.899C343.996 115.674 343.622 115.311 343.352 114.81C343.083 114.308 342.948 113.642 342.948 112.811V100.873ZM355.268 116.225C354.369 116.225 353.557 116.079 352.831 115.787C352.112 115.487 351.498 115.072 350.989 114.54C350.487 114.008 350.102 113.383 349.832 112.665C349.562 111.946 349.428 111.171 349.428 110.34V109.891C349.428 108.94 349.566 108.079 349.843 107.308C350.12 106.536 350.506 105.878 351 105.331C351.494 104.777 352.078 104.354 352.752 104.062C353.426 103.77 354.156 103.624 354.942 103.624C355.81 103.624 356.57 103.77 357.222 104.062C357.873 104.354 358.412 104.766 358.839 105.297C359.273 105.821 359.595 106.447 359.805 107.173C360.022 107.899 360.13 108.7 360.13 109.576V110.733H350.742V108.79H357.458V108.577C357.443 108.09 357.345 107.633 357.166 107.207C356.993 106.78 356.728 106.435 356.368 106.173C356.009 105.911 355.53 105.78 354.931 105.78C354.481 105.78 354.081 105.878 353.729 106.072C353.385 106.259 353.096 106.533 352.864 106.892C352.632 107.251 352.452 107.686 352.325 108.195C352.205 108.696 352.146 109.262 352.146 109.891V110.34C352.146 110.871 352.217 111.366 352.359 111.822C352.509 112.271 352.726 112.665 353.01 113.001C353.295 113.338 353.639 113.604 354.043 113.799C354.448 113.986 354.908 114.08 355.425 114.08C356.076 114.08 356.656 113.949 357.166 113.687C357.675 113.424 358.116 113.054 358.491 112.575L359.917 113.956C359.655 114.338 359.314 114.705 358.895 115.057C358.476 115.401 357.963 115.682 357.356 115.899C356.757 116.116 356.061 116.225 355.268 116.225ZM364.948 106.319V116H362.242V103.849H364.791L364.948 106.319ZM364.51 109.475L363.589 109.464C363.589 108.625 363.694 107.85 363.904 107.139C364.113 106.428 364.42 105.81 364.825 105.286C365.229 104.755 365.731 104.347 366.33 104.062C366.936 103.77 367.636 103.624 368.43 103.624C368.984 103.624 369.489 103.706 369.946 103.871C370.41 104.028 370.811 104.279 371.147 104.624C371.492 104.968 371.754 105.41 371.934 105.949C372.121 106.488 372.214 107.139 372.214 107.903V116H369.508V108.139C369.508 107.547 369.418 107.083 369.238 106.746C369.066 106.409 368.815 106.17 368.486 106.027C368.164 105.878 367.778 105.803 367.329 105.803C366.82 105.803 366.386 105.9 366.026 106.095C365.674 106.289 365.386 106.555 365.162 106.892C364.937 107.229 364.772 107.618 364.667 108.06C364.563 108.502 364.51 108.973 364.51 109.475ZM372.046 108.756L370.777 109.037C370.777 108.303 370.878 107.611 371.08 106.959C371.29 106.301 371.593 105.724 371.99 105.23C372.394 104.728 372.892 104.335 373.483 104.051C374.075 103.766 374.752 103.624 375.516 103.624C376.138 103.624 376.692 103.71 377.178 103.882C377.672 104.047 378.092 104.309 378.436 104.668C378.78 105.028 379.042 105.496 379.222 106.072C379.402 106.641 379.492 107.33 379.492 108.139V116H376.774V108.127C376.774 107.514 376.684 107.038 376.504 106.701C376.332 106.364 376.085 106.132 375.763 106.005C375.441 105.87 375.056 105.803 374.606 105.803C374.187 105.803 373.817 105.881 373.495 106.039C373.18 106.188 372.914 106.402 372.697 106.679C372.48 106.948 372.315 107.259 372.203 107.611C372.098 107.963 372.046 108.345 372.046 108.756ZM395.417 113.484V98.75H398.134V116H395.675L395.417 113.484ZM387.51 110.059V109.823C387.51 108.902 387.619 108.064 387.836 107.308C388.053 106.544 388.368 105.889 388.779 105.342C389.191 104.788 389.693 104.365 390.284 104.073C390.876 103.774 391.542 103.624 392.283 103.624C393.017 103.624 393.661 103.766 394.215 104.051C394.769 104.335 395.241 104.743 395.63 105.275C396.019 105.799 396.33 106.428 396.562 107.162C396.794 107.888 396.959 108.696 397.056 109.587V110.34C396.959 111.208 396.794 112.002 396.562 112.721C396.33 113.439 396.019 114.061 395.63 114.585C395.241 115.109 394.765 115.513 394.204 115.798C393.65 116.082 393.002 116.225 392.261 116.225C391.527 116.225 390.864 116.071 390.273 115.764C389.689 115.457 389.191 115.027 388.779 114.473C388.368 113.919 388.053 113.267 387.836 112.519C387.619 111.762 387.51 110.943 387.51 110.059ZM390.217 109.823V110.059C390.217 110.613 390.265 111.13 390.363 111.609C390.468 112.088 390.629 112.511 390.846 112.878C391.063 113.237 391.344 113.522 391.688 113.731C392.04 113.934 392.459 114.035 392.946 114.035C393.56 114.035 394.065 113.9 394.462 113.63C394.859 113.361 395.169 112.998 395.394 112.541C395.626 112.077 395.783 111.56 395.866 110.991V108.958C395.821 108.517 395.727 108.105 395.585 107.723C395.45 107.341 395.267 107.008 395.035 106.724C394.803 106.432 394.514 106.207 394.17 106.05C393.833 105.885 393.432 105.803 392.968 105.803C392.474 105.803 392.055 105.908 391.71 106.117C391.366 106.327 391.082 106.615 390.857 106.982C390.64 107.349 390.479 107.776 390.374 108.262C390.269 108.749 390.217 109.269 390.217 109.823ZM406.321 116.225C405.423 116.225 404.611 116.079 403.884 115.787C403.166 115.487 402.552 115.072 402.042 114.54C401.541 114.008 401.155 113.383 400.886 112.665C400.616 111.946 400.481 111.171 400.481 110.34V109.891C400.481 108.94 400.62 108.079 400.897 107.308C401.174 106.536 401.56 105.878 402.054 105.331C402.548 104.777 403.132 104.354 403.806 104.062C404.479 103.77 405.209 103.624 405.996 103.624C406.864 103.624 407.624 103.77 408.275 104.062C408.927 104.354 409.466 104.766 409.893 105.297C410.327 105.821 410.649 106.447 410.858 107.173C411.076 107.899 411.184 108.7 411.184 109.576V110.733H401.795V108.79H408.511V108.577C408.496 108.09 408.399 107.633 408.219 107.207C408.047 106.78 407.781 106.435 407.422 106.173C407.062 105.911 406.583 105.78 405.984 105.78C405.535 105.78 405.135 105.878 404.783 106.072C404.438 106.259 404.15 106.533 403.918 106.892C403.686 107.251 403.506 107.686 403.379 108.195C403.259 108.696 403.199 109.262 403.199 109.891V110.34C403.199 110.871 403.27 111.366 403.413 111.822C403.562 112.271 403.779 112.665 404.064 113.001C404.348 113.338 404.693 113.604 405.097 113.799C405.501 113.986 405.962 114.08 406.479 114.08C407.13 114.08 407.71 113.949 408.219 113.687C408.728 113.424 409.17 113.054 409.544 112.575L410.971 113.956C410.709 114.338 410.368 114.705 409.949 115.057C409.529 115.401 409.017 115.682 408.41 115.899C407.811 116.116 407.115 116.225 406.321 116.225ZM418.259 114.068C418.701 114.068 419.098 113.982 419.45 113.81C419.809 113.63 420.097 113.383 420.314 113.069C420.539 112.754 420.663 112.391 420.685 111.979H423.234C423.219 112.766 422.987 113.481 422.538 114.125C422.089 114.768 421.494 115.281 420.752 115.663C420.011 116.037 419.191 116.225 418.293 116.225C417.365 116.225 416.556 116.067 415.867 115.753C415.178 115.431 414.606 114.989 414.149 114.428C413.692 113.866 413.348 113.219 413.116 112.485C412.891 111.751 412.779 110.965 412.779 110.126V109.733C412.779 108.895 412.891 108.109 413.116 107.375C413.348 106.634 413.692 105.982 414.149 105.421C414.606 104.859 415.178 104.421 415.867 104.107C416.556 103.785 417.361 103.624 418.282 103.624C419.255 103.624 420.109 103.819 420.842 104.208C421.576 104.59 422.153 105.125 422.572 105.814C422.999 106.495 423.219 107.289 423.234 108.195H420.685C420.663 107.746 420.55 107.341 420.348 106.982C420.153 106.615 419.876 106.323 419.517 106.106C419.165 105.889 418.742 105.78 418.248 105.78C417.701 105.78 417.249 105.893 416.889 106.117C416.53 106.334 416.249 106.634 416.047 107.016C415.845 107.39 415.699 107.813 415.609 108.285C415.527 108.749 415.485 109.232 415.485 109.733V110.126C415.485 110.628 415.527 111.115 415.609 111.586C415.691 112.058 415.833 112.481 416.036 112.855C416.245 113.222 416.53 113.518 416.889 113.743C417.249 113.96 417.705 114.068 418.259 114.068ZM428.209 103.849V116H425.492V103.849H428.209ZM425.312 100.659C425.312 100.247 425.447 99.9067 425.716 99.6372C425.993 99.3602 426.375 99.2217 426.862 99.2217C427.341 99.2217 427.719 99.3602 427.996 99.6372C428.273 99.9067 428.412 100.247 428.412 100.659C428.412 101.063 428.273 101.4 427.996 101.67C427.719 101.939 427.341 102.074 426.862 102.074C426.375 102.074 425.993 101.939 425.716 101.67C425.447 101.4 425.312 101.063 425.312 100.659ZM437.991 112.709C437.991 112.44 437.924 112.197 437.789 111.979C437.654 111.755 437.396 111.553 437.014 111.373C436.64 111.193 436.086 111.029 435.352 110.879C434.708 110.737 434.117 110.568 433.578 110.374C433.046 110.171 432.589 109.928 432.208 109.644C431.826 109.359 431.53 109.022 431.32 108.633C431.111 108.243 431.006 107.794 431.006 107.285C431.006 106.791 431.114 106.323 431.332 105.881C431.549 105.44 431.859 105.05 432.264 104.713C432.668 104.376 433.158 104.111 433.735 103.916C434.319 103.721 434.97 103.624 435.689 103.624C436.707 103.624 437.579 103.796 438.306 104.141C439.039 104.478 439.601 104.938 439.99 105.522C440.38 106.098 440.574 106.75 440.574 107.476H437.868C437.868 107.154 437.785 106.855 437.621 106.578C437.463 106.293 437.224 106.065 436.902 105.893C436.58 105.713 436.176 105.623 435.689 105.623C435.225 105.623 434.839 105.698 434.532 105.848C434.233 105.99 434.008 106.177 433.858 106.409C433.716 106.641 433.645 106.896 433.645 107.173C433.645 107.375 433.682 107.558 433.757 107.723C433.84 107.88 433.974 108.026 434.162 108.161C434.349 108.288 434.603 108.408 434.925 108.521C435.255 108.633 435.667 108.741 436.161 108.846C437.089 109.041 437.886 109.292 438.553 109.599C439.227 109.898 439.743 110.287 440.103 110.767C440.462 111.238 440.642 111.837 440.642 112.563C440.642 113.103 440.526 113.597 440.293 114.046C440.069 114.488 439.739 114.873 439.305 115.203C438.871 115.525 438.351 115.775 437.744 115.955C437.145 116.135 436.471 116.225 435.723 116.225C434.622 116.225 433.69 116.03 432.926 115.641C432.163 115.244 431.582 114.738 431.186 114.125C430.796 113.503 430.602 112.859 430.602 112.193H433.218C433.248 112.694 433.387 113.095 433.634 113.395C433.888 113.687 434.203 113.9 434.577 114.035C434.959 114.162 435.352 114.226 435.756 114.226C436.243 114.226 436.651 114.162 436.98 114.035C437.31 113.9 437.561 113.72 437.733 113.496C437.905 113.264 437.991 113.001 437.991 112.709ZM445.909 103.849V116H443.191V103.849H445.909ZM443.011 100.659C443.011 100.247 443.146 99.9067 443.416 99.6372C443.693 99.3602 444.074 99.2217 444.561 99.2217C445.04 99.2217 445.418 99.3602 445.695 99.6372C445.972 99.9067 446.111 100.247 446.111 100.659C446.111 101.063 445.972 101.4 445.695 101.67C445.418 101.939 445.04 102.074 444.561 102.074C444.074 102.074 443.693 101.939 443.416 101.67C443.146 101.4 443.011 101.063 443.011 100.659ZM448.357 110.059V109.801C448.357 108.925 448.484 108.112 448.739 107.364C448.993 106.608 449.36 105.952 449.839 105.398C450.326 104.837 450.917 104.403 451.614 104.096C452.318 103.781 453.111 103.624 453.995 103.624C454.886 103.624 455.679 103.781 456.375 104.096C457.079 104.403 457.674 104.837 458.161 105.398C458.648 105.952 459.018 106.608 459.273 107.364C459.528 108.112 459.655 108.925 459.655 109.801V110.059C459.655 110.935 459.528 111.747 459.273 112.496C459.018 113.245 458.648 113.9 458.161 114.461C457.674 115.015 457.083 115.45 456.387 115.764C455.69 116.071 454.901 116.225 454.017 116.225C453.126 116.225 452.329 116.071 451.625 115.764C450.929 115.45 450.337 115.015 449.851 114.461C449.364 113.9 448.993 113.245 448.739 112.496C448.484 111.747 448.357 110.935 448.357 110.059ZM451.063 109.801V110.059C451.063 110.606 451.12 111.122 451.232 111.609C451.344 112.096 451.52 112.522 451.76 112.889C451.999 113.256 452.306 113.544 452.681 113.754C453.055 113.964 453.5 114.068 454.017 114.068C454.519 114.068 454.953 113.964 455.32 113.754C455.694 113.544 456.001 113.256 456.241 112.889C456.48 112.522 456.656 112.096 456.769 111.609C456.888 111.122 456.948 110.606 456.948 110.059V109.801C456.948 109.262 456.888 108.753 456.769 108.273C456.656 107.787 456.477 107.356 456.229 106.982C455.99 106.608 455.683 106.316 455.309 106.106C454.942 105.889 454.504 105.78 453.995 105.78C453.486 105.78 453.044 105.889 452.669 106.106C452.303 106.316 451.999 106.608 451.76 106.982C451.52 107.356 451.344 107.787 451.232 108.273C451.12 108.753 451.063 109.262 451.063 109.801ZM464.607 106.443V116H461.901V103.849H464.45L464.607 106.443ZM464.125 109.475L463.249 109.464C463.256 108.603 463.376 107.813 463.608 107.094C463.847 106.375 464.177 105.758 464.596 105.241C465.023 104.725 465.532 104.328 466.124 104.051C466.715 103.766 467.374 103.624 468.1 103.624C468.684 103.624 469.212 103.706 469.684 103.871C470.163 104.028 470.571 104.287 470.908 104.646C471.252 105.005 471.514 105.473 471.694 106.05C471.874 106.619 471.963 107.319 471.963 108.15V116H469.246V108.139C469.246 107.555 469.16 107.094 468.987 106.757C468.823 106.413 468.579 106.17 468.257 106.027C467.943 105.878 467.55 105.803 467.078 105.803C466.614 105.803 466.198 105.9 465.832 106.095C465.465 106.289 465.154 106.555 464.899 106.892C464.652 107.229 464.461 107.618 464.327 108.06C464.192 108.502 464.125 108.973 464.125 109.475ZM480.173 107.937V110.093H474.232V107.937H480.173ZM485.249 106.319V116H482.542V103.849H485.092L485.249 106.319ZM484.811 109.475L483.89 109.464C483.89 108.625 483.995 107.85 484.205 107.139C484.414 106.428 484.721 105.81 485.125 105.286C485.53 104.755 486.031 104.347 486.63 104.062C487.237 103.77 487.937 103.624 488.73 103.624C489.285 103.624 489.79 103.706 490.247 103.871C490.711 104.028 491.111 104.279 491.448 104.624C491.793 104.968 492.055 105.41 492.234 105.949C492.422 106.488 492.515 107.139 492.515 107.903V116H489.809V108.139C489.809 107.547 489.719 107.083 489.539 106.746C489.367 106.409 489.116 106.17 488.787 106.027C488.465 105.878 488.079 105.803 487.63 105.803C487.121 105.803 486.687 105.9 486.327 106.095C485.975 106.289 485.687 106.555 485.462 106.892C485.238 107.229 485.073 107.618 484.968 108.06C484.863 108.502 484.811 108.973 484.811 109.475ZM492.347 108.756L491.078 109.037C491.078 108.303 491.179 107.611 491.381 106.959C491.59 106.301 491.894 105.724 492.291 105.23C492.695 104.728 493.193 104.335 493.784 104.051C494.376 103.766 495.053 103.624 495.817 103.624C496.438 103.624 496.992 103.71 497.479 103.882C497.973 104.047 498.392 104.309 498.737 104.668C499.081 105.028 499.343 105.496 499.523 106.072C499.703 106.641 499.792 107.33 499.792 108.139V116H497.075V108.127C497.075 107.514 496.985 107.038 496.805 106.701C496.633 106.364 496.386 106.132 496.064 106.005C495.742 105.87 495.356 105.803 494.907 105.803C494.488 105.803 494.117 105.881 493.795 106.039C493.481 106.188 493.215 106.402 492.998 106.679C492.781 106.948 492.616 107.259 492.504 107.611C492.399 107.963 492.347 108.345 492.347 108.756ZM509.428 113.563V107.768C509.428 107.334 509.35 106.959 509.192 106.645C509.035 106.331 508.796 106.087 508.474 105.915C508.159 105.743 507.762 105.657 507.283 105.657C506.841 105.657 506.46 105.732 506.138 105.881C505.816 106.031 505.565 106.233 505.385 106.488C505.206 106.742 505.116 107.031 505.116 107.353H502.42C502.42 106.873 502.536 106.409 502.769 105.96C503.001 105.511 503.338 105.11 503.779 104.758C504.221 104.406 504.749 104.129 505.363 103.927C505.977 103.725 506.666 103.624 507.429 103.624C508.343 103.624 509.151 103.778 509.855 104.084C510.566 104.391 511.124 104.856 511.528 105.477C511.94 106.091 512.146 106.862 512.146 107.791V113.192C512.146 113.746 512.183 114.244 512.258 114.686C512.341 115.12 512.457 115.498 512.606 115.82V116H509.833C509.705 115.708 509.604 115.337 509.529 114.888C509.462 114.431 509.428 113.99 509.428 113.563ZM509.821 108.61L509.844 110.284H507.901C507.399 110.284 506.958 110.332 506.576 110.43C506.194 110.52 505.876 110.654 505.621 110.834C505.367 111.014 505.176 111.231 505.048 111.485C504.921 111.74 504.857 112.028 504.857 112.35C504.857 112.672 504.932 112.968 505.082 113.237C505.232 113.499 505.449 113.705 505.733 113.855C506.025 114.005 506.377 114.08 506.789 114.08C507.343 114.08 507.826 113.967 508.238 113.743C508.657 113.511 508.986 113.23 509.226 112.9C509.466 112.563 509.593 112.245 509.608 111.946L510.484 113.147C510.394 113.454 510.241 113.784 510.023 114.136C509.806 114.488 509.522 114.825 509.17 115.146C508.826 115.461 508.41 115.719 507.923 115.921C507.444 116.124 506.89 116.225 506.261 116.225C505.468 116.225 504.76 116.067 504.139 115.753C503.517 115.431 503.031 115 502.679 114.461C502.327 113.915 502.151 113.297 502.151 112.608C502.151 111.965 502.271 111.396 502.51 110.901C502.757 110.4 503.117 109.98 503.588 109.644C504.068 109.307 504.652 109.052 505.34 108.88C506.029 108.7 506.815 108.61 507.699 108.61H509.821ZM517.705 98.75V116H514.987V98.75H517.705ZM525.252 103.849L519.962 109.711L517.065 112.676L516.357 110.385L518.547 107.678L521.984 103.849H525.252ZM522.568 116L518.626 110.295L520.333 108.397L525.701 116H522.568ZM532.103 116.225C531.204 116.225 530.392 116.079 529.666 115.787C528.947 115.487 528.333 115.072 527.824 114.54C527.322 114.008 526.937 113.383 526.667 112.665C526.397 111.946 526.263 111.171 526.263 110.34V109.891C526.263 108.94 526.401 108.079 526.678 107.308C526.955 106.536 527.341 105.878 527.835 105.331C528.329 104.777 528.913 104.354 529.587 104.062C530.261 103.77 530.991 103.624 531.777 103.624C532.645 103.624 533.405 103.77 534.057 104.062C534.708 104.354 535.247 104.766 535.674 105.297C536.108 105.821 536.43 106.447 536.64 107.173C536.857 107.899 536.965 108.7 536.965 109.576V110.733H527.577V108.79H534.292V108.577C534.278 108.09 534.18 107.633 534 107.207C533.828 106.78 533.562 106.435 533.203 106.173C532.844 105.911 532.365 105.78 531.766 105.78C531.316 105.78 530.916 105.878 530.564 106.072C530.22 106.259 529.931 106.533 529.699 106.892C529.467 107.251 529.287 107.686 529.16 108.195C529.04 108.696 528.98 109.262 528.98 109.891V110.34C528.98 110.871 529.052 111.366 529.194 111.822C529.344 112.271 529.561 112.665 529.845 113.001C530.13 113.338 530.474 113.604 530.878 113.799C531.283 113.986 531.743 114.08 532.26 114.08C532.911 114.08 533.491 113.949 534 113.687C534.51 113.424 534.951 113.054 535.326 112.575L536.752 113.956C536.49 114.338 536.149 114.705 535.73 115.057C535.311 115.401 534.798 115.682 534.191 115.899C533.592 116.116 532.896 116.225 532.103 116.225ZM541.794 106.162V116H539.088V103.849H541.671L541.794 106.162ZM545.512 103.77L545.489 106.286C545.325 106.256 545.145 106.233 544.95 106.218C544.763 106.203 544.576 106.196 544.389 106.196C543.924 106.196 543.516 106.263 543.165 106.398C542.813 106.525 542.517 106.712 542.277 106.959C542.045 107.199 541.866 107.491 541.738 107.835C541.611 108.18 541.536 108.565 541.514 108.992L540.896 109.037C540.896 108.273 540.971 107.566 541.121 106.915C541.27 106.263 541.495 105.69 541.794 105.196C542.101 104.702 542.483 104.317 542.94 104.04C543.404 103.763 543.939 103.624 544.546 103.624C544.711 103.624 544.887 103.639 545.074 103.669C545.268 103.699 545.414 103.733 545.512 103.77ZM554.024 112.709C554.024 112.44 553.957 112.197 553.822 111.979C553.688 111.755 553.429 111.553 553.047 111.373C552.673 111.193 552.119 111.029 551.385 110.879C550.741 110.737 550.15 110.568 549.611 110.374C549.079 110.171 548.623 109.928 548.241 109.644C547.859 109.359 547.563 109.022 547.354 108.633C547.144 108.243 547.039 107.794 547.039 107.285C547.039 106.791 547.148 106.323 547.365 105.881C547.582 105.44 547.893 105.05 548.297 104.713C548.701 104.376 549.192 104.111 549.768 103.916C550.352 103.721 551.003 103.624 551.722 103.624C552.74 103.624 553.613 103.796 554.339 104.141C555.073 104.478 555.634 104.938 556.023 105.522C556.413 106.098 556.607 106.75 556.607 107.476H553.901C553.901 107.154 553.819 106.855 553.654 106.578C553.497 106.293 553.257 106.065 552.935 105.893C552.613 105.713 552.209 105.623 551.722 105.623C551.258 105.623 550.872 105.698 550.565 105.848C550.266 105.99 550.041 106.177 549.892 106.409C549.749 106.641 549.678 106.896 549.678 107.173C549.678 107.375 549.716 107.558 549.791 107.723C549.873 107.88 550.008 108.026 550.195 108.161C550.382 108.288 550.637 108.408 550.958 108.521C551.288 108.633 551.7 108.741 552.194 108.846C553.122 109.041 553.92 109.292 554.586 109.599C555.26 109.898 555.776 110.287 556.136 110.767C556.495 111.238 556.675 111.837 556.675 112.563C556.675 113.103 556.559 113.597 556.327 114.046C556.102 114.488 555.773 114.873 555.338 115.203C554.904 115.525 554.384 115.775 553.777 115.955C553.178 116.135 552.505 116.225 551.756 116.225C550.655 116.225 549.723 116.03 548.959 115.641C548.196 115.244 547.616 114.738 547.219 114.125C546.829 113.503 546.635 112.859 546.635 112.193H549.251C549.281 112.694 549.42 113.095 549.667 113.395C549.922 113.687 550.236 113.9 550.61 114.035C550.992 114.162 551.385 114.226 551.79 114.226C552.276 114.226 552.684 114.162 553.014 114.035C553.343 113.9 553.594 113.72 553.766 113.496C553.938 113.264 554.024 113.001 554.024 112.709Z" fill="white"/>
</g>
</g>
<defs>
<filter id="filter0_i_5_6733" x="-21" y="-303" width="2180" height="2144.61" filterUnits="userSpaceOnUse" color-interpolation-filters="sRGB">
<feFlood flood-opacity="0" result="BackgroundImageFix"/>
<feBlend mode="normal" in="SourceGraphic" in2="BackgroundImageFix" result="shape"/>
<feColorMatrix in="SourceAlpha" type="matrix" values="0 0 0 0 0 0 0 0 0 0 0 0 0 0 0 0 0 0 127 0" result="hardAlpha"/>
<feMorphology radius="24" operator="erode" in="SourceAlpha" result="effect1_innerShadow_5_6733"/>
<feOffset dx="24" dy="32"/>
<feGaussianBlur stdDeviation="92"/>
<feComposite in2="hardAlpha" operator="arithmetic" k2="-1" k3="1"/>
<feColorMatrix type="matrix" values="0 0 0 0 0.0235294 0 0 0 0 0.0313726 0 0 0 0 0.34902 0 0 0 0.75 0"/>
<feBlend mode="normal" in2="shape" result="effect1_innerShadow_5_6733"/>
</filter>
<filter id="filter1_i_5_6733" x="-21" y="-64.3818" width="1694.33" height="1667.38" filterUnits="userSpaceOnUse" color-interpolation-filters="sRGB">
<feFlood flood-opacity="0" result="BackgroundImageFix"/>
<feBlend mode="normal" in="SourceGraphic" in2="BackgroundImageFix" result="shape"/>
<feColorMatrix in="SourceAlpha" type="matrix" values="0 0 0 0 0 0 0 0 0 0 0 0 0 0 0 0 0 0 127 0" result="hardAlpha"/>
<feMorphology radius="24" operator="erode" in="SourceAlpha" result="effect1_innerShadow_5_6733"/>
<feOffset dx="24" dy="32"/>
<feGaussianBlur stdDeviation="92"/>
<feComposite in2="hardAlpha" operator="arithmetic" k2="-1" k3="1"/>
<feColorMatrix type="matrix" values="0 0 0 0 0.0235294 0 0 0 0 0.0313726 0 0 0 0 0.34902 0 0 0 0.75 0"/>
<feBlend mode="normal" in2="shape" result="effect1_innerShadow_5_6733"/>
</filter>
<filter id="filter2_i_5_6733" x="73.001" y="136.877" width="1442.45" height="1421.53" filterUnits="userSpaceOnUse" color-interpolation-filters="sRGB">
<feFlood flood-opacity="0" result="BackgroundImageFix"/>
<feBlend mode="normal" in="SourceGraphic" in2="BackgroundImageFix" result="shape"/>
<feColorMatrix in="SourceAlpha" type="matrix" values="0 0 0 0 0 0 0 0 0 0 0 0 0 0 0 0 0 0 127 0" result="hardAlpha"/>
<feMorphology radius="24" operator="erode" in="SourceAlpha" result="effect1_innerShadow_5_6733"/>
<feOffset dx="24" dy="32"/>
<feGaussianBlur stdDeviation="92"/>
<feComposite in2="hardAlpha" operator="arithmetic" k2="-1" k3="1"/>
<feColorMatrix type="matrix" values="0 0 0 0 0.0235294 0 0 0 0 0.0313726 0 0 0 0 0.34902 0 0 0 0.75 0"/>
<feBlend mode="normal" in2="shape" result="effect1_innerShadow_5_6733"/>
</filter>
<radialGradient id="paint0_radial_5_6733" cx="0" cy="0" r="1" gradientUnits="userSpaceOnUse" gradientTransform="translate(831.5 118) rotate(90) scale(356.185 603.412)">
<stop stop-color="#FF8B00"/>
<stop offset="1" stop-color="#9D5600"/>
</radialGradient>
<clipPath id="clip0_5_6733">
<path d="M0 0H1663V220C1663 228.837 1655.84 236 1647 236H16C7.16341 236 0 228.837 0 220V0Z" fill="white"/>
</clipPath>
</defs>
</svg>
