<svg width="1663" height="236" viewBox="0 0 1663 236" fill="none" xmlns="http://www.w3.org/2000/svg">
<g id="Graphic Side">
<g clip-path="url(#clip0_5_5707)">
<path d="M0 0H1663V220C1663 228.837 1655.84 236 1647 236H16C7.16341 236 0 228.837 0 220V0Z" fill="url(#paint0_radial_5_5707)"/>
<g id="Big Circles">
<g id="Ellipse 5" style="mix-blend-mode:multiply" opacity="0.75" filter="url(#filter0_i_5_5707)">
<ellipse cx="1057" cy="753.307" rx="1056.31" ry="1078" transform="rotate(90 1057 753.307)" fill="white"/>
</g>
<g id="Ellipse 4" style="mix-blend-mode:multiply" opacity="0.75" filter="url(#filter1_i_5_5707)">
<ellipse cx="814.163" cy="753.307" rx="817.689" ry="835.164" transform="rotate(90 814.163 753.307)" fill="white"/>
</g>
<g id="Ellipse 3" style="mix-blend-mode:multiply" opacity="0.75" filter="url(#filter2_i_5_5707)">
<ellipse cx="782.228" cy="831.642" rx="694.765" ry="709.226" transform="rotate(90 782.228 831.642)" fill="white"/>
</g>
</g>
<path id="Title" d="M57.5547 44.5625H62.5156L69.8203 65.4414L77.125 44.5625H82.0859L71.8125 73H67.8281L57.5547 44.5625ZM54.8789 44.5625H59.8203L60.7188 64.9141V73H54.8789V44.5625ZM79.8203 44.5625H84.7812V73H78.9219V64.9141L79.8203 44.5625ZM100.973 68.2344V58.8203C100.973 58.1432 100.862 57.5638 100.641 57.082C100.419 56.5872 100.074 56.2031 99.6055 55.9297C99.1497 55.6562 98.5573 55.5195 97.8281 55.5195C97.2031 55.5195 96.6628 55.6302 96.207 55.8516C95.7513 56.0599 95.3997 56.3659 95.1523 56.7695C94.9049 57.1602 94.7812 57.6224 94.7812 58.1562H89.1562C89.1562 57.2578 89.3646 56.4049 89.7812 55.5977C90.1979 54.7904 90.8034 54.0807 91.5977 53.4688C92.3919 52.8438 93.3359 52.3555 94.4297 52.0039C95.5365 51.6523 96.7734 51.4766 98.1406 51.4766C99.7812 51.4766 101.24 51.75 102.516 52.2969C103.792 52.8438 104.794 53.6641 105.523 54.7578C106.266 55.8516 106.637 57.2188 106.637 58.8594V67.9023C106.637 69.0612 106.708 70.0117 106.852 70.7539C106.995 71.4831 107.203 72.1211 107.477 72.668V73H101.793C101.52 72.4271 101.311 71.7109 101.168 70.8516C101.038 69.9792 100.973 69.1068 100.973 68.2344ZM101.715 60.1289L101.754 63.3125H98.6094C97.8672 63.3125 97.2227 63.3971 96.6758 63.5664C96.1289 63.7357 95.6797 63.9766 95.3281 64.2891C94.9766 64.5885 94.7161 64.9401 94.5469 65.3438C94.3906 65.7474 94.3125 66.1901 94.3125 66.6719C94.3125 67.1536 94.4232 67.5898 94.6445 67.9805C94.8659 68.3581 95.1849 68.6576 95.6016 68.8789C96.0182 69.0872 96.5065 69.1914 97.0664 69.1914C97.9128 69.1914 98.6484 69.0221 99.2734 68.6836C99.8984 68.3451 100.38 67.9284 100.719 67.4336C101.07 66.9388 101.253 66.4701 101.266 66.0273L102.75 68.4102C102.542 68.944 102.255 69.4974 101.891 70.0703C101.539 70.6432 101.09 71.1836 100.543 71.6914C99.9961 72.1862 99.3385 72.5964 98.5703 72.9219C97.8021 73.2344 96.8906 73.3906 95.8359 73.3906C94.4948 73.3906 93.2773 73.1237 92.1836 72.5898C91.1029 72.043 90.2435 71.2943 89.6055 70.3438C88.9805 69.3802 88.668 68.2865 88.668 67.0625C88.668 65.9557 88.8763 64.9727 89.293 64.1133C89.7096 63.2539 90.3216 62.5312 91.1289 61.9453C91.9492 61.3464 92.9714 60.8971 94.1953 60.5977C95.4193 60.2852 96.8385 60.1289 98.4531 60.1289H101.715ZM116.91 51.8672V73H111.266V51.8672H116.91ZM110.914 46.3594C110.914 45.5391 111.201 44.862 111.773 44.3281C112.346 43.7943 113.115 43.5273 114.078 43.5273C115.029 43.5273 115.79 43.7943 116.363 44.3281C116.949 44.862 117.242 45.5391 117.242 46.3594C117.242 47.1797 116.949 47.8568 116.363 48.3906C115.79 48.9245 115.029 49.1914 114.078 49.1914C113.115 49.1914 112.346 48.9245 111.773 48.3906C111.201 47.8568 110.914 47.1797 110.914 46.3594ZM127.066 56.3789V73H121.441V51.8672H126.715L127.066 56.3789ZM126.246 61.6914H124.723C124.723 60.1289 124.924 58.7227 125.328 57.4727C125.732 56.2096 126.298 55.1354 127.027 54.25C127.757 53.3516 128.622 52.668 129.625 52.1992C130.641 51.7174 131.773 51.4766 133.023 51.4766C134.013 51.4766 134.918 51.6198 135.738 51.9062C136.559 52.1927 137.262 52.6484 137.848 53.2734C138.447 53.8984 138.902 54.7253 139.215 55.7539C139.54 56.7826 139.703 58.0391 139.703 59.5234V73H134.039V59.5039C134.039 58.5664 133.909 57.8372 133.648 57.3164C133.388 56.7956 133.004 56.431 132.496 56.2227C132.001 56.0013 131.389 55.8906 130.66 55.8906C129.905 55.8906 129.247 56.0404 128.688 56.3398C128.141 56.6393 127.685 57.056 127.32 57.5898C126.969 58.1107 126.702 58.7227 126.52 59.4258C126.337 60.1289 126.246 60.8841 126.246 61.6914ZM154.332 51.8672V55.8516H142.027V51.8672H154.332ZM145.074 46.6523H150.699V66.6328C150.699 67.2448 150.777 67.7135 150.934 68.0391C151.103 68.3646 151.35 68.5924 151.676 68.7227C152.001 68.8398 152.411 68.8984 152.906 68.8984C153.258 68.8984 153.57 68.8854 153.844 68.8594C154.13 68.8203 154.371 68.7812 154.566 68.7422L154.586 72.8828C154.104 73.0391 153.583 73.1628 153.023 73.2539C152.464 73.3451 151.845 73.3906 151.168 73.3906C149.931 73.3906 148.85 73.1888 147.926 72.7852C147.014 72.3685 146.311 71.7044 145.816 70.793C145.322 69.8815 145.074 68.6836 145.074 67.1992V46.6523ZM167.262 73.3906C165.621 73.3906 164.15 73.1302 162.848 72.6094C161.546 72.0755 160.439 71.3398 159.527 70.4023C158.629 69.4648 157.939 68.3776 157.457 67.1406C156.975 65.8906 156.734 64.5625 156.734 63.1562V62.375C156.734 60.7734 156.962 59.3086 157.418 57.9805C157.874 56.6523 158.525 55.5 159.371 54.5234C160.23 53.5469 161.272 52.7982 162.496 52.2773C163.72 51.7435 165.1 51.4766 166.637 51.4766C168.134 51.4766 169.462 51.724 170.621 52.2188C171.78 52.7135 172.75 53.4167 173.531 54.3281C174.326 55.2396 174.924 56.3333 175.328 57.6094C175.732 58.8724 175.934 60.2786 175.934 61.8281V64.1719H159.137V60.4219H170.406V59.9922C170.406 59.2109 170.263 58.5143 169.977 57.9023C169.703 57.2773 169.286 56.7826 168.727 56.418C168.167 56.0534 167.451 55.8711 166.578 55.8711C165.836 55.8711 165.198 56.0339 164.664 56.3594C164.13 56.6849 163.694 57.1406 163.355 57.7266C163.03 58.3125 162.783 59.0026 162.613 59.7969C162.457 60.5781 162.379 61.4375 162.379 62.375V63.1562C162.379 64.0026 162.496 64.7839 162.73 65.5C162.978 66.2161 163.323 66.8346 163.766 67.3555C164.221 67.8763 164.768 68.2799 165.406 68.5664C166.057 68.8529 166.793 68.9961 167.613 68.9961C168.629 68.9961 169.573 68.8008 170.445 68.4102C171.331 68.0065 172.092 67.401 172.73 66.5938L175.465 69.5625C175.022 70.2005 174.417 70.8125 173.648 71.3984C172.893 71.9844 171.982 72.4661 170.914 72.8438C169.846 73.2083 168.629 73.3906 167.262 73.3906ZM184.645 56.3789V73H179.02V51.8672H184.293L184.645 56.3789ZM183.824 61.6914H182.301C182.301 60.1289 182.503 58.7227 182.906 57.4727C183.31 56.2096 183.876 55.1354 184.605 54.25C185.335 53.3516 186.201 52.668 187.203 52.1992C188.219 51.7174 189.352 51.4766 190.602 51.4766C191.591 51.4766 192.496 51.6198 193.316 51.9062C194.137 52.1927 194.84 52.6484 195.426 53.2734C196.025 53.8984 196.48 54.7253 196.793 55.7539C197.118 56.7826 197.281 58.0391 197.281 59.5234V73H191.617V59.5039C191.617 58.5664 191.487 57.8372 191.227 57.3164C190.966 56.7956 190.582 56.431 190.074 56.2227C189.579 56.0013 188.967 55.8906 188.238 55.8906C187.483 55.8906 186.826 56.0404 186.266 56.3398C185.719 56.6393 185.263 57.056 184.898 57.5898C184.547 58.1107 184.28 58.7227 184.098 59.4258C183.915 60.1289 183.824 60.8841 183.824 61.6914ZM212.965 68.2344V58.8203C212.965 58.1432 212.854 57.5638 212.633 57.082C212.411 56.5872 212.066 56.2031 211.598 55.9297C211.142 55.6562 210.549 55.5195 209.82 55.5195C209.195 55.5195 208.655 55.6302 208.199 55.8516C207.743 56.0599 207.392 56.3659 207.145 56.7695C206.897 57.1602 206.773 57.6224 206.773 58.1562H201.148C201.148 57.2578 201.357 56.4049 201.773 55.5977C202.19 54.7904 202.796 54.0807 203.59 53.4688C204.384 52.8438 205.328 52.3555 206.422 52.0039C207.529 51.6523 208.766 51.4766 210.133 51.4766C211.773 51.4766 213.232 51.75 214.508 52.2969C215.784 52.8438 216.786 53.6641 217.516 54.7578C218.258 55.8516 218.629 57.2188 218.629 58.8594V67.9023C218.629 69.0612 218.701 70.0117 218.844 70.7539C218.987 71.4831 219.195 72.1211 219.469 72.668V73H213.785C213.512 72.4271 213.303 71.7109 213.16 70.8516C213.03 69.9792 212.965 69.1068 212.965 68.2344ZM213.707 60.1289L213.746 63.3125H210.602C209.859 63.3125 209.215 63.3971 208.668 63.5664C208.121 63.7357 207.672 63.9766 207.32 64.2891C206.969 64.5885 206.708 64.9401 206.539 65.3438C206.383 65.7474 206.305 66.1901 206.305 66.6719C206.305 67.1536 206.415 67.5898 206.637 67.9805C206.858 68.3581 207.177 68.6576 207.594 68.8789C208.01 69.0872 208.499 69.1914 209.059 69.1914C209.905 69.1914 210.641 69.0221 211.266 68.6836C211.891 68.3451 212.372 67.9284 212.711 67.4336C213.062 66.9388 213.245 66.4701 213.258 66.0273L214.742 68.4102C214.534 68.944 214.247 69.4974 213.883 70.0703C213.531 70.6432 213.082 71.1836 212.535 71.6914C211.988 72.1862 211.331 72.5964 210.562 72.9219C209.794 73.2344 208.883 73.3906 207.828 73.3906C206.487 73.3906 205.27 73.1237 204.176 72.5898C203.095 72.043 202.236 71.2943 201.598 70.3438C200.973 69.3802 200.66 68.2865 200.66 67.0625C200.66 65.9557 200.868 64.9727 201.285 64.1133C201.702 63.2539 202.314 62.5312 203.121 61.9453C203.941 61.3464 204.964 60.8971 206.188 60.5977C207.411 60.2852 208.831 60.1289 210.445 60.1289H213.707ZM228.473 56.3789V73H222.848V51.8672H228.121L228.473 56.3789ZM227.652 61.6914H226.129C226.129 60.1289 226.331 58.7227 226.734 57.4727C227.138 56.2096 227.704 55.1354 228.434 54.25C229.163 53.3516 230.029 52.668 231.031 52.1992C232.047 51.7174 233.18 51.4766 234.43 51.4766C235.419 51.4766 236.324 51.6198 237.145 51.9062C237.965 52.1927 238.668 52.6484 239.254 53.2734C239.853 53.8984 240.309 54.7253 240.621 55.7539C240.947 56.7826 241.109 58.0391 241.109 59.5234V73H235.445V59.5039C235.445 58.5664 235.315 57.8372 235.055 57.3164C234.794 56.7956 234.41 56.431 233.902 56.2227C233.408 56.0013 232.796 55.8906 232.066 55.8906C231.311 55.8906 230.654 56.0404 230.094 56.3398C229.547 56.6393 229.091 57.056 228.727 57.5898C228.375 58.1107 228.108 58.7227 227.926 59.4258C227.743 60.1289 227.652 60.8841 227.652 61.6914ZM254.117 68.9961C254.807 68.9961 255.419 68.8659 255.953 68.6055C256.487 68.332 256.904 67.9544 257.203 67.4727C257.516 66.9779 257.678 66.3984 257.691 65.7344H262.984C262.971 67.2188 262.574 68.5404 261.793 69.6992C261.012 70.8451 259.964 71.75 258.648 72.4141C257.333 73.0651 255.862 73.3906 254.234 73.3906C252.594 73.3906 251.161 73.1172 249.938 72.5703C248.727 72.0234 247.717 71.2682 246.91 70.3047C246.103 69.3281 245.497 68.1953 245.094 66.9062C244.69 65.6042 244.488 64.2109 244.488 62.7266V62.1602C244.488 60.6628 244.69 59.2695 245.094 57.9805C245.497 56.6784 246.103 55.5456 246.91 54.582C247.717 53.6055 248.727 52.8438 249.938 52.2969C251.148 51.75 252.568 51.4766 254.195 51.4766C255.927 51.4766 257.444 51.8086 258.746 52.4727C260.061 53.1367 261.09 54.0872 261.832 55.3242C262.587 56.5482 262.971 58 262.984 59.6797H257.691C257.678 58.9766 257.529 58.3385 257.242 57.7656C256.969 57.1927 256.565 56.737 256.031 56.3984C255.51 56.0469 254.866 55.8711 254.098 55.8711C253.277 55.8711 252.607 56.0469 252.086 56.3984C251.565 56.737 251.161 57.2057 250.875 57.8047C250.589 58.3906 250.387 59.0612 250.27 59.8164C250.165 60.5586 250.113 61.3398 250.113 62.1602V62.7266C250.113 63.5469 250.165 64.3346 250.27 65.0898C250.374 65.8451 250.569 66.5156 250.855 67.1016C251.155 67.6875 251.565 68.1497 252.086 68.4883C252.607 68.8268 253.284 68.9961 254.117 68.9961ZM275.973 73.3906C274.332 73.3906 272.861 73.1302 271.559 72.6094C270.257 72.0755 269.15 71.3398 268.238 70.4023C267.34 69.4648 266.65 68.3776 266.168 67.1406C265.686 65.8906 265.445 64.5625 265.445 63.1562V62.375C265.445 60.7734 265.673 59.3086 266.129 57.9805C266.585 56.6523 267.236 55.5 268.082 54.5234C268.941 53.5469 269.983 52.7982 271.207 52.2773C272.431 51.7435 273.811 51.4766 275.348 51.4766C276.845 51.4766 278.173 51.724 279.332 52.2188C280.491 52.7135 281.461 53.4167 282.242 54.3281C283.036 55.2396 283.635 56.3333 284.039 57.6094C284.443 58.8724 284.645 60.2786 284.645 61.8281V64.1719H267.848V60.4219H279.117V59.9922C279.117 59.2109 278.974 58.5143 278.688 57.9023C278.414 57.2773 277.997 56.7826 277.438 56.418C276.878 56.0534 276.161 55.8711 275.289 55.8711C274.547 55.8711 273.909 56.0339 273.375 56.3594C272.841 56.6849 272.405 57.1406 272.066 57.7266C271.741 58.3125 271.493 59.0026 271.324 59.7969C271.168 60.5781 271.09 61.4375 271.09 62.375V63.1562C271.09 64.0026 271.207 64.7839 271.441 65.5C271.689 66.2161 272.034 66.8346 272.477 67.3555C272.932 67.8763 273.479 68.2799 274.117 68.5664C274.768 68.8529 275.504 68.9961 276.324 68.9961C277.34 68.9961 278.284 68.8008 279.156 68.4102C280.042 68.0065 280.803 67.401 281.441 66.5938L284.176 69.5625C283.733 70.2005 283.128 70.8125 282.359 71.3984C281.604 71.9844 280.693 72.4661 279.625 72.8438C278.557 73.2083 277.34 73.3906 275.973 73.3906Z" fill="white"/>
<path id="Description" d="M58.0029 112.328L61.2598 99.6484H62.9668L62.7759 102.917L59.2944 116H57.52L58.0029 112.328ZM55.5659 99.6484L58.2051 112.227L58.4409 116H56.5542L52.7695 99.6484H55.5659ZM66.6616 112.193L69.2671 99.6484H72.0747L68.29 116H66.4033L66.6616 112.193ZM63.6294 99.6484L66.8525 112.361L67.3242 116H65.5498L62.1245 102.917L61.9448 99.6484H63.6294ZM76.5669 98.75V116H73.8716V98.75H76.5669ZM76.0952 109.475L75.2192 109.464C75.2267 108.625 75.3428 107.85 75.5674 107.139C75.7995 106.428 76.1214 105.81 76.5332 105.286C76.9525 104.755 77.4541 104.347 78.0381 104.062C78.6221 103.77 79.2697 103.624 79.981 103.624C80.5799 103.624 81.119 103.706 81.5981 103.871C82.0848 104.036 82.5041 104.302 82.856 104.668C83.2078 105.028 83.4736 105.5 83.6533 106.083C83.8405 106.66 83.9341 107.364 83.9341 108.195V116H81.2163V108.172C81.2163 107.588 81.1302 107.124 80.958 106.78C80.7933 106.435 80.55 106.188 80.228 106.039C79.9061 105.881 79.513 105.803 79.0488 105.803C78.5622 105.803 78.1317 105.9 77.7573 106.095C77.3905 106.289 77.0835 106.555 76.8364 106.892C76.5894 107.229 76.4022 107.618 76.2749 108.06C76.1551 108.502 76.0952 108.973 76.0952 109.475ZM92.0312 116.225C91.1328 116.225 90.3205 116.079 89.5942 115.787C88.8755 115.487 88.2616 115.072 87.7524 114.54C87.2508 114.008 86.8652 113.383 86.5957 112.665C86.3262 111.946 86.1914 111.171 86.1914 110.34V109.891C86.1914 108.94 86.3299 108.079 86.6069 107.308C86.884 106.536 87.2695 105.878 87.7637 105.331C88.2578 104.777 88.8418 104.354 89.5156 104.062C90.1895 103.77 90.9194 103.624 91.7056 103.624C92.5741 103.624 93.334 103.77 93.9854 104.062C94.6367 104.354 95.1758 104.766 95.6025 105.297C96.0368 105.821 96.3587 106.447 96.5684 107.173C96.7855 107.899 96.894 108.7 96.894 109.576V110.733H87.5054V108.79H94.2212V108.577C94.2062 108.09 94.1089 107.633 93.9292 107.207C93.757 106.78 93.4912 106.435 93.1318 106.173C92.7725 105.911 92.2933 105.78 91.6943 105.78C91.2451 105.78 90.8446 105.878 90.4927 106.072C90.1483 106.259 89.86 106.533 89.6279 106.892C89.3958 107.251 89.2161 107.686 89.0889 108.195C88.9691 108.696 88.9092 109.262 88.9092 109.891V110.34C88.9092 110.871 88.9803 111.366 89.1226 111.822C89.2723 112.271 89.4894 112.665 89.7739 113.001C90.0584 113.338 90.4028 113.604 90.8071 113.799C91.2114 113.986 91.6719 114.08 92.1885 114.08C92.8398 114.08 93.4201 113.949 93.9292 113.687C94.4383 113.424 94.88 113.054 95.2544 112.575L96.6807 113.956C96.4186 114.338 96.078 114.705 95.6587 115.057C95.2394 115.401 94.7266 115.682 94.1201 115.899C93.5212 116.116 92.8249 116.225 92.0312 116.225ZM101.723 106.162V116H99.0166V103.849H101.6L101.723 106.162ZM105.44 103.77L105.418 106.286C105.253 106.256 105.074 106.233 104.879 106.218C104.692 106.203 104.505 106.196 104.317 106.196C103.853 106.196 103.445 106.263 103.093 106.398C102.741 106.525 102.446 106.712 102.206 106.959C101.974 107.199 101.794 107.491 101.667 107.835C101.54 108.18 101.465 108.565 101.442 108.992L100.825 109.037C100.825 108.273 100.9 107.566 101.049 106.915C101.199 106.263 101.424 105.69 101.723 105.196C102.03 104.702 102.412 104.317 102.869 104.04C103.333 103.763 103.868 103.624 104.475 103.624C104.639 103.624 104.815 103.639 105.002 103.669C105.197 103.699 105.343 103.733 105.44 103.77ZM112.269 116.225C111.37 116.225 110.558 116.079 109.832 115.787C109.113 115.487 108.499 115.072 107.99 114.54C107.488 114.008 107.103 113.383 106.833 112.665C106.563 111.946 106.429 111.171 106.429 110.34V109.891C106.429 108.94 106.567 108.079 106.844 107.308C107.121 106.536 107.507 105.878 108.001 105.331C108.495 104.777 109.079 104.354 109.753 104.062C110.427 103.77 111.157 103.624 111.943 103.624C112.811 103.624 113.571 103.77 114.223 104.062C114.874 104.354 115.413 104.766 115.84 105.297C116.274 105.821 116.596 106.447 116.806 107.173C117.023 107.899 117.131 108.7 117.131 109.576V110.733H107.743V108.79H114.458V108.577C114.444 108.09 114.346 107.633 114.167 107.207C113.994 106.78 113.729 106.435 113.369 106.173C113.01 105.911 112.531 105.78 111.932 105.78C111.482 105.78 111.082 105.878 110.73 106.072C110.386 106.259 110.097 106.533 109.865 106.892C109.633 107.251 109.453 107.686 109.326 108.195C109.206 108.696 109.146 109.262 109.146 109.891V110.34C109.146 110.871 109.218 111.366 109.36 111.822C109.51 112.271 109.727 112.665 110.011 113.001C110.296 113.338 110.64 113.604 111.044 113.799C111.449 113.986 111.909 114.08 112.426 114.08C113.077 114.08 113.657 113.949 114.167 113.687C114.676 113.424 115.117 113.054 115.492 112.575L116.918 113.956C116.656 114.338 116.315 114.705 115.896 115.057C115.477 115.401 114.964 115.682 114.357 115.899C113.758 116.116 113.062 116.225 112.269 116.225ZM128.497 114.675L131.798 103.849H134.696L129.822 117.853C129.709 118.153 129.563 118.478 129.384 118.83C129.204 119.182 128.968 119.515 128.676 119.83C128.392 120.152 128.036 120.41 127.609 120.604C127.183 120.807 126.666 120.908 126.06 120.908C125.82 120.908 125.588 120.885 125.363 120.84C125.146 120.803 124.94 120.762 124.746 120.717L124.734 118.65C124.809 118.658 124.899 118.665 125.004 118.673C125.116 118.68 125.206 118.684 125.273 118.684C125.723 118.684 126.097 118.628 126.396 118.516C126.696 118.411 126.939 118.239 127.126 117.999C127.321 117.759 127.486 117.438 127.621 117.033L128.497 114.675ZM126.632 103.849L129.519 112.945L130.001 115.798L128.126 116.281L123.712 103.849H126.632ZM135.549 110.059V109.801C135.549 108.925 135.677 108.112 135.931 107.364C136.186 106.608 136.553 105.952 137.032 105.398C137.518 104.837 138.11 104.403 138.806 104.096C139.51 103.781 140.304 103.624 141.187 103.624C142.078 103.624 142.872 103.781 143.568 104.096C144.272 104.403 144.867 104.837 145.354 105.398C145.84 105.952 146.211 106.608 146.465 107.364C146.72 108.112 146.847 108.925 146.847 109.801V110.059C146.847 110.935 146.72 111.747 146.465 112.496C146.211 113.245 145.84 113.9 145.354 114.461C144.867 115.015 144.275 115.45 143.579 115.764C142.883 116.071 142.093 116.225 141.209 116.225C140.319 116.225 139.521 116.071 138.817 115.764C138.121 115.45 137.53 115.015 137.043 114.461C136.556 113.9 136.186 113.245 135.931 112.496C135.677 111.747 135.549 110.935 135.549 110.059ZM138.256 109.801V110.059C138.256 110.606 138.312 111.122 138.424 111.609C138.537 112.096 138.713 112.522 138.952 112.889C139.192 113.256 139.499 113.544 139.873 113.754C140.247 113.964 140.693 114.068 141.209 114.068C141.711 114.068 142.145 113.964 142.512 113.754C142.887 113.544 143.194 113.256 143.433 112.889C143.673 112.522 143.849 112.096 143.961 111.609C144.081 111.122 144.141 110.606 144.141 110.059V109.801C144.141 109.262 144.081 108.753 143.961 108.273C143.849 107.787 143.669 107.356 143.422 106.982C143.182 106.608 142.875 106.316 142.501 106.106C142.134 105.889 141.696 105.78 141.187 105.78C140.678 105.78 140.236 105.889 139.862 106.106C139.495 106.316 139.192 106.608 138.952 106.982C138.713 107.356 138.537 107.787 138.424 108.273C138.312 108.753 138.256 109.262 138.256 109.801ZM156.427 113.136V103.849H159.145V116H156.584L156.427 113.136ZM156.809 110.609L157.718 110.587C157.718 111.403 157.628 112.155 157.449 112.844C157.269 113.526 156.992 114.121 156.618 114.63C156.243 115.132 155.764 115.525 155.18 115.809C154.596 116.086 153.896 116.225 153.08 116.225C152.489 116.225 151.946 116.139 151.452 115.966C150.958 115.794 150.531 115.528 150.171 115.169C149.819 114.81 149.546 114.342 149.352 113.765C149.157 113.189 149.06 112.5 149.06 111.699V103.849H151.766V111.721C151.766 112.163 151.819 112.534 151.923 112.833C152.028 113.125 152.17 113.361 152.35 113.541C152.53 113.72 152.739 113.847 152.979 113.922C153.219 113.997 153.473 114.035 153.743 114.035C154.514 114.035 155.12 113.885 155.562 113.585C156.011 113.278 156.329 112.867 156.517 112.35C156.711 111.833 156.809 111.253 156.809 110.609ZM170.353 106.319V116H167.646V103.849H170.195L170.353 106.319ZM169.915 109.475L168.994 109.464C168.994 108.625 169.098 107.85 169.308 107.139C169.518 106.428 169.825 105.81 170.229 105.286C170.633 104.755 171.135 104.347 171.734 104.062C172.34 103.77 173.04 103.624 173.834 103.624C174.388 103.624 174.893 103.706 175.35 103.871C175.814 104.028 176.215 104.279 176.552 104.624C176.896 104.968 177.158 105.41 177.338 105.949C177.525 106.488 177.619 107.139 177.619 107.903V116H174.912V108.139C174.912 107.547 174.822 107.083 174.643 106.746C174.47 106.409 174.22 106.17 173.89 106.027C173.568 105.878 173.183 105.803 172.733 105.803C172.224 105.803 171.79 105.9 171.431 106.095C171.079 106.289 170.791 106.555 170.566 106.892C170.341 107.229 170.177 107.618 170.072 108.06C169.967 108.502 169.915 108.973 169.915 109.475ZM177.45 108.756L176.181 109.037C176.181 108.303 176.282 107.611 176.484 106.959C176.694 106.301 176.997 105.724 177.394 105.23C177.798 104.728 178.296 104.335 178.888 104.051C179.479 103.766 180.157 103.624 180.92 103.624C181.542 103.624 182.096 103.71 182.583 103.882C183.077 104.047 183.496 104.309 183.84 104.668C184.185 105.028 184.447 105.496 184.626 106.072C184.806 106.641 184.896 107.33 184.896 108.139V116H182.178V108.127C182.178 107.514 182.088 107.038 181.909 106.701C181.736 106.364 181.489 106.132 181.167 106.005C180.846 105.87 180.46 105.803 180.011 105.803C179.591 105.803 179.221 105.881 178.899 106.039C178.584 106.188 178.319 106.402 178.102 106.679C177.884 106.948 177.72 107.259 177.607 107.611C177.503 107.963 177.45 108.345 177.45 108.756ZM194.532 113.563V107.768C194.532 107.334 194.453 106.959 194.296 106.645C194.139 106.331 193.899 106.087 193.577 105.915C193.263 105.743 192.866 105.657 192.387 105.657C191.945 105.657 191.563 105.732 191.241 105.881C190.919 106.031 190.668 106.233 190.489 106.488C190.309 106.742 190.219 107.031 190.219 107.353H187.524C187.524 106.873 187.64 106.409 187.872 105.96C188.104 105.511 188.441 105.11 188.883 104.758C189.325 104.406 189.852 104.129 190.466 103.927C191.08 103.725 191.769 103.624 192.533 103.624C193.446 103.624 194.255 103.778 194.958 104.084C195.67 104.391 196.228 104.856 196.632 105.477C197.044 106.091 197.25 106.862 197.25 107.791V113.192C197.25 113.746 197.287 114.244 197.362 114.686C197.444 115.12 197.56 115.498 197.71 115.82V116H194.936C194.809 115.708 194.708 115.337 194.633 114.888C194.565 114.431 194.532 113.99 194.532 113.563ZM194.925 108.61L194.947 110.284H193.004C192.503 110.284 192.061 110.332 191.679 110.43C191.297 110.52 190.979 110.654 190.725 110.834C190.47 111.014 190.279 111.231 190.152 111.485C190.025 111.74 189.961 112.028 189.961 112.35C189.961 112.672 190.036 112.968 190.186 113.237C190.335 113.499 190.552 113.705 190.837 113.855C191.129 114.005 191.481 114.08 191.893 114.08C192.447 114.08 192.93 113.967 193.341 113.743C193.761 113.511 194.09 113.23 194.33 112.9C194.569 112.563 194.696 112.245 194.711 111.946L195.587 113.147C195.498 113.454 195.344 113.784 195.127 114.136C194.91 114.488 194.625 114.825 194.273 115.146C193.929 115.461 193.514 115.719 193.027 115.921C192.548 116.124 191.994 116.225 191.365 116.225C190.571 116.225 189.864 116.067 189.242 115.753C188.621 115.431 188.134 115 187.782 114.461C187.43 113.915 187.254 113.297 187.254 112.608C187.254 111.965 187.374 111.396 187.614 110.901C187.861 110.4 188.22 109.98 188.692 109.644C189.171 109.307 189.755 109.052 190.444 108.88C191.133 108.7 191.919 108.61 192.802 108.61H194.925ZM202.764 106.443V116H200.057V103.849H202.606L202.764 106.443ZM202.281 109.475L201.405 109.464C201.412 108.603 201.532 107.813 201.764 107.094C202.004 106.375 202.333 105.758 202.752 105.241C203.179 104.725 203.688 104.328 204.28 104.051C204.871 103.766 205.53 103.624 206.256 103.624C206.84 103.624 207.368 103.706 207.84 103.871C208.319 104.028 208.727 104.287 209.064 104.646C209.408 105.005 209.67 105.473 209.85 106.05C210.03 106.619 210.12 107.319 210.12 108.15V116H207.402V108.139C207.402 107.555 207.316 107.094 207.144 106.757C206.979 106.413 206.736 106.17 206.414 106.027C206.099 105.878 205.706 105.803 205.234 105.803C204.77 105.803 204.355 105.9 203.988 106.095C203.621 106.289 203.31 106.555 203.056 106.892C202.809 107.229 202.618 107.618 202.483 108.06C202.348 108.502 202.281 108.973 202.281 109.475ZM219.733 113.563V107.768C219.733 107.334 219.654 106.959 219.497 106.645C219.34 106.331 219.1 106.087 218.778 105.915C218.464 105.743 218.067 105.657 217.588 105.657C217.146 105.657 216.764 105.732 216.442 105.881C216.12 106.031 215.87 106.233 215.69 106.488C215.51 106.742 215.42 107.031 215.42 107.353H212.725C212.725 106.873 212.841 106.409 213.073 105.96C213.305 105.511 213.642 105.11 214.084 104.758C214.526 104.406 215.054 104.129 215.667 103.927C216.281 103.725 216.97 103.624 217.734 103.624C218.647 103.624 219.456 103.778 220.16 104.084C220.871 104.391 221.429 104.856 221.833 105.477C222.245 106.091 222.451 106.862 222.451 107.791V113.192C222.451 113.746 222.488 114.244 222.563 114.686C222.645 115.12 222.761 115.498 222.911 115.82V116H220.137C220.01 115.708 219.909 115.337 219.834 114.888C219.767 114.431 219.733 113.99 219.733 113.563ZM220.126 108.61L220.148 110.284H218.206C217.704 110.284 217.262 110.332 216.88 110.43C216.499 110.52 216.18 110.654 215.926 110.834C215.671 111.014 215.48 111.231 215.353 111.485C215.226 111.74 215.162 112.028 215.162 112.35C215.162 112.672 215.237 112.968 215.387 113.237C215.536 113.499 215.754 113.705 216.038 113.855C216.33 114.005 216.682 114.08 217.094 114.08C217.648 114.08 218.131 113.967 218.542 113.743C218.962 113.511 219.291 113.23 219.531 112.9C219.77 112.563 219.898 112.245 219.913 111.946L220.789 113.147C220.699 113.454 220.545 113.784 220.328 114.136C220.111 114.488 219.826 114.825 219.475 115.146C219.13 115.461 218.715 115.719 218.228 115.921C217.749 116.124 217.195 116.225 216.566 116.225C215.772 116.225 215.065 116.067 214.443 115.753C213.822 115.431 213.335 115 212.983 114.461C212.632 113.915 212.456 113.297 212.456 112.608C212.456 111.965 212.575 111.396 212.815 110.901C213.062 110.4 213.421 109.98 213.893 109.644C214.372 109.307 214.956 109.052 215.645 108.88C216.334 108.7 217.12 108.61 218.003 108.61H220.126ZM233.063 103.849H235.523V115.663C235.523 116.756 235.291 117.685 234.827 118.448C234.362 119.212 233.715 119.792 232.884 120.189C232.053 120.593 231.091 120.795 229.998 120.795C229.533 120.795 229.017 120.728 228.448 120.593C227.886 120.458 227.34 120.241 226.808 119.942C226.284 119.65 225.846 119.264 225.494 118.785L226.763 117.19C227.197 117.707 227.677 118.085 228.201 118.325C228.725 118.564 229.275 118.684 229.852 118.684C230.473 118.684 231.001 118.568 231.435 118.336C231.877 118.111 232.217 117.778 232.457 117.336C232.697 116.895 232.816 116.356 232.816 115.719V106.6L233.063 103.849ZM224.809 110.059V109.823C224.809 108.902 224.921 108.064 225.146 107.308C225.371 106.544 225.693 105.889 226.112 105.342C226.531 104.788 227.04 104.365 227.639 104.073C228.238 103.774 228.916 103.624 229.672 103.624C230.458 103.624 231.128 103.766 231.682 104.051C232.244 104.335 232.712 104.743 233.086 105.275C233.46 105.799 233.752 106.428 233.962 107.162C234.179 107.888 234.34 108.696 234.445 109.587V110.34C234.347 111.208 234.183 112.002 233.951 112.721C233.719 113.439 233.412 114.061 233.03 114.585C232.648 115.109 232.176 115.513 231.615 115.798C231.061 116.082 230.406 116.225 229.649 116.225C228.908 116.225 228.238 116.071 227.639 115.764C227.048 115.457 226.539 115.027 226.112 114.473C225.693 113.919 225.371 113.267 225.146 112.519C224.921 111.762 224.809 110.943 224.809 110.059ZM227.516 109.823V110.059C227.516 110.613 227.568 111.13 227.673 111.609C227.785 112.088 227.954 112.511 228.178 112.878C228.41 113.237 228.702 113.522 229.054 113.731C229.414 113.934 229.837 114.035 230.323 114.035C230.96 114.035 231.48 113.9 231.884 113.63C232.296 113.361 232.611 112.998 232.828 112.541C233.052 112.077 233.209 111.56 233.299 110.991V108.958C233.254 108.517 233.161 108.105 233.019 107.723C232.884 107.341 232.7 107.008 232.468 106.724C232.236 106.432 231.944 106.207 231.592 106.05C231.24 105.885 230.825 105.803 230.346 105.803C229.859 105.803 229.436 105.908 229.077 106.117C228.717 106.327 228.422 106.615 228.189 106.982C227.965 107.349 227.796 107.776 227.684 108.262C227.572 108.749 227.516 109.269 227.516 109.823ZM243.688 116.225C242.789 116.225 241.977 116.079 241.25 115.787C240.532 115.487 239.918 115.072 239.409 114.54C238.907 114.008 238.521 113.383 238.252 112.665C237.982 111.946 237.848 111.171 237.848 110.34V109.891C237.848 108.94 237.986 108.079 238.263 107.308C238.54 106.536 238.926 105.878 239.42 105.331C239.914 104.777 240.498 104.354 241.172 104.062C241.846 103.77 242.576 103.624 243.362 103.624C244.23 103.624 244.99 103.77 245.642 104.062C246.293 104.354 246.832 104.766 247.259 105.297C247.693 105.821 248.015 106.447 248.225 107.173C248.442 107.899 248.55 108.7 248.55 109.576V110.733H239.162V108.79H245.877V108.577C245.862 108.09 245.765 107.633 245.585 107.207C245.413 106.78 245.147 106.435 244.788 106.173C244.429 105.911 243.95 105.78 243.351 105.78C242.901 105.78 242.501 105.878 242.149 106.072C241.805 106.259 241.516 106.533 241.284 106.892C241.052 107.251 240.872 107.686 240.745 108.195C240.625 108.696 240.565 109.262 240.565 109.891V110.34C240.565 110.871 240.637 111.366 240.779 111.822C240.929 112.271 241.146 112.665 241.43 113.001C241.715 113.338 242.059 113.604 242.463 113.799C242.868 113.986 243.328 114.08 243.845 114.08C244.496 114.08 245.076 113.949 245.585 113.687C246.095 113.424 246.536 113.054 246.911 112.575L248.337 113.956C248.075 114.338 247.734 114.705 247.315 115.057C246.896 115.401 246.383 115.682 245.776 115.899C245.177 116.116 244.481 116.225 243.688 116.225ZM259.916 114.675L263.217 103.849H266.115L261.241 117.853C261.128 118.153 260.982 118.478 260.803 118.83C260.623 119.182 260.387 119.515 260.095 119.83C259.811 120.152 259.455 120.41 259.028 120.604C258.602 120.807 258.085 120.908 257.479 120.908C257.239 120.908 257.007 120.885 256.782 120.84C256.565 120.803 256.359 120.762 256.165 120.717L256.153 118.65C256.228 118.658 256.318 118.665 256.423 118.673C256.535 118.68 256.625 118.684 256.692 118.684C257.142 118.684 257.516 118.628 257.815 118.516C258.115 118.411 258.358 118.239 258.545 117.999C258.74 117.759 258.905 117.438 259.04 117.033L259.916 114.675ZM258.051 103.849L260.938 112.945L261.42 115.798L259.545 116.281L255.131 103.849H258.051ZM266.968 110.059V109.801C266.968 108.925 267.096 108.112 267.35 107.364C267.605 106.608 267.972 105.952 268.451 105.398C268.937 104.837 269.529 104.403 270.225 104.096C270.929 103.781 271.722 103.624 272.606 103.624C273.497 103.624 274.291 103.781 274.987 104.096C275.691 104.403 276.286 104.837 276.772 105.398C277.259 105.952 277.63 106.608 277.884 107.364C278.139 108.112 278.266 108.925 278.266 109.801V110.059C278.266 110.935 278.139 111.747 277.884 112.496C277.63 113.245 277.259 113.9 276.772 114.461C276.286 115.015 275.694 115.45 274.998 115.764C274.302 116.071 273.512 116.225 272.628 116.225C271.737 116.225 270.94 116.071 270.236 115.764C269.54 115.45 268.949 115.015 268.462 114.461C267.975 113.9 267.605 113.245 267.35 112.496C267.096 111.747 266.968 110.935 266.968 110.059ZM269.675 109.801V110.059C269.675 110.606 269.731 111.122 269.843 111.609C269.956 112.096 270.132 112.522 270.371 112.889C270.611 113.256 270.918 113.544 271.292 113.754C271.666 113.964 272.112 114.068 272.628 114.068C273.13 114.068 273.564 113.964 273.931 113.754C274.306 113.544 274.612 113.256 274.852 112.889C275.092 112.522 275.268 112.096 275.38 111.609C275.5 111.122 275.56 110.606 275.56 110.059V109.801C275.56 109.262 275.5 108.753 275.38 108.273C275.268 107.787 275.088 107.356 274.841 106.982C274.601 106.608 274.294 106.316 273.92 106.106C273.553 105.889 273.115 105.78 272.606 105.78C272.097 105.78 271.655 105.889 271.281 106.106C270.914 106.316 270.611 106.608 270.371 106.982C270.132 107.356 269.956 107.787 269.843 108.273C269.731 108.753 269.675 109.262 269.675 109.801ZM287.846 113.136V103.849H290.563V116H288.003L287.846 113.136ZM288.228 110.609L289.137 110.587C289.137 111.403 289.047 112.155 288.868 112.844C288.688 113.526 288.411 114.121 288.037 114.63C287.662 115.132 287.183 115.525 286.599 115.809C286.015 116.086 285.315 116.225 284.499 116.225C283.908 116.225 283.365 116.139 282.871 115.966C282.376 115.794 281.95 115.528 281.59 115.169C281.238 114.81 280.965 114.342 280.771 113.765C280.576 113.189 280.479 112.5 280.479 111.699V103.849H283.185V111.721C283.185 112.163 283.237 112.534 283.342 112.833C283.447 113.125 283.589 113.361 283.769 113.541C283.949 113.72 284.158 113.847 284.398 113.922C284.638 113.997 284.892 114.035 285.162 114.035C285.933 114.035 286.539 113.885 286.981 113.585C287.43 113.278 287.748 112.867 287.936 112.35C288.13 111.833 288.228 111.253 288.228 110.609ZM296.055 106.162V116H293.349V103.849H295.932L296.055 106.162ZM299.772 103.77L299.75 106.286C299.585 106.256 299.406 106.233 299.211 106.218C299.024 106.203 298.837 106.196 298.649 106.196C298.185 106.196 297.777 106.263 297.425 106.398C297.073 106.525 296.778 106.712 296.538 106.959C296.306 107.199 296.126 107.491 295.999 107.835C295.872 108.18 295.797 108.565 295.774 108.992L295.157 109.037C295.157 108.273 295.232 107.566 295.381 106.915C295.531 106.263 295.756 105.69 296.055 105.196C296.362 104.702 296.744 104.317 297.201 104.04C297.665 103.763 298.2 103.624 298.807 103.624C298.971 103.624 299.147 103.639 299.334 103.669C299.529 103.699 299.675 103.733 299.772 103.77ZM314.013 112.709C314.013 112.44 313.945 112.197 313.811 111.979C313.676 111.755 313.417 111.553 313.036 111.373C312.661 111.193 312.107 111.029 311.374 110.879C310.73 110.737 310.138 110.568 309.599 110.374C309.068 110.171 308.611 109.928 308.229 109.644C307.847 109.359 307.551 109.022 307.342 108.633C307.132 108.243 307.027 107.794 307.027 107.285C307.027 106.791 307.136 106.323 307.353 105.881C307.57 105.44 307.881 105.05 308.285 104.713C308.689 104.376 309.18 104.111 309.756 103.916C310.34 103.721 310.992 103.624 311.71 103.624C312.729 103.624 313.601 103.796 314.327 104.141C315.061 104.478 315.622 104.938 316.012 105.522C316.401 106.098 316.596 106.75 316.596 107.476H313.889C313.889 107.154 313.807 106.855 313.642 106.578C313.485 106.293 313.245 106.065 312.923 105.893C312.601 105.713 312.197 105.623 311.71 105.623C311.246 105.623 310.861 105.698 310.554 105.848C310.254 105.99 310.03 106.177 309.88 106.409C309.738 106.641 309.667 106.896 309.667 107.173C309.667 107.375 309.704 107.558 309.779 107.723C309.861 107.88 309.996 108.026 310.183 108.161C310.37 108.288 310.625 108.408 310.947 108.521C311.276 108.633 311.688 108.741 312.182 108.846C313.111 109.041 313.908 109.292 314.574 109.599C315.248 109.898 315.765 110.287 316.124 110.767C316.483 111.238 316.663 111.837 316.663 112.563C316.663 113.103 316.547 113.597 316.315 114.046C316.09 114.488 315.761 114.873 315.327 115.203C314.892 115.525 314.372 115.775 313.766 115.955C313.167 116.135 312.493 116.225 311.744 116.225C310.644 116.225 309.711 116.03 308.948 115.641C308.184 115.244 307.604 114.738 307.207 114.125C306.818 113.503 306.623 112.859 306.623 112.193H309.24C309.27 112.694 309.408 113.095 309.655 113.395C309.91 113.687 310.224 113.9 310.599 114.035C310.98 114.162 311.374 114.226 311.778 114.226C312.264 114.226 312.673 114.162 313.002 114.035C313.331 113.9 313.582 113.72 313.754 113.496C313.927 113.264 314.013 113.001 314.013 112.709ZM322.559 114.675L325.861 103.849H328.758L323.884 117.853C323.772 118.153 323.626 118.478 323.446 118.83C323.267 119.182 323.031 119.515 322.739 119.83C322.454 120.152 322.099 120.41 321.672 120.604C321.245 120.807 320.729 120.908 320.122 120.908C319.882 120.908 319.65 120.885 319.426 120.84C319.209 120.803 319.003 120.762 318.808 120.717L318.797 118.65C318.872 118.658 318.962 118.665 319.066 118.673C319.179 118.68 319.269 118.684 319.336 118.684C319.785 118.684 320.16 118.628 320.459 118.516C320.758 118.411 321.002 118.239 321.189 117.999C321.384 117.759 321.548 117.438 321.683 117.033L322.559 114.675ZM320.695 103.849L323.581 112.945L324.064 115.798L322.188 116.281L317.775 103.849H320.695ZM337.125 112.709C337.125 112.44 337.058 112.197 336.923 111.979C336.788 111.755 336.53 111.553 336.148 111.373C335.774 111.193 335.22 111.029 334.486 110.879C333.842 110.737 333.25 110.568 332.711 110.374C332.18 110.171 331.723 109.928 331.341 109.644C330.959 109.359 330.664 109.022 330.454 108.633C330.244 108.243 330.14 107.794 330.14 107.285C330.14 106.791 330.248 106.323 330.465 105.881C330.682 105.44 330.993 105.05 331.397 104.713C331.802 104.376 332.292 104.111 332.869 103.916C333.453 103.721 334.104 103.624 334.823 103.624C335.841 103.624 336.713 103.796 337.439 104.141C338.173 104.478 338.735 104.938 339.124 105.522C339.513 106.098 339.708 106.75 339.708 107.476H337.001C337.001 107.154 336.919 106.855 336.754 106.578C336.597 106.293 336.358 106.065 336.036 105.893C335.714 105.713 335.309 105.623 334.823 105.623C334.359 105.623 333.973 105.698 333.666 105.848C333.367 105.99 333.142 106.177 332.992 106.409C332.85 106.641 332.779 106.896 332.779 107.173C332.779 107.375 332.816 107.558 332.891 107.723C332.973 107.88 333.108 108.026 333.295 108.161C333.483 108.288 333.737 108.408 334.059 108.521C334.389 108.633 334.8 108.741 335.294 108.846C336.223 109.041 337.02 109.292 337.687 109.599C338.36 109.898 338.877 110.287 339.236 110.767C339.596 111.238 339.775 111.837 339.775 112.563C339.775 113.103 339.659 113.597 339.427 114.046C339.203 114.488 338.873 114.873 338.439 115.203C338.005 115.525 337.484 115.775 336.878 115.955C336.279 116.135 335.605 116.225 334.856 116.225C333.756 116.225 332.824 116.03 332.06 115.641C331.296 115.244 330.716 114.738 330.319 114.125C329.93 113.503 329.735 112.859 329.735 112.193H332.352C332.382 112.694 332.521 113.095 332.768 113.395C333.022 113.687 333.337 113.9 333.711 114.035C334.093 114.162 334.486 114.226 334.89 114.226C335.377 114.226 335.785 114.162 336.114 114.035C336.444 113.9 336.694 113.72 336.867 113.496C337.039 113.264 337.125 113.001 337.125 112.709ZM347.715 103.849V105.825H340.865V103.849H347.715ZM342.841 100.873H345.548V112.642C345.548 113.016 345.6 113.305 345.705 113.507C345.817 113.701 345.971 113.833 346.166 113.9C346.36 113.967 346.589 114.001 346.851 114.001C347.038 114.001 347.217 113.99 347.39 113.967C347.562 113.945 347.7 113.922 347.805 113.9L347.816 115.966C347.592 116.034 347.33 116.094 347.03 116.146C346.738 116.198 346.401 116.225 346.02 116.225C345.398 116.225 344.848 116.116 344.369 115.899C343.889 115.674 343.515 115.311 343.246 114.81C342.976 114.308 342.841 113.642 342.841 112.811V100.873ZM355.161 116.225C354.263 116.225 353.45 116.079 352.724 115.787C352.005 115.487 351.391 115.072 350.882 114.54C350.381 114.008 349.995 113.383 349.726 112.665C349.456 111.946 349.321 111.171 349.321 110.34V109.891C349.321 108.94 349.46 108.079 349.737 107.308C350.014 106.536 350.399 105.878 350.894 105.331C351.388 104.777 351.972 104.354 352.646 104.062C353.319 103.77 354.049 103.624 354.835 103.624C355.704 103.624 356.464 103.77 357.115 104.062C357.767 104.354 358.306 104.766 358.732 105.297C359.167 105.821 359.489 106.447 359.698 107.173C359.915 107.899 360.024 108.7 360.024 109.576V110.733H350.635V108.79H357.351V108.577C357.336 108.09 357.239 107.633 357.059 107.207C356.887 106.78 356.621 106.435 356.262 106.173C355.902 105.911 355.423 105.78 354.824 105.78C354.375 105.78 353.974 105.878 353.623 106.072C353.278 106.259 352.99 106.533 352.758 106.892C352.526 107.251 352.346 107.686 352.219 108.195C352.099 108.696 352.039 109.262 352.039 109.891V110.34C352.039 110.871 352.11 111.366 352.252 111.822C352.402 112.271 352.619 112.665 352.904 113.001C353.188 113.338 353.533 113.604 353.937 113.799C354.341 113.986 354.802 114.08 355.318 114.08C355.97 114.08 356.55 113.949 357.059 113.687C357.568 113.424 358.01 113.054 358.384 112.575L359.811 113.956C359.549 114.338 359.208 114.705 358.789 115.057C358.369 115.401 357.856 115.682 357.25 115.899C356.651 116.116 355.955 116.225 355.161 116.225ZM364.842 106.319V116H362.135V103.849H364.685L364.842 106.319ZM364.404 109.475L363.483 109.464C363.483 108.625 363.588 107.85 363.797 107.139C364.007 106.428 364.314 105.81 364.718 105.286C365.123 104.755 365.624 104.347 366.223 104.062C366.83 103.77 367.53 103.624 368.323 103.624C368.877 103.624 369.383 103.706 369.839 103.871C370.304 104.028 370.704 104.279 371.041 104.624C371.385 104.968 371.647 105.41 371.827 105.949C372.014 106.488 372.108 107.139 372.108 107.903V116H369.401V108.139C369.401 107.547 369.312 107.083 369.132 106.746C368.96 106.409 368.709 106.17 368.379 106.027C368.057 105.878 367.672 105.803 367.223 105.803C366.714 105.803 366.279 105.9 365.92 106.095C365.568 106.289 365.28 106.555 365.055 106.892C364.831 107.229 364.666 107.618 364.561 108.06C364.456 108.502 364.404 108.973 364.404 109.475ZM371.939 108.756L370.67 109.037C370.67 108.303 370.771 107.611 370.974 106.959C371.183 106.301 371.486 105.724 371.883 105.23C372.288 104.728 372.785 104.335 373.377 104.051C373.968 103.766 374.646 103.624 375.41 103.624C376.031 103.624 376.585 103.71 377.072 103.882C377.566 104.047 377.985 104.309 378.33 104.668C378.674 105.028 378.936 105.496 379.116 106.072C379.295 106.641 379.385 107.33 379.385 108.139V116H376.667V108.127C376.667 107.514 376.578 107.038 376.398 106.701C376.226 106.364 375.979 106.132 375.657 106.005C375.335 105.87 374.949 105.803 374.5 105.803C374.081 105.803 373.71 105.881 373.388 106.039C373.074 106.188 372.808 106.402 372.591 106.679C372.374 106.948 372.209 107.259 372.097 107.611C371.992 107.963 371.939 108.345 371.939 108.756ZM390.604 106.319V116H387.898V103.849H390.447L390.604 106.319ZM390.167 109.475L389.246 109.464C389.246 108.625 389.35 107.85 389.56 107.139C389.77 106.428 390.077 105.81 390.481 105.286C390.885 104.755 391.387 104.347 391.986 104.062C392.592 103.77 393.292 103.624 394.086 103.624C394.64 103.624 395.145 103.706 395.602 103.871C396.066 104.028 396.467 104.279 396.804 104.624C397.148 104.968 397.41 105.41 397.59 105.949C397.777 106.488 397.871 107.139 397.871 107.903V116H395.164V108.139C395.164 107.547 395.074 107.083 394.895 106.746C394.722 106.409 394.472 106.17 394.142 106.027C393.82 105.878 393.435 105.803 392.985 105.803C392.476 105.803 392.042 105.9 391.683 106.095C391.331 106.289 391.042 106.555 390.818 106.892C390.593 107.229 390.429 107.618 390.324 108.06C390.219 108.502 390.167 108.973 390.167 109.475ZM397.702 108.756L396.433 109.037C396.433 108.303 396.534 107.611 396.736 106.959C396.946 106.301 397.249 105.724 397.646 105.23C398.05 104.728 398.548 104.335 399.14 104.051C399.731 103.766 400.409 103.624 401.172 103.624C401.794 103.624 402.348 103.71 402.834 103.882C403.329 104.047 403.748 104.309 404.092 104.668C404.437 105.028 404.699 105.496 404.878 106.072C405.058 106.641 405.148 107.33 405.148 108.139V116H402.43V108.127C402.43 107.514 402.34 107.038 402.161 106.701C401.988 106.364 401.741 106.132 401.419 106.005C401.097 105.87 400.712 105.803 400.263 105.803C399.843 105.803 399.473 105.881 399.151 106.039C398.836 106.188 398.571 106.402 398.354 106.679C398.136 106.948 397.972 107.259 397.859 107.611C397.755 107.963 397.702 108.345 397.702 108.756ZM414.784 113.563V107.768C414.784 107.334 414.705 106.959 414.548 106.645C414.391 106.331 414.151 106.087 413.829 105.915C413.515 105.743 413.118 105.657 412.639 105.657C412.197 105.657 411.815 105.732 411.493 105.881C411.171 106.031 410.92 106.233 410.741 106.488C410.561 106.742 410.471 107.031 410.471 107.353H407.776C407.776 106.873 407.892 106.409 408.124 105.96C408.356 105.511 408.693 105.11 409.135 104.758C409.576 104.406 410.104 104.129 410.718 103.927C411.332 103.725 412.021 103.624 412.785 103.624C413.698 103.624 414.507 103.778 415.21 104.084C415.922 104.391 416.479 104.856 416.884 105.477C417.296 106.091 417.501 106.862 417.501 107.791V113.192C417.501 113.746 417.539 114.244 417.614 114.686C417.696 115.12 417.812 115.498 417.962 115.82V116H415.188C415.061 115.708 414.96 115.337 414.885 114.888C414.817 114.431 414.784 113.99 414.784 113.563ZM415.177 108.61L415.199 110.284H413.256C412.755 110.284 412.313 110.332 411.931 110.43C411.549 110.52 411.231 110.654 410.977 110.834C410.722 111.014 410.531 111.231 410.404 111.485C410.277 111.74 410.213 112.028 410.213 112.35C410.213 112.672 410.288 112.968 410.438 113.237C410.587 113.499 410.804 113.705 411.089 113.855C411.381 114.005 411.733 114.08 412.145 114.08C412.699 114.08 413.181 113.967 413.593 113.743C414.013 113.511 414.342 113.23 414.582 112.9C414.821 112.563 414.948 112.245 414.963 111.946L415.839 113.147C415.75 113.454 415.596 113.784 415.379 114.136C415.162 114.488 414.877 114.825 414.525 115.146C414.181 115.461 413.765 115.719 413.279 115.921C412.8 116.124 412.246 116.225 411.617 116.225C410.823 116.225 410.116 116.067 409.494 115.753C408.873 115.431 408.386 115 408.034 114.461C407.682 113.915 407.506 113.297 407.506 112.608C407.506 111.965 407.626 111.396 407.866 110.901C408.113 110.4 408.472 109.98 408.944 109.644C409.423 109.307 410.007 109.052 410.696 108.88C411.385 108.7 412.171 108.61 413.054 108.61H415.177ZM423.229 103.849V116H420.511V103.849H423.229ZM420.332 100.659C420.332 100.247 420.466 99.9067 420.736 99.6372C421.013 99.3602 421.395 99.2217 421.881 99.2217C422.361 99.2217 422.739 99.3602 423.016 99.6372C423.293 99.9067 423.431 100.247 423.431 100.659C423.431 101.063 423.293 101.4 423.016 101.67C422.739 101.939 422.361 102.074 421.881 102.074C421.395 102.074 421.013 101.939 420.736 101.67C420.466 101.4 420.332 101.063 420.332 100.659ZM428.878 106.443V116H426.171V103.849H428.721L428.878 106.443ZM428.395 109.475L427.519 109.464C427.527 108.603 427.646 107.813 427.878 107.094C428.118 106.375 428.447 105.758 428.867 105.241C429.293 104.725 429.803 104.328 430.394 104.051C430.986 103.766 431.644 103.624 432.371 103.624C432.955 103.624 433.482 103.706 433.954 103.871C434.433 104.028 434.841 104.287 435.178 104.646C435.523 105.005 435.785 105.473 435.964 106.05C436.144 106.619 436.234 107.319 436.234 108.15V116H433.516V108.139C433.516 107.555 433.43 107.094 433.258 106.757C433.093 106.413 432.85 106.17 432.528 106.027C432.213 105.878 431.82 105.803 431.349 105.803C430.884 105.803 430.469 105.9 430.102 106.095C429.735 106.289 429.424 106.555 429.17 106.892C428.923 107.229 428.732 107.618 428.597 108.06C428.462 108.502 428.395 108.973 428.395 109.475ZM444.567 103.849V105.825H437.716V103.849H444.567ZM439.693 100.873H442.399V112.642C442.399 113.016 442.452 113.305 442.557 113.507C442.669 113.701 442.822 113.833 443.017 113.9C443.212 113.967 443.44 114.001 443.702 114.001C443.889 114.001 444.069 113.99 444.241 113.967C444.413 113.945 444.552 113.922 444.657 113.9L444.668 115.966C444.443 116.034 444.181 116.094 443.882 116.146C443.59 116.198 443.253 116.225 442.871 116.225C442.25 116.225 441.699 116.116 441.22 115.899C440.741 115.674 440.367 115.311 440.097 114.81C439.828 114.308 439.693 113.642 439.693 112.811V100.873ZM452.013 116.225C451.114 116.225 450.302 116.079 449.576 115.787C448.857 115.487 448.243 115.072 447.734 114.54C447.232 114.008 446.847 113.383 446.577 112.665C446.308 111.946 446.173 111.171 446.173 110.34V109.891C446.173 108.94 446.311 108.079 446.588 107.308C446.865 106.536 447.251 105.878 447.745 105.331C448.239 104.777 448.823 104.354 449.497 104.062C450.171 103.77 450.901 103.624 451.687 103.624C452.556 103.624 453.315 103.77 453.967 104.062C454.618 104.354 455.157 104.766 455.584 105.297C456.018 105.821 456.34 106.447 456.55 107.173C456.767 107.899 456.875 108.7 456.875 109.576V110.733H447.487V108.79H454.203V108.577C454.188 108.09 454.09 107.633 453.911 107.207C453.738 106.78 453.473 106.435 453.113 106.173C452.754 105.911 452.275 105.78 451.676 105.78C451.227 105.78 450.826 105.878 450.474 106.072C450.13 106.259 449.841 106.533 449.609 106.892C449.377 107.251 449.198 107.686 449.07 108.195C448.951 108.696 448.891 109.262 448.891 109.891V110.34C448.891 110.871 448.962 111.366 449.104 111.822C449.254 112.271 449.471 112.665 449.755 113.001C450.04 113.338 450.384 113.604 450.789 113.799C451.193 113.986 451.653 114.08 452.17 114.08C452.821 114.08 453.402 113.949 453.911 113.687C454.42 113.424 454.861 113.054 455.236 112.575L456.662 113.956C456.4 114.338 456.059 114.705 455.64 115.057C455.221 115.401 454.708 115.682 454.102 115.899C453.503 116.116 452.806 116.225 452.013 116.225ZM461.671 106.443V116H458.964V103.849H461.514L461.671 106.443ZM461.188 109.475L460.312 109.464C460.319 108.603 460.439 107.813 460.671 107.094C460.911 106.375 461.24 105.758 461.66 105.241C462.086 104.725 462.596 104.328 463.187 104.051C463.778 103.766 464.437 103.624 465.164 103.624C465.748 103.624 466.275 103.706 466.747 103.871C467.226 104.028 467.634 104.287 467.971 104.646C468.316 105.005 468.578 105.473 468.757 106.05C468.937 106.619 469.027 107.319 469.027 108.15V116H466.309V108.139C466.309 107.555 466.223 107.094 466.051 106.757C465.886 106.413 465.643 106.17 465.321 106.027C465.006 105.878 464.613 105.803 464.142 105.803C463.677 105.803 463.262 105.9 462.895 106.095C462.528 106.289 462.217 106.555 461.963 106.892C461.716 107.229 461.525 107.618 461.39 108.06C461.255 108.502 461.188 108.973 461.188 109.475ZM478.64 113.563V107.768C478.64 107.334 478.562 106.959 478.404 106.645C478.247 106.331 478.007 106.087 477.686 105.915C477.371 105.743 476.974 105.657 476.495 105.657C476.053 105.657 475.672 105.732 475.35 105.881C475.028 106.031 474.777 106.233 474.597 106.488C474.417 106.742 474.328 107.031 474.328 107.353H471.632C471.632 106.873 471.748 106.409 471.98 105.96C472.213 105.511 472.549 105.11 472.991 104.758C473.433 104.406 473.961 104.129 474.575 103.927C475.189 103.725 475.877 103.624 476.641 103.624C477.555 103.624 478.363 103.778 479.067 104.084C479.778 104.391 480.336 104.856 480.74 105.477C481.152 106.091 481.358 106.862 481.358 107.791V113.192C481.358 113.746 481.395 114.244 481.47 114.686C481.553 115.12 481.669 115.498 481.818 115.82V116H479.044C478.917 115.708 478.816 115.337 478.741 114.888C478.674 114.431 478.64 113.99 478.64 113.563ZM479.033 108.61L479.056 110.284H477.113C476.611 110.284 476.169 110.332 475.788 110.43C475.406 110.52 475.088 110.654 474.833 110.834C474.578 111.014 474.388 111.231 474.26 111.485C474.133 111.74 474.069 112.028 474.069 112.35C474.069 112.672 474.144 112.968 474.294 113.237C474.444 113.499 474.661 113.705 474.945 113.855C475.237 114.005 475.589 114.08 476.001 114.08C476.555 114.08 477.038 113.967 477.45 113.743C477.869 113.511 478.198 113.23 478.438 112.9C478.678 112.563 478.805 112.245 478.82 111.946L479.696 113.147C479.606 113.454 479.452 113.784 479.235 114.136C479.018 114.488 478.734 114.825 478.382 115.146C478.037 115.461 477.622 115.719 477.135 115.921C476.656 116.124 476.102 116.225 475.473 116.225C474.68 116.225 473.972 116.067 473.351 115.753C472.729 115.431 472.243 115 471.891 114.461C471.539 113.915 471.363 113.297 471.363 112.608C471.363 111.965 471.483 111.396 471.722 110.901C471.969 110.4 472.329 109.98 472.8 109.644C473.279 109.307 473.863 109.052 474.552 108.88C475.241 108.7 476.027 108.61 476.911 108.61H479.033ZM486.872 106.443V116H484.166V103.849H486.715L486.872 106.443ZM486.389 109.475L485.513 109.464C485.521 108.603 485.64 107.813 485.873 107.094C486.112 106.375 486.442 105.758 486.861 105.241C487.288 104.725 487.797 104.328 488.388 104.051C488.98 103.766 489.639 103.624 490.365 103.624C490.949 103.624 491.477 103.706 491.948 103.871C492.427 104.028 492.835 104.287 493.172 104.646C493.517 105.005 493.779 105.473 493.958 106.05C494.138 106.619 494.228 107.319 494.228 108.15V116H491.51V108.139C491.51 107.555 491.424 107.094 491.252 106.757C491.087 106.413 490.844 106.17 490.522 106.027C490.208 105.878 489.814 105.803 489.343 105.803C488.879 105.803 488.463 105.9 488.096 106.095C487.729 106.289 487.419 106.555 487.164 106.892C486.917 107.229 486.726 107.618 486.591 108.06C486.457 108.502 486.389 108.973 486.389 109.475ZM501.955 114.068C502.396 114.068 502.793 113.982 503.145 113.81C503.504 113.63 503.793 113.383 504.01 113.069C504.234 112.754 504.358 112.391 504.38 111.979H506.93C506.915 112.766 506.683 113.481 506.233 114.125C505.784 114.768 505.189 115.281 504.448 115.663C503.707 116.037 502.887 116.225 501.988 116.225C501.06 116.225 500.251 116.067 499.562 115.753C498.874 115.431 498.301 114.989 497.844 114.428C497.388 113.866 497.043 113.219 496.811 112.485C496.586 111.751 496.474 110.965 496.474 110.126V109.733C496.474 108.895 496.586 108.109 496.811 107.375C497.043 106.634 497.388 105.982 497.844 105.421C498.301 104.859 498.874 104.421 499.562 104.107C500.251 103.785 501.056 103.624 501.977 103.624C502.95 103.624 503.804 103.819 504.538 104.208C505.271 104.59 505.848 105.125 506.267 105.814C506.694 106.495 506.915 107.289 506.93 108.195H504.38C504.358 107.746 504.246 107.341 504.043 106.982C503.849 106.615 503.572 106.323 503.212 106.106C502.861 105.889 502.438 105.78 501.943 105.78C501.397 105.78 500.944 105.893 500.584 106.117C500.225 106.334 499.944 106.634 499.742 107.016C499.54 107.39 499.394 107.813 499.304 108.285C499.222 108.749 499.181 109.232 499.181 109.733V110.126C499.181 110.628 499.222 111.115 499.304 111.586C499.387 112.058 499.529 112.481 499.731 112.855C499.941 113.222 500.225 113.518 500.584 113.743C500.944 113.96 501.401 114.068 501.955 114.068ZM514.364 116.225C513.466 116.225 512.653 116.079 511.927 115.787C511.208 115.487 510.595 115.072 510.085 114.54C509.584 114.008 509.198 113.383 508.929 112.665C508.659 111.946 508.524 111.171 508.524 110.34V109.891C508.524 108.94 508.663 108.079 508.94 107.308C509.217 106.536 509.603 105.878 510.097 105.331C510.591 104.777 511.175 104.354 511.849 104.062C512.522 103.77 513.252 103.624 514.039 103.624C514.907 103.624 515.667 103.77 516.318 104.062C516.97 104.354 517.509 104.766 517.936 105.297C518.37 105.821 518.692 106.447 518.901 107.173C519.118 107.899 519.227 108.7 519.227 109.576V110.733H509.838V108.79H516.554V108.577C516.539 108.09 516.442 107.633 516.262 107.207C516.09 106.78 515.824 106.435 515.465 106.173C515.105 105.911 514.626 105.78 514.027 105.78C513.578 105.78 513.178 105.878 512.826 106.072C512.481 106.259 512.193 106.533 511.961 106.892C511.729 107.251 511.549 107.686 511.422 108.195C511.302 108.696 511.242 109.262 511.242 109.891V110.34C511.242 110.871 511.313 111.366 511.456 111.822C511.605 112.271 511.822 112.665 512.107 113.001C512.391 113.338 512.736 113.604 513.14 113.799C513.544 113.986 514.005 114.08 514.521 114.08C515.173 114.08 515.753 113.949 516.262 113.687C516.771 113.424 517.213 113.054 517.587 112.575L519.014 113.956C518.752 114.338 518.411 114.705 517.992 115.057C517.572 115.401 517.06 115.682 516.453 115.899C515.854 116.116 515.158 116.225 514.364 116.225ZM529.784 106.185V120.672H527.077V103.849H529.57L529.784 106.185ZM537.701 109.812V110.048C537.701 110.931 537.596 111.751 537.387 112.507C537.185 113.256 536.881 113.911 536.477 114.473C536.08 115.027 535.59 115.457 535.006 115.764C534.422 116.071 533.748 116.225 532.984 116.225C532.228 116.225 531.566 116.086 530.997 115.809C530.435 115.525 529.96 115.124 529.57 114.607C529.181 114.091 528.867 113.484 528.627 112.788C528.395 112.084 528.23 111.313 528.133 110.475V109.565C528.23 108.674 528.395 107.865 528.627 107.139C528.867 106.413 529.181 105.788 529.57 105.264C529.96 104.74 530.435 104.335 530.997 104.051C531.558 103.766 532.213 103.624 532.962 103.624C533.726 103.624 534.403 103.774 534.995 104.073C535.586 104.365 536.084 104.785 536.488 105.331C536.893 105.87 537.196 106.521 537.398 107.285C537.6 108.041 537.701 108.884 537.701 109.812ZM534.995 110.048V109.812C534.995 109.25 534.942 108.73 534.837 108.251C534.733 107.764 534.568 107.338 534.343 106.971C534.119 106.604 533.83 106.319 533.479 106.117C533.134 105.908 532.719 105.803 532.232 105.803C531.753 105.803 531.341 105.885 530.997 106.05C530.652 106.207 530.364 106.428 530.132 106.712C529.9 106.997 529.72 107.33 529.593 107.712C529.465 108.086 529.376 108.494 529.323 108.936V111.115C529.413 111.654 529.567 112.148 529.784 112.597C530.001 113.046 530.308 113.406 530.705 113.675C531.109 113.937 531.625 114.068 532.254 114.068C532.741 114.068 533.157 113.964 533.501 113.754C533.845 113.544 534.126 113.256 534.343 112.889C534.568 112.515 534.733 112.084 534.837 111.598C534.942 111.111 534.995 110.594 534.995 110.048ZM545.36 116.225C544.462 116.225 543.65 116.079 542.923 115.787C542.205 115.487 541.591 115.072 541.082 114.54C540.58 114.008 540.194 113.383 539.925 112.665C539.655 111.946 539.521 111.171 539.521 110.34V109.891C539.521 108.94 539.659 108.079 539.936 107.308C540.213 106.536 540.599 105.878 541.093 105.331C541.587 104.777 542.171 104.354 542.845 104.062C543.519 103.77 544.249 103.624 545.035 103.624C545.903 103.624 546.663 103.77 547.314 104.062C547.966 104.354 548.505 104.766 548.932 105.297C549.366 105.821 549.688 106.447 549.897 107.173C550.115 107.899 550.223 108.7 550.223 109.576V110.733H540.834V108.79H547.55V108.577C547.535 108.09 547.438 107.633 547.258 107.207C547.086 106.78 546.82 106.435 546.461 106.173C546.102 105.911 545.622 105.78 545.023 105.78C544.574 105.78 544.174 105.878 543.822 106.072C543.477 106.259 543.189 106.533 542.957 106.892C542.725 107.251 542.545 107.686 542.418 108.195C542.298 108.696 542.238 109.262 542.238 109.891V110.34C542.238 110.871 542.309 111.366 542.452 111.822C542.601 112.271 542.819 112.665 543.103 113.001C543.388 113.338 543.732 113.604 544.136 113.799C544.541 113.986 545.001 114.08 545.518 114.08C546.169 114.08 546.749 113.949 547.258 113.687C547.767 113.424 548.209 113.054 548.583 112.575L550.01 113.956C549.748 114.338 549.407 114.705 548.988 115.057C548.569 115.401 548.056 115.682 547.449 115.899C546.85 116.116 546.154 116.225 545.36 116.225ZM555.052 106.162V116H552.346V103.849H554.929L555.052 106.162ZM558.77 103.77L558.747 106.286C558.582 106.256 558.403 106.233 558.208 106.218C558.021 106.203 557.834 106.196 557.646 106.196C557.182 106.196 556.774 106.263 556.422 106.398C556.07 106.525 555.775 106.712 555.535 106.959C555.303 107.199 555.123 107.491 554.996 107.835C554.869 108.18 554.794 108.565 554.771 108.992L554.154 109.037C554.154 108.273 554.229 107.566 554.378 106.915C554.528 106.263 554.753 105.69 555.052 105.196C555.359 104.702 555.741 104.317 556.198 104.04C556.662 103.763 557.197 103.624 557.804 103.624C557.968 103.624 558.144 103.639 558.332 103.669C558.526 103.699 558.672 103.733 558.77 103.77ZM567.282 112.709C567.282 112.44 567.215 112.197 567.08 111.979C566.945 111.755 566.687 111.553 566.305 111.373C565.931 111.193 565.377 111.029 564.643 110.879C563.999 110.737 563.408 110.568 562.869 110.374C562.337 110.171 561.88 109.928 561.499 109.644C561.117 109.359 560.821 109.022 560.611 108.633C560.402 108.243 560.297 107.794 560.297 107.285C560.297 106.791 560.405 106.323 560.623 105.881C560.84 105.44 561.15 105.05 561.555 104.713C561.959 104.376 562.449 104.111 563.026 103.916C563.61 103.721 564.261 103.624 564.98 103.624C565.998 103.624 566.87 103.796 567.597 104.141C568.33 104.478 568.892 104.938 569.281 105.522C569.671 106.098 569.865 106.75 569.865 107.476H567.159C567.159 107.154 567.076 106.855 566.912 106.578C566.754 106.293 566.515 106.065 566.193 105.893C565.871 105.713 565.467 105.623 564.98 105.623C564.516 105.623 564.13 105.698 563.823 105.848C563.524 105.99 563.299 106.177 563.149 106.409C563.007 106.641 562.936 106.896 562.936 107.173C562.936 107.375 562.973 107.558 563.048 107.723C563.131 107.88 563.265 108.026 563.453 108.161C563.64 108.288 563.894 108.408 564.216 108.521C564.546 108.633 564.958 108.741 565.452 108.846C566.38 109.041 567.177 109.292 567.844 109.599C568.518 109.898 569.034 110.287 569.394 110.767C569.753 111.238 569.933 111.837 569.933 112.563C569.933 113.103 569.817 113.597 569.584 114.046C569.36 114.488 569.03 114.873 568.596 115.203C568.162 115.525 567.642 115.775 567.035 115.955C566.436 116.135 565.762 116.225 565.014 116.225C563.913 116.225 562.981 116.03 562.217 115.641C561.454 115.244 560.873 114.738 560.477 114.125C560.087 113.503 559.893 112.859 559.893 112.193H562.509C562.539 112.694 562.678 113.095 562.925 113.395C563.179 113.687 563.494 113.9 563.868 114.035C564.25 114.162 564.643 114.226 565.047 114.226C565.534 114.226 565.942 114.162 566.271 114.035C566.601 113.9 566.852 113.72 567.024 113.496C567.196 113.264 567.282 113.001 567.282 112.709ZM571.786 110.059V109.801C571.786 108.925 571.913 108.112 572.167 107.364C572.422 106.608 572.789 105.952 573.268 105.398C573.755 104.837 574.346 104.403 575.042 104.096C575.746 103.781 576.54 103.624 577.423 103.624C578.314 103.624 579.108 103.781 579.804 104.096C580.508 104.403 581.103 104.837 581.59 105.398C582.076 105.952 582.447 106.608 582.702 107.364C582.956 108.112 583.083 108.925 583.083 109.801V110.059C583.083 110.935 582.956 111.747 582.702 112.496C582.447 113.245 582.076 113.9 581.59 114.461C581.103 115.015 580.512 115.45 579.815 115.764C579.119 116.071 578.329 116.225 577.446 116.225C576.555 116.225 575.757 116.071 575.054 115.764C574.357 115.45 573.766 115.015 573.279 114.461C572.793 113.9 572.422 113.245 572.167 112.496C571.913 111.747 571.786 110.935 571.786 110.059ZM574.492 109.801V110.059C574.492 110.606 574.548 111.122 574.661 111.609C574.773 112.096 574.949 112.522 575.188 112.889C575.428 113.256 575.735 113.544 576.109 113.754C576.484 113.964 576.929 114.068 577.446 114.068C577.947 114.068 578.382 113.964 578.749 113.754C579.123 113.544 579.43 113.256 579.669 112.889C579.909 112.522 580.085 112.096 580.197 111.609C580.317 111.122 580.377 110.606 580.377 110.059V109.801C580.377 109.262 580.317 108.753 580.197 108.273C580.085 107.787 579.905 107.356 579.658 106.982C579.419 106.608 579.112 106.316 578.737 106.106C578.37 105.889 577.932 105.78 577.423 105.78C576.914 105.78 576.472 105.889 576.098 106.106C575.731 106.316 575.428 106.608 575.188 106.982C574.949 107.356 574.773 107.787 574.661 108.273C574.548 108.753 574.492 109.262 574.492 109.801ZM588.036 106.443V116H585.33V103.849H587.879L588.036 106.443ZM587.553 109.475L586.677 109.464C586.685 108.603 586.805 107.813 587.037 107.094C587.276 106.375 587.606 105.758 588.025 105.241C588.452 104.725 588.961 104.328 589.552 104.051C590.144 103.766 590.803 103.624 591.529 103.624C592.113 103.624 592.641 103.706 593.112 103.871C593.591 104.028 594 104.287 594.336 104.646C594.681 105.005 594.943 105.473 595.123 106.05C595.302 106.619 595.392 107.319 595.392 108.15V116H592.674V108.139C592.674 107.555 592.588 107.094 592.416 106.757C592.251 106.413 592.008 106.17 591.686 106.027C591.372 105.878 590.979 105.803 590.507 105.803C590.043 105.803 589.627 105.9 589.26 106.095C588.893 106.289 588.583 106.555 588.328 106.892C588.081 107.229 587.89 107.618 587.755 108.06C587.621 108.502 587.553 108.973 587.553 109.475ZM600.839 106.443V116H598.132V103.849H600.682L600.839 106.443ZM600.356 109.475L599.48 109.464C599.487 108.603 599.607 107.813 599.839 107.094C600.079 106.375 600.408 105.758 600.828 105.241C601.254 104.725 601.764 104.328 602.355 104.051C602.946 103.766 603.605 103.624 604.332 103.624C604.916 103.624 605.443 103.706 605.915 103.871C606.394 104.028 606.802 104.287 607.139 104.646C607.484 105.005 607.746 105.473 607.925 106.05C608.105 106.619 608.195 107.319 608.195 108.15V116H605.477V108.139C605.477 107.555 605.391 107.094 605.219 106.757C605.054 106.413 604.811 106.17 604.489 106.027C604.174 105.878 603.781 105.803 603.31 105.803C602.845 105.803 602.43 105.9 602.063 106.095C601.696 106.289 601.385 106.555 601.131 106.892C600.884 107.229 600.693 107.618 600.558 108.06C600.423 108.502 600.356 108.973 600.356 109.475ZM616.314 116.225C615.416 116.225 614.604 116.079 613.877 115.787C613.159 115.487 612.545 115.072 612.036 114.54C611.534 114.008 611.148 113.383 610.879 112.665C610.609 111.946 610.475 111.171 610.475 110.34V109.891C610.475 108.94 610.613 108.079 610.89 107.308C611.167 106.536 611.553 105.878 612.047 105.331C612.541 104.777 613.125 104.354 613.799 104.062C614.473 103.77 615.203 103.624 615.989 103.624C616.857 103.624 617.617 103.77 618.269 104.062C618.92 104.354 619.459 104.766 619.886 105.297C620.32 105.821 620.642 106.447 620.852 107.173C621.069 107.899 621.177 108.7 621.177 109.576V110.733H611.789V108.79H618.504V108.577C618.489 108.09 618.392 107.633 618.212 107.207C618.04 106.78 617.774 106.435 617.415 106.173C617.056 105.911 616.576 105.78 615.978 105.78C615.528 105.78 615.128 105.878 614.776 106.072C614.431 106.259 614.143 106.533 613.911 106.892C613.679 107.251 613.499 107.686 613.372 108.195C613.252 108.696 613.192 109.262 613.192 109.891V110.34C613.192 110.871 613.264 111.366 613.406 111.822C613.556 112.271 613.773 112.665 614.057 113.001C614.342 113.338 614.686 113.604 615.09 113.799C615.495 113.986 615.955 114.08 616.472 114.08C617.123 114.08 617.703 113.949 618.212 113.687C618.722 113.424 619.163 113.054 619.538 112.575L620.964 113.956C620.702 114.338 620.361 114.705 619.942 115.057C619.523 115.401 619.01 115.682 618.403 115.899C617.804 116.116 617.108 116.225 616.314 116.225ZM626.186 98.75V116H623.468V98.75H626.186Z" fill="white"/>
</g>
</g>
<defs>
<filter id="filter0_i_5_5707" x="-21" y="-303" width="2180" height="2144.61" filterUnits="userSpaceOnUse" color-interpolation-filters="sRGB">
<feFlood flood-opacity="0" result="BackgroundImageFix"/>
<feBlend mode="normal" in="SourceGraphic" in2="BackgroundImageFix" result="shape"/>
<feColorMatrix in="SourceAlpha" type="matrix" values="0 0 0 0 0 0 0 0 0 0 0 0 0 0 0 0 0 0 127 0" result="hardAlpha"/>
<feMorphology radius="24" operator="erode" in="SourceAlpha" result="effect1_innerShadow_5_5707"/>
<feOffset dx="24" dy="32"/>
<feGaussianBlur stdDeviation="92"/>
<feComposite in2="hardAlpha" operator="arithmetic" k2="-1" k3="1"/>
<feColorMatrix type="matrix" values="0 0 0 0 0.0235294 0 0 0 0 0.0313726 0 0 0 0 0.34902 0 0 0 0.75 0"/>
<feBlend mode="normal" in2="shape" result="effect1_innerShadow_5_5707"/>
</filter>
<filter id="filter1_i_5_5707" x="-21.0005" y="-64.3818" width="1694.33" height="1667.38" filterUnits="userSpaceOnUse" color-interpolation-filters="sRGB">
<feFlood flood-opacity="0" result="BackgroundImageFix"/>
<feBlend mode="normal" in="SourceGraphic" in2="BackgroundImageFix" result="shape"/>
<feColorMatrix in="SourceAlpha" type="matrix" values="0 0 0 0 0 0 0 0 0 0 0 0 0 0 0 0 0 0 127 0" result="hardAlpha"/>
<feMorphology radius="24" operator="erode" in="SourceAlpha" result="effect1_innerShadow_5_5707"/>
<feOffset dx="24" dy="32"/>
<feGaussianBlur stdDeviation="92"/>
<feComposite in2="hardAlpha" operator="arithmetic" k2="-1" k3="1"/>
<feColorMatrix type="matrix" values="0 0 0 0 0.0235294 0 0 0 0 0.0313726 0 0 0 0 0.34902 0 0 0 0.75 0"/>
<feBlend mode="normal" in2="shape" result="effect1_innerShadow_5_5707"/>
</filter>
<filter id="filter2_i_5_5707" x="73.0015" y="136.877" width="1442.45" height="1421.53" filterUnits="userSpaceOnUse" color-interpolation-filters="sRGB">
<feFlood flood-opacity="0" result="BackgroundImageFix"/>
<feBlend mode="normal" in="SourceGraphic" in2="BackgroundImageFix" result="shape"/>
<feColorMatrix in="SourceAlpha" type="matrix" values="0 0 0 0 0 0 0 0 0 0 0 0 0 0 0 0 0 0 127 0" result="hardAlpha"/>
<feMorphology radius="24" operator="erode" in="SourceAlpha" result="effect1_innerShadow_5_5707"/>
<feOffset dx="24" dy="32"/>
<feGaussianBlur stdDeviation="92"/>
<feComposite in2="hardAlpha" operator="arithmetic" k2="-1" k3="1"/>
<feColorMatrix type="matrix" values="0 0 0 0 0.0235294 0 0 0 0 0.0313726 0 0 0 0 0.34902 0 0 0 0.75 0"/>
<feBlend mode="normal" in2="shape" result="effect1_innerShadow_5_5707"/>
</filter>
<radialGradient id="paint0_radial_5_5707" cx="0" cy="0" r="1" gradientUnits="userSpaceOnUse" gradientTransform="translate(831.5 118) rotate(90) scale(356.185 603.412)">
<stop stop-color="#FF8B00"/>
<stop offset="1" stop-color="#9D5600"/>
</radialGradient>
<clipPath id="clip0_5_5707">
<path d="M0 0H1663V220C1663 228.837 1655.84 236 1647 236H16C7.16341 236 0 228.837 0 220V0Z" fill="white"/>
</clipPath>
</defs>
</svg>
