<svg width="1663" height="236" viewBox="0 0 1663 236" fill="none" xmlns="http://www.w3.org/2000/svg">
<g clip-path="url(#clip0_85_2009)">
<path d="M0 0H1663V220C1663 228.837 1655.84 236 1647 236H16C7.16341 236 0 228.837 0 220V0Z" fill="url(#paint0_radial_85_2009)"/>
<g style="mix-blend-mode:multiply" opacity="0.75" filter="url(#filter0_i_85_2009)">
<ellipse cx="1057" cy="753.307" rx="1056.31" ry="1078" transform="rotate(90 1057 753.307)" fill="white"/>
</g>
<g style="mix-blend-mode:multiply" opacity="0.75" filter="url(#filter1_i_85_2009)">
<ellipse cx="814.164" cy="753.307" rx="817.689" ry="835.164" transform="rotate(90 814.164 753.307)" fill="white"/>
</g>
<g style="mix-blend-mode:multiply" opacity="0.75" filter="url(#filter2_i_85_2009)">
<ellipse cx="782.228" cy="831.642" rx="694.765" ry="709.226" transform="rotate(90 782.228 831.642)" fill="white"/>
</g>
<path d="M78.0195 44.5625V73H72.1602L60.7344 53.9375V73H54.875V44.5625H60.7344L72.1797 63.6445V44.5625H78.0195ZM81.8672 62.6484V62.2383C81.8672 60.6888 82.0885 59.263 82.5312 57.9609C82.974 56.6458 83.6185 55.5065 84.4648 54.543C85.3112 53.5794 86.3529 52.8307 87.5898 52.2969C88.8268 51.75 90.2461 51.4766 91.8477 51.4766C93.4492 51.4766 94.875 51.75 96.125 52.2969C97.375 52.8307 98.4232 53.5794 99.2695 54.543C100.129 55.5065 100.78 56.6458 101.223 57.9609C101.665 59.263 101.887 60.6888 101.887 62.2383V62.6484C101.887 64.1849 101.665 65.6107 101.223 66.9258C100.78 68.2279 100.129 69.3672 99.2695 70.3438C98.4232 71.3073 97.3815 72.056 96.1445 72.5898C94.9076 73.1237 93.4883 73.3906 91.8867 73.3906C90.2852 73.3906 88.8594 73.1237 87.6094 72.5898C86.3724 72.056 85.3242 71.3073 84.4648 70.3438C83.6185 69.3672 82.974 68.2279 82.5312 66.9258C82.0885 65.6107 81.8672 64.1849 81.8672 62.6484ZM87.4922 62.2383V62.6484C87.4922 63.5339 87.5703 64.3607 87.7266 65.1289C87.8828 65.8971 88.1302 66.5742 88.4688 67.1602C88.8203 67.7331 89.276 68.1823 89.8359 68.5078C90.3958 68.8333 91.0794 68.9961 91.8867 68.9961C92.668 68.9961 93.3385 68.8333 93.8984 68.5078C94.4583 68.1823 94.9076 67.7331 95.2461 67.1602C95.5846 66.5742 95.832 65.8971 95.9883 65.1289C96.1576 64.3607 96.2422 63.5339 96.2422 62.6484V62.2383C96.2422 61.3789 96.1576 60.5716 95.9883 59.8164C95.832 59.0482 95.5781 58.3711 95.2266 57.7852C94.888 57.1862 94.4388 56.7174 93.8789 56.3789C93.319 56.0404 92.6419 55.8711 91.8477 55.8711C91.0534 55.8711 90.3763 56.0404 89.8164 56.3789C89.2695 56.7174 88.8203 57.1862 88.4688 57.7852C88.1302 58.3711 87.8828 59.0482 87.7266 59.8164C87.5703 60.5716 87.4922 61.3789 87.4922 62.2383ZM115.695 51.8672V55.8516H103.391V51.8672H115.695ZM106.438 46.6523H112.062V66.6328C112.062 67.2448 112.141 67.7135 112.297 68.0391C112.466 68.3646 112.714 68.5924 113.039 68.7227C113.365 68.8398 113.775 68.8984 114.27 68.8984C114.621 68.8984 114.934 68.8854 115.207 68.8594C115.493 68.8203 115.734 68.7812 115.93 68.7422L115.949 72.8828C115.467 73.0391 114.947 73.1628 114.387 73.2539C113.827 73.3451 113.208 73.3906 112.531 73.3906C111.294 73.3906 110.214 73.1888 109.289 72.7852C108.378 72.3685 107.674 71.7044 107.18 70.793C106.685 69.8815 106.438 68.6836 106.438 67.1992V46.6523ZM124.836 51.8672V73H119.191V51.8672H124.836ZM118.84 46.3594C118.84 45.5391 119.126 44.862 119.699 44.3281C120.272 43.7943 121.04 43.5273 122.004 43.5273C122.954 43.5273 123.716 43.7943 124.289 44.3281C124.875 44.862 125.168 45.5391 125.168 46.3594C125.168 47.1797 124.875 47.8568 124.289 48.3906C123.716 48.9245 122.954 49.1914 122.004 49.1914C121.04 49.1914 120.272 48.9245 119.699 48.3906C119.126 47.8568 118.84 47.1797 118.84 46.3594ZM136.516 73H130.871V50.9102C130.871 49.1133 131.236 47.5964 131.965 46.3594C132.707 45.1224 133.762 44.1849 135.129 43.5469C136.509 42.9089 138.176 42.5898 140.129 42.5898C141.236 42.5898 142.31 42.7005 143.352 42.9219C144.393 43.1302 145.467 43.4036 146.574 43.7422L145.754 48.2539C145.038 48.0326 144.27 47.8242 143.449 47.6289C142.629 47.4336 141.639 47.3359 140.48 47.3359C139.178 47.3359 138.189 47.6419 137.512 48.2539C136.848 48.8529 136.516 49.7383 136.516 50.9102V73ZM140.715 51.8672V55.8516H127.727V51.8672H140.715ZM149.191 51.8672V73H143.547V51.8672H149.191ZM162.629 68.9961C163.319 68.9961 163.931 68.8659 164.465 68.6055C164.999 68.332 165.415 67.9544 165.715 67.4727C166.027 66.9779 166.19 66.3984 166.203 65.7344H171.496C171.483 67.2188 171.086 68.5404 170.305 69.6992C169.523 70.8451 168.475 71.75 167.16 72.4141C165.845 73.0651 164.374 73.3906 162.746 73.3906C161.105 73.3906 159.673 73.1172 158.449 72.5703C157.238 72.0234 156.229 71.2682 155.422 70.3047C154.615 69.3281 154.009 68.1953 153.605 66.9062C153.202 65.6042 153 64.2109 153 62.7266V62.1602C153 60.6628 153.202 59.2695 153.605 57.9805C154.009 56.6784 154.615 55.5456 155.422 54.582C156.229 53.6055 157.238 52.8438 158.449 52.2969C159.66 51.75 161.079 51.4766 162.707 51.4766C164.439 51.4766 165.956 51.8086 167.258 52.4727C168.573 53.1367 169.602 54.0872 170.344 55.3242C171.099 56.5482 171.483 58 171.496 59.6797H166.203C166.19 58.9766 166.04 58.3385 165.754 57.7656C165.48 57.1927 165.077 56.737 164.543 56.3984C164.022 56.0469 163.378 55.8711 162.609 55.8711C161.789 55.8711 161.118 56.0469 160.598 56.3984C160.077 56.737 159.673 57.2057 159.387 57.8047C159.1 58.3906 158.898 59.0612 158.781 59.8164C158.677 60.5586 158.625 61.3398 158.625 62.1602V62.7266C158.625 63.5469 158.677 64.3346 158.781 65.0898C158.885 65.8451 159.081 66.5156 159.367 67.1016C159.667 67.6875 160.077 68.1497 160.598 68.4883C161.118 68.8268 161.796 68.9961 162.629 68.9961ZM186.164 68.2344V58.8203C186.164 58.1432 186.053 57.5638 185.832 57.082C185.611 56.5872 185.266 56.2031 184.797 55.9297C184.341 55.6562 183.749 55.5195 183.02 55.5195C182.395 55.5195 181.854 55.6302 181.398 55.8516C180.943 56.0599 180.591 56.3659 180.344 56.7695C180.096 57.1602 179.973 57.6224 179.973 58.1562H174.348C174.348 57.2578 174.556 56.4049 174.973 55.5977C175.389 54.7904 175.995 54.0807 176.789 53.4688C177.583 52.8438 178.527 52.3555 179.621 52.0039C180.728 51.6523 181.965 51.4766 183.332 51.4766C184.973 51.4766 186.431 51.75 187.707 52.2969C188.983 52.8438 189.986 53.6641 190.715 54.7578C191.457 55.8516 191.828 57.2188 191.828 58.8594V67.9023C191.828 69.0612 191.9 70.0117 192.043 70.7539C192.186 71.4831 192.395 72.1211 192.668 72.668V73H186.984C186.711 72.4271 186.503 71.7109 186.359 70.8516C186.229 69.9792 186.164 69.1068 186.164 68.2344ZM186.906 60.1289L186.945 63.3125H183.801C183.059 63.3125 182.414 63.3971 181.867 63.5664C181.32 63.7357 180.871 63.9766 180.52 64.2891C180.168 64.5885 179.908 64.9401 179.738 65.3438C179.582 65.7474 179.504 66.1901 179.504 66.6719C179.504 67.1536 179.615 67.5898 179.836 67.9805C180.057 68.3581 180.376 68.6576 180.793 68.8789C181.21 69.0872 181.698 69.1914 182.258 69.1914C183.104 69.1914 183.84 69.0221 184.465 68.6836C185.09 68.3451 185.572 67.9284 185.91 67.4336C186.262 66.9388 186.444 66.4701 186.457 66.0273L187.941 68.4102C187.733 68.944 187.447 69.4974 187.082 70.0703C186.73 70.6432 186.281 71.1836 185.734 71.6914C185.188 72.1862 184.53 72.5964 183.762 72.9219C182.993 73.2344 182.082 73.3906 181.027 73.3906C179.686 73.3906 178.469 73.1237 177.375 72.5898C176.294 72.043 175.435 71.2943 174.797 70.3438C174.172 69.3802 173.859 68.2865 173.859 67.0625C173.859 65.9557 174.068 64.9727 174.484 64.1133C174.901 63.2539 175.513 62.5312 176.32 61.9453C177.141 61.3464 178.163 60.8971 179.387 60.5977C180.611 60.2852 182.03 60.1289 183.645 60.1289H186.906ZM206.516 51.8672V55.8516H194.211V51.8672H206.516ZM197.258 46.6523H202.883V66.6328C202.883 67.2448 202.961 67.7135 203.117 68.0391C203.286 68.3646 203.534 68.5924 203.859 68.7227C204.185 68.8398 204.595 68.8984 205.09 68.8984C205.441 68.8984 205.754 68.8854 206.027 68.8594C206.314 68.8203 206.555 68.7812 206.75 68.7422L206.77 72.8828C206.288 73.0391 205.767 73.1628 205.207 73.2539C204.647 73.3451 204.029 73.3906 203.352 73.3906C202.115 73.3906 201.034 73.1888 200.109 72.7852C199.198 72.3685 198.495 71.7044 198 70.793C197.505 69.8815 197.258 68.6836 197.258 67.1992V46.6523ZM215.656 51.8672V73H210.012V51.8672H215.656ZM209.66 46.3594C209.66 45.5391 209.947 44.862 210.52 44.3281C211.092 43.7943 211.861 43.5273 212.824 43.5273C213.775 43.5273 214.536 43.7943 215.109 44.3281C215.695 44.862 215.988 45.5391 215.988 46.3594C215.988 47.1797 215.695 47.8568 215.109 48.3906C214.536 48.9245 213.775 49.1914 212.824 49.1914C211.861 49.1914 211.092 48.9245 210.52 48.3906C209.947 47.8568 209.66 47.1797 209.66 46.3594ZM219.406 62.6484V62.2383C219.406 60.6888 219.628 59.263 220.07 57.9609C220.513 56.6458 221.158 55.5065 222.004 54.543C222.85 53.5794 223.892 52.8307 225.129 52.2969C226.366 51.75 227.785 51.4766 229.387 51.4766C230.988 51.4766 232.414 51.75 233.664 52.2969C234.914 52.8307 235.962 53.5794 236.809 54.543C237.668 55.5065 238.319 56.6458 238.762 57.9609C239.204 59.263 239.426 60.6888 239.426 62.2383V62.6484C239.426 64.1849 239.204 65.6107 238.762 66.9258C238.319 68.2279 237.668 69.3672 236.809 70.3438C235.962 71.3073 234.921 72.056 233.684 72.5898C232.447 73.1237 231.027 73.3906 229.426 73.3906C227.824 73.3906 226.398 73.1237 225.148 72.5898C223.911 72.056 222.863 71.3073 222.004 70.3438C221.158 69.3672 220.513 68.2279 220.07 66.9258C219.628 65.6107 219.406 64.1849 219.406 62.6484ZM225.031 62.2383V62.6484C225.031 63.5339 225.109 64.3607 225.266 65.1289C225.422 65.8971 225.669 66.5742 226.008 67.1602C226.359 67.7331 226.815 68.1823 227.375 68.5078C227.935 68.8333 228.618 68.9961 229.426 68.9961C230.207 68.9961 230.878 68.8333 231.438 68.5078C231.997 68.1823 232.447 67.7331 232.785 67.1602C233.124 66.5742 233.371 65.8971 233.527 65.1289C233.697 64.3607 233.781 63.5339 233.781 62.6484V62.2383C233.781 61.3789 233.697 60.5716 233.527 59.8164C233.371 59.0482 233.117 58.3711 232.766 57.7852C232.427 57.1862 231.978 56.7174 231.418 56.3789C230.858 56.0404 230.181 55.8711 229.387 55.8711C228.592 55.8711 227.915 56.0404 227.355 56.3789C226.809 56.7174 226.359 57.1862 226.008 57.7852C225.669 58.3711 225.422 59.0482 225.266 59.8164C225.109 60.5716 225.031 61.3789 225.031 62.2383ZM248.391 56.3789V73H242.766V51.8672H248.039L248.391 56.3789ZM247.57 61.6914H246.047C246.047 60.1289 246.249 58.7227 246.652 57.4727C247.056 56.2096 247.622 55.1354 248.352 54.25C249.081 53.3516 249.947 52.668 250.949 52.1992C251.965 51.7174 253.098 51.4766 254.348 51.4766C255.337 51.4766 256.242 51.6198 257.062 51.9062C257.883 52.1927 258.586 52.6484 259.172 53.2734C259.771 53.8984 260.227 54.7253 260.539 55.7539C260.865 56.7826 261.027 58.0391 261.027 59.5234V73H255.363V59.5039C255.363 58.5664 255.233 57.8372 254.973 57.3164C254.712 56.7956 254.328 56.431 253.82 56.2227C253.326 56.0013 252.714 55.8906 251.984 55.8906C251.229 55.8906 250.572 56.0404 250.012 56.3398C249.465 56.6393 249.009 57.056 248.645 57.5898C248.293 58.1107 248.026 58.7227 247.844 59.4258C247.661 60.1289 247.57 60.8841 247.57 61.6914ZM276.73 67.1602C276.73 66.7565 276.613 66.3919 276.379 66.0664C276.145 65.7409 275.708 65.4414 275.07 65.168C274.445 64.8815 273.54 64.6211 272.355 64.3867C271.288 64.1523 270.292 63.8594 269.367 63.5078C268.456 63.1432 267.661 62.707 266.984 62.1992C266.32 61.6914 265.799 61.0924 265.422 60.4023C265.044 59.6992 264.855 58.8984 264.855 58C264.855 57.1146 265.044 56.2812 265.422 55.5C265.812 54.7188 266.366 54.0286 267.082 53.4297C267.811 52.8177 268.697 52.3424 269.738 52.0039C270.793 51.6523 271.978 51.4766 273.293 51.4766C275.129 51.4766 276.704 51.7695 278.02 52.3555C279.348 52.9414 280.363 53.7487 281.066 54.7773C281.783 55.793 282.141 56.9518 282.141 58.2539H276.516C276.516 57.707 276.398 57.2188 276.164 56.7891C275.943 56.3464 275.591 56.0013 275.109 55.7539C274.641 55.4935 274.029 55.3633 273.273 55.3633C272.648 55.3633 272.108 55.474 271.652 55.6953C271.197 55.9036 270.845 56.1901 270.598 56.5547C270.363 56.9062 270.246 57.2969 270.246 57.7266C270.246 58.0521 270.311 58.3451 270.441 58.6055C270.585 58.8529 270.812 59.0807 271.125 59.2891C271.438 59.4974 271.841 59.6927 272.336 59.875C272.844 60.0443 273.469 60.2005 274.211 60.3438C275.734 60.6562 277.095 61.0664 278.293 61.5742C279.491 62.069 280.441 62.7461 281.145 63.6055C281.848 64.4518 282.199 65.5651 282.199 66.9453C282.199 67.8828 281.991 68.7422 281.574 69.5234C281.158 70.3047 280.559 70.9883 279.777 71.5742C278.996 72.1471 278.059 72.5964 276.965 72.9219C275.884 73.2344 274.667 73.3906 273.312 73.3906C271.346 73.3906 269.68 73.0391 268.312 72.3359C266.958 71.6328 265.93 70.7409 265.227 69.6602C264.536 68.5664 264.191 67.4466 264.191 66.3008H269.523C269.549 67.069 269.745 67.6875 270.109 68.1562C270.487 68.625 270.962 68.9635 271.535 69.1719C272.121 69.3802 272.753 69.4844 273.43 69.4844C274.159 69.4844 274.764 69.3867 275.246 69.1914C275.728 68.9831 276.092 68.7096 276.34 68.3711C276.6 68.0195 276.73 67.6159 276.73 67.1602Z" fill="white"/>
<path d="M53.792 99.6484H59.5757C60.8185 99.6484 61.8779 99.8356 62.7539 100.21C63.6299 100.584 64.3 101.138 64.7642 101.872C65.2358 102.598 65.4717 103.497 65.4717 104.567C65.4717 105.383 65.3219 106.102 65.0225 106.724C64.723 107.345 64.3 107.869 63.7534 108.296C63.2069 108.715 62.5555 109.041 61.7993 109.273L60.9458 109.688H55.7461L55.7236 107.454H59.6206C60.2944 107.454 60.856 107.334 61.3052 107.094C61.7544 106.855 62.0913 106.529 62.3159 106.117C62.548 105.698 62.6641 105.226 62.6641 104.702C62.6641 104.133 62.5518 103.639 62.3271 103.22C62.11 102.793 61.7731 102.467 61.3164 102.243C60.8597 102.011 60.2795 101.895 59.5757 101.895H56.6108V116H53.792V99.6484ZM63.1245 116L59.2837 108.655L62.2373 108.644L66.1343 115.854V116H63.1245ZM73.3667 116.225C72.4683 116.225 71.6559 116.079 70.9297 115.787C70.2109 115.487 69.597 115.072 69.0879 114.54C68.5863 114.008 68.2007 113.383 67.9312 112.665C67.6616 111.946 67.5269 111.171 67.5269 110.34V109.891C67.5269 108.94 67.6654 108.079 67.9424 107.308C68.2194 106.536 68.605 105.878 69.0991 105.331C69.5933 104.777 70.1772 104.354 70.8511 104.062C71.5249 103.77 72.2549 103.624 73.041 103.624C73.9095 103.624 74.6694 103.77 75.3208 104.062C75.9722 104.354 76.5112 104.766 76.938 105.297C77.3722 105.821 77.6942 106.447 77.9038 107.173C78.1209 107.899 78.2295 108.7 78.2295 109.576V110.733H68.8408V108.79H75.5566V108.577C75.5417 108.09 75.4443 107.633 75.2646 107.207C75.0924 106.78 74.8267 106.435 74.4673 106.173C74.1079 105.911 73.6287 105.78 73.0298 105.78C72.5806 105.78 72.18 105.878 71.8281 106.072C71.4837 106.259 71.1955 106.533 70.9634 106.892C70.7313 107.251 70.5516 107.686 70.4243 108.195C70.3045 108.696 70.2446 109.262 70.2446 109.891V110.34C70.2446 110.871 70.3158 111.366 70.458 111.822C70.6077 112.271 70.8249 112.665 71.1094 113.001C71.3939 113.338 71.7383 113.604 72.1426 113.799C72.5469 113.986 73.0073 114.08 73.5239 114.08C74.1753 114.08 74.7555 113.949 75.2646 113.687C75.7738 113.424 76.2155 113.054 76.5898 112.575L78.0161 113.956C77.7541 114.338 77.4134 114.705 76.9941 115.057C76.5749 115.401 76.062 115.682 75.4556 115.899C74.8566 116.116 74.1603 116.225 73.3667 116.225ZM85.3047 114.068C85.7464 114.068 86.1432 113.982 86.4951 113.81C86.8545 113.63 87.1427 113.383 87.3599 113.069C87.5845 112.754 87.708 112.391 87.7305 111.979H90.2798C90.2648 112.766 90.0327 113.481 89.5835 114.125C89.1343 114.768 88.5391 115.281 87.7979 115.663C87.0566 116.037 86.2368 116.225 85.3384 116.225C84.41 116.225 83.6014 116.067 82.9126 115.753C82.2238 115.431 81.651 114.989 81.1943 114.428C80.7376 113.866 80.3932 113.219 80.1611 112.485C79.9365 111.751 79.8242 110.965 79.8242 110.126V109.733C79.8242 108.895 79.9365 108.109 80.1611 107.375C80.3932 106.634 80.7376 105.982 81.1943 105.421C81.651 104.859 82.2238 104.421 82.9126 104.107C83.6014 103.785 84.4062 103.624 85.3271 103.624C86.3005 103.624 87.154 103.819 87.8877 104.208C88.6214 104.59 89.1979 105.125 89.6172 105.814C90.0439 106.495 90.2648 107.289 90.2798 108.195H87.7305C87.708 107.746 87.5957 107.341 87.3936 106.982C87.1989 106.615 86.9219 106.323 86.5625 106.106C86.2106 105.889 85.7876 105.78 85.2935 105.78C84.7469 105.78 84.2939 105.893 83.9346 106.117C83.5752 106.334 83.2944 106.634 83.0923 107.016C82.8901 107.39 82.7441 107.813 82.6543 108.285C82.5719 108.749 82.5308 109.232 82.5308 109.733V110.126C82.5308 110.628 82.5719 111.115 82.6543 111.586C82.7367 112.058 82.8789 112.481 83.0811 112.855C83.2907 113.222 83.5752 113.518 83.9346 113.743C84.2939 113.96 84.7507 114.068 85.3047 114.068ZM97.7144 116.225C96.8159 116.225 96.0036 116.079 95.2773 115.787C94.5586 115.487 93.9447 115.072 93.4355 114.54C92.9339 114.008 92.5483 113.383 92.2788 112.665C92.0093 111.946 91.8745 111.171 91.8745 110.34V109.891C91.8745 108.94 92.013 108.079 92.29 107.308C92.5671 106.536 92.9526 105.878 93.4468 105.331C93.9409 104.777 94.5249 104.354 95.1987 104.062C95.8726 103.77 96.6025 103.624 97.3887 103.624C98.2572 103.624 99.0171 103.77 99.6685 104.062C100.32 104.354 100.859 104.766 101.286 105.297C101.72 105.821 102.042 106.447 102.251 107.173C102.469 107.899 102.577 108.7 102.577 109.576V110.733H93.1885V108.79H99.9043V108.577C99.8893 108.09 99.792 107.633 99.6123 107.207C99.4401 106.78 99.1743 106.435 98.8149 106.173C98.4556 105.911 97.9764 105.78 97.3774 105.78C96.9282 105.78 96.5277 105.878 96.1758 106.072C95.8314 106.259 95.5431 106.533 95.311 106.892C95.0789 107.251 94.8993 107.686 94.772 108.195C94.6522 108.696 94.5923 109.262 94.5923 109.891V110.34C94.5923 110.871 94.6634 111.366 94.8057 111.822C94.9554 112.271 95.1725 112.665 95.457 113.001C95.7415 113.338 96.0859 113.604 96.4902 113.799C96.8945 113.986 97.355 114.08 97.8716 114.08C98.5229 114.08 99.1032 113.949 99.6123 113.687C100.121 113.424 100.563 113.054 100.938 112.575L102.364 113.956C102.102 114.338 101.761 114.705 101.342 115.057C100.923 115.401 100.41 115.682 99.8032 115.899C99.2043 116.116 98.508 116.225 97.7144 116.225ZM107.586 103.849V116H104.868V103.849H107.586ZM104.688 100.659C104.688 100.247 104.823 99.9067 105.093 99.6372C105.37 99.3602 105.752 99.2217 106.238 99.2217C106.717 99.2217 107.096 99.3602 107.373 99.6372C107.65 99.9067 107.788 100.247 107.788 100.659C107.788 101.063 107.65 101.4 107.373 101.67C107.096 101.939 106.717 102.074 106.238 102.074C105.752 102.074 105.37 101.939 105.093 101.67C104.823 101.4 104.688 101.063 104.688 100.659ZM114.504 113.855L117.48 103.849H120.288L116.065 116H114.313L114.504 113.855ZM112.224 103.849L115.256 113.9L115.402 116H113.65L109.405 103.849H112.224ZM127.161 116.225C126.262 116.225 125.45 116.079 124.724 115.787C124.005 115.487 123.391 115.072 122.882 114.54C122.38 114.008 121.995 113.383 121.725 112.665C121.456 111.946 121.321 111.171 121.321 110.34V109.891C121.321 108.94 121.459 108.079 121.736 107.308C122.013 106.536 122.399 105.878 122.893 105.331C123.387 104.777 123.971 104.354 124.645 104.062C125.319 103.77 126.049 103.624 126.835 103.624C127.703 103.624 128.463 103.77 129.115 104.062C129.766 104.354 130.305 104.766 130.732 105.297C131.166 105.821 131.488 106.447 131.698 107.173C131.915 107.899 132.023 108.7 132.023 109.576V110.733H122.635V108.79H129.351V108.577C129.336 108.09 129.238 107.633 129.059 107.207C128.886 106.78 128.621 106.435 128.261 106.173C127.902 105.911 127.423 105.78 126.824 105.78C126.375 105.78 125.974 105.878 125.622 106.072C125.278 106.259 124.989 106.533 124.757 106.892C124.525 107.251 124.346 107.686 124.218 108.195C124.098 108.696 124.039 109.262 124.039 109.891V110.34C124.039 110.871 124.11 111.366 124.252 111.822C124.402 112.271 124.619 112.665 124.903 113.001C125.188 113.338 125.532 113.604 125.937 113.799C126.341 113.986 126.801 114.08 127.318 114.08C127.969 114.08 128.549 113.949 129.059 113.687C129.568 113.424 130.009 113.054 130.384 112.575L131.81 113.956C131.548 114.338 131.207 114.705 130.788 115.057C130.369 115.401 129.856 115.682 129.25 115.899C128.651 116.116 127.954 116.225 127.161 116.225ZM142.76 98.75V116H140.042V98.75H142.76ZM152.575 113.563V107.768C152.575 107.334 152.497 106.959 152.339 106.645C152.182 106.331 151.943 106.087 151.621 105.915C151.306 105.743 150.909 105.657 150.43 105.657C149.988 105.657 149.607 105.732 149.285 105.881C148.963 106.031 148.712 106.233 148.532 106.488C148.353 106.742 148.263 107.031 148.263 107.353H145.567C145.567 106.873 145.683 106.409 145.916 105.96C146.148 105.511 146.485 105.11 146.926 104.758C147.368 104.406 147.896 104.129 148.51 103.927C149.124 103.725 149.812 103.624 150.576 103.624C151.49 103.624 152.298 103.778 153.002 104.084C153.713 104.391 154.271 104.856 154.675 105.477C155.087 106.091 155.293 106.862 155.293 107.791V113.192C155.293 113.746 155.33 114.244 155.405 114.686C155.488 115.12 155.604 115.498 155.753 115.82V116H152.979C152.852 115.708 152.751 115.337 152.676 114.888C152.609 114.431 152.575 113.99 152.575 113.563ZM152.968 108.61L152.991 110.284H151.048C150.546 110.284 150.104 110.332 149.723 110.43C149.341 110.52 149.023 110.654 148.768 110.834C148.514 111.014 148.323 111.231 148.195 111.485C148.068 111.74 148.004 112.028 148.004 112.35C148.004 112.672 148.079 112.968 148.229 113.237C148.379 113.499 148.596 113.705 148.88 113.855C149.172 114.005 149.524 114.08 149.936 114.08C150.49 114.08 150.973 113.967 151.385 113.743C151.804 113.511 152.133 113.23 152.373 112.9C152.613 112.563 152.74 112.245 152.755 111.946L153.631 113.147C153.541 113.454 153.388 113.784 153.17 114.136C152.953 114.488 152.669 114.825 152.317 115.146C151.972 115.461 151.557 115.719 151.07 115.921C150.591 116.124 150.037 116.225 149.408 116.225C148.615 116.225 147.907 116.067 147.286 115.753C146.664 115.431 146.178 115 145.826 114.461C145.474 113.915 145.298 113.297 145.298 112.608C145.298 111.965 145.418 111.396 145.657 110.901C145.904 110.4 146.264 109.98 146.735 109.644C147.215 109.307 147.799 109.052 148.487 108.88C149.176 108.7 149.962 108.61 150.846 108.61H152.968ZM163.693 103.849V105.825H156.843V103.849H163.693ZM158.819 100.873H161.526V112.642C161.526 113.016 161.578 113.305 161.683 113.507C161.795 113.701 161.949 113.833 162.144 113.9C162.338 113.967 162.567 114.001 162.829 114.001C163.016 114.001 163.195 113.99 163.368 113.967C163.54 113.945 163.678 113.922 163.783 113.9L163.794 115.966C163.57 116.034 163.308 116.094 163.008 116.146C162.716 116.198 162.379 116.225 161.998 116.225C161.376 116.225 160.826 116.116 160.347 115.899C159.868 115.674 159.493 115.311 159.224 114.81C158.954 114.308 158.819 113.642 158.819 112.811V100.873ZM171.139 116.225C170.241 116.225 169.428 116.079 168.702 115.787C167.983 115.487 167.369 115.072 166.86 114.54C166.359 114.008 165.973 113.383 165.704 112.665C165.434 111.946 165.299 111.171 165.299 110.34V109.891C165.299 108.94 165.438 108.079 165.715 107.308C165.992 106.536 166.377 105.878 166.872 105.331C167.366 104.777 167.95 104.354 168.624 104.062C169.297 103.77 170.027 103.624 170.813 103.624C171.682 103.624 172.442 103.77 173.093 104.062C173.745 104.354 174.284 104.766 174.71 105.297C175.145 105.821 175.467 106.447 175.676 107.173C175.893 107.899 176.002 108.7 176.002 109.576V110.733H166.613V108.79H173.329V108.577C173.314 108.09 173.217 107.633 173.037 107.207C172.865 106.78 172.599 106.435 172.24 106.173C171.88 105.911 171.401 105.78 170.802 105.78C170.353 105.78 169.952 105.878 169.601 106.072C169.256 106.259 168.968 106.533 168.736 106.892C168.504 107.251 168.324 107.686 168.197 108.195C168.077 108.696 168.017 109.262 168.017 109.891V110.34C168.017 110.871 168.088 111.366 168.23 111.822C168.38 112.271 168.597 112.665 168.882 113.001C169.166 113.338 169.511 113.604 169.915 113.799C170.319 113.986 170.78 114.08 171.296 114.08C171.948 114.08 172.528 113.949 173.037 113.687C173.546 113.424 173.988 113.054 174.362 112.575L175.789 113.956C175.527 114.338 175.186 114.705 174.767 115.057C174.347 115.401 173.834 115.682 173.228 115.899C172.629 116.116 171.933 116.225 171.139 116.225ZM184.93 112.709C184.93 112.44 184.863 112.197 184.728 111.979C184.593 111.755 184.335 111.553 183.953 111.373C183.579 111.193 183.025 111.029 182.291 110.879C181.647 110.737 181.056 110.568 180.517 110.374C179.985 110.171 179.528 109.928 179.146 109.644C178.765 109.359 178.469 109.022 178.259 108.633C178.05 108.243 177.945 107.794 177.945 107.285C177.945 106.791 178.053 106.323 178.271 105.881C178.488 105.44 178.798 105.05 179.203 104.713C179.607 104.376 180.097 104.111 180.674 103.916C181.258 103.721 181.909 103.624 182.628 103.624C183.646 103.624 184.518 103.796 185.245 104.141C185.978 104.478 186.54 104.938 186.929 105.522C187.319 106.098 187.513 106.75 187.513 107.476H184.807C184.807 107.154 184.724 106.855 184.56 106.578C184.402 106.293 184.163 106.065 183.841 105.893C183.519 105.713 183.115 105.623 182.628 105.623C182.164 105.623 181.778 105.698 181.471 105.848C181.172 105.99 180.947 106.177 180.797 106.409C180.655 106.641 180.584 106.896 180.584 107.173C180.584 107.375 180.621 107.558 180.696 107.723C180.779 107.88 180.913 108.026 181.101 108.161C181.288 108.288 181.542 108.408 181.864 108.521C182.194 108.633 182.605 108.741 183.1 108.846C184.028 109.041 184.825 109.292 185.492 109.599C186.166 109.898 186.682 110.287 187.042 110.767C187.401 111.238 187.581 111.837 187.581 112.563C187.581 113.103 187.465 113.597 187.232 114.046C187.008 114.488 186.678 114.873 186.244 115.203C185.81 115.525 185.29 115.775 184.683 115.955C184.084 116.135 183.41 116.225 182.662 116.225C181.561 116.225 180.629 116.03 179.865 115.641C179.102 115.244 178.521 114.738 178.125 114.125C177.735 113.503 177.541 112.859 177.541 112.193H180.157C180.187 112.694 180.326 113.095 180.573 113.395C180.827 113.687 181.142 113.9 181.516 114.035C181.898 114.162 182.291 114.226 182.695 114.226C183.182 114.226 183.59 114.162 183.919 114.035C184.249 113.9 184.5 113.72 184.672 113.496C184.844 113.264 184.93 113.001 184.93 112.709ZM195.521 103.849V105.825H188.67V103.849H195.521ZM190.646 100.873H193.353V112.642C193.353 113.016 193.405 113.305 193.51 113.507C193.623 113.701 193.776 113.833 193.971 113.9C194.165 113.967 194.394 114.001 194.656 114.001C194.843 114.001 195.023 113.99 195.195 113.967C195.367 113.945 195.506 113.922 195.61 113.9L195.622 115.966C195.397 116.034 195.135 116.094 194.835 116.146C194.543 116.198 194.207 116.225 193.825 116.225C193.203 116.225 192.653 116.116 192.174 115.899C191.695 115.674 191.32 115.311 191.051 114.81C190.781 114.308 190.646 113.642 190.646 112.811V100.873ZM210.648 113.136V103.849H213.366V116H210.805L210.648 113.136ZM211.03 110.609L211.939 110.587C211.939 111.403 211.85 112.155 211.67 112.844C211.49 113.526 211.213 114.121 210.839 114.63C210.465 115.132 209.985 115.525 209.401 115.809C208.817 116.086 208.117 116.225 207.301 116.225C206.71 116.225 206.167 116.139 205.673 115.966C205.179 115.794 204.752 115.528 204.393 115.169C204.041 114.81 203.767 114.342 203.573 113.765C203.378 113.189 203.281 112.5 203.281 111.699V103.849H205.987V111.721C205.987 112.163 206.04 112.534 206.145 112.833C206.249 113.125 206.392 113.361 206.571 113.541C206.751 113.72 206.961 113.847 207.2 113.922C207.44 113.997 207.694 114.035 207.964 114.035C208.735 114.035 209.341 113.885 209.783 113.585C210.232 113.278 210.551 112.867 210.738 112.35C210.932 111.833 211.03 111.253 211.03 110.609ZM218.857 106.185V120.672H216.151V103.849H218.644L218.857 106.185ZM226.775 109.812V110.048C226.775 110.931 226.67 111.751 226.46 112.507C226.258 113.256 225.955 113.911 225.551 114.473C225.154 115.027 224.664 115.457 224.08 115.764C223.496 116.071 222.822 116.225 222.058 116.225C221.302 116.225 220.639 116.086 220.07 115.809C219.509 115.525 219.033 115.124 218.644 114.607C218.255 114.091 217.94 113.484 217.701 112.788C217.469 112.084 217.304 111.313 217.207 110.475V109.565C217.304 108.674 217.469 107.865 217.701 107.139C217.94 106.413 218.255 105.788 218.644 105.264C219.033 104.74 219.509 104.335 220.07 104.051C220.632 103.766 221.287 103.624 222.036 103.624C222.799 103.624 223.477 103.774 224.068 104.073C224.66 104.365 225.158 104.785 225.562 105.331C225.966 105.87 226.27 106.521 226.472 107.285C226.674 108.041 226.775 108.884 226.775 109.812ZM224.068 110.048V109.812C224.068 109.25 224.016 108.73 223.911 108.251C223.806 107.764 223.642 107.338 223.417 106.971C223.192 106.604 222.904 106.319 222.552 106.117C222.208 105.908 221.792 105.803 221.306 105.803C220.826 105.803 220.415 105.885 220.07 106.05C219.726 106.207 219.438 106.428 219.206 106.712C218.973 106.997 218.794 107.33 218.667 107.712C218.539 108.086 218.449 108.494 218.397 108.936V111.115C218.487 111.654 218.64 112.148 218.857 112.597C219.075 113.046 219.382 113.406 219.778 113.675C220.183 113.937 220.699 114.068 221.328 114.068C221.815 114.068 222.23 113.964 222.575 113.754C222.919 113.544 223.2 113.256 223.417 112.889C223.642 112.515 223.806 112.084 223.911 111.598C224.016 111.111 224.068 110.594 224.068 110.048ZM236.489 113.484V98.75H239.207V116H236.748L236.489 113.484ZM228.583 110.059V109.823C228.583 108.902 228.692 108.064 228.909 107.308C229.126 106.544 229.44 105.889 229.852 105.342C230.264 104.788 230.765 104.365 231.357 104.073C231.948 103.774 232.615 103.624 233.356 103.624C234.09 103.624 234.734 103.766 235.288 104.051C235.842 104.335 236.313 104.743 236.703 105.275C237.092 105.799 237.403 106.428 237.635 107.162C237.867 107.888 238.032 108.696 238.129 109.587V110.34C238.032 111.208 237.867 112.002 237.635 112.721C237.403 113.439 237.092 114.061 236.703 114.585C236.313 115.109 235.838 115.513 235.276 115.798C234.722 116.082 234.075 116.225 233.333 116.225C232.6 116.225 231.937 116.071 231.346 115.764C230.762 115.457 230.264 115.027 229.852 114.473C229.44 113.919 229.126 113.267 228.909 112.519C228.692 111.762 228.583 110.943 228.583 110.059ZM231.29 109.823V110.059C231.29 110.613 231.338 111.13 231.436 111.609C231.54 112.088 231.701 112.511 231.918 112.878C232.136 113.237 232.416 113.522 232.761 113.731C233.113 113.934 233.532 114.035 234.019 114.035C234.632 114.035 235.138 113.9 235.535 113.63C235.931 113.361 236.242 112.998 236.467 112.541C236.699 112.077 236.856 111.56 236.938 110.991V108.958C236.894 108.517 236.8 108.105 236.658 107.723C236.523 107.341 236.34 107.008 236.107 106.724C235.875 106.432 235.587 106.207 235.243 106.05C234.906 105.885 234.505 105.803 234.041 105.803C233.547 105.803 233.128 105.908 232.783 106.117C232.439 106.327 232.154 106.615 231.93 106.982C231.713 107.349 231.552 107.776 231.447 108.262C231.342 108.749 231.29 109.269 231.29 109.823ZM248.888 113.563V107.768C248.888 107.334 248.809 106.959 248.652 106.645C248.495 106.331 248.255 106.087 247.933 105.915C247.619 105.743 247.222 105.657 246.743 105.657C246.301 105.657 245.919 105.732 245.597 105.881C245.275 106.031 245.024 106.233 244.845 106.488C244.665 106.742 244.575 107.031 244.575 107.353H241.88C241.88 106.873 241.996 106.409 242.228 105.96C242.46 105.511 242.797 105.11 243.239 104.758C243.681 104.406 244.208 104.129 244.822 103.927C245.436 103.725 246.125 103.624 246.889 103.624C247.802 103.624 248.611 103.778 249.314 104.084C250.026 104.391 250.583 104.856 250.988 105.477C251.4 106.091 251.605 106.862 251.605 107.791V113.192C251.605 113.746 251.643 114.244 251.718 114.686C251.8 115.12 251.916 115.498 252.066 115.82V116H249.292C249.165 115.708 249.064 115.337 248.989 114.888C248.921 114.431 248.888 113.99 248.888 113.563ZM249.281 108.61L249.303 110.284H247.36C246.859 110.284 246.417 110.332 246.035 110.43C245.653 110.52 245.335 110.654 245.081 110.834C244.826 111.014 244.635 111.231 244.508 111.485C244.381 111.74 244.317 112.028 244.317 112.35C244.317 112.672 244.392 112.968 244.542 113.237C244.691 113.499 244.908 113.705 245.193 113.855C245.485 114.005 245.837 114.08 246.249 114.08C246.803 114.08 247.285 113.967 247.697 113.743C248.117 113.511 248.446 113.23 248.686 112.9C248.925 112.563 249.052 112.245 249.067 111.946L249.943 113.147C249.854 113.454 249.7 113.784 249.483 114.136C249.266 114.488 248.981 114.825 248.629 115.146C248.285 115.461 247.869 115.719 247.383 115.921C246.904 116.124 246.35 116.225 245.721 116.225C244.927 116.225 244.22 116.067 243.598 115.753C242.977 115.431 242.49 115 242.138 114.461C241.786 113.915 241.61 113.297 241.61 112.608C241.61 111.965 241.73 111.396 241.97 110.901C242.217 110.4 242.576 109.98 243.048 109.644C243.527 109.307 244.111 109.052 244.8 108.88C245.489 108.7 246.275 108.61 247.158 108.61H249.281ZM260.006 103.849V105.825H253.155V103.849H260.006ZM255.132 100.873H257.838V112.642C257.838 113.016 257.891 113.305 257.996 113.507C258.108 113.701 258.261 113.833 258.456 113.9C258.651 113.967 258.879 114.001 259.141 114.001C259.328 114.001 259.508 113.99 259.68 113.967C259.852 113.945 259.991 113.922 260.096 113.9L260.107 115.966C259.882 116.034 259.62 116.094 259.321 116.146C259.029 116.198 258.692 116.225 258.31 116.225C257.689 116.225 257.138 116.116 256.659 115.899C256.18 115.674 255.806 115.311 255.536 114.81C255.267 114.308 255.132 113.642 255.132 112.811V100.873ZM267.452 116.225C266.553 116.225 265.741 116.079 265.015 115.787C264.296 115.487 263.682 115.072 263.173 114.54C262.671 114.008 262.286 113.383 262.016 112.665C261.747 111.946 261.612 111.171 261.612 110.34V109.891C261.612 108.94 261.75 108.079 262.027 107.308C262.304 106.536 262.69 105.878 263.184 105.331C263.678 104.777 264.262 104.354 264.936 104.062C265.61 103.77 266.34 103.624 267.126 103.624C267.994 103.624 268.754 103.77 269.406 104.062C270.057 104.354 270.596 104.766 271.023 105.297C271.457 105.821 271.779 106.447 271.989 107.173C272.206 107.899 272.314 108.7 272.314 109.576V110.733H262.926V108.79H269.642V108.577C269.627 108.09 269.529 107.633 269.35 107.207C269.177 106.78 268.912 106.435 268.552 106.173C268.193 105.911 267.714 105.78 267.115 105.78C266.666 105.78 266.265 105.878 265.913 106.072C265.569 106.259 265.28 106.533 265.048 106.892C264.816 107.251 264.637 107.686 264.509 108.195C264.389 108.696 264.33 109.262 264.33 109.891V110.34C264.33 110.871 264.401 111.366 264.543 111.822C264.693 112.271 264.91 112.665 265.194 113.001C265.479 113.338 265.823 113.604 266.228 113.799C266.632 113.986 267.092 114.08 267.609 114.08C268.26 114.08 268.84 113.949 269.35 113.687C269.859 113.424 270.3 113.054 270.675 112.575L272.101 113.956C271.839 114.338 271.498 114.705 271.079 115.057C270.66 115.401 270.147 115.682 269.541 115.899C268.942 116.116 268.245 116.225 267.452 116.225ZM281.243 112.709C281.243 112.44 281.175 112.197 281.041 111.979C280.906 111.755 280.647 111.553 280.266 111.373C279.891 111.193 279.337 111.029 278.604 110.879C277.96 110.737 277.368 110.568 276.829 110.374C276.298 110.171 275.841 109.928 275.459 109.644C275.077 109.359 274.781 109.022 274.572 108.633C274.362 108.243 274.257 107.794 274.257 107.285C274.257 106.791 274.366 106.323 274.583 105.881C274.8 105.44 275.111 105.05 275.515 104.713C275.919 104.376 276.41 104.111 276.986 103.916C277.57 103.721 278.222 103.624 278.94 103.624C279.959 103.624 280.831 103.796 281.557 104.141C282.291 104.478 282.852 104.938 283.242 105.522C283.631 106.098 283.826 106.75 283.826 107.476H281.119C281.119 107.154 281.037 106.855 280.872 106.578C280.715 106.293 280.475 106.065 280.153 105.893C279.831 105.713 279.427 105.623 278.94 105.623C278.476 105.623 278.091 105.698 277.784 105.848C277.484 105.99 277.26 106.177 277.11 106.409C276.968 106.641 276.896 106.896 276.896 107.173C276.896 107.375 276.934 107.558 277.009 107.723C277.091 107.88 277.226 108.026 277.413 108.161C277.6 108.288 277.855 108.408 278.177 108.521C278.506 108.633 278.918 108.741 279.412 108.846C280.34 109.041 281.138 109.292 281.804 109.599C282.478 109.898 282.995 110.287 283.354 110.767C283.713 111.238 283.893 111.837 283.893 112.563C283.893 113.103 283.777 113.597 283.545 114.046C283.32 114.488 282.991 114.873 282.557 115.203C282.122 115.525 281.602 115.775 280.996 115.955C280.397 116.135 279.723 116.225 278.974 116.225C277.874 116.225 276.941 116.03 276.178 115.641C275.414 115.244 274.834 114.738 274.437 114.125C274.048 113.503 273.853 112.859 273.853 112.193H276.47C276.5 112.694 276.638 113.095 276.885 113.395C277.14 113.687 277.454 113.9 277.829 114.035C278.21 114.162 278.604 114.226 279.008 114.226C279.494 114.226 279.903 114.162 280.232 114.035C280.561 113.9 280.812 113.72 280.984 113.496C281.157 113.264 281.243 113.001 281.243 112.709Z" fill="white"/>
</g>
<defs>
<filter id="filter0_i_85_2009" x="-21" y="-303" width="2180" height="2144.61" filterUnits="userSpaceOnUse" color-interpolation-filters="sRGB">
<feFlood flood-opacity="0" result="BackgroundImageFix"/>
<feBlend mode="normal" in="SourceGraphic" in2="BackgroundImageFix" result="shape"/>
<feColorMatrix in="SourceAlpha" type="matrix" values="0 0 0 0 0 0 0 0 0 0 0 0 0 0 0 0 0 0 127 0" result="hardAlpha"/>
<feMorphology radius="24" operator="erode" in="SourceAlpha" result="effect1_innerShadow_85_2009"/>
<feOffset dx="24" dy="32"/>
<feGaussianBlur stdDeviation="92"/>
<feComposite in2="hardAlpha" operator="arithmetic" k2="-1" k3="1"/>
<feColorMatrix type="matrix" values="0 0 0 0 0.0235294 0 0 0 0 0.0313726 0 0 0 0 0.34902 0 0 0 0.75 0"/>
<feBlend mode="normal" in2="shape" result="effect1_innerShadow_85_2009"/>
</filter>
<filter id="filter1_i_85_2009" x="-20.9995" y="-64.3818" width="1694.33" height="1667.38" filterUnits="userSpaceOnUse" color-interpolation-filters="sRGB">
<feFlood flood-opacity="0" result="BackgroundImageFix"/>
<feBlend mode="normal" in="SourceGraphic" in2="BackgroundImageFix" result="shape"/>
<feColorMatrix in="SourceAlpha" type="matrix" values="0 0 0 0 0 0 0 0 0 0 0 0 0 0 0 0 0 0 127 0" result="hardAlpha"/>
<feMorphology radius="24" operator="erode" in="SourceAlpha" result="effect1_innerShadow_85_2009"/>
<feOffset dx="24" dy="32"/>
<feGaussianBlur stdDeviation="92"/>
<feComposite in2="hardAlpha" operator="arithmetic" k2="-1" k3="1"/>
<feColorMatrix type="matrix" values="0 0 0 0 0.0235294 0 0 0 0 0.0313726 0 0 0 0 0.34902 0 0 0 0.75 0"/>
<feBlend mode="normal" in2="shape" result="effect1_innerShadow_85_2009"/>
</filter>
<filter id="filter2_i_85_2009" x="73.0015" y="136.877" width="1442.45" height="1421.53" filterUnits="userSpaceOnUse" color-interpolation-filters="sRGB">
<feFlood flood-opacity="0" result="BackgroundImageFix"/>
<feBlend mode="normal" in="SourceGraphic" in2="BackgroundImageFix" result="shape"/>
<feColorMatrix in="SourceAlpha" type="matrix" values="0 0 0 0 0 0 0 0 0 0 0 0 0 0 0 0 0 0 127 0" result="hardAlpha"/>
<feMorphology radius="24" operator="erode" in="SourceAlpha" result="effect1_innerShadow_85_2009"/>
<feOffset dx="24" dy="32"/>
<feGaussianBlur stdDeviation="92"/>
<feComposite in2="hardAlpha" operator="arithmetic" k2="-1" k3="1"/>
<feColorMatrix type="matrix" values="0 0 0 0 0.0235294 0 0 0 0 0.0313726 0 0 0 0 0.34902 0 0 0 0.75 0"/>
<feBlend mode="normal" in2="shape" result="effect1_innerShadow_85_2009"/>
</filter>
<radialGradient id="paint0_radial_85_2009" cx="0" cy="0" r="1" gradientUnits="userSpaceOnUse" gradientTransform="translate(831.5 118) rotate(90) scale(356.185 603.412)">
<stop stop-color="#FF8B00"/>
<stop offset="1" stop-color="#9D5600"/>
</radialGradient>
<clipPath id="clip0_85_2009">
<path d="M0 0H1663V220C1663 228.837 1655.84 236 1647 236H16C7.16341 236 0 228.837 0 220V0Z" fill="white"/>
</clipPath>
</defs>
</svg>
