<svg width="1663" height="236" viewBox="0 0 1663 236" fill="none" xmlns="http://www.w3.org/2000/svg">
<g clip-path="url(#clip0_85_1903)">
<path d="M0 0H1663V220C1663 228.837 1655.84 236 1647 236H16C7.16341 236 0 228.837 0 220V0Z" fill="url(#paint0_radial_85_1903)"/>
<g style="mix-blend-mode:multiply" opacity="0.75" filter="url(#filter0_i_85_1903)">
<ellipse cx="1057" cy="753.307" rx="1056.31" ry="1078" transform="rotate(90 1057 753.307)" fill="white"/>
</g>
<g style="mix-blend-mode:multiply" opacity="0.75" filter="url(#filter1_i_85_1903)">
<ellipse cx="814.163" cy="753.307" rx="817.689" ry="835.164" transform="rotate(90 814.163 753.307)" fill="white"/>
</g>
<g style="mix-blend-mode:multiply" opacity="0.75" filter="url(#filter2_i_85_1903)">
<ellipse cx="782.228" cy="831.642" rx="694.765" ry="709.226" transform="rotate(90 782.228 831.642)" fill="white"/>
</g>
<path d="M66.1016 62.8633H58.8555V58.293H66.1016C67.2214 58.293 68.1328 58.1107 68.8359 57.7461C69.5391 57.3685 70.0534 56.8477 70.3789 56.1836C70.7044 55.5195 70.8672 54.7708 70.8672 53.9375C70.8672 53.0911 70.7044 52.3034 70.3789 51.5742C70.0534 50.8451 69.5391 50.2591 68.8359 49.8164C68.1328 49.3737 67.2214 49.1523 66.1016 49.1523H60.8867V73H55.0273V44.5625H66.1016C68.3281 44.5625 70.2357 44.9661 71.8242 45.7734C73.4258 46.5677 74.6497 47.668 75.4961 49.0742C76.3424 50.4805 76.7656 52.0885 76.7656 53.8984C76.7656 55.7344 76.3424 57.3229 75.4961 58.6641C74.6497 60.0052 73.4258 61.0404 71.8242 61.7695C70.2357 62.4987 68.3281 62.8633 66.1016 62.8633ZM86.082 56.4766V73H80.457V51.8672H85.75L86.082 56.4766ZM92.4492 51.7305L92.3516 56.9453C92.0781 56.9062 91.7461 56.8737 91.3555 56.8477C90.9779 56.8086 90.6328 56.7891 90.3203 56.7891C89.526 56.7891 88.8359 56.8932 88.25 57.1016C87.6771 57.2969 87.1953 57.5898 86.8047 57.9805C86.4271 58.3711 86.1406 58.8464 85.9453 59.4062C85.763 59.9661 85.6589 60.6042 85.6328 61.3203L84.5 60.9688C84.5 59.6016 84.6367 58.3451 84.9102 57.1992C85.1836 56.0404 85.5807 55.0312 86.1016 54.1719C86.6354 53.3125 87.2865 52.6484 88.0547 52.1797C88.8229 51.7109 89.7018 51.4766 90.6914 51.4766C91.0039 51.4766 91.3229 51.5026 91.6484 51.5547C91.974 51.5938 92.2409 51.6523 92.4492 51.7305ZM93.6211 62.6484V62.2383C93.6211 60.6888 93.8424 59.263 94.2852 57.9609C94.7279 56.6458 95.3724 55.5065 96.2188 54.543C97.0651 53.5794 98.1068 52.8307 99.3438 52.2969C100.581 51.75 102 51.4766 103.602 51.4766C105.203 51.4766 106.629 51.75 107.879 52.2969C109.129 52.8307 110.177 53.5794 111.023 54.543C111.883 55.5065 112.534 56.6458 112.977 57.9609C113.419 59.263 113.641 60.6888 113.641 62.2383V62.6484C113.641 64.1849 113.419 65.6107 112.977 66.9258C112.534 68.2279 111.883 69.3672 111.023 70.3438C110.177 71.3073 109.135 72.056 107.898 72.5898C106.661 73.1237 105.242 73.3906 103.641 73.3906C102.039 73.3906 100.613 73.1237 99.3633 72.5898C98.1263 72.056 97.0781 71.3073 96.2188 70.3438C95.3724 69.3672 94.7279 68.2279 94.2852 66.9258C93.8424 65.6107 93.6211 64.1849 93.6211 62.6484ZM99.2461 62.2383V62.6484C99.2461 63.5339 99.3242 64.3607 99.4805 65.1289C99.6367 65.8971 99.8841 66.5742 100.223 67.1602C100.574 67.7331 101.03 68.1823 101.59 68.5078C102.15 68.8333 102.833 68.9961 103.641 68.9961C104.422 68.9961 105.092 68.8333 105.652 68.5078C106.212 68.1823 106.661 67.7331 107 67.1602C107.339 66.5742 107.586 65.8971 107.742 65.1289C107.911 64.3607 107.996 63.5339 107.996 62.6484V62.2383C107.996 61.3789 107.911 60.5716 107.742 59.8164C107.586 59.0482 107.332 58.3711 106.98 57.7852C106.642 57.1862 106.193 56.7174 105.633 56.3789C105.073 56.0404 104.396 55.8711 103.602 55.8711C102.807 55.8711 102.13 56.0404 101.57 56.3789C101.023 56.7174 100.574 57.1862 100.223 57.7852C99.8841 58.3711 99.6367 59.0482 99.4805 59.8164C99.3242 60.5716 99.2461 61.3789 99.2461 62.2383ZM124.129 73H118.484V50.9102C118.484 49.1133 118.849 47.5964 119.578 46.3594C120.32 45.1224 121.375 44.1849 122.742 43.5469C124.122 42.9089 125.789 42.5898 127.742 42.5898C128.849 42.5898 129.923 42.7005 130.965 42.9219C132.007 43.1302 133.081 43.4036 134.188 43.7422L133.367 48.2539C132.651 48.0326 131.883 47.8242 131.062 47.6289C130.242 47.4336 129.253 47.3359 128.094 47.3359C126.792 47.3359 125.802 47.6419 125.125 48.2539C124.461 48.8529 124.129 49.7383 124.129 50.9102V73ZM128.328 51.8672V55.8516H115.34V51.8672H128.328ZM136.805 51.8672V73H131.16V51.8672H136.805ZM147.449 43V73H141.805V43H147.449ZM161.824 73.3906C160.184 73.3906 158.712 73.1302 157.41 72.6094C156.108 72.0755 155.001 71.3398 154.09 70.4023C153.191 69.4648 152.501 68.3776 152.02 67.1406C151.538 65.8906 151.297 64.5625 151.297 63.1562V62.375C151.297 60.7734 151.525 59.3086 151.98 57.9805C152.436 56.6523 153.087 55.5 153.934 54.5234C154.793 53.5469 155.835 52.7982 157.059 52.2773C158.283 51.7435 159.663 51.4766 161.199 51.4766C162.697 51.4766 164.025 51.724 165.184 52.2188C166.342 52.7135 167.312 53.4167 168.094 54.3281C168.888 55.2396 169.487 56.3333 169.891 57.6094C170.294 58.8724 170.496 60.2786 170.496 61.8281V64.1719H153.699V60.4219H164.969V59.9922C164.969 59.2109 164.826 58.5143 164.539 57.9023C164.266 57.2773 163.849 56.7826 163.289 56.418C162.729 56.0534 162.013 55.8711 161.141 55.8711C160.398 55.8711 159.76 56.0339 159.227 56.3594C158.693 56.6849 158.257 57.1406 157.918 57.7266C157.592 58.3125 157.345 59.0026 157.176 59.7969C157.02 60.5781 156.941 61.4375 156.941 62.375V63.1562C156.941 64.0026 157.059 64.7839 157.293 65.5C157.54 66.2161 157.885 66.8346 158.328 67.3555C158.784 67.8763 159.331 68.2799 159.969 68.5664C160.62 68.8529 161.355 68.9961 162.176 68.9961C163.191 68.9961 164.135 68.8008 165.008 68.4102C165.893 68.0065 166.655 67.401 167.293 66.5938L170.027 69.5625C169.585 70.2005 168.979 70.8125 168.211 71.3984C167.456 71.9844 166.544 72.4661 165.477 72.8438C164.409 73.2083 163.191 73.3906 161.824 73.3906Z" fill="white"/>
<path d="M55.251 99.6484H57.7666L62.4946 112.26L67.2114 99.6484H69.7271L63.4829 116H61.4839L55.251 99.6484ZM54.1055 99.6484H56.4976L56.9131 110.564V116H54.1055V99.6484ZM68.4805 99.6484H70.8838V116H68.0649V110.564L68.4805 99.6484ZM80.8115 113.563V107.768C80.8115 107.334 80.7329 106.959 80.5757 106.645C80.4185 106.331 80.1789 106.087 79.8569 105.915C79.5425 105.743 79.1457 105.657 78.6665 105.657C78.2248 105.657 77.8429 105.732 77.521 105.881C77.1991 106.031 76.9482 106.233 76.7686 106.488C76.5889 106.742 76.499 107.031 76.499 107.353H73.8037C73.8037 106.873 73.9198 106.409 74.1519 105.96C74.384 105.511 74.7209 105.11 75.1626 104.758C75.6043 104.406 76.1322 104.129 76.7461 103.927C77.36 103.725 78.0488 103.624 78.8125 103.624C79.7259 103.624 80.5345 103.778 81.2383 104.084C81.9495 104.391 82.5073 104.856 82.9116 105.477C83.3234 106.091 83.5293 106.862 83.5293 107.791V113.192C83.5293 113.746 83.5667 114.244 83.6416 114.686C83.724 115.12 83.84 115.498 83.9897 115.82V116H81.2158C81.0885 115.708 80.9875 115.337 80.9126 114.888C80.8452 114.431 80.8115 113.99 80.8115 113.563ZM81.2046 108.61L81.2271 110.284H79.2842C78.7826 110.284 78.3408 110.332 77.959 110.43C77.5771 110.52 77.259 110.654 77.0044 110.834C76.7498 111.014 76.5589 111.231 76.4316 111.485C76.3044 111.74 76.2407 112.028 76.2407 112.35C76.2407 112.672 76.3156 112.968 76.4653 113.237C76.6151 113.499 76.8322 113.705 77.1167 113.855C77.4087 114.005 77.7606 114.08 78.1724 114.08C78.7264 114.08 79.2093 113.967 79.6211 113.743C80.0404 113.511 80.3698 113.23 80.6094 112.9C80.849 112.563 80.9762 112.245 80.9912 111.946L81.8672 113.147C81.7773 113.454 81.6239 113.784 81.4067 114.136C81.1896 114.488 80.9051 114.825 80.5532 115.146C80.2088 115.461 79.7933 115.719 79.3066 115.921C78.8275 116.124 78.2734 116.225 77.6445 116.225C76.8509 116.225 76.1434 116.067 75.522 115.753C74.9006 115.431 74.4139 115 74.062 114.461C73.7101 113.915 73.5342 113.297 73.5342 112.608C73.5342 111.965 73.654 111.396 73.8936 110.901C74.1406 110.4 74.5 109.98 74.9717 109.644C75.4508 109.307 76.0348 109.052 76.7236 108.88C77.4124 108.7 78.1986 108.61 79.082 108.61H81.2046ZM89.0435 106.443V116H86.3369V103.849H88.8862L89.0435 106.443ZM88.5605 109.475L87.6846 109.464C87.6921 108.603 87.8118 107.813 88.0439 107.094C88.2835 106.375 88.613 105.758 89.0322 105.241C89.459 104.725 89.9681 104.328 90.5596 104.051C91.151 103.766 91.8099 103.624 92.5361 103.624C93.1201 103.624 93.6479 103.706 94.1196 103.871C94.5988 104.028 95.0068 104.287 95.3438 104.646C95.6882 105.005 95.9502 105.473 96.1299 106.05C96.3096 106.619 96.3994 107.319 96.3994 108.15V116H93.6816V108.139C93.6816 107.555 93.5955 107.094 93.4233 106.757C93.2586 106.413 93.0153 106.17 92.6934 106.027C92.3789 105.878 91.9858 105.803 91.5142 105.803C91.05 105.803 90.6344 105.9 90.2676 106.095C89.9007 106.289 89.59 106.555 89.3354 106.892C89.0884 107.229 88.8975 107.618 88.7627 108.06C88.6279 108.502 88.5605 108.973 88.5605 109.475ZM106.013 113.563V107.768C106.013 107.334 105.934 106.959 105.777 106.645C105.62 106.331 105.38 106.087 105.058 105.915C104.744 105.743 104.347 105.657 103.868 105.657C103.426 105.657 103.044 105.732 102.722 105.881C102.4 106.031 102.149 106.233 101.97 106.488C101.79 106.742 101.7 107.031 101.7 107.353H99.0049C99.0049 106.873 99.1209 106.409 99.353 105.96C99.5851 105.511 99.922 105.11 100.364 104.758C100.806 104.406 101.333 104.129 101.947 103.927C102.561 103.725 103.25 103.624 104.014 103.624C104.927 103.624 105.736 103.778 106.439 104.084C107.151 104.391 107.708 104.856 108.113 105.477C108.525 106.091 108.73 106.862 108.73 107.791V113.192C108.73 113.746 108.768 114.244 108.843 114.686C108.925 115.12 109.041 115.498 109.191 115.82V116H106.417C106.29 115.708 106.189 115.337 106.114 114.888C106.046 114.431 106.013 113.99 106.013 113.563ZM106.406 108.61L106.428 110.284H104.485C103.984 110.284 103.542 110.332 103.16 110.43C102.778 110.52 102.46 110.654 102.206 110.834C101.951 111.014 101.76 111.231 101.633 111.485C101.506 111.74 101.442 112.028 101.442 112.35C101.442 112.672 101.517 112.968 101.667 113.237C101.816 113.499 102.033 113.705 102.318 113.855C102.61 114.005 102.962 114.08 103.374 114.08C103.928 114.08 104.41 113.967 104.822 113.743C105.242 113.511 105.571 113.23 105.811 112.9C106.05 112.563 106.177 112.245 106.192 111.946L107.068 113.147C106.979 113.454 106.825 113.784 106.608 114.136C106.391 114.488 106.106 114.825 105.754 115.146C105.41 115.461 104.994 115.719 104.508 115.921C104.029 116.124 103.475 116.225 102.846 116.225C102.052 116.225 101.345 116.067 100.723 115.753C100.102 115.431 99.6151 115 99.2632 114.461C98.9113 113.915 98.7354 113.297 98.7354 112.608C98.7354 111.965 98.8551 111.396 99.0947 110.901C99.3418 110.4 99.7012 109.98 100.173 109.644C100.652 109.307 101.236 109.052 101.925 108.88C102.614 108.7 103.4 108.61 104.283 108.61H106.406ZM119.343 103.849H121.803V115.663C121.803 116.756 121.571 117.685 121.106 118.448C120.642 119.212 119.995 119.792 119.164 120.189C118.333 120.593 117.37 120.795 116.277 120.795C115.813 120.795 115.297 120.728 114.728 120.593C114.166 120.458 113.619 120.241 113.088 119.942C112.564 119.65 112.126 119.264 111.774 118.785L113.043 117.19C113.477 117.707 113.956 118.085 114.48 118.325C115.005 118.564 115.555 118.684 116.131 118.684C116.753 118.684 117.281 118.568 117.715 118.336C118.157 118.111 118.497 117.778 118.737 117.336C118.976 116.895 119.096 116.356 119.096 115.719V106.6L119.343 103.849ZM111.089 110.059V109.823C111.089 108.902 111.201 108.064 111.426 107.308C111.65 106.544 111.972 105.889 112.392 105.342C112.811 104.788 113.32 104.365 113.919 104.073C114.518 103.774 115.195 103.624 115.952 103.624C116.738 103.624 117.408 103.766 117.962 104.051C118.523 104.335 118.991 104.743 119.366 105.275C119.74 105.799 120.032 106.428 120.242 107.162C120.459 107.888 120.62 108.696 120.725 109.587V110.34C120.627 111.208 120.463 112.002 120.23 112.721C119.998 113.439 119.691 114.061 119.31 114.585C118.928 115.109 118.456 115.513 117.895 115.798C117.34 116.082 116.685 116.225 115.929 116.225C115.188 116.225 114.518 116.071 113.919 115.764C113.327 115.457 112.818 115.027 112.392 114.473C111.972 113.919 111.65 113.267 111.426 112.519C111.201 111.762 111.089 110.943 111.089 110.059ZM113.795 109.823V110.059C113.795 110.613 113.848 111.13 113.953 111.609C114.065 112.088 114.233 112.511 114.458 112.878C114.69 113.237 114.982 113.522 115.334 113.731C115.693 113.934 116.116 114.035 116.603 114.035C117.239 114.035 117.76 113.9 118.164 113.63C118.576 113.361 118.89 112.998 119.107 112.541C119.332 112.077 119.489 111.56 119.579 110.991V108.958C119.534 108.517 119.441 108.105 119.298 107.723C119.164 107.341 118.98 107.008 118.748 106.724C118.516 106.432 118.224 106.207 117.872 106.05C117.52 105.885 117.105 105.803 116.625 105.803C116.139 105.803 115.716 105.908 115.356 106.117C114.997 106.327 114.701 106.615 114.469 106.982C114.245 107.349 114.076 107.776 113.964 108.262C113.852 108.749 113.795 109.269 113.795 109.823ZM129.967 116.225C129.069 116.225 128.257 116.079 127.53 115.787C126.812 115.487 126.198 115.072 125.688 114.54C125.187 114.008 124.801 113.383 124.532 112.665C124.262 111.946 124.127 111.171 124.127 110.34V109.891C124.127 108.94 124.266 108.079 124.543 107.308C124.82 106.536 125.206 105.878 125.7 105.331C126.194 104.777 126.778 104.354 127.452 104.062C128.125 103.77 128.855 103.624 129.642 103.624C130.51 103.624 131.27 103.77 131.921 104.062C132.573 104.354 133.112 104.766 133.539 105.297C133.973 105.821 134.295 106.447 134.504 107.173C134.722 107.899 134.83 108.7 134.83 109.576V110.733H125.441V108.79H132.157V108.577C132.142 108.09 132.045 107.633 131.865 107.207C131.693 106.78 131.427 106.435 131.068 106.173C130.708 105.911 130.229 105.78 129.63 105.78C129.181 105.78 128.781 105.878 128.429 106.072C128.084 106.259 127.796 106.533 127.564 106.892C127.332 107.251 127.152 107.686 127.025 108.195C126.905 108.696 126.845 109.262 126.845 109.891V110.34C126.845 110.871 126.916 111.366 127.059 111.822C127.208 112.271 127.425 112.665 127.71 113.001C127.994 113.338 128.339 113.604 128.743 113.799C129.147 113.986 129.608 114.08 130.125 114.08C130.776 114.08 131.356 113.949 131.865 113.687C132.374 113.424 132.816 113.054 133.19 112.575L134.617 113.956C134.355 114.338 134.014 114.705 133.595 115.057C133.175 115.401 132.663 115.682 132.056 115.899C131.457 116.116 130.761 116.225 129.967 116.225ZM146.195 114.675L149.497 103.849H152.395L147.521 117.853C147.408 118.153 147.262 118.478 147.083 118.83C146.903 119.182 146.667 119.515 146.375 119.83C146.09 120.152 145.735 120.41 145.308 120.604C144.881 120.807 144.365 120.908 143.758 120.908C143.519 120.908 143.287 120.885 143.062 120.84C142.845 120.803 142.639 120.762 142.444 120.717L142.433 118.65C142.508 118.658 142.598 118.665 142.703 118.673C142.815 118.68 142.905 118.684 142.972 118.684C143.421 118.684 143.796 118.628 144.095 118.516C144.395 118.411 144.638 118.239 144.825 117.999C145.02 117.759 145.185 117.438 145.319 117.033L146.195 114.675ZM144.331 103.849L147.217 112.945L147.7 115.798L145.825 116.281L141.411 103.849H144.331ZM153.248 110.059V109.801C153.248 108.925 153.375 108.112 153.63 107.364C153.884 106.608 154.251 105.952 154.73 105.398C155.217 104.837 155.809 104.403 156.505 104.096C157.209 103.781 158.002 103.624 158.886 103.624C159.777 103.624 160.57 103.781 161.267 104.096C161.97 104.403 162.566 104.837 163.052 105.398C163.539 105.952 163.91 106.608 164.164 107.364C164.419 108.112 164.546 108.925 164.546 109.801V110.059C164.546 110.935 164.419 111.747 164.164 112.496C163.91 113.245 163.539 113.9 163.052 114.461C162.566 115.015 161.974 115.45 161.278 115.764C160.582 116.071 159.792 116.225 158.908 116.225C158.017 116.225 157.22 116.071 156.516 115.764C155.82 115.45 155.228 115.015 154.742 114.461C154.255 113.9 153.884 113.245 153.63 112.496C153.375 111.747 153.248 110.935 153.248 110.059ZM155.955 109.801V110.059C155.955 110.606 156.011 111.122 156.123 111.609C156.235 112.096 156.411 112.522 156.651 112.889C156.89 113.256 157.197 113.544 157.572 113.754C157.946 113.964 158.392 114.068 158.908 114.068C159.41 114.068 159.844 113.964 160.211 113.754C160.585 113.544 160.892 113.256 161.132 112.889C161.371 112.522 161.547 112.096 161.66 111.609C161.779 111.122 161.839 110.606 161.839 110.059V109.801C161.839 109.262 161.779 108.753 161.66 108.273C161.547 107.787 161.368 107.356 161.121 106.982C160.881 106.608 160.574 106.316 160.2 106.106C159.833 105.889 159.395 105.78 158.886 105.78C158.377 105.78 157.935 105.889 157.561 106.106C157.194 106.316 156.89 106.608 156.651 106.982C156.411 107.356 156.235 107.787 156.123 108.273C156.011 108.753 155.955 109.262 155.955 109.801ZM174.125 113.136V103.849H176.843V116H174.283L174.125 113.136ZM174.507 110.609L175.417 110.587C175.417 111.403 175.327 112.155 175.147 112.844C174.968 113.526 174.691 114.121 174.316 114.63C173.942 115.132 173.463 115.525 172.879 115.809C172.295 116.086 171.595 116.225 170.779 116.225C170.187 116.225 169.645 116.139 169.15 115.966C168.656 115.794 168.229 115.528 167.87 115.169C167.518 114.81 167.245 114.342 167.05 113.765C166.856 113.189 166.758 112.5 166.758 111.699V103.849H169.465V111.721C169.465 112.163 169.517 112.534 169.622 112.833C169.727 113.125 169.869 113.361 170.049 113.541C170.229 113.72 170.438 113.847 170.678 113.922C170.917 113.997 171.172 114.035 171.441 114.035C172.213 114.035 172.819 113.885 173.261 113.585C173.71 113.278 174.028 112.867 174.215 112.35C174.41 111.833 174.507 111.253 174.507 110.609ZM182.335 106.162V116H179.628V103.849H182.211L182.335 106.162ZM186.052 103.77L186.03 106.286C185.865 106.256 185.685 106.233 185.491 106.218C185.304 106.203 185.116 106.196 184.929 106.196C184.465 106.196 184.057 106.263 183.705 106.398C183.353 106.525 183.057 106.712 182.818 106.959C182.586 107.199 182.406 107.491 182.279 107.835C182.152 108.18 182.077 108.565 182.054 108.992L181.437 109.037C181.437 108.273 181.511 107.566 181.661 106.915C181.811 106.263 182.035 105.69 182.335 105.196C182.642 104.702 183.024 104.317 183.48 104.04C183.945 103.763 184.48 103.624 185.086 103.624C185.251 103.624 185.427 103.639 185.614 103.669C185.809 103.699 185.955 103.733 186.052 103.77ZM196.193 106.185V120.672H193.487V103.849H195.98L196.193 106.185ZM204.111 109.812V110.048C204.111 110.931 204.006 111.751 203.796 112.507C203.594 113.256 203.291 113.911 202.887 114.473C202.49 115.027 202 115.457 201.416 115.764C200.832 116.071 200.158 116.225 199.394 116.225C198.638 116.225 197.975 116.086 197.406 115.809C196.845 115.525 196.369 115.124 195.98 114.607C195.591 114.091 195.276 113.484 195.037 112.788C194.805 112.084 194.64 111.313 194.542 110.475V109.565C194.64 108.674 194.805 107.865 195.037 107.139C195.276 106.413 195.591 105.788 195.98 105.264C196.369 104.74 196.845 104.335 197.406 104.051C197.968 103.766 198.623 103.624 199.372 103.624C200.135 103.624 200.813 103.774 201.404 104.073C201.996 104.365 202.494 104.785 202.898 105.331C203.302 105.87 203.605 106.521 203.808 107.285C204.01 108.041 204.111 108.884 204.111 109.812ZM201.404 110.048V109.812C201.404 109.25 201.352 108.73 201.247 108.251C201.142 107.764 200.978 107.338 200.753 106.971C200.528 106.604 200.24 106.319 199.888 106.117C199.544 105.908 199.128 105.803 198.642 105.803C198.162 105.803 197.751 105.885 197.406 106.05C197.062 106.207 196.774 106.428 196.542 106.712C196.309 106.997 196.13 107.33 196.002 107.712C195.875 108.086 195.785 108.494 195.733 108.936V111.115C195.823 111.654 195.976 112.148 196.193 112.597C196.41 113.046 196.717 113.406 197.114 113.675C197.519 113.937 198.035 114.068 198.664 114.068C199.151 114.068 199.566 113.964 199.911 113.754C200.255 113.544 200.536 113.256 200.753 112.889C200.978 112.515 201.142 112.084 201.247 111.598C201.352 111.111 201.404 110.594 201.404 110.048ZM209.131 106.162V116H206.424V103.849H209.007L209.131 106.162ZM212.848 103.77L212.826 106.286C212.661 106.256 212.481 106.233 212.287 106.218C212.099 106.203 211.912 106.196 211.725 106.196C211.261 106.196 210.853 106.263 210.501 106.398C210.149 106.525 209.853 106.712 209.614 106.959C209.382 107.199 209.202 107.491 209.075 107.835C208.947 108.18 208.873 108.565 208.85 108.992L208.232 109.037C208.232 108.273 208.307 107.566 208.457 106.915C208.607 106.263 208.831 105.69 209.131 105.196C209.438 104.702 209.82 104.317 210.276 104.04C210.741 103.763 211.276 103.624 211.882 103.624C212.047 103.624 212.223 103.639 212.41 103.669C212.605 103.699 212.751 103.733 212.848 103.77ZM213.735 110.059V109.801C213.735 108.925 213.863 108.112 214.117 107.364C214.372 106.608 214.739 105.952 215.218 105.398C215.704 104.837 216.296 104.403 216.992 104.096C217.696 103.781 218.49 103.624 219.373 103.624C220.264 103.624 221.058 103.781 221.754 104.096C222.458 104.403 223.053 104.837 223.54 105.398C224.026 105.952 224.397 106.608 224.651 107.364C224.906 108.112 225.033 108.925 225.033 109.801V110.059C225.033 110.935 224.906 111.747 224.651 112.496C224.397 113.245 224.026 113.9 223.54 114.461C223.053 115.015 222.461 115.45 221.765 115.764C221.069 116.071 220.279 116.225 219.396 116.225C218.505 116.225 217.707 116.071 217.003 115.764C216.307 115.45 215.716 115.015 215.229 114.461C214.742 113.9 214.372 113.245 214.117 112.496C213.863 111.747 213.735 110.935 213.735 110.059ZM216.442 109.801V110.059C216.442 110.606 216.498 111.122 216.61 111.609C216.723 112.096 216.899 112.522 217.138 112.889C217.378 113.256 217.685 113.544 218.059 113.754C218.433 113.964 218.879 114.068 219.396 114.068C219.897 114.068 220.331 113.964 220.698 113.754C221.073 113.544 221.38 113.256 221.619 112.889C221.859 112.522 222.035 112.096 222.147 111.609C222.267 111.122 222.327 110.606 222.327 110.059V109.801C222.327 109.262 222.267 108.753 222.147 108.273C222.035 107.787 221.855 107.356 221.608 106.982C221.368 106.608 221.061 106.316 220.687 106.106C220.32 105.889 219.882 105.78 219.373 105.78C218.864 105.78 218.422 105.889 218.048 106.106C217.681 106.316 217.378 106.608 217.138 106.982C216.899 107.356 216.723 107.787 216.61 108.273C216.498 108.753 216.442 109.262 216.442 109.801ZM230.783 116H228.065V103.062C228.065 102.082 228.26 101.254 228.649 100.581C229.046 99.9067 229.611 99.3939 230.345 99.042C231.086 98.6901 231.966 98.5142 232.984 98.5142C233.583 98.5142 234.16 98.5778 234.714 98.7051C235.275 98.8324 235.856 98.9933 236.455 99.188L236.039 101.389C235.657 101.262 235.234 101.142 234.77 101.03C234.306 100.91 233.771 100.85 233.164 100.85C232.348 100.85 231.745 101.037 231.356 101.412C230.974 101.778 230.783 102.329 230.783 103.062V116ZM233.22 103.849V105.825H226.201V103.849H233.22ZM237.735 103.849V116H235.028V103.849H237.735ZM243.653 98.75V116H240.936V98.75H243.653ZM251.975 116.225C251.077 116.225 250.264 116.079 249.538 115.787C248.819 115.487 248.205 115.072 247.696 114.54C247.195 114.008 246.809 113.383 246.54 112.665C246.27 111.946 246.135 111.171 246.135 110.34V109.891C246.135 108.94 246.274 108.079 246.551 107.308C246.828 106.536 247.213 105.878 247.708 105.331C248.202 104.777 248.786 104.354 249.459 104.062C250.133 103.77 250.863 103.624 251.649 103.624C252.518 103.624 253.278 103.77 253.929 104.062C254.581 104.354 255.12 104.766 255.546 105.297C255.981 105.821 256.303 106.447 256.512 107.173C256.729 107.899 256.838 108.7 256.838 109.576V110.733H247.449V108.79H254.165V108.577C254.15 108.09 254.053 107.633 253.873 107.207C253.701 106.78 253.435 106.435 253.076 106.173C252.716 105.911 252.237 105.78 251.638 105.78C251.189 105.78 250.788 105.878 250.437 106.072C250.092 106.259 249.804 106.533 249.572 106.892C249.34 107.251 249.16 107.686 249.033 108.195C248.913 108.696 248.853 109.262 248.853 109.891V110.34C248.853 110.871 248.924 111.366 249.066 111.822C249.216 112.271 249.433 112.665 249.718 113.001C250.002 113.338 250.347 113.604 250.751 113.799C251.155 113.986 251.616 114.08 252.132 114.08C252.784 114.08 253.364 113.949 253.873 113.687C254.382 113.424 254.824 113.054 255.198 112.575L256.625 113.956C256.362 114.338 256.022 114.705 255.603 115.057C255.183 115.401 254.67 115.682 254.064 115.899C253.465 116.116 252.769 116.225 251.975 116.225Z" fill="white"/>
</g>
<defs>
<filter id="filter0_i_85_1903" x="-21" y="-303" width="2180" height="2144.61" filterUnits="userSpaceOnUse" color-interpolation-filters="sRGB">
<feFlood flood-opacity="0" result="BackgroundImageFix"/>
<feBlend mode="normal" in="SourceGraphic" in2="BackgroundImageFix" result="shape"/>
<feColorMatrix in="SourceAlpha" type="matrix" values="0 0 0 0 0 0 0 0 0 0 0 0 0 0 0 0 0 0 127 0" result="hardAlpha"/>
<feMorphology radius="24" operator="erode" in="SourceAlpha" result="effect1_innerShadow_85_1903"/>
<feOffset dx="24" dy="32"/>
<feGaussianBlur stdDeviation="92"/>
<feComposite in2="hardAlpha" operator="arithmetic" k2="-1" k3="1"/>
<feColorMatrix type="matrix" values="0 0 0 0 0.0235294 0 0 0 0 0.0313726 0 0 0 0 0.34902 0 0 0 0.75 0"/>
<feBlend mode="normal" in2="shape" result="effect1_innerShadow_85_1903"/>
</filter>
<filter id="filter1_i_85_1903" x="-21.0005" y="-64.3818" width="1694.33" height="1667.38" filterUnits="userSpaceOnUse" color-interpolation-filters="sRGB">
<feFlood flood-opacity="0" result="BackgroundImageFix"/>
<feBlend mode="normal" in="SourceGraphic" in2="BackgroundImageFix" result="shape"/>
<feColorMatrix in="SourceAlpha" type="matrix" values="0 0 0 0 0 0 0 0 0 0 0 0 0 0 0 0 0 0 127 0" result="hardAlpha"/>
<feMorphology radius="24" operator="erode" in="SourceAlpha" result="effect1_innerShadow_85_1903"/>
<feOffset dx="24" dy="32"/>
<feGaussianBlur stdDeviation="92"/>
<feComposite in2="hardAlpha" operator="arithmetic" k2="-1" k3="1"/>
<feColorMatrix type="matrix" values="0 0 0 0 0.0235294 0 0 0 0 0.0313726 0 0 0 0 0.34902 0 0 0 0.75 0"/>
<feBlend mode="normal" in2="shape" result="effect1_innerShadow_85_1903"/>
</filter>
<filter id="filter2_i_85_1903" x="73.0015" y="136.877" width="1442.45" height="1421.53" filterUnits="userSpaceOnUse" color-interpolation-filters="sRGB">
<feFlood flood-opacity="0" result="BackgroundImageFix"/>
<feBlend mode="normal" in="SourceGraphic" in2="BackgroundImageFix" result="shape"/>
<feColorMatrix in="SourceAlpha" type="matrix" values="0 0 0 0 0 0 0 0 0 0 0 0 0 0 0 0 0 0 127 0" result="hardAlpha"/>
<feMorphology radius="24" operator="erode" in="SourceAlpha" result="effect1_innerShadow_85_1903"/>
<feOffset dx="24" dy="32"/>
<feGaussianBlur stdDeviation="92"/>
<feComposite in2="hardAlpha" operator="arithmetic" k2="-1" k3="1"/>
<feColorMatrix type="matrix" values="0 0 0 0 0.0235294 0 0 0 0 0.0313726 0 0 0 0 0.34902 0 0 0 0.75 0"/>
<feBlend mode="normal" in2="shape" result="effect1_innerShadow_85_1903"/>
</filter>
<radialGradient id="paint0_radial_85_1903" cx="0" cy="0" r="1" gradientUnits="userSpaceOnUse" gradientTransform="translate(831.5 118) rotate(90) scale(356.185 603.412)">
<stop stop-color="#FF8B00"/>
<stop offset="1" stop-color="#9D5600"/>
</radialGradient>
<clipPath id="clip0_85_1903">
<path d="M0 0H1663V220C1663 228.837 1655.84 236 1647 236H16C7.16341 236 0 228.837 0 220V0Z" fill="white"/>
</clipPath>
</defs>
</svg>
