<svg width="1663" height="236" viewBox="0 0 1663 236" fill="none" xmlns="http://www.w3.org/2000/svg">
<g id="Graphic Side">
<g clip-path="url(#clip0_5_5156)">
<path d="M0 0H1663V220C1663 228.837 1655.84 236 1647 236H16C7.16341 236 0 228.837 0 220V0Z" fill="url(#paint0_radial_5_5156)"/>
<g id="Big Circles">
<g id="Ellipse 5" style="mix-blend-mode:multiply" opacity="0.75" filter="url(#filter0_i_5_5156)">
<ellipse cx="1057" cy="753.307" rx="1056.31" ry="1078" transform="rotate(90 1057 753.307)" fill="white"/>
</g>
<g id="Ellipse 4" style="mix-blend-mode:multiply" opacity="0.75" filter="url(#filter1_i_5_5156)">
<ellipse cx="814.164" cy="753.307" rx="817.689" ry="835.164" transform="rotate(90 814.164 753.307)" fill="white"/>
</g>
<g id="Ellipse 3" style="mix-blend-mode:multiply" opacity="0.75" filter="url(#filter2_i_5_5156)">
<ellipse cx="782.228" cy="831.642" rx="694.765" ry="709.226" transform="rotate(90 782.228 831.642)" fill="white"/>
</g>
</g>
<path id="Title" d="M70.3867 44.5625H76.2266V63.3516C76.2266 65.5391 75.7578 67.3815 74.8203 68.8789C73.8958 70.3763 72.6133 71.5026 70.9727 72.2578C69.3451 73.013 67.4701 73.3906 65.3477 73.3906C63.2253 73.3906 61.3372 73.013 59.6836 72.2578C58.043 71.5026 56.7539 70.3763 55.8164 68.8789C54.8919 67.3815 54.4297 65.5391 54.4297 63.3516V44.5625H60.2891V63.3516C60.2891 64.6276 60.4909 65.6693 60.8945 66.4766C61.2982 67.2839 61.8776 67.8763 62.6328 68.2539C63.401 68.6315 64.306 68.8203 65.3477 68.8203C66.4154 68.8203 67.3203 68.6315 68.0625 68.2539C68.8177 67.8763 69.3906 67.2839 69.7812 66.4766C70.1849 65.6693 70.3867 64.6276 70.3867 63.3516V44.5625ZM92.125 67.1602C92.125 66.7565 92.0078 66.3919 91.7734 66.0664C91.5391 65.7409 91.1029 65.4414 90.4648 65.168C89.8398 64.8815 88.9349 64.6211 87.75 64.3867C86.6823 64.1523 85.6862 63.8594 84.7617 63.5078C83.8503 63.1432 83.056 62.707 82.3789 62.1992C81.7148 61.6914 81.194 61.0924 80.8164 60.4023C80.4388 59.6992 80.25 58.8984 80.25 58C80.25 57.1146 80.4388 56.2812 80.8164 55.5C81.207 54.7188 81.7604 54.0286 82.4766 53.4297C83.2057 52.8177 84.0911 52.3424 85.1328 52.0039C86.1875 51.6523 87.3724 51.4766 88.6875 51.4766C90.5234 51.4766 92.099 51.7695 93.4141 52.3555C94.7422 52.9414 95.7578 53.7487 96.4609 54.7773C97.1771 55.793 97.5352 56.9518 97.5352 58.2539H91.9102C91.9102 57.707 91.793 57.2188 91.5586 56.7891C91.3372 56.3464 90.9857 56.0013 90.5039 55.7539C90.0352 55.4935 89.4232 55.3633 88.668 55.3633C88.043 55.3633 87.5026 55.474 87.0469 55.6953C86.5911 55.9036 86.2396 56.1901 85.9922 56.5547C85.7578 56.9062 85.6406 57.2969 85.6406 57.7266C85.6406 58.0521 85.7057 58.3451 85.8359 58.6055C85.9792 58.8529 86.207 59.0807 86.5195 59.2891C86.832 59.4974 87.2357 59.6927 87.7305 59.875C88.2383 60.0443 88.8633 60.2005 89.6055 60.3438C91.1289 60.6562 92.4896 61.0664 93.6875 61.5742C94.8854 62.069 95.8359 62.7461 96.5391 63.6055C97.2422 64.4518 97.5938 65.5651 97.5938 66.9453C97.5938 67.8828 97.3854 68.7422 96.9688 69.5234C96.5521 70.3047 95.9531 70.9883 95.1719 71.5742C94.3906 72.1471 93.4531 72.5964 92.3594 72.9219C91.2786 73.2344 90.0612 73.3906 88.707 73.3906C86.7409 73.3906 85.0742 73.0391 83.707 72.3359C82.3529 71.6328 81.3242 70.7409 80.6211 69.6602C79.931 68.5664 79.5859 67.4466 79.5859 66.3008H84.918C84.944 67.069 85.1393 67.6875 85.5039 68.1562C85.8815 68.625 86.3568 68.9635 86.9297 69.1719C87.5156 69.3802 88.1471 69.4844 88.8242 69.4844C89.5534 69.4844 90.1589 69.3867 90.6406 69.1914C91.1224 68.9831 91.487 68.7096 91.7344 68.3711C91.9948 68.0195 92.125 67.6159 92.125 67.1602ZM110.973 73.3906C109.332 73.3906 107.861 73.1302 106.559 72.6094C105.257 72.0755 104.15 71.3398 103.238 70.4023C102.34 69.4648 101.65 68.3776 101.168 67.1406C100.686 65.8906 100.445 64.5625 100.445 63.1562V62.375C100.445 60.7734 100.673 59.3086 101.129 57.9805C101.585 56.6523 102.236 55.5 103.082 54.5234C103.941 53.5469 104.983 52.7982 106.207 52.2773C107.431 51.7435 108.811 51.4766 110.348 51.4766C111.845 51.4766 113.173 51.724 114.332 52.2188C115.491 52.7135 116.461 53.4167 117.242 54.3281C118.036 55.2396 118.635 56.3333 119.039 57.6094C119.443 58.8724 119.645 60.2786 119.645 61.8281V64.1719H102.848V60.4219H114.117V59.9922C114.117 59.2109 113.974 58.5143 113.688 57.9023C113.414 57.2773 112.997 56.7826 112.438 56.418C111.878 56.0534 111.161 55.8711 110.289 55.8711C109.547 55.8711 108.909 56.0339 108.375 56.3594C107.841 56.6849 107.405 57.1406 107.066 57.7266C106.741 58.3125 106.493 59.0026 106.324 59.7969C106.168 60.5781 106.09 61.4375 106.09 62.375V63.1562C106.09 64.0026 106.207 64.7839 106.441 65.5C106.689 66.2161 107.034 66.8346 107.477 67.3555C107.932 67.8763 108.479 68.2799 109.117 68.5664C109.768 68.8529 110.504 68.9961 111.324 68.9961C112.34 68.9961 113.284 68.8008 114.156 68.4102C115.042 68.0065 115.803 67.401 116.441 66.5938L119.176 69.5625C118.733 70.2005 118.128 70.8125 117.359 71.3984C116.604 71.9844 115.693 72.4661 114.625 72.8438C113.557 73.2083 112.34 73.3906 110.973 73.3906ZM128.473 56.4766V73H122.848V51.8672H128.141L128.473 56.4766ZM134.84 51.7305L134.742 56.9453C134.469 56.9062 134.137 56.8737 133.746 56.8477C133.368 56.8086 133.023 56.7891 132.711 56.7891C131.917 56.7891 131.227 56.8932 130.641 57.1016C130.068 57.2969 129.586 57.5898 129.195 57.9805C128.818 58.3711 128.531 58.8464 128.336 59.4062C128.154 59.9661 128.049 60.6042 128.023 61.3203L126.891 60.9688C126.891 59.6016 127.027 58.3451 127.301 57.1992C127.574 56.0404 127.971 55.0312 128.492 54.1719C129.026 53.3125 129.677 52.6484 130.445 52.1797C131.214 51.7109 132.092 51.4766 133.082 51.4766C133.395 51.4766 133.714 51.5026 134.039 51.5547C134.365 51.5938 134.632 51.6523 134.84 51.7305ZM148.922 67.1602C148.922 66.7565 148.805 66.3919 148.57 66.0664C148.336 65.7409 147.9 65.4414 147.262 65.168C146.637 64.8815 145.732 64.6211 144.547 64.3867C143.479 64.1523 142.483 63.8594 141.559 63.5078C140.647 63.1432 139.853 62.707 139.176 62.1992C138.512 61.6914 137.991 61.0924 137.613 60.4023C137.236 59.6992 137.047 58.8984 137.047 58C137.047 57.1146 137.236 56.2812 137.613 55.5C138.004 54.7188 138.557 54.0286 139.273 53.4297C140.003 52.8177 140.888 52.3424 141.93 52.0039C142.984 51.6523 144.169 51.4766 145.484 51.4766C147.32 51.4766 148.896 51.7695 150.211 52.3555C151.539 52.9414 152.555 53.7487 153.258 54.7773C153.974 55.793 154.332 56.9518 154.332 58.2539H148.707C148.707 57.707 148.59 57.2188 148.355 56.7891C148.134 56.3464 147.783 56.0013 147.301 55.7539C146.832 55.4935 146.22 55.3633 145.465 55.3633C144.84 55.3633 144.299 55.474 143.844 55.6953C143.388 55.9036 143.036 56.1901 142.789 56.5547C142.555 56.9062 142.438 57.2969 142.438 57.7266C142.438 58.0521 142.503 58.3451 142.633 58.6055C142.776 58.8529 143.004 59.0807 143.316 59.2891C143.629 59.4974 144.033 59.6927 144.527 59.875C145.035 60.0443 145.66 60.2005 146.402 60.3438C147.926 60.6562 149.286 61.0664 150.484 61.5742C151.682 62.069 152.633 62.7461 153.336 63.6055C154.039 64.4518 154.391 65.5651 154.391 66.9453C154.391 67.8828 154.182 68.7422 153.766 69.5234C153.349 70.3047 152.75 70.9883 151.969 71.5742C151.188 72.1471 150.25 72.5964 149.156 72.9219C148.076 73.2344 146.858 73.3906 145.504 73.3906C143.538 73.3906 141.871 73.0391 140.504 72.3359C139.15 71.6328 138.121 70.7409 137.418 69.6602C136.728 68.5664 136.383 67.4466 136.383 66.3008H141.715C141.741 67.069 141.936 67.6875 142.301 68.1562C142.678 68.625 143.154 68.9635 143.727 69.1719C144.312 69.3802 144.944 69.4844 145.621 69.4844C146.35 69.4844 146.956 69.3867 147.438 69.1914C147.919 68.9831 148.284 68.7096 148.531 68.3711C148.792 68.0195 148.922 67.6159 148.922 67.1602Z" fill="white"/>
<path id="Description" d="M58.1602 112.328L61.417 99.6484H63.124L62.9331 102.917L59.4517 116H57.6772L58.1602 112.328ZM55.7231 99.6484L58.3623 112.227L58.5981 116H56.7114L52.9268 99.6484H55.7231ZM66.8188 112.193L69.4243 99.6484H72.2319L68.4473 116H66.5605L66.8188 112.193ZM63.7866 99.6484L67.0098 112.361L67.4814 116H65.707L62.2817 102.917L62.1021 99.6484H63.7866ZM76.7241 98.75V116H74.0288V98.75H76.7241ZM76.2524 109.475L75.3765 109.464C75.384 108.625 75.5 107.85 75.7246 107.139C75.9567 106.428 76.2786 105.81 76.6904 105.286C77.1097 104.755 77.6113 104.347 78.1953 104.062C78.7793 103.77 79.4269 103.624 80.1382 103.624C80.7371 103.624 81.2762 103.706 81.7554 103.871C82.242 104.036 82.6613 104.302 83.0132 104.668C83.3651 105.028 83.6309 105.5 83.8105 106.083C83.9977 106.66 84.0913 107.364 84.0913 108.195V116H81.3735V108.172C81.3735 107.588 81.2874 107.124 81.1152 106.78C80.9505 106.435 80.7072 106.188 80.3853 106.039C80.0633 105.881 79.6702 105.803 79.2061 105.803C78.7194 105.803 78.2889 105.9 77.9146 106.095C77.5477 106.289 77.2407 106.555 76.9937 106.892C76.7466 107.229 76.5594 107.618 76.4321 108.06C76.3123 108.502 76.2524 108.973 76.2524 109.475ZM92.1885 116.225C91.29 116.225 90.4777 116.079 89.7515 115.787C89.0327 115.487 88.4188 115.072 87.9097 114.54C87.408 114.008 87.0225 113.383 86.7529 112.665C86.4834 111.946 86.3486 111.171 86.3486 110.34V109.891C86.3486 108.94 86.4871 108.079 86.7642 107.308C87.0412 106.536 87.4268 105.878 87.9209 105.331C88.415 104.777 88.999 104.354 89.6729 104.062C90.3467 103.77 91.0767 103.624 91.8628 103.624C92.7313 103.624 93.4912 103.77 94.1426 104.062C94.7939 104.354 95.333 104.766 95.7598 105.297C96.194 105.821 96.516 106.447 96.7256 107.173C96.9427 107.899 97.0513 108.7 97.0513 109.576V110.733H87.6626V108.79H94.3784V108.577C94.3634 108.09 94.2661 107.633 94.0864 107.207C93.9142 106.78 93.6484 106.435 93.2891 106.173C92.9297 105.911 92.4505 105.78 91.8516 105.78C91.4023 105.78 91.0018 105.878 90.6499 106.072C90.3055 106.259 90.0173 106.533 89.7852 106.892C89.5531 107.251 89.3734 107.686 89.2461 108.195C89.1263 108.696 89.0664 109.262 89.0664 109.891V110.34C89.0664 110.871 89.1375 111.366 89.2798 111.822C89.4295 112.271 89.6466 112.665 89.9312 113.001C90.2157 113.338 90.5601 113.604 90.9644 113.799C91.3687 113.986 91.8291 114.08 92.3457 114.08C92.9971 114.08 93.5773 113.949 94.0864 113.687C94.5955 113.424 95.0373 113.054 95.4116 112.575L96.8379 113.956C96.5758 114.338 96.2352 114.705 95.8159 115.057C95.3966 115.401 94.8838 115.682 94.2773 115.899C93.6784 116.116 92.9821 116.225 92.1885 116.225ZM101.88 106.162V116H99.1738V103.849H101.757L101.88 106.162ZM105.598 103.77L105.575 106.286C105.41 106.256 105.231 106.233 105.036 106.218C104.849 106.203 104.662 106.196 104.475 106.196C104.01 106.196 103.602 106.263 103.25 106.398C102.899 106.525 102.603 106.712 102.363 106.959C102.131 107.199 101.951 107.491 101.824 107.835C101.697 108.18 101.622 108.565 101.6 108.992L100.982 109.037C100.982 108.273 101.057 107.566 101.207 106.915C101.356 106.263 101.581 105.69 101.88 105.196C102.187 104.702 102.569 104.317 103.026 104.04C103.49 103.763 104.025 103.624 104.632 103.624C104.797 103.624 104.972 103.639 105.16 103.669C105.354 103.699 105.5 103.733 105.598 103.77ZM112.426 116.225C111.527 116.225 110.715 116.079 109.989 115.787C109.27 115.487 108.656 115.072 108.147 114.54C107.645 114.008 107.26 113.383 106.99 112.665C106.721 111.946 106.586 111.171 106.586 110.34V109.891C106.586 108.94 106.724 108.079 107.001 107.308C107.278 106.536 107.664 105.878 108.158 105.331C108.652 104.777 109.236 104.354 109.91 104.062C110.584 103.77 111.314 103.624 112.1 103.624C112.969 103.624 113.729 103.77 114.38 104.062C115.031 104.354 115.57 104.766 115.997 105.297C116.431 105.821 116.753 106.447 116.963 107.173C117.18 107.899 117.289 108.7 117.289 109.576V110.733H107.9V108.79H114.616V108.577C114.601 108.09 114.503 107.633 114.324 107.207C114.152 106.78 113.886 106.435 113.526 106.173C113.167 105.911 112.688 105.78 112.089 105.78C111.64 105.78 111.239 105.878 110.887 106.072C110.543 106.259 110.255 106.533 110.022 106.892C109.79 107.251 109.611 107.686 109.483 108.195C109.364 108.696 109.304 109.262 109.304 109.891V110.34C109.304 110.871 109.375 111.366 109.517 111.822C109.667 112.271 109.884 112.665 110.168 113.001C110.453 113.338 110.797 113.604 111.202 113.799C111.606 113.986 112.066 114.08 112.583 114.08C113.234 114.08 113.815 113.949 114.324 113.687C114.833 113.424 115.275 113.054 115.649 112.575L117.075 113.956C116.813 114.338 116.472 114.705 116.053 115.057C115.634 115.401 115.121 115.682 114.515 115.899C113.916 116.116 113.219 116.225 112.426 116.225ZM128.654 114.675L131.956 103.849H134.853L129.979 117.853C129.867 118.153 129.721 118.478 129.541 118.83C129.361 119.182 129.125 119.515 128.833 119.83C128.549 120.152 128.193 120.41 127.767 120.604C127.34 120.807 126.823 120.908 126.217 120.908C125.977 120.908 125.745 120.885 125.521 120.84C125.303 120.803 125.097 120.762 124.903 120.717L124.892 118.65C124.966 118.658 125.056 118.665 125.161 118.673C125.273 118.68 125.363 118.684 125.431 118.684C125.88 118.684 126.254 118.628 126.554 118.516C126.853 118.411 127.097 118.239 127.284 117.999C127.478 117.759 127.643 117.438 127.778 117.033L128.654 114.675ZM126.79 103.849L129.676 112.945L130.159 115.798L128.283 116.281L123.87 103.849H126.79ZM135.707 110.059V109.801C135.707 108.925 135.834 108.112 136.088 107.364C136.343 106.608 136.71 105.952 137.189 105.398C137.676 104.837 138.267 104.403 138.963 104.096C139.667 103.781 140.461 103.624 141.344 103.624C142.235 103.624 143.029 103.781 143.725 104.096C144.429 104.403 145.024 104.837 145.511 105.398C145.997 105.952 146.368 106.608 146.623 107.364C146.877 108.112 147.004 108.925 147.004 109.801V110.059C147.004 110.935 146.877 111.747 146.623 112.496C146.368 113.245 145.997 113.9 145.511 114.461C145.024 115.015 144.433 115.45 143.736 115.764C143.04 116.071 142.25 116.225 141.367 116.225C140.476 116.225 139.678 116.071 138.975 115.764C138.278 115.45 137.687 115.015 137.2 114.461C136.714 113.9 136.343 113.245 136.088 112.496C135.834 111.747 135.707 110.935 135.707 110.059ZM138.413 109.801V110.059C138.413 110.606 138.469 111.122 138.582 111.609C138.694 112.096 138.87 112.522 139.109 112.889C139.349 113.256 139.656 113.544 140.03 113.754C140.405 113.964 140.85 114.068 141.367 114.068C141.868 114.068 142.303 113.964 142.669 113.754C143.044 113.544 143.351 113.256 143.59 112.889C143.83 112.522 144.006 112.096 144.118 111.609C144.238 111.122 144.298 110.606 144.298 110.059V109.801C144.298 109.262 144.238 108.753 144.118 108.273C144.006 107.787 143.826 107.356 143.579 106.982C143.34 106.608 143.033 106.316 142.658 106.106C142.291 105.889 141.853 105.78 141.344 105.78C140.835 105.78 140.393 105.889 140.019 106.106C139.652 106.316 139.349 106.608 139.109 106.982C138.87 107.356 138.694 107.787 138.582 108.273C138.469 108.753 138.413 109.262 138.413 109.801ZM156.584 113.136V103.849H159.302V116H156.741L156.584 113.136ZM156.966 110.609L157.875 110.587C157.875 111.403 157.786 112.155 157.606 112.844C157.426 113.526 157.149 114.121 156.775 114.63C156.401 115.132 155.921 115.525 155.337 115.809C154.753 116.086 154.053 116.225 153.237 116.225C152.646 116.225 152.103 116.139 151.609 115.966C151.115 115.794 150.688 115.528 150.329 115.169C149.977 114.81 149.703 114.342 149.509 113.765C149.314 113.189 149.217 112.5 149.217 111.699V103.849H151.923V111.721C151.923 112.163 151.976 112.534 152.081 112.833C152.185 113.125 152.328 113.361 152.507 113.541C152.687 113.72 152.897 113.847 153.136 113.922C153.376 113.997 153.63 114.035 153.9 114.035C154.671 114.035 155.278 113.885 155.719 113.585C156.168 113.278 156.487 112.867 156.674 112.35C156.868 111.833 156.966 111.253 156.966 110.609ZM170.51 106.319V116H167.803V103.849H170.353L170.51 106.319ZM170.072 109.475L169.151 109.464C169.151 108.625 169.256 107.85 169.465 107.139C169.675 106.428 169.982 105.81 170.386 105.286C170.791 104.755 171.292 104.347 171.891 104.062C172.498 103.77 173.198 103.624 173.991 103.624C174.545 103.624 175.051 103.706 175.507 103.871C175.972 104.028 176.372 104.279 176.709 104.624C177.053 104.968 177.315 105.41 177.495 105.949C177.682 106.488 177.776 107.139 177.776 107.903V116H175.069V108.139C175.069 107.547 174.979 107.083 174.8 106.746C174.628 106.409 174.377 106.17 174.047 106.027C173.725 105.878 173.34 105.803 172.891 105.803C172.382 105.803 171.947 105.9 171.588 106.095C171.236 106.289 170.948 106.555 170.723 106.892C170.499 107.229 170.334 107.618 170.229 108.06C170.124 108.502 170.072 108.973 170.072 109.475ZM177.607 108.756L176.338 109.037C176.338 108.303 176.439 107.611 176.642 106.959C176.851 106.301 177.154 105.724 177.551 105.23C177.956 104.728 178.453 104.335 179.045 104.051C179.636 103.766 180.314 103.624 181.078 103.624C181.699 103.624 182.253 103.71 182.74 103.882C183.234 104.047 183.653 104.309 183.998 104.668C184.342 105.028 184.604 105.496 184.784 106.072C184.963 106.641 185.053 107.33 185.053 108.139V116H182.335V108.127C182.335 107.514 182.246 107.038 182.066 106.701C181.894 106.364 181.647 106.132 181.325 106.005C181.003 105.87 180.617 105.803 180.168 105.803C179.749 105.803 179.378 105.881 179.056 106.039C178.742 106.188 178.476 106.402 178.259 106.679C178.042 106.948 177.877 107.259 177.765 107.611C177.66 107.963 177.607 108.345 177.607 108.756ZM194.689 113.563V107.768C194.689 107.334 194.61 106.959 194.453 106.645C194.296 106.331 194.056 106.087 193.734 105.915C193.42 105.743 193.023 105.657 192.544 105.657C192.102 105.657 191.72 105.732 191.398 105.881C191.076 106.031 190.826 106.233 190.646 106.488C190.466 106.742 190.376 107.031 190.376 107.353H187.681C187.681 106.873 187.797 106.409 188.029 105.96C188.261 105.511 188.598 105.11 189.04 104.758C189.482 104.406 190.01 104.129 190.624 103.927C191.237 103.725 191.926 103.624 192.69 103.624C193.603 103.624 194.412 103.778 195.116 104.084C195.827 104.391 196.385 104.856 196.789 105.477C197.201 106.091 197.407 106.862 197.407 107.791V113.192C197.407 113.746 197.444 114.244 197.519 114.686C197.601 115.12 197.717 115.498 197.867 115.82V116H195.093C194.966 115.708 194.865 115.337 194.79 114.888C194.723 114.431 194.689 113.99 194.689 113.563ZM195.082 108.61L195.104 110.284H193.162C192.66 110.284 192.218 110.332 191.836 110.43C191.455 110.52 191.136 110.654 190.882 110.834C190.627 111.014 190.436 111.231 190.309 111.485C190.182 111.74 190.118 112.028 190.118 112.35C190.118 112.672 190.193 112.968 190.343 113.237C190.493 113.499 190.71 113.705 190.994 113.855C191.286 114.005 191.638 114.08 192.05 114.08C192.604 114.08 193.087 113.967 193.499 113.743C193.918 113.511 194.247 113.23 194.487 112.9C194.726 112.563 194.854 112.245 194.869 111.946L195.745 113.147C195.655 113.454 195.501 113.784 195.284 114.136C195.067 114.488 194.783 114.825 194.431 115.146C194.086 115.461 193.671 115.719 193.184 115.921C192.705 116.124 192.151 116.225 191.522 116.225C190.728 116.225 190.021 116.067 189.399 115.753C188.778 115.431 188.291 115 187.939 114.461C187.588 113.915 187.412 113.297 187.412 112.608C187.412 111.965 187.531 111.396 187.771 110.901C188.018 110.4 188.377 109.98 188.849 109.644C189.328 109.307 189.912 109.052 190.601 108.88C191.29 108.7 192.076 108.61 192.959 108.61H195.082ZM202.921 106.443V116H200.214V103.849H202.764L202.921 106.443ZM202.438 109.475L201.562 109.464C201.569 108.603 201.689 107.813 201.921 107.094C202.161 106.375 202.49 105.758 202.91 105.241C203.336 104.725 203.846 104.328 204.437 104.051C205.028 103.766 205.687 103.624 206.414 103.624C206.998 103.624 207.525 103.706 207.997 103.871C208.476 104.028 208.884 104.287 209.221 104.646C209.566 105.005 209.828 105.473 210.007 106.05C210.187 106.619 210.277 107.319 210.277 108.15V116H207.559V108.139C207.559 107.555 207.473 107.094 207.301 106.757C207.136 106.413 206.893 106.17 206.571 106.027C206.256 105.878 205.863 105.803 205.392 105.803C204.927 105.803 204.512 105.9 204.145 106.095C203.778 106.289 203.467 106.555 203.213 106.892C202.966 107.229 202.775 107.618 202.64 108.06C202.505 108.502 202.438 108.973 202.438 109.475ZM219.89 113.563V107.768C219.89 107.334 219.812 106.959 219.654 106.645C219.497 106.331 219.257 106.087 218.936 105.915C218.621 105.743 218.224 105.657 217.745 105.657C217.303 105.657 216.922 105.732 216.6 105.881C216.278 106.031 216.027 106.233 215.847 106.488C215.667 106.742 215.578 107.031 215.578 107.353H212.882C212.882 106.873 212.998 106.409 213.23 105.96C213.463 105.511 213.799 105.11 214.241 104.758C214.683 104.406 215.211 104.129 215.825 103.927C216.439 103.725 217.127 103.624 217.891 103.624C218.805 103.624 219.613 103.778 220.317 104.084C221.028 104.391 221.586 104.856 221.99 105.477C222.402 106.091 222.608 106.862 222.608 107.791V113.192C222.608 113.746 222.645 114.244 222.72 114.686C222.803 115.12 222.919 115.498 223.068 115.82V116H220.294C220.167 115.708 220.066 115.337 219.991 114.888C219.924 114.431 219.89 113.99 219.89 113.563ZM220.283 108.61L220.306 110.284H218.363C217.861 110.284 217.419 110.332 217.038 110.43C216.656 110.52 216.338 110.654 216.083 110.834C215.828 111.014 215.638 111.231 215.51 111.485C215.383 111.74 215.319 112.028 215.319 112.35C215.319 112.672 215.394 112.968 215.544 113.237C215.694 113.499 215.911 113.705 216.195 113.855C216.487 114.005 216.839 114.08 217.251 114.08C217.805 114.08 218.288 113.967 218.7 113.743C219.119 113.511 219.448 113.23 219.688 112.9C219.928 112.563 220.055 112.245 220.07 111.946L220.946 113.147C220.856 113.454 220.702 113.784 220.485 114.136C220.268 114.488 219.984 114.825 219.632 115.146C219.287 115.461 218.872 115.719 218.385 115.921C217.906 116.124 217.352 116.225 216.723 116.225C215.93 116.225 215.222 116.067 214.601 115.753C213.979 115.431 213.493 115 213.141 114.461C212.789 113.915 212.613 113.297 212.613 112.608C212.613 111.965 212.733 111.396 212.972 110.901C213.219 110.4 213.579 109.98 214.05 109.644C214.529 109.307 215.113 109.052 215.802 108.88C216.491 108.7 217.277 108.61 218.161 108.61H220.283ZM233.221 103.849H235.68V115.663C235.68 116.756 235.448 117.685 234.984 118.448C234.52 119.212 233.872 119.792 233.041 120.189C232.21 120.593 231.248 120.795 230.155 120.795C229.691 120.795 229.174 120.728 228.605 120.593C228.043 120.458 227.497 120.241 226.965 119.942C226.441 119.65 226.003 119.264 225.651 118.785L226.92 117.19C227.355 117.707 227.834 118.085 228.358 118.325C228.882 118.564 229.432 118.684 230.009 118.684C230.63 118.684 231.158 118.568 231.592 118.336C232.034 118.111 232.375 117.778 232.614 117.336C232.854 116.895 232.974 116.356 232.974 115.719V106.6L233.221 103.849ZM224.966 110.059V109.823C224.966 108.902 225.079 108.064 225.303 107.308C225.528 106.544 225.85 105.889 226.269 105.342C226.688 104.788 227.197 104.365 227.796 104.073C228.395 103.774 229.073 103.624 229.829 103.624C230.615 103.624 231.285 103.766 231.839 104.051C232.401 104.335 232.869 104.743 233.243 105.275C233.618 105.799 233.91 106.428 234.119 107.162C234.336 107.888 234.497 108.696 234.602 109.587V110.34C234.505 111.208 234.34 112.002 234.108 112.721C233.876 113.439 233.569 114.061 233.187 114.585C232.805 115.109 232.333 115.513 231.772 115.798C231.218 116.082 230.563 116.225 229.807 116.225C229.065 116.225 228.395 116.071 227.796 115.764C227.205 115.457 226.696 115.027 226.269 114.473C225.85 113.919 225.528 113.267 225.303 112.519C225.079 111.762 224.966 110.943 224.966 110.059ZM227.673 109.823V110.059C227.673 110.613 227.725 111.13 227.83 111.609C227.942 112.088 228.111 112.511 228.335 112.878C228.568 113.237 228.86 113.522 229.211 113.731C229.571 113.934 229.994 114.035 230.48 114.035C231.117 114.035 231.637 113.9 232.042 113.63C232.453 113.361 232.768 112.998 232.985 112.541C233.209 112.077 233.367 111.56 233.457 110.991V108.958C233.412 108.517 233.318 108.105 233.176 107.723C233.041 107.341 232.858 107.008 232.625 106.724C232.393 106.432 232.101 106.207 231.75 106.05C231.398 105.885 230.982 105.803 230.503 105.803C230.016 105.803 229.593 105.908 229.234 106.117C228.875 106.327 228.579 106.615 228.347 106.982C228.122 107.349 227.954 107.776 227.841 108.262C227.729 108.749 227.673 109.269 227.673 109.823ZM243.845 116.225C242.946 116.225 242.134 116.079 241.408 115.787C240.689 115.487 240.075 115.072 239.566 114.54C239.064 114.008 238.679 113.383 238.409 112.665C238.14 111.946 238.005 111.171 238.005 110.34V109.891C238.005 108.94 238.143 108.079 238.42 107.308C238.697 106.536 239.083 105.878 239.577 105.331C240.071 104.777 240.655 104.354 241.329 104.062C242.003 103.77 242.733 103.624 243.519 103.624C244.388 103.624 245.147 103.77 245.799 104.062C246.45 104.354 246.989 104.766 247.416 105.297C247.85 105.821 248.172 106.447 248.382 107.173C248.599 107.899 248.708 108.7 248.708 109.576V110.733H239.319V108.79H246.035V108.577C246.02 108.09 245.922 107.633 245.743 107.207C245.57 106.78 245.305 106.435 244.945 106.173C244.586 105.911 244.107 105.78 243.508 105.78C243.059 105.78 242.658 105.878 242.306 106.072C241.962 106.259 241.674 106.533 241.441 106.892C241.209 107.251 241.03 107.686 240.902 108.195C240.783 108.696 240.723 109.262 240.723 109.891V110.34C240.723 110.871 240.794 111.366 240.936 111.822C241.086 112.271 241.303 112.665 241.587 113.001C241.872 113.338 242.216 113.604 242.621 113.799C243.025 113.986 243.485 114.08 244.002 114.08C244.653 114.08 245.234 113.949 245.743 113.687C246.252 113.424 246.694 113.054 247.068 112.575L248.494 113.956C248.232 114.338 247.891 114.705 247.472 115.057C247.053 115.401 246.54 115.682 245.934 115.899C245.335 116.116 244.638 116.225 243.845 116.225ZM260.073 114.675L263.375 103.849H266.272L261.398 117.853C261.286 118.153 261.14 118.478 260.96 118.83C260.78 119.182 260.544 119.515 260.252 119.83C259.968 120.152 259.612 120.41 259.186 120.604C258.759 120.807 258.242 120.908 257.636 120.908C257.396 120.908 257.164 120.885 256.939 120.84C256.722 120.803 256.516 120.762 256.322 120.717L256.311 118.65C256.385 118.658 256.475 118.665 256.58 118.673C256.692 118.68 256.782 118.684 256.85 118.684C257.299 118.684 257.673 118.628 257.973 118.516C258.272 118.411 258.515 118.239 258.703 117.999C258.897 117.759 259.062 117.438 259.197 117.033L260.073 114.675ZM258.208 103.849L261.095 112.945L261.578 115.798L259.702 116.281L255.289 103.849H258.208ZM267.125 110.059V109.801C267.125 108.925 267.253 108.112 267.507 107.364C267.762 106.608 268.129 105.952 268.608 105.398C269.095 104.837 269.686 104.403 270.382 104.096C271.086 103.781 271.88 103.624 272.763 103.624C273.654 103.624 274.448 103.781 275.144 104.096C275.848 104.403 276.443 104.837 276.93 105.398C277.416 105.952 277.787 106.608 278.042 107.364C278.296 108.112 278.423 108.925 278.423 109.801V110.059C278.423 110.935 278.296 111.747 278.042 112.496C277.787 113.245 277.416 113.9 276.93 114.461C276.443 115.015 275.852 115.45 275.155 115.764C274.459 116.071 273.669 116.225 272.786 116.225C271.895 116.225 271.097 116.071 270.394 115.764C269.697 115.45 269.106 115.015 268.619 114.461C268.132 113.9 267.762 113.245 267.507 112.496C267.253 111.747 267.125 110.935 267.125 110.059ZM269.832 109.801V110.059C269.832 110.606 269.888 111.122 270 111.609C270.113 112.096 270.289 112.522 270.528 112.889C270.768 113.256 271.075 113.544 271.449 113.754C271.824 113.964 272.269 114.068 272.786 114.068C273.287 114.068 273.722 113.964 274.088 113.754C274.463 113.544 274.77 113.256 275.009 112.889C275.249 112.522 275.425 112.096 275.537 111.609C275.657 111.122 275.717 110.606 275.717 110.059V109.801C275.717 109.262 275.657 108.753 275.537 108.273C275.425 107.787 275.245 107.356 274.998 106.982C274.758 106.608 274.451 106.316 274.077 106.106C273.71 105.889 273.272 105.78 272.763 105.78C272.254 105.78 271.812 105.889 271.438 106.106C271.071 106.316 270.768 106.608 270.528 106.982C270.289 107.356 270.113 107.787 270 108.273C269.888 108.753 269.832 109.262 269.832 109.801ZM288.003 113.136V103.849H290.721V116H288.16L288.003 113.136ZM288.385 110.609L289.294 110.587C289.294 111.403 289.205 112.155 289.025 112.844C288.845 113.526 288.568 114.121 288.194 114.63C287.819 115.132 287.34 115.525 286.756 115.809C286.172 116.086 285.472 116.225 284.656 116.225C284.065 116.225 283.522 116.139 283.028 115.966C282.534 115.794 282.107 115.528 281.748 115.169C281.396 114.81 281.122 114.342 280.928 113.765C280.733 113.189 280.636 112.5 280.636 111.699V103.849H283.342V111.721C283.342 112.163 283.395 112.534 283.5 112.833C283.604 113.125 283.747 113.361 283.926 113.541C284.106 113.72 284.316 113.847 284.555 113.922C284.795 113.997 285.049 114.035 285.319 114.035C286.09 114.035 286.696 113.885 287.138 113.585C287.587 113.278 287.906 112.867 288.093 112.35C288.287 111.833 288.385 111.253 288.385 110.609ZM296.212 106.162V116H293.506V103.849H296.089L296.212 106.162ZM299.93 103.77L299.907 106.286C299.743 106.256 299.563 106.233 299.368 106.218C299.181 106.203 298.994 106.196 298.807 106.196C298.342 106.196 297.934 106.263 297.583 106.398C297.231 106.525 296.935 106.712 296.695 106.959C296.463 107.199 296.284 107.491 296.156 107.835C296.029 108.18 295.954 108.565 295.932 108.992L295.314 109.037C295.314 108.273 295.389 107.566 295.539 106.915C295.688 106.263 295.913 105.69 296.212 105.196C296.519 104.702 296.901 104.317 297.358 104.04C297.822 103.763 298.357 103.624 298.964 103.624C299.129 103.624 299.305 103.639 299.492 103.669C299.686 103.699 299.832 103.733 299.93 103.77ZM314.17 112.709C314.17 112.44 314.103 112.197 313.968 111.979C313.833 111.755 313.575 111.553 313.193 111.373C312.819 111.193 312.264 111.029 311.531 110.879C310.887 110.737 310.295 110.568 309.756 110.374C309.225 110.171 308.768 109.928 308.386 109.644C308.004 109.359 307.709 109.022 307.499 108.633C307.289 108.243 307.185 107.794 307.185 107.285C307.185 106.791 307.293 106.323 307.51 105.881C307.727 105.44 308.038 105.05 308.442 104.713C308.847 104.376 309.337 104.111 309.914 103.916C310.498 103.721 311.149 103.624 311.868 103.624C312.886 103.624 313.758 103.796 314.484 104.141C315.218 104.478 315.78 104.938 316.169 105.522C316.558 106.098 316.753 106.75 316.753 107.476H314.046C314.046 107.154 313.964 106.855 313.799 106.578C313.642 106.293 313.403 106.065 313.081 105.893C312.759 105.713 312.354 105.623 311.868 105.623C311.403 105.623 311.018 105.698 310.711 105.848C310.411 105.99 310.187 106.177 310.037 106.409C309.895 106.641 309.824 106.896 309.824 107.173C309.824 107.375 309.861 107.558 309.936 107.723C310.018 107.88 310.153 108.026 310.34 108.161C310.528 108.288 310.782 108.408 311.104 108.521C311.433 108.633 311.845 108.741 312.339 108.846C313.268 109.041 314.065 109.292 314.731 109.599C315.405 109.898 315.922 110.287 316.281 110.767C316.641 111.238 316.82 111.837 316.82 112.563C316.82 113.103 316.704 113.597 316.472 114.046C316.248 114.488 315.918 114.873 315.484 115.203C315.05 115.525 314.529 115.775 313.923 115.955C313.324 116.135 312.65 116.225 311.901 116.225C310.801 116.225 309.869 116.03 309.105 115.641C308.341 115.244 307.761 114.738 307.364 114.125C306.975 113.503 306.78 112.859 306.78 112.193H309.397C309.427 112.694 309.565 113.095 309.812 113.395C310.067 113.687 310.382 113.9 310.756 114.035C311.138 114.162 311.531 114.226 311.935 114.226C312.422 114.226 312.83 114.162 313.159 114.035C313.489 113.9 313.739 113.72 313.912 113.496C314.084 113.264 314.17 113.001 314.17 112.709ZM322.716 114.675L326.018 103.849H328.916L324.042 117.853C323.929 118.153 323.783 118.478 323.604 118.83C323.424 119.182 323.188 119.515 322.896 119.83C322.611 120.152 322.256 120.41 321.829 120.604C321.402 120.807 320.886 120.908 320.279 120.908C320.04 120.908 319.808 120.885 319.583 120.84C319.366 120.803 319.16 120.762 318.965 120.717L318.954 118.65C319.029 118.658 319.119 118.665 319.224 118.673C319.336 118.68 319.426 118.684 319.493 118.684C319.942 118.684 320.317 118.628 320.616 118.516C320.916 118.411 321.159 118.239 321.346 117.999C321.541 117.759 321.706 117.438 321.84 117.033L322.716 114.675ZM320.852 103.849L323.738 112.945L324.221 115.798L322.346 116.281L317.932 103.849H320.852ZM337.282 112.709C337.282 112.44 337.215 112.197 337.08 111.979C336.945 111.755 336.687 111.553 336.305 111.373C335.931 111.193 335.377 111.029 334.643 110.879C333.999 110.737 333.408 110.568 332.869 110.374C332.337 110.171 331.88 109.928 331.499 109.644C331.117 109.359 330.821 109.022 330.611 108.633C330.402 108.243 330.297 107.794 330.297 107.285C330.297 106.791 330.405 106.323 330.623 105.881C330.84 105.44 331.15 105.05 331.555 104.713C331.959 104.376 332.449 104.111 333.026 103.916C333.61 103.721 334.261 103.624 334.98 103.624C335.998 103.624 336.87 103.796 337.597 104.141C338.33 104.478 338.892 104.938 339.281 105.522C339.671 106.098 339.865 106.75 339.865 107.476H337.159C337.159 107.154 337.076 106.855 336.912 106.578C336.754 106.293 336.515 106.065 336.193 105.893C335.871 105.713 335.467 105.623 334.98 105.623C334.516 105.623 334.13 105.698 333.823 105.848C333.524 105.99 333.299 106.177 333.149 106.409C333.007 106.641 332.936 106.896 332.936 107.173C332.936 107.375 332.973 107.558 333.048 107.723C333.131 107.88 333.265 108.026 333.453 108.161C333.64 108.288 333.894 108.408 334.216 108.521C334.546 108.633 334.958 108.741 335.452 108.846C336.38 109.041 337.177 109.292 337.844 109.599C338.518 109.898 339.034 110.287 339.394 110.767C339.753 111.238 339.933 111.837 339.933 112.563C339.933 113.103 339.817 113.597 339.584 114.046C339.36 114.488 339.03 114.873 338.596 115.203C338.162 115.525 337.642 115.775 337.035 115.955C336.436 116.135 335.762 116.225 335.014 116.225C333.913 116.225 332.981 116.03 332.217 115.641C331.454 115.244 330.873 114.738 330.477 114.125C330.087 113.503 329.893 112.859 329.893 112.193H332.509C332.539 112.694 332.678 113.095 332.925 113.395C333.179 113.687 333.494 113.9 333.868 114.035C334.25 114.162 334.643 114.226 335.047 114.226C335.534 114.226 335.942 114.162 336.271 114.035C336.601 113.9 336.852 113.72 337.024 113.496C337.196 113.264 337.282 113.001 337.282 112.709ZM347.873 103.849V105.825H341.022V103.849H347.873ZM342.999 100.873H345.705V112.642C345.705 113.016 345.757 113.305 345.862 113.507C345.975 113.701 346.128 113.833 346.323 113.9C346.517 113.967 346.746 114.001 347.008 114.001C347.195 114.001 347.375 113.99 347.547 113.967C347.719 113.945 347.858 113.922 347.962 113.9L347.974 115.966C347.749 116.034 347.487 116.094 347.188 116.146C346.896 116.198 346.559 116.225 346.177 116.225C345.555 116.225 345.005 116.116 344.526 115.899C344.047 115.674 343.672 115.311 343.403 114.81C343.133 114.308 342.999 113.642 342.999 112.811V100.873ZM355.318 116.225C354.42 116.225 353.608 116.079 352.881 115.787C352.163 115.487 351.549 115.072 351.04 114.54C350.538 114.008 350.152 113.383 349.883 112.665C349.613 111.946 349.479 111.171 349.479 110.34V109.891C349.479 108.94 349.617 108.079 349.894 107.308C350.171 106.536 350.557 105.878 351.051 105.331C351.545 104.777 352.129 104.354 352.803 104.062C353.477 103.77 354.207 103.624 354.993 103.624C355.861 103.624 356.621 103.77 357.272 104.062C357.924 104.354 358.463 104.766 358.89 105.297C359.324 105.821 359.646 106.447 359.855 107.173C360.073 107.899 360.181 108.7 360.181 109.576V110.733H350.792V108.79H357.508V108.577C357.493 108.09 357.396 107.633 357.216 107.207C357.044 106.78 356.778 106.435 356.419 106.173C356.06 105.911 355.58 105.78 354.981 105.78C354.532 105.78 354.132 105.878 353.78 106.072C353.435 106.259 353.147 106.533 352.915 106.892C352.683 107.251 352.503 107.686 352.376 108.195C352.256 108.696 352.196 109.262 352.196 109.891V110.34C352.196 110.871 352.267 111.366 352.41 111.822C352.559 112.271 352.777 112.665 353.061 113.001C353.346 113.338 353.69 113.604 354.094 113.799C354.499 113.986 354.959 114.08 355.476 114.08C356.127 114.08 356.707 113.949 357.216 113.687C357.725 113.424 358.167 113.054 358.542 112.575L359.968 113.956C359.706 114.338 359.365 114.705 358.946 115.057C358.527 115.401 358.014 115.682 357.407 115.899C356.808 116.116 356.112 116.225 355.318 116.225ZM364.999 106.319V116H362.292V103.849H364.842L364.999 106.319ZM364.561 109.475L363.64 109.464C363.64 108.625 363.745 107.85 363.955 107.139C364.164 106.428 364.471 105.81 364.875 105.286C365.28 104.755 365.781 104.347 366.38 104.062C366.987 103.77 367.687 103.624 368.48 103.624C369.035 103.624 369.54 103.706 369.997 103.871C370.461 104.028 370.861 104.279 371.198 104.624C371.543 104.968 371.805 105.41 371.984 105.949C372.172 106.488 372.265 107.139 372.265 107.903V116H369.559V108.139C369.559 107.547 369.469 107.083 369.289 106.746C369.117 106.409 368.866 106.17 368.537 106.027C368.215 105.878 367.829 105.803 367.38 105.803C366.871 105.803 366.437 105.9 366.077 106.095C365.725 106.289 365.437 106.555 365.212 106.892C364.988 107.229 364.823 107.618 364.718 108.06C364.613 108.502 364.561 108.973 364.561 109.475ZM372.097 108.756L370.828 109.037C370.828 108.303 370.929 107.611 371.131 106.959C371.34 106.301 371.644 105.724 372.041 105.23C372.445 104.728 372.943 104.335 373.534 104.051C374.126 103.766 374.803 103.624 375.567 103.624C376.188 103.624 376.742 103.71 377.229 103.882C377.723 104.047 378.142 104.309 378.487 104.668C378.831 105.028 379.093 105.496 379.273 106.072C379.453 106.641 379.542 107.33 379.542 108.139V116H376.825V108.127C376.825 107.514 376.735 107.038 376.555 106.701C376.383 106.364 376.136 106.132 375.814 106.005C375.492 105.87 375.106 105.803 374.657 105.803C374.238 105.803 373.867 105.881 373.545 106.039C373.231 106.188 372.965 106.402 372.748 106.679C372.531 106.948 372.366 107.259 372.254 107.611C372.149 107.963 372.097 108.345 372.097 108.756ZM395.366 113.136V103.849H398.084V116H395.523L395.366 113.136ZM395.748 110.609L396.658 110.587C396.658 111.403 396.568 112.155 396.388 112.844C396.208 113.526 395.931 114.121 395.557 114.63C395.183 115.132 394.704 115.525 394.12 115.809C393.536 116.086 392.836 116.225 392.02 116.225C391.428 116.225 390.885 116.139 390.391 115.966C389.897 115.794 389.47 115.528 389.111 115.169C388.759 114.81 388.486 114.342 388.291 113.765C388.096 113.189 387.999 112.5 387.999 111.699V103.849H390.706V111.721C390.706 112.163 390.758 112.534 390.863 112.833C390.968 113.125 391.11 113.361 391.29 113.541C391.469 113.72 391.679 113.847 391.918 113.922C392.158 113.997 392.413 114.035 392.682 114.035C393.453 114.035 394.06 113.885 394.501 113.585C394.951 113.278 395.269 112.867 395.456 112.35C395.651 111.833 395.748 111.253 395.748 110.609ZM407.675 112.709C407.675 112.44 407.607 112.197 407.473 111.979C407.338 111.755 407.08 111.553 406.698 111.373C406.323 111.193 405.769 111.029 405.036 110.879C404.392 110.737 403.8 110.568 403.261 110.374C402.73 110.171 402.273 109.928 401.891 109.644C401.509 109.359 401.214 109.022 401.004 108.633C400.794 108.243 400.689 107.794 400.689 107.285C400.689 106.791 400.798 106.323 401.015 105.881C401.232 105.44 401.543 105.05 401.947 104.713C402.352 104.376 402.842 104.111 403.418 103.916C404.002 103.721 404.654 103.624 405.373 103.624C406.391 103.624 407.263 103.796 407.989 104.141C408.723 104.478 409.285 104.938 409.674 105.522C410.063 106.098 410.258 106.75 410.258 107.476H407.551C407.551 107.154 407.469 106.855 407.304 106.578C407.147 106.293 406.907 106.065 406.585 105.893C406.264 105.713 405.859 105.623 405.373 105.623C404.908 105.623 404.523 105.698 404.216 105.848C403.916 105.99 403.692 106.177 403.542 106.409C403.4 106.641 403.329 106.896 403.329 107.173C403.329 107.375 403.366 107.558 403.441 107.723C403.523 107.88 403.658 108.026 403.845 108.161C404.032 108.288 404.287 108.408 404.609 108.521C404.938 108.633 405.35 108.741 405.844 108.846C406.773 109.041 407.57 109.292 408.236 109.599C408.91 109.898 409.427 110.287 409.786 110.767C410.146 111.238 410.325 111.837 410.325 112.563C410.325 113.103 410.209 113.597 409.977 114.046C409.752 114.488 409.423 114.873 408.989 115.203C408.555 115.525 408.034 115.775 407.428 115.955C406.829 116.135 406.155 116.225 405.406 116.225C404.306 116.225 403.374 116.03 402.61 115.641C401.846 115.244 401.266 114.738 400.869 114.125C400.48 113.503 400.285 112.859 400.285 112.193H402.902C402.932 112.694 403.07 113.095 403.317 113.395C403.572 113.687 403.886 113.9 404.261 114.035C404.643 114.162 405.036 114.226 405.44 114.226C405.927 114.226 406.335 114.162 406.664 114.035C406.993 113.9 407.244 113.72 407.417 113.496C407.589 113.264 407.675 113.001 407.675 112.709ZM418.052 116.225C417.153 116.225 416.341 116.079 415.615 115.787C414.896 115.487 414.282 115.072 413.773 114.54C413.271 114.008 412.886 113.383 412.616 112.665C412.347 111.946 412.212 111.171 412.212 110.34V109.891C412.212 108.94 412.35 108.079 412.627 107.308C412.904 106.536 413.29 105.878 413.784 105.331C414.278 104.777 414.862 104.354 415.536 104.062C416.21 103.77 416.94 103.624 417.726 103.624C418.595 103.624 419.354 103.77 420.006 104.062C420.657 104.354 421.196 104.766 421.623 105.297C422.057 105.821 422.379 106.447 422.589 107.173C422.806 107.899 422.915 108.7 422.915 109.576V110.733H413.526V108.79H420.242V108.577C420.227 108.09 420.129 107.633 419.95 107.207C419.778 106.78 419.512 106.435 419.152 106.173C418.793 105.911 418.314 105.78 417.715 105.78C417.266 105.78 416.865 105.878 416.513 106.072C416.169 106.259 415.881 106.533 415.648 106.892C415.416 107.251 415.237 107.686 415.109 108.195C414.99 108.696 414.93 109.262 414.93 109.891V110.34C414.93 110.871 415.001 111.366 415.143 111.822C415.293 112.271 415.51 112.665 415.794 113.001C416.079 113.338 416.423 113.604 416.828 113.799C417.232 113.986 417.692 114.08 418.209 114.08C418.86 114.08 419.441 113.949 419.95 113.687C420.459 113.424 420.901 113.054 421.275 112.575L422.701 113.956C422.439 114.338 422.098 114.705 421.679 115.057C421.26 115.401 420.747 115.682 420.141 115.899C419.542 116.116 418.845 116.225 418.052 116.225ZM427.744 106.162V116H425.037V103.849H427.62L427.744 106.162ZM431.461 103.77L431.438 106.286C431.274 106.256 431.094 106.233 430.899 106.218C430.712 106.203 430.525 106.196 430.338 106.196C429.874 106.196 429.466 106.263 429.114 106.398C428.762 106.525 428.466 106.712 428.227 106.959C427.994 107.199 427.815 107.491 427.688 107.835C427.56 108.18 427.485 108.565 427.463 108.992L426.845 109.037C426.845 108.273 426.92 107.566 427.07 106.915C427.22 106.263 427.444 105.69 427.744 105.196C428.051 104.702 428.432 104.317 428.889 104.04C429.353 103.763 429.889 103.624 430.495 103.624C430.66 103.624 430.836 103.639 431.023 103.669C431.218 103.699 431.364 103.733 431.461 103.77ZM439.974 112.709C439.974 112.44 439.906 112.197 439.771 111.979C439.637 111.755 439.378 111.553 438.997 111.373C438.622 111.193 438.068 111.029 437.334 110.879C436.691 110.737 436.099 110.568 435.56 110.374C435.028 110.171 434.572 109.928 434.19 109.644C433.808 109.359 433.512 109.022 433.303 108.633C433.093 108.243 432.988 107.794 432.988 107.285C432.988 106.791 433.097 106.323 433.314 105.881C433.531 105.44 433.842 105.05 434.246 104.713C434.65 104.376 435.141 104.111 435.717 103.916C436.301 103.721 436.953 103.624 437.671 103.624C438.69 103.624 439.562 103.796 440.288 104.141C441.022 104.478 441.583 104.938 441.973 105.522C442.362 106.098 442.557 106.75 442.557 107.476H439.85C439.85 107.154 439.768 106.855 439.603 106.578C439.446 106.293 439.206 106.065 438.884 105.893C438.562 105.713 438.158 105.623 437.671 105.623C437.207 105.623 436.822 105.698 436.515 105.848C436.215 105.99 435.991 106.177 435.841 106.409C435.699 106.641 435.627 106.896 435.627 107.173C435.627 107.375 435.665 107.558 435.74 107.723C435.822 107.88 435.957 108.026 436.144 108.161C436.331 108.288 436.586 108.408 436.908 108.521C437.237 108.633 437.649 108.741 438.143 108.846C439.071 109.041 439.869 109.292 440.535 109.599C441.209 109.898 441.726 110.287 442.085 110.767C442.444 111.238 442.624 111.837 442.624 112.563C442.624 113.103 442.508 113.597 442.276 114.046C442.051 114.488 441.722 114.873 441.288 115.203C440.853 115.525 440.333 115.775 439.727 115.955C439.128 116.135 438.454 116.225 437.705 116.225C436.604 116.225 435.672 116.03 434.909 115.641C434.145 115.244 433.565 114.738 433.168 114.125C432.779 113.503 432.584 112.859 432.584 112.193H435.201C435.231 112.694 435.369 113.095 435.616 113.395C435.871 113.687 436.185 113.9 436.56 114.035C436.941 114.162 437.334 114.226 437.739 114.226C438.225 114.226 438.633 114.162 438.963 114.035C439.292 113.9 439.543 113.72 439.715 113.496C439.888 113.264 439.974 113.001 439.974 112.709Z" fill="white"/>
</g>
</g>
<defs>
<filter id="filter0_i_5_5156" x="-21" y="-303" width="2180" height="2144.61" filterUnits="userSpaceOnUse" color-interpolation-filters="sRGB">
<feFlood flood-opacity="0" result="BackgroundImageFix"/>
<feBlend mode="normal" in="SourceGraphic" in2="BackgroundImageFix" result="shape"/>
<feColorMatrix in="SourceAlpha" type="matrix" values="0 0 0 0 0 0 0 0 0 0 0 0 0 0 0 0 0 0 127 0" result="hardAlpha"/>
<feMorphology radius="24" operator="erode" in="SourceAlpha" result="effect1_innerShadow_5_5156"/>
<feOffset dx="24" dy="32"/>
<feGaussianBlur stdDeviation="92"/>
<feComposite in2="hardAlpha" operator="arithmetic" k2="-1" k3="1"/>
<feColorMatrix type="matrix" values="0 0 0 0 0.0235294 0 0 0 0 0.0313726 0 0 0 0 0.34902 0 0 0 0.75 0"/>
<feBlend mode="normal" in2="shape" result="effect1_innerShadow_5_5156"/>
</filter>
<filter id="filter1_i_5_5156" x="-21" y="-64.3818" width="1694.33" height="1667.38" filterUnits="userSpaceOnUse" color-interpolation-filters="sRGB">
<feFlood flood-opacity="0" result="BackgroundImageFix"/>
<feBlend mode="normal" in="SourceGraphic" in2="BackgroundImageFix" result="shape"/>
<feColorMatrix in="SourceAlpha" type="matrix" values="0 0 0 0 0 0 0 0 0 0 0 0 0 0 0 0 0 0 127 0" result="hardAlpha"/>
<feMorphology radius="24" operator="erode" in="SourceAlpha" result="effect1_innerShadow_5_5156"/>
<feOffset dx="24" dy="32"/>
<feGaussianBlur stdDeviation="92"/>
<feComposite in2="hardAlpha" operator="arithmetic" k2="-1" k3="1"/>
<feColorMatrix type="matrix" values="0 0 0 0 0.0235294 0 0 0 0 0.0313726 0 0 0 0 0.34902 0 0 0 0.75 0"/>
<feBlend mode="normal" in2="shape" result="effect1_innerShadow_5_5156"/>
</filter>
<filter id="filter2_i_5_5156" x="73.0015" y="136.877" width="1442.45" height="1421.53" filterUnits="userSpaceOnUse" color-interpolation-filters="sRGB">
<feFlood flood-opacity="0" result="BackgroundImageFix"/>
<feBlend mode="normal" in="SourceGraphic" in2="BackgroundImageFix" result="shape"/>
<feColorMatrix in="SourceAlpha" type="matrix" values="0 0 0 0 0 0 0 0 0 0 0 0 0 0 0 0 0 0 127 0" result="hardAlpha"/>
<feMorphology radius="24" operator="erode" in="SourceAlpha" result="effect1_innerShadow_5_5156"/>
<feOffset dx="24" dy="32"/>
<feGaussianBlur stdDeviation="92"/>
<feComposite in2="hardAlpha" operator="arithmetic" k2="-1" k3="1"/>
<feColorMatrix type="matrix" values="0 0 0 0 0.0235294 0 0 0 0 0.0313726 0 0 0 0 0.34902 0 0 0 0.75 0"/>
<feBlend mode="normal" in2="shape" result="effect1_innerShadow_5_5156"/>
</filter>
<radialGradient id="paint0_radial_5_5156" cx="0" cy="0" r="1" gradientUnits="userSpaceOnUse" gradientTransform="translate(831.5 118) rotate(90) scale(356.185 603.412)">
<stop stop-color="#FF8B00"/>
<stop offset="1" stop-color="#9D5600"/>
</radialGradient>
<clipPath id="clip0_5_5156">
<path d="M0 0H1663V220C1663 228.837 1655.84 236 1647 236H16C7.16341 236 0 228.837 0 220V0Z" fill="white"/>
</clipPath>
</defs>
</svg>
