<svg width="48" height="48" viewBox="0 0 48 48" fill="none" xmlns="http://www.w3.org/2000/svg">
<path fill-rule="evenodd" clip-rule="evenodd" d="M26.3092 6.72052C24.967 6.01999 23.1482 6.00918 21.7952 6.70791C16.6093 9.3862 11.9056 12.4571 7.78363 15.8631C7.14622 16.3898 6.69386 17.1552 6.70157 18.056C6.70926 18.9532 7.17083 19.7084 7.80437 20.2264C11.8921 23.5688 16.5997 26.6424 21.6907 29.2995C23.0329 30 24.8517 30.0108 26.2046 29.3121C31.3906 26.6338 36.0943 23.5629 40.2163 20.1569C40.8537 19.6302 41.306 18.8648 41.2983 17.9639C41.2906 17.0668 40.8291 16.3116 40.1955 15.7936C36.1078 12.4512 31.4002 9.3776 26.3092 6.72052ZM23.1719 9.37342C23.6512 9.12587 24.4386 9.12821 24.9212 9.38008C29.7798 11.9159 34.2566 14.8333 38.1351 17.9845C34.2335 21.1863 29.77 24.0943 24.828 26.6466C24.3487 26.8941 23.5613 26.8918 23.0787 26.6399C18.2201 24.1041 13.7433 21.1867 9.86481 18.0355C13.7664 14.8337 18.2299 11.9257 23.1719 9.37342Z" fill="#0D9D58"/>
<path d="M42.394 25.3961C42.8327 26.0988 42.6187 27.0241 41.916 27.4628L29.7015 35.0886C28.0441 36.1234 25.9876 36.6018 23.9998 36.602C22.0119 36.6021 19.9554 36.1239 18.2977 35.0893L6.21702 27.5498C5.51423 27.1112 5.30007 26.1859 5.73867 25.4831C6.17728 24.7803 7.10257 24.5662 7.80536 25.0048L19.886 32.5443C20.9743 33.2235 22.4527 33.602 23.9996 33.602C25.5465 33.6019 27.0247 33.2231 28.1128 32.5438L40.3272 24.918C41.03 24.4793 41.9553 24.6933 42.394 25.3961Z" fill="#0D9D58"/>
<path d="M42.3939 32.9053C42.8327 33.608 42.6188 34.5334 41.9162 34.9722L31.3383 41.5779C29.2231 42.8988 26.5771 43.5203 23.9997 43.5205C21.4223 43.5206 18.7762 42.8995 16.6606 41.5788L6.21686 35.0592C5.51413 34.6205 5.30008 33.6951 5.73877 32.9924C6.17746 32.2897 7.10277 32.0756 7.80551 32.5143L18.2492 39.034C19.7953 39.9991 21.8631 40.5206 23.9995 40.5205C26.1359 40.5204 28.2036 39.9986 29.7493 39.0333L40.3271 32.4276C41.0298 31.9888 41.9551 32.2027 42.3939 32.9053Z" fill="#0D9D58"/>
</svg>
