<svg width="44" height="40" viewBox="0 0 44 40" fill="none" xmlns="http://www.w3.org/2000/svg">
<path fill-rule="evenodd" clip-rule="evenodd" d="M21.3713 33.2816C21.6272 33.4352 21.9009 33.5031 22.1667 33.4998C22.4326 33.5031 22.7062 33.4352 22.9622 33.2816L25.2327 31.9193C29.6857 29.2475 35.1317 28.8111 39.9533 30.7398C41.732 31.4512 43.6667 30.1413 43.6667 28.2256V4.90788C43.6667 3.75198 42.963 2.71254 41.8898 2.28325C35.6796 -0.200822 28.6652 0.361223 22.9298 3.80246L22.1667 4.2603L21.4037 3.80246C15.6683 0.361223 8.65389 -0.200822 2.44371 2.28325C1.37049 2.71254 0.666748 3.75198 0.666748 4.90788V28.2256C0.666748 30.1413 2.60153 31.4512 4.38018 30.7398C9.20178 28.8111 14.6478 29.2475 19.1008 31.9193L21.3713 33.2816ZM3.66675 5.02553V27.7991C9.25832 25.703 15.5103 26.2664 20.6443 29.3468L20.6667 29.3603V6.85887L19.8602 6.37494C14.9622 3.43616 8.97942 2.93948 3.66675 5.02553ZM23.6892 29.3468L23.6667 29.3603V6.85887L24.4733 6.37494C29.3713 3.43616 35.3541 2.93948 40.6667 5.02553V27.7991C35.0752 25.703 28.8232 26.2664 23.6892 29.3468Z" fill="#EA4334"/>
<path d="M16.7171 34.0941C12.6694 31.7329 7.66414 31.7329 3.61643 34.0941L3.41094 34.2139C2.69536 34.6313 2.45366 35.5498 2.87108 36.2654C3.2885 36.981 4.20698 37.2227 4.92255 36.8053L5.12804 36.6854C8.24166 34.8691 12.0918 34.8691 15.2055 36.6854L17.38 37.9539C20.3379 39.6793 23.9956 39.6793 26.9535 37.9539L29.128 36.6854C32.2417 34.8691 36.0918 34.8691 39.2055 36.6854L39.4109 36.8053C40.1265 37.2227 41.045 36.981 41.4624 36.2654C41.8798 35.5498 41.6381 34.6313 40.9226 34.2139L40.7171 34.0941C36.6694 31.7329 31.6641 31.7329 27.6164 34.0941L25.4419 35.3625C23.4181 36.5431 20.9154 36.5431 18.8916 35.3625L16.7171 34.0941Z" fill="#EA4334"/>
</svg>
