<svg width="12" height="12" viewBox="0 0 12 12" fill="none" xmlns="http://www.w3.org/2000/svg">
<path d="M11.4213 1.99324C11.8119 1.60272 11.8119 0.96955 11.4213 0.579026C11.0308 0.188502 10.3976 0.188502 10.0071 0.579026L6.00018 4.58596L1.99325 0.579027C1.60273 0.188503 0.969563 0.188502 0.579038 0.579026C0.188514 0.969551 0.188514 1.60272 0.579038 1.99324L4.58597 6.00017L0.579026 10.0071C0.188502 10.3976 0.188502 11.0308 0.579026 11.4213C0.96955 11.8119 1.60272 11.8119 1.99324 11.4213L6.00018 7.41439L10.0071 11.4213C10.3977 11.8119 11.0308 11.8119 11.4213 11.4213C11.8119 11.0308 11.8119 10.3976 11.4213 10.0071L7.4144 6.00017L11.4213 1.99324Z" fill="#EA4334"/>
</svg>
