<svg width="34" height="38" viewBox="0 0 34 38" fill="none" xmlns="http://www.w3.org/2000/svg">
<path fill-rule="evenodd" clip-rule="evenodd" d="M0.833252 10C0.833252 4.75329 5.08655 0.5 10.3333 0.5H30.3333C32.2662 0.5 33.8333 2.067 33.8333 4V34C33.8333 35.933 32.2662 37.5 30.3333 37.5H8.33325C4.19112 37.5 0.833252 34.1421 0.833252 30V10ZM30.8333 4V22.5H8.33325C6.64484 22.5 5.08674 23.0579 3.83325 23.9995V10C3.83325 6.41015 6.7434 3.5 10.3333 3.5H16.7491C16.2225 7.46308 16.2698 11.4846 16.8921 15.44L17.0169 16.2331C17.1063 16.8012 17.5125 17.2681 18.0628 17.4353C18.613 17.6024 19.2103 17.4402 19.6005 17.0178L22.3333 14.0594L25.066 17.0178C25.4562 17.4402 26.0535 17.6024 26.6038 17.4353C27.154 17.2681 27.5602 16.8012 27.6496 16.2331L27.7744 15.44C28.3968 11.4846 28.4441 7.46308 27.9175 3.5H30.3333C30.6094 3.5 30.8333 3.72386 30.8333 4ZM24.889 3.5H19.7775C19.3432 6.52837 19.2708 9.59639 19.561 12.6393L20.8641 11.2286C21.656 10.3714 23.0105 10.3714 23.8024 11.2286L25.1055 12.6393C25.3957 9.59639 25.3233 6.52837 24.889 3.5ZM8.33325 25.5H30.8333V34C30.8333 34.2761 30.6094 34.5 30.3333 34.5H8.33325C5.84797 34.5 3.83325 32.4853 3.83325 30C3.83325 27.5147 5.84797 25.5 8.33325 25.5Z" fill="#4285F4"/>
</svg>