<svg width="30" height="30" viewBox="0 0 30 30" fill="none" xmlns="http://www.w3.org/2000/svg">
<path d="M15 1.5625C15.5178 1.5625 15.9375 1.98223 15.9375 2.5V3.75C15.9375 4.26777 15.5178 4.6875 15 4.6875C14.4822 4.6875 14.0625 4.26777 14.0625 3.75V2.5C14.0625 1.98223 14.4822 1.5625 15 1.5625Z" fill="#151515"/>
<path fill-rule="evenodd" clip-rule="evenodd" d="M7.8125 15C7.8125 11.0305 11.0305 7.8125 15 7.8125C18.9695 7.8125 22.1875 11.0305 22.1875 15C22.1875 18.9695 18.9695 22.1875 15 22.1875C11.0305 22.1875 7.8125 18.9695 7.8125 15ZM15 9.6875C12.066 9.6875 9.6875 12.066 9.6875 15C9.6875 17.934 12.066 20.3125 15 20.3125C17.934 20.3125 20.3125 17.934 20.3125 15C20.3125 12.066 17.934 9.6875 15 9.6875Z" fill="#151515"/>
<path d="M6.8241 5.49828C6.45798 5.13216 5.86439 5.13216 5.49827 5.49828C5.13215 5.8644 5.13215 6.45799 5.49827 6.82411L6.38215 7.70799C6.74827 8.07411 7.34186 8.07411 7.70798 7.70799C8.0741 7.34187 8.0741 6.74828 7.70798 6.38216L6.8241 5.49828Z" fill="#151515"/>
<path d="M28.4375 15C28.4375 15.5178 28.0178 15.9375 27.5 15.9375H26.25C25.7322 15.9375 25.3125 15.5178 25.3125 15C25.3125 14.4822 25.7322 14.0625 26.25 14.0625H27.5C28.0178 14.0625 28.4375 14.4822 28.4375 15Z" fill="#151515"/>
<path d="M24.5017 6.8241C24.8678 6.45798 24.8678 5.86439 24.5017 5.49827C24.1356 5.13215 23.542 5.13215 23.1759 5.49827L22.292 6.38215C21.9259 6.74827 21.9259 7.34186 22.292 7.70798C22.6581 8.0741 23.2517 8.0741 23.6178 7.70798L24.5017 6.8241Z" fill="#151515"/>
<path d="M15 25.3125C15.5178 25.3125 15.9375 25.7322 15.9375 26.25V27.5C15.9375 28.0178 15.5178 28.4375 15 28.4375C14.4822 28.4375 14.0625 28.0178 14.0625 27.5V26.25C14.0625 25.7322 14.4822 25.3125 15 25.3125Z" fill="#151515"/>
<path d="M23.6179 22.292C23.2518 21.9259 22.6582 21.9259 22.2921 22.292C21.926 22.6581 21.926 23.2517 22.2921 23.6179L23.176 24.5017C23.5421 24.8679 24.1357 24.8679 24.5018 24.5017C24.8679 24.1356 24.8679 23.542 24.5018 23.1759L23.6179 22.292Z" fill="#151515"/>
<path d="M4.6875 15C4.6875 15.5178 4.26777 15.9375 3.75 15.9375H2.5C1.98223 15.9375 1.5625 15.5178 1.5625 15C1.5625 14.4822 1.98223 14.0625 2.5 14.0625H3.75C4.26777 14.0625 4.6875 14.4822 4.6875 15Z" fill="#151515"/>
<path d="M7.7079 23.6178C8.07401 23.2517 8.07401 22.6581 7.7079 22.292C7.34178 21.9259 6.74819 21.9259 6.38207 22.292L5.49819 23.1759C5.13207 23.542 5.13207 24.1356 5.49819 24.5017C5.8643 24.8678 6.4579 24.8678 6.82401 24.5017L7.7079 23.6178Z" fill="#151515"/>
</svg>
