<svg width="15" height="16" viewBox="0 0 15 16" fill="none" xmlns="http://www.w3.org/2000/svg">
<path fill-rule="evenodd" clip-rule="evenodd" d="M9.32083 10.8712C7.11228 12.6401 3.87941 12.5009 1.83209 10.4536C-0.364604 8.25685 -0.364604 4.6953 1.83209 2.4986C4.02879 0.301899 7.59035 0.3019 9.78705 2.4986C11.8344 4.54592 11.9736 7.77877 10.2047 9.98733L14.5011 14.2837C14.7452 14.5278 14.7452 14.9235 14.5011 15.1676C14.257 15.4117 13.8613 15.4117 13.6172 15.1676L9.32083 10.8712ZM2.71598 9.56967C1.00743 7.86112 1.00743 5.09103 2.71598 3.38248C4.42452 1.67394 7.19462 1.67394 8.90316 3.38248C10.6105 5.08977 10.6117 7.85706 8.90692 9.5659C8.90566 9.56714 8.9044 9.56839 8.90315 9.56965C8.90189 9.5709 8.90065 9.57216 8.8994 9.57342C7.19056 11.2782 4.42327 11.277 2.71598 9.56967Z" fill="white"/>
</svg>
