<svg width="20" height="22" viewBox="0 0 20 22" fill="none" xmlns="http://www.w3.org/2000/svg">
<path fill-rule="evenodd" clip-rule="evenodd" d="M4.6875 5.375C4.6875 2.44099 7.06599 0.0625 10 0.0625C12.934 0.0625 15.3125 2.44099 15.3125 5.375C15.3125 8.30901 12.934 10.6875 10 10.6875C7.06599 10.6875 4.6875 8.30901 4.6875 5.375ZM10 1.9375C8.10152 1.9375 6.5625 3.47652 6.5625 5.375C6.5625 7.27348 8.10152 8.8125 10 8.8125C11.8985 8.8125 13.4375 7.27348 13.4375 5.375C13.4375 3.47652 11.8985 1.9375 10 1.9375Z" fill="#151515"/>
<path fill-rule="evenodd" clip-rule="evenodd" d="M5 14.4375C3.4467 14.4375 2.1875 15.6967 2.1875 17.25V18.7354C2.1875 18.758 2.20389 18.7773 2.22621 18.7809C7.37466 19.6215 12.6253 19.6215 17.7738 18.7809C17.7961 18.7773 17.8125 18.758 17.8125 18.7354V17.25C17.8125 15.6967 16.5533 14.4375 15 14.4375H14.5739C14.541 14.4375 14.5082 14.4427 14.4769 14.4529L13.395 14.8062C11.189 15.5265 8.81101 15.5265 6.60498 14.8062L5.52309 14.4529C5.49177 14.4427 5.45903 14.4375 5.42609 14.4375H5ZM0.3125 17.25C0.3125 14.6612 2.41116 12.5625 5 12.5625H5.42609C5.6567 12.5625 5.88587 12.599 6.10509 12.6706L7.18698 13.0238C9.01484 13.6207 10.9852 13.6207 12.813 13.0238L13.8949 12.6706C14.1141 12.599 14.3433 12.5625 14.5739 12.5625H15C17.5888 12.5625 19.6875 14.6612 19.6875 17.25V18.7354C19.6875 19.6769 19.0051 20.4797 18.0759 20.6314C12.7274 21.5046 7.27262 21.5046 1.92409 20.6314C0.994855 20.4797 0.3125 19.6769 0.3125 18.7354V17.25Z" fill="#151515"/>
</svg>
